<?xml version="1.0" standalone="no"?>
<!DOCTYPE svg PUBLIC "-//W3C//DTD SVG 1.1//EN" "http://www.w3.org/Graphics/SVG/1.1/DTD/svg11.dtd" >
<svg xmlns="http://www.w3.org/2000/svg">
<metadata></metadata>
<defs>
<font id="itc_mendoza_romanmedium" horiz-adv-x="1251" >
<font-face units-per-em="2048" ascent="1838" descent="-410" />
<missing-glyph horiz-adv-x="587" />
<glyph horiz-adv-x="2048" />
<glyph horiz-adv-x="2048" />
<glyph unicode="&#xd;" horiz-adv-x="2048" />
<glyph unicode=" "  horiz-adv-x="587" />
<glyph unicode="&#x09;" horiz-adv-x="587" />
<glyph unicode="&#xa0;" horiz-adv-x="587" />
<glyph unicode="!" horiz-adv-x="833" d="M258 129q0 68 48 112t106 44q75 0 119 -45.5t44 -112.5q0 -65 -46 -110.5t-113 -45.5q-69 0 -113.5 46t-44.5 112zM291 999v416q0 16 2.5 24.5t14 19.5t41.5 15.5t79 4.5q58 0 85.5 -9.5t33.5 -23.5t6 -45v-422q0 -131 -6.5 -183t-38.5 -184q-20 -77 -45 -229 q-2 -14 -8 -20.5t-11 -7.5t-16 -1q-34 0 -41.5 10.5t-13.5 61.5q-7 71 -47 244q-17 70 -25 129t-9 94.5t-1 105.5z" />
<glyph unicode="&#x22;" d="M319 1384q-3 57 23 75t104 18q30 0 46 -2t33.5 -10.5t23.5 -28t4 -52.5l-6 -90q-4 -58 -58 -311q-10 -47 -18.5 -62.5t-30.5 -15.5q-23 0 -31.5 7.5t-15.5 37.5q-28 123 -38 167.5t-18.5 93.5t-10.5 83zM698 1384q-3 57 23 75t106 18q61 0 85 -16t20 -77l-6 -90 q0 -7 -0.5 -14t-1.5 -13t-2.5 -16t-2.5 -17t-4 -22.5t-5.5 -26.5t-7.5 -34t-8.5 -40.5t-10.5 -51.5t-13 -60q-12 -65 -19 -79.5t-30 -14.5q-24 0 -33 7.5t-16 37.5q-44 196 -54 247t-13 97z" />
<glyph unicode="#" horiz-adv-x="1452" d="M86 317l10 29l35 103q19 51 29 64t39 13q7 0 47 -2t47 -2q30 0 41.5 10.5t23.5 47.5l50 143q10 20 10 41q0 15 -13 21t-49 6q-84 0 -129 -9q-4 0 -24 -2t-23 -2q-26 0 -26 21q0 4 2 11t4.5 15t3.5 11l39 106q16 41 23.5 50t29.5 9q8 0 85.5 -5t119.5 -5q30 0 40 12t29 62 l123 336q18 44 24 48q4 3 13 3q14 0 49 -13t35 -30q0 -8 -10 -35l-111 -309q-12 -36 -12 -51q0 -14 12 -17.5t37 -3.5h260q48 0 63 8.5t29 49.5l125 350q8 22 14 33t9.5 12.5t9.5 1.5q20 0 68 -16q18 -7 18 -23q0 -19 -12 -47l-107 -297q-14 -33 -14 -55q0 -17 39 -17 q14 0 76 4l63 4q23 0 23 -16q0 -3 -11 -35l-38 -102q-10 -23 -13.5 -31.5t-11.5 -18t-18 -12t-27 -2.5q-8 0 -53 2t-52 2q-42 0 -52.5 -8t-24.5 -49l-56 -151q-12 -29 -12 -39q0 -19 43 -19q48 0 102 6q99 11 119 11q25 0 25 -19q0 -9 -8 -33l-45 -133q-12 -36 -22.5 -44.5 t-41.5 -8.5q-15 0 -95 3t-95 3q-50 0 -61 -7t-25 -46l-86 -231l-15 -43q-10 -13 -22 -13q-9 0 -37 7.5t-35 11.5q-16 6 -16 22q0 8 10 35l72 197q14 35 14 49q0 13 -11 15.5t-65 2.5h-246q-50 -2 -62 -9t-24 -44l-82 -231q-6 -19 -9.5 -27.5t-10 -15.5t-16.5 -7 q-20 0 -50 10t-30 29q0 8 8 31l65 188q19 53 19 60q0 16 -29 16q-9 0 -59.5 -4t-52.5 -4q-25 0 -25 18zM475 541q0 -21 51 -21h277q35 0 44.5 8.5t24.5 51.5l54 151q8 23 8 37t-9.5 17t-43.5 3h-258q-47 0 -61.5 -8.5t-29.5 -48.5l-45 -137q-12 -42 -12 -53z" />
<glyph unicode="$" d="M190 70l15 204q2 15 8 21t25 6h51q22 0 29 -11t20 -61q17 -70 90 -106q62 -27 90 -27q29 0 29 27v479q0 21 -11.5 33t-70.5 49q-138 90 -198 184.5t-60 200.5q0 133 85 236t228 141q54 15 59 21q5 5 5 18v86q0 5 0.5 8t6 7.5t15.5 4.5h60q16 0 20 -5t4 -17v-76 q0 -19 10.5 -23t57.5 -6q89 -2 207 -32q28 -7 41 -18.5t14 -20t0 -23.5l-16 -176q-1 -11 -2.5 -16.5t-7.5 -10t-17 -4.5h-55q-20 0 -26 10.5t-17 59.5q-8 36 -42.5 60.5t-66 33t-53.5 8.5q-12 0 -18.5 -4.5t-7.5 -8.5t-1 -11v-447q0 -16 11.5 -27.5t66.5 -43.5 q130 -77 211.5 -189.5t81.5 -243.5q0 -75 -31.5 -142t-82.5 -113t-108 -76.5t-114 -44.5q-53 -12 -62.5 -17.5t-9.5 -25.5v-99q0 -24 -22 -24h-62q-14 0 -18 5t-4 23v91q0 17 -8.5 21t-45.5 8q-6 1 -10 1q-182 16 -260 49q-40 17 -33 54zM428 1139q0 -36 14 -71t34 -60 t41 -44.5t36 -29.5t18 -10q13 0 13 18v352q0 25 -15 25q-12 0 -34 -12t-46.5 -33t-42.5 -57.5t-18 -77.5zM653 129q0 -25 17 -25q4 0 20.5 5.5t42.5 20.5t50 36t41.5 57.5t17.5 79.5q0 33 -8.5 62.5t-26.5 54t-30.5 38.5t-33.5 34q-65 57 -77 57q-13 0 -13 -21v-399z" />
<glyph unicode="%" horiz-adv-x="1781" d="M72 1008q0 203 101.5 330.5t244.5 127.5q42 0 72.5 -3.5t70.5 -15t77 -39t69 -69.5q77 -103 77 -286q0 -87 -21.5 -167t-64.5 -147.5t-116.5 -108t-167.5 -40.5q-65 0 -124 24t-109 72t-79.5 131t-29.5 191zM260 1038q0 -50 9 -104.5t27.5 -109t54 -89.5t81.5 -35 q69 0 117.5 84.5t48.5 229.5q0 16 -0.5 31t-4 52t-9.5 67.5t-19 68t-31 63t-47 43t-65 17.5q-72 0 -117 -89.5t-45 -228.5zM489 -6q0 10 27 61q101 204 324 705t256 602q12 38 22 55t17.5 20.5t23.5 4.5l96 8q37 5 37 -12q0 -5 -16.5 -40.5t-41.5 -86t-26 -51.5 q-128 -270 -296.5 -644t-239.5 -569q-13 -38 -21.5 -45t-44.5 -12l-78 -10q-17 -3 -28 -0.5t-11 14.5zM997 389q0 203 101.5 331t244.5 128q42 0 72.5 -3.5t70.5 -15t77 -39t69 -69.5q78 -104 78 -287q0 -87 -22 -167t-65 -147.5t-116.5 -108t-167.5 -40.5q-65 0 -124 24 t-109 72t-79.5 131t-29.5 191zM1186 420q0 -50 9 -104.5t27.5 -109t54 -89.5t81.5 -35q69 0 117.5 84t48.5 229q0 16 -0.5 31t-4 52t-9.5 67.5t-19 68t-31 63t-47 43t-65 17.5q-72 0 -117 -89t-45 -228z" />
<glyph unicode="&#x26;" horiz-adv-x="1744" d="M135 383q0 53 13 103t31.5 88t49.5 76.5t55.5 63t62.5 53.5t57 42t51 33l3 2q4 3 7 6t5.5 7t2.5 7t-11.5 19.5t-24.5 35t-15 23.5q-55 93 -55 195q0 150 117 239.5t294 89.5q140 0 232 -54.5t92 -156.5q0 -52 -27 -100t-65.5 -80.5t-79.5 -57.5t-69.5 -36.5t-35.5 -11.5 q-13 0 -31 19.5t-18 27.5q0 2 0.5 4t3.5 5l6 6t10.5 10t14.5 14t18 21t26 48.5t15 67.5q0 70 -43 113t-102 43q-58 0 -100.5 -42.5t-42.5 -99.5q0 -62 41 -122.5t178 -215.5l286 -325q54 -62 66 -62q24 0 67.5 112t43.5 183q0 43 -14 68.5t-29 33t-43 15.5 q-35 10 -44.5 17.5t-9.5 23.5v37q0 19 8 24.5t25 5.5q11 0 94 -3t111 -3q96 0 165.5 3t74.5 3q20 0 26 -6t6 -24v-37q0 -17 -5.5 -23.5t-20.5 -11.5q-72 -21 -92 -37t-50 -80q-106 -218 -206 -366q-11 -17 -11 -27q0 -12 12 -25t64 -57q64 -55 95.5 -79t80.5 -44t103 -20 q5 0 31 3t30 3q23 0 23 -66q0 -27 -115 -80t-182 -53q-54 0 -100.5 29.5t-151.5 128.5q-51 47 -60 47q-7 0 -53 -37q-26 -23 -44.5 -37.5t-62.5 -42t-86 -44.5t-104 -30.5t-127 -13.5q-126 0 -232 50t-170.5 145.5t-64.5 216.5zM383 516q0 -146 113 -262q64 -64 119.5 -86.5 t113.5 -22.5q43 0 84.5 11t71.5 26.5t53.5 33t35 31t11.5 19.5q0 9 -74 92q-100 103 -270 304q-61 72 -78 89t-28 17q-4 0 -20 -10.5t-38.5 -33t-43.5 -51t-35.5 -71t-14.5 -86.5z" />
<glyph unicode="'" horiz-adv-x="833" d="M301 1384q-4 57 22 75t105 18q30 0 46 -2t33 -10.5t23 -28t5 -52.5l-7 -90q-3 -39 -10.5 -78.5t-48.5 -232.5q-10 -48 -17.5 -63t-29.5 -15q-23 0 -32 8t-15 37q-5 20 -13 55t-11.5 50t-9.5 42.5t-8.5 39.5t-7 32.5t-6 30.5t-4.5 25.5t-4 25.5t-2 21.5t-2 21.5z" />
<glyph unicode="(" horiz-adv-x="948" d="M176 559q0 99 17.5 194t43 169.5t66 148.5t75.5 125t82 105t75.5 82t66.5 63q20 20 79 65t75 45q8 0 18 -10q25 -27 25 -33q0 -7 -4.5 -13t-26.5 -32q-31 -35 -66 -85.5t-81.5 -139.5t-82 -188t-60.5 -234t-25 -274q0 -505 315 -897q27 -34 27 -43q0 -8 -17 -25.5 t-28 -17.5q-28 0 -123 82q-87 72 -162 160t-143 202t-107 256.5t-39 294.5z" />
<glyph unicode=")" horiz-adv-x="948" d="M150 -391q0 8 4.5 14.5t25.5 30.5q31 35 66.5 85.5t81.5 139.5t82 188t61 234t25 274q0 505 -316 898q-26 33 -26 43q0 8 17 25.5t28 17.5q28 0 123 -82q68 -57 129.5 -122.5t121.5 -154t103 -183.5t69.5 -213t26.5 -241q0 -99 -17.5 -194t-43 -169.5t-66 -148.5 t-75.5 -125t-82 -105t-75.5 -82t-66.5 -63q-20 -20 -78.5 -65t-74.5 -45q-9 0 -19 10q-24 26 -24 33z" />
<glyph unicode="*" d="M221 1171q0 37 41 142q14 34 25 47.5t28 13.5q11 0 29 -5t51 -26t64 -55q38 -42 54 -54.5t36 -12.5q26 0 26 30q0 17 -4.5 27.5t-23.5 38.5q-23 33 -36.5 75.5t-16 62.5t-2.5 30q0 12 2.5 18.5t14 15t41 12t77.5 3.5q88 0 105.5 -6t17.5 -43q0 -1 0.5 -7t0.5 -13 t-0.5 -18t-3.5 -24t-7.5 -28.5t-13 -34t-19.5 -37.5q-22 -36 -27.5 -49t-5.5 -29q0 -26 20 -26q15 0 34 16t91 86q17 17 56 36t53 19q28 0 65 -91t37 -124q0 -25 -43.5 -36t-83.5 -11q-10 0 -67 6t-66 6q-51 0 -51 -24q0 -20 23 -35t98 -49q42 -21 73 -57t31 -58 q0 -25 -82 -82t-106 -57q-21 0 -52 52.5t-34 84.5q-7 59 -15 90.5t-14.5 39t-17.5 7.5q-17 0 -25 -21.5t-23 -107.5q-10 -47 -34.5 -94t-44.5 -47q-27 0 -111 55.5t-84 83.5q0 21 32.5 55.5t53.5 45.5q86 43 100 53q16 10 25.5 24t9.5 23q0 22 -41 22q-12 0 -69.5 -8 t-65.5 -8q-125 0 -125 57z" />
<glyph unicode="+" d="M96 606v113q0 20 3.5 25.5t21.5 5.5h399q12 0 15.5 3.5t3.5 16.5v412q0 12 1 15.5t7 6t22 2.5h113q21 0 26 -3t5 -21v-412q0 -8 1 -11.5t5 -6t14 -2.5h397q16 0 20.5 -4.5t4.5 -26.5v-109q0 -12 -1 -17.5t-6.5 -10t-17.5 -4.5h-397q-13 0 -16.5 -3.5t-3.5 -17.5v-412 q0 -16 -4.5 -20t-26.5 -4h-113q-20 0 -25 3t-5 21v412q0 13 -3 17t-16 4h-399q-12 0 -16 1t-6.5 7t-2.5 20z" />
<glyph unicode="," horiz-adv-x="606" d="M119 -309q0 3 13.5 25.5t29 49t18.5 33.5q39 85 39 121t-37 92q-37 59 -37 101q0 70 49 110.5t97 40.5q75 0 120.5 -52t45.5 -128q0 -124 -97 -256q-31 -41 -94.5 -105.5t-77.5 -64.5q-19 0 -55 18q-14 7 -14 15z" />
<glyph unicode="-" horiz-adv-x="833" d="M92 459l31 129q8 33 13.5 41t25.5 8l74 -2q23 0 143.5 -3t140.5 -3q10 0 166 6l39 2q18 0 18 -19q0 -14 -4 -30l-24 -109q-8 -38 -14.5 -46.5t-32.5 -8.5q-22 0 -137 3t-134 3q-99 0 -166 -2.5t-93 -5.5l-27 -2q-25 0 -19 39z" />
<glyph unicode="." horiz-adv-x="606" d="M141 129q0 68 48 112t106 44q76 0 121 -45.5t45 -112.5q0 -65 -46.5 -110.5t-115.5 -45.5q-68 0 -113 46t-45 112z" />
<glyph unicode="/" horiz-adv-x="1099" d="M70 -98q0 4 8 21t22.5 45t20.5 40q223 434 530 1104q163 353 170 379q8 23 19 31t43 8h116q31 0 31 -14q0 -4 -51 -103q-146 -284 -343 -694t-300 -651q-70 -161 -72 -164q-12 -15 -61 -15h-88q-31 0 -38 2t-7 11z" />
<glyph unicode="0" d="M68 696q0 120 21.5 232t68 211t112.5 172.5t161.5 116t209.5 42.5q263 0 403 -191t140 -536q0 -184 -44.5 -333t-122.5 -246t-183.5 -149t-229.5 -52q-34 0 -72 5.5t-94 21.5t-112.5 54t-100.5 93q-76 98 -116.5 245t-40.5 314zM336 805q0 -184 27 -325.5t71.5 -222.5 t96.5 -121t108 -40q48 0 101.5 31t93.5 102q81 136 81 418q0 320 -83.5 503t-215.5 183q-72 0 -128 -46t-88 -123.5t-48 -168t-16 -190.5z" />
<glyph unicode="1" d="M168 1133q0 10 9 18.5t40 26.5q10 5 65.5 39t145.5 92.5t170 113.5q44 31 54 37t18 6q1 0 153 -26q25 -5 32 -10t7 -19q0 -3 -3 -49t-3 -55q-4 -86 -6 -346v-357q2 -297 3.5 -365.5t8.5 -82.5q17 -33 111 -43q41 -4 60.5 -11t22.5 -13t3 -19v-50q0 -11 -1 -16t-9.5 -10.5 t-24.5 -5.5q-12 0 -42.5 3t-97.5 6t-167 3q-117 0 -189 -3t-98.5 -6t-32.5 -3q-14 0 -21.5 6.5t-8 11.5t-0.5 14v50q0 24 14.5 30t93.5 15q75 9 92.5 28t18.5 101q4 98 4 313v283l-2 301q0 41 -19 41q-4 0 -11 -2.5t-20.5 -8t-27.5 -10.5l-262 -102q-23 -10 -35 -10 q-13 0 -23 20l-20 49q-2 6 -2 15z" />
<glyph unicode="2" d="M74 117q0 18 67 76q151 132 298.5 288t219.5 262q111 163 111 287q0 34 -9 65t-30.5 63t-66 51.5t-107.5 19.5q-111 0 -233 -62q-5 -3 -26.5 -15.5t-39 -23t-18.5 -10.5q-9 0 -12 7t-3 26l-10 152q-1 16 0.5 26t19 28t52.5 36q138 69 317 69q216 0 330 -98 q110 -100 110 -262q0 -32 -2.5 -59.5t-13.5 -59.5t-19 -55t-33.5 -60.5t-43 -62t-61 -73.5t-73 -80.5t-94.5 -97.5t-109.5 -110.5t-133.5 -132.5q-64 -64 -64 -71q0 -11 45 -11h295h77t52.5 3.5t40.5 7t27.5 15t27 24t27.5 36.5q12 19 17.5 23t17.5 4h59q20 0 25 -9.5 t2 -31.5l-43 -278q-3 -23 -9 -30t-26 -7q-11 0 -64.5 5.5t-168 11t-273.5 5.5q-110 0 -200 -5.5t-140 -11t-61 -5.5t-17 5t-7.5 8.5t-4.5 14.5l-18 82q-4 12 -4 21z" />
<glyph unicode="3" d="M168 90l22 141q0 9 6 22t15 13q6 0 21.5 -9.5t35.5 -23t29 -18.5q34 -20 93.5 -39.5t117.5 -19.5q119 0 204 73t85 177q0 114 -101 177.5t-268 63.5q-9 0 -58 -2t-57 -2q-16 0 -23 6t-7 25q0 23 8 83.5t20 69.5q11 11 62 11q71 1 136.5 15t122.5 41.5t91.5 76t34.5 110.5 q0 79 -57.5 132t-159.5 53q-97 0 -211 -56l-27.5 -16.5t-42 -25t-24.5 -11.5q-17 0 -17 37v129q0 21 1.5 30.5t10 20.5t27.5 21q129 69 346 69q199 0 311 -90q54 -45 85.5 -108.5t31.5 -132.5q0 -27 -5.5 -56.5t-25 -74t-51.5 -83t-92.5 -77t-140.5 -62.5q-5 -2 -28 -7.5 t-42.5 -10.5t-21.5 -6q-2 0 -5.5 -3.5t-3.5 -7.5q0 -8 8.5 -10.5t41.5 -3.5q55 -4 108 -16t108.5 -38t96.5 -62.5t67.5 -93t26.5 -126.5q0 -88 -38 -166t-107.5 -137.5t-177 -94t-238.5 -34.5q-107 0 -205 26.5t-121 49.5q-22 17 -18 51z" />
<glyph unicode="4" d="M63 584q0 21 143 224t341 468l117 154q31 45 49 45q16 0 176 -39q23 -6 32 -14t7 -19l-10 -109q-11 -118 -11 -557q0 -68 2 -86t11 -28q11 -11 75 -11q16 0 90 8l74 7q17 0 17 -15q0 -6 -5 -16l-41 -127q-8 -23 -16 -30t-33 -7q-5 0 -62.5 4t-70.5 4q-19 0 -27.5 -9.5 t-10 -23.5t-1.5 -49q0 -194 17 -219q10 -13 24 -19t66 -20q25 -6 31 -11t6 -21v-50q0 -17 -7 -22.5t-26 -5.5q-1 0 -76 5t-182 5q-81 0 -131 -2.5t-67.5 -5t-20.5 -2.5q-17 0 -23 7t-6 21v50q0 18 9 24t53 19q13 4 20 6q33 8 45.5 21.5t13.5 51.5v199q0 37 -12.5 44t-71.5 7 q-47 0 -156.5 -3t-133.5 -3q-11 0 -79.5 -5t-72.5 -5q-18 0 -27 27l-34 116q0 2 -2.5 8.5t-2.5 8.5zM238 627q0 -15 47 -15h321q52 0 60 6q6 4 7 12.5t1 43.5v545q0 16 -8 16q-1 0 -48 -59q-32 -44 -83.5 -115t-124 -172.5t-122.5 -176.5t-50 -85z" />
<glyph unicode="5" d="M184 45q0 30 17 117q8 37 28 37q12 0 97 -31q105 -37 172 -37q55 0 100 15.5t72.5 38t48.5 55t30.5 59.5t15 57.5t6.5 43.5t1 24q0 126 -84 217.5t-225 91.5q-28 0 -63.5 -6.5t-47.5 -11.5q-7 -2 -20.5 -7t-22.5 -8.5t-12 -3.5q-10 0 -34.5 26.5t-24.5 37.5q0 7 6 89.5 t6 96.5q2 59 2 297q0 14 -3 87t-3 85q0 9 0.5 13.5t8 10t21.5 5.5q8 0 40 -3.5t109.5 -7t195.5 -3.5q145 0 292 14q12 1 26.5 2.5t24 2.5t11.5 1q14 0 14 -14q0 -4 -12.5 -77t-15.5 -87q-7 -50 -21.5 -74t-54.5 -24q-97 0 -213 8l-133 4l-78 -2q-25 0 -40 -4.5t-21.5 -16 t-7.5 -21t-1 -30.5v-209q0 -22 1 -30.5t6.5 -14.5t17.5 -6q13 0 63 10q81 15 164 15q107 0 188.5 -27.5t129.5 -75.5t72 -106t24 -125q0 -148 -105 -283.5t-268.5 -216t-331.5 -80.5q-49 0 -82 5t-50 11.5t-25.5 19.5t-9.5 21.5t-1 24.5z" />
<glyph unicode="6" d="M129 469q0 95 26.5 200.5t93.5 232t167 233.5q74 79 149 141t122.5 94t133.5 84q49 27 66 27q15 0 84 -23q30 -12 30 -20t-32 -37q-86 -77 -163.5 -159t-129.5 -147.5t-91 -121.5t-57 -89.5t-18 -43.5q0 -15 14 -15q4 0 42 15.5t44 17.5q5 1 40 12.5t58.5 16t49.5 4.5 q65 0 130.5 -27.5t121.5 -78t90.5 -131.5t34.5 -179q0 -96 -34.5 -186.5t-97.5 -163.5t-161.5 -117.5t-216.5 -44.5q-115 0 -210.5 42.5t-157 114t-95 161.5t-33.5 188zM397 440q0 -141 66.5 -246.5t175.5 -105.5q103 0 164 94.5t61 225.5q0 38 -6 78t-23.5 88t-44 84.5 t-73 61.5t-105.5 25q-99 0 -157 -81.5t-58 -223.5z" />
<glyph unicode="7" d="M174 -6q0 21 47 117t138.5 246t191.5 282q302 398 379 508q26 36 26 47q0 10 -16 10h-420q-82 0 -109 -5.5t-38 -31.5q-23 -52 -32.5 -62.5t-25.5 -10.5h-53q-16 0 -23.5 6t-9 13t-2.5 26l-8 264q-2 24 6 33.5t35 9.5q15 0 73 -5t174.5 -10.5t274.5 -5.5q106 0 182.5 5.5 t111 10.5t38.5 5q12 0 19 -5t9 -10.5t5 -15.5q4 -17 12 -44.5t12.5 -44.5t4.5 -23q0 -19 -91 -142q-69 -89 -193.5 -285.5t-174.5 -314.5q-13 -30 -54 -126.5t-63 -149t-48 -122.5t-36 -112q-8 -35 -19 -45.5t-36 -13.5q-246 -21 -256 -21q-31 0 -31 23z" />
<glyph unicode="8" d="M121 336q0 38 9 73.5t21.5 62.5t36 55.5t42 47t52 43.5t53 38t56.5 36q35 23 35 33q0 9 -20 25q-50 40 -76 61.5t-64 59.5t-56.5 68.5t-33 72t-14.5 86.5q0 107 66.5 193.5t175 132.5t235.5 46q267 0 377 -127q71 -83 71 -194q0 -56 -16 -100.5t-51.5 -83.5t-70.5 -66.5 t-95 -67.5q-5 -3 -13 -8q-25 -21 -26 -26q0 -9 8.5 -17t46.5 -32q46 -31 70.5 -48t66.5 -55t64.5 -72t40.5 -85.5t18 -108.5q0 -178 -149 -297t-369 -119q-93 0 -179.5 24t-156.5 69.5t-112.5 118t-42.5 161.5zM358 344q0 -80 41.5 -141t97 -89t109.5 -28q107 0 180.5 65 t73.5 160q0 43 -16 82.5t-44.5 71.5t-52.5 53t-55 43q-36 26 -82.5 55t-58.5 29q-7 0 -27 -12t-48.5 -38t-54.5 -60t-44.5 -85t-18.5 -106zM430 1161q0 -46 25 -92t61 -80t74.5 -61.5t65.5 -41.5t34 -14q6 0 24.5 11.5t44 35t49 53t40 72t16.5 86.5q0 56 -21.5 99.5 t-55.5 68.5t-72 37.5t-76 12.5q-99 0 -154 -57t-55 -130z" />
<glyph unicode="9" d="M137 1004q0 62 16.5 125t55 126t94.5 110.5t143 77.5t193 30q235 0 361 -138t126 -360q0 -240 -150.5 -470t-420.5 -437q-115 -90 -145 -105q-28 -14 -37 -14q-3 0 -26 7t-50.5 15.5t-38.5 10.5q-7 1 -11.5 7t-4.5 11q0 6 14 20.5t27 24.5q101 75 290 314t189 290 q0 5 -4 9t-8 4q-2 0 -16 -6t-15 -7q-119 -49 -203 -49q-155 0 -267 113.5t-112 290.5zM397 1049q0 -125 69.5 -216.5t172.5 -91.5q100 0 159.5 77.5t59.5 203.5q0 83 -24.5 155t-78.5 120.5t-128 48.5q-101 0 -165.5 -85.5t-64.5 -211.5z" />
<glyph unicode=":" horiz-adv-x="606" d="M141 129q0 68 48 112t106 44q76 0 121 -45.5t45 -112.5q0 -65 -46.5 -110.5t-115.5 -45.5q-68 0 -113 46t-45 112zM141 868q0 70 48 114t106 44q76 0 121 -46t45 -114q0 -65 -46.5 -109t-115.5 -44q-68 0 -113 45t-45 110z" />
<glyph unicode=";" horiz-adv-x="606" d="M119 -309q0 3 13.5 25.5t29 49t18.5 33.5q39 85 39 121t-37 92q-37 59 -37 101q0 70 49 110.5t97 40.5q75 0 120.5 -52t45.5 -128q0 -124 -97 -256q-31 -41 -94.5 -105.5t-77.5 -64.5q-19 0 -55 18q-14 7 -14 15zM141 868q0 70 48 114t106 44q76 0 120 -46t44 -114 q0 -65 -45.5 -109t-114.5 -44t-113.5 44.5t-44.5 110.5z" />
<glyph unicode="&#x3c;" d="M106 444v148l1041 461v-168l-828 -367l828 -366v-168z" />
<glyph unicode="=" d="M96 442v113q0 20 3.5 25.5t21.5 5.5h1009q16 0 20.5 -5t4.5 -26v-109q0 -12 -1 -17.5t-6.5 -11t-17.5 -5.5h-1009q-16 0 -20.5 4.5t-4.5 25.5zM96 772v111q0 20 3.5 25t21.5 5h1009q12 0 16 -1t6.5 -7.5t2.5 -21.5v-109q0 -13 -1 -18.5t-6.5 -10t-17.5 -4.5h-1009 q-16 0 -20.5 4.5t-4.5 26.5z" />
<glyph unicode="&#x3e;" d="M106 -16v168l828 366l-828 367v168l1041 -461v-148z" />
<glyph unicode="?" horiz-adv-x="948" d="M201 1432q0 24 47 34q103 23 182 23q93 0 166 -25.5t116 -64.5t71 -90.5t38 -98t10 -92.5q0 -154 -80.5 -288.5t-195.5 -221.5q-104 -69 -113 -84q-5 -8 -16 -76.5t-16 -80.5q-7 -19 -54 -19q-26 0 -33 8.5t-10 38.5l-37 258q-2 15 -3.5 26.5t-2.5 16.5t-1.5 8t-0.5 5 q0 16 5.5 20t35.5 12q38 11 61.5 18.5t68 24t74 32t65.5 40t58 50.5t37 61.5t15 74.5q0 50 -25 90.5t-66 64t-87.5 36t-93.5 12.5q-49 0 -125 -16q-48 -12 -49 -12q-9 0 -11.5 5.5t-7.5 32.5l-18 142q-4 20 -4 35zM203 129q0 68 46.5 112t104.5 44q76 0 121 -45.5t45 -112.5 q0 -66 -46.5 -111t-115.5 -45q-68 0 -111.5 45.5t-43.5 112.5z" />
<glyph unicode="@" horiz-adv-x="1705" d="M98 678q0 145 50 273.5t136.5 223t199.5 163t240.5 103t258.5 34.5q146 0 271 -46.5t208 -124.5t129.5 -178t46.5 -208q0 -110 -46 -216.5t-120 -184t-169.5 -125.5t-190.5 -48q-181 0 -162 164q-54 -54 -106 -92q-35 -26 -61 -36.5t-62 -10.5q-57 0 -102 23t-71 61.5 t-39 82.5t-13 91q0 73 31 156.5t82 156t127.5 120.5t158.5 48q43 0 86 -18q27 -11 29 -11q7 0 11.5 7t12.5 28q10 23 31 23l92 8q28 3 33.5 -2.5t1.5 -36.5l-55 -438q-15 -120 -15 -133q0 -74 64 -74q36 0 76 22t77.5 63.5t67.5 94.5t48 121.5t18 138.5q0 117 -40.5 197 t-111.5 143q-72 66 -150.5 94.5t-195.5 28.5q-203 0 -365 -89.5t-251 -243.5t-89 -343q0 -114 34 -213.5t90.5 -170t130 -121.5t153.5 -76t160 -25q43 0 103 8t142 26.5t172.5 58.5t165.5 95l20 14t16 11.5t12.5 9t10 7l7 5t5.5 4t4 2t3.5 1t3.5 0.5q14 0 27 -13l24 -28 q15 -15 15 -25q0 -14 -33 -47t-100 -75t-153.5 -80t-209 -64.5t-250.5 -26.5q-127 0 -233.5 29t-180 75.5t-130.5 110t-90 129t-54.5 136.5t-29 127t-7.5 106zM690 659q0 -72 34 -115.5t77 -43.5q36 0 77 28.5t64 81.5q16 36 26 104t12.5 108.5t2.5 54.5q0 127 -74 127 q-54 0 -106 -55.5t-82.5 -136t-30.5 -153.5z" />
<glyph unicode="A" horiz-adv-x="1441" d="M14 25v32q0 30 6.5 39.5t38.5 16.5q22 4 31.5 8.5t20.5 11.5t24 33.5t25.5 54.5t40.5 94q173 419 323 807q48 119 99 264q15 38 24 45q12 8 45 11q3 0 45.5 4.5t76.5 8t38 3.5q17 0 25 -12.5t22 -56.5q78 -240 219.5 -661t194.5 -560q15 -39 29 -50t61 -22q12 -3 17.5 -9 t6 -12t0.5 -22v-28q0 -12 -1.5 -18t-8 -10.5t-20.5 -4.5q-17 0 -108 4t-109 4q-23 0 -144 -4t-141 -4q-14 0 -17.5 7.5t-3.5 25.5v28q0 25 8.5 33t37.5 16q68 19 86 30t18 42q0 15 -40 147t-50 140q-12 6 -250 6q-213 0 -229 -2q-12 -3 -37 -66l-74 -192q-8 -24 -8 -35 q0 -23 17.5 -33.5t70.5 -25.5q41 -13 50 -22.5t9 -33.5v-28q0 -18 -6.5 -26t-14 -9.5t-24.5 -1.5l-76 4q-75 4 -116 4q-64 0 -107.5 -2t-65 -4t-30.5 -2h-4q-16 0 -20.5 8.5t-4.5 24.5zM494 625q0 -14 9.5 -17.5t37.5 -3.5h284q42 0 52 2.5t10 14.5q0 16 -13 55l-139 446 q-18 64 -28 64q-7 0 -21 -37l-172 -461q-20 -60 -20 -63z" />
<glyph unicode="B" horiz-adv-x="1327" d="M92 25v41q0 24 9.5 32t43.5 15q53 11 68.5 28t17.5 54q7 151 7 354v334q0 334 -11 385q-6 36 -82 51q-33 7 -43 16t-10 31v41q0 20 6 26.5t23 6.5q14 0 104 -4t133 -4q47 0 187 8q24 1 67 2.5t76.5 2.5t59.5 1q42 0 69.5 -2t72.5 -10.5t85 -31.5t74 -59q86 -89 86 -229 q0 -51 -12.5 -94t-30 -72.5t-46 -55t-49 -39t-52.5 -26t-43 -15.5t-32 -9q-36 -7 -45.5 -11t-9.5 -12q0 -7 7.5 -9t47.5 -7q178 -14 269 -119q88 -102 88 -242q0 -77 -32 -151.5t-89.5 -134t-147 -96.5t-194.5 -37q-79 0 -197 8t-207 8q-35 0 -133 -4q-94 -4 -108 -4 q-16 0 -21.5 8t-5.5 25zM494 252q0 -45 2.5 -65t15 -38.5t38 -24t71.5 -5.5q134 0 204 45q129 81 129 250q0 55 -15.5 101.5t-40.5 76.5t-48.5 48.5t-46.5 29.5q-37 17 -84.5 22.5t-163.5 5.5q-40 0 -49.5 -8t-9.5 -31l-2 -239v-168zM494 858q0 -25 8.5 -30t50.5 -5 q95 0 147 15q72 23 120 87.5t48 149.5q0 24 -3.5 48t-17.5 58t-37 59.5t-67.5 44t-103.5 18.5q-94 0 -113.5 -2t-25.5 -11q-6 -12 -6 -174v-258z" />
<glyph unicode="C" horiz-adv-x="1554" d="M90 705q0 270 158 464q241 295 690 295q172 0 307 -32t193 -64q28 -14 28 -44q0 -7 -2 -15l-18 -174q-3 -33 -8.5 -41.5t-28.5 -8.5h-37q-24 0 -31 8.5t-20 47.5q-21 70 -72 102q-66 41 -150.5 59.5t-156.5 18.5q-244 0 -406.5 -170.5t-162.5 -431.5q0 -125 45 -238.5 t119.5 -193.5t173 -127t202.5 -47q121 0 236 46.5t178 116.5q22 25 32.5 30t33.5 5q44 0 59.5 -3t15.5 -15q0 -9 -4 -25l-18 -112q-6 -37 -22 -56.5t-56 -36.5q-214 -94 -475 -94q-133 0 -245.5 25.5t-193.5 69t-145 103.5t-104.5 125.5t-67 139.5t-37 140.5t-10.5 132.5z " />
<glyph unicode="D" horiz-adv-x="1705" d="M92 25v41q0 24 9.5 32t43.5 15q53 11 68.5 28t17.5 54q7 151 7 354v334q0 334 -11 385q-6 36 -82 51q-33 7 -43 16t-10 31v41q0 20 6 26.5t23 6.5q25 0 129.5 -4t157.5 -4q24 0 288 8q148 4 205 4q77 0 132.5 -5t127 -21.5t136.5 -54.5t124 -97q195 -197 195 -527 q0 -321 -205 -536q-65 -69 -136.5 -114.5t-146 -66.5t-137 -28.5t-141.5 -7.5q-7 0 -154 6q-238 8 -241 8q-92 0 -169.5 -2t-119.5 -4t-47 -2q-16 0 -21.5 8t-5.5 25zM494 891l2 -615q0 -67 11 -99t44 -38q49 -10 229 -10q126 0 226 40t160.5 102t100.5 145t55 162t15 161 q0 281 -161 437q-30 29 -62.5 50t-77 33.5t-78 20t-100.5 10.5t-106.5 3.5t-130.5 0.5h-93q-28 -4 -30 -16q-4 -20 -4 -387z" />
<glyph unicode="E" horiz-adv-x="1175" d="M92 27v39q0 24 10 32.5t43 14.5q53 13 68.5 29.5t17.5 52.5q7 154 7 356v332q0 334 -11 385q-6 36 -82 51q-33 7 -43 16t-10 31v41q0 20 6 26.5t23 6.5q10 0 81.5 -2.5t182 -5t215.5 -2.5q118 0 203.5 2.5t127 5t54.5 2.5q37 0 37 -39l-12 -230q0 -11 -2.5 -17.5t-9 -9 t-10.5 -3t-13 -0.5h-29q-25 0 -33.5 8.5t-15.5 48.5q-12 78 -68 88q-20 4 -167 4q-152 0 -158 -6q-6 -4 -7 -16t-1 -64q-2 -115 -2 -180q0 -152 1.5 -180t8.5 -35q12 -10 270 -10q56 0 158 4q3 0 24 2t29 2q13 0 15.5 -10.5t-1.5 -30.5l-10 -82q-3 -29 -8 -37t-27 -8 q-49 0 -129 8q-74 2 -264 2q-31 0 -45.5 -4t-17.5 -18q-4 -32 -4 -205q0 -160 4 -207q2 -23 9.5 -38t16.5 -23t30.5 -12t37 -4.5t49.5 -0.5h83t66.5 1.5t57 4.5t42 8.5t35.5 13.5t23.5 20.5t20 28.5t12.5 38q8 30 17 44.5t17.5 17.5t24.5 3h39q21 0 28 -7q5 -5 5 -16v-7 l-33 -248q-3 -26 -11 -39t-16.5 -15.5t-25.5 -2.5q-16 0 -115.5 4.5t-132.5 5.5q-236 8 -342 8q-92 0 -161.5 -2t-106.5 -4t-49 -2q-16 0 -21.5 8t-5.5 27z" />
<glyph unicode="F" horiz-adv-x="1099" d="M92 25v41q0 24 9.5 32t43.5 15q53 11 68.5 28t17.5 54q7 151 7 354v334q0 334 -11 385q-6 36 -82 51q-33 7 -43 16t-10 31v41q0 20 6 26.5t23 6.5q18 0 209.5 -5t253.5 -5q59 0 226 5t185 5q16 0 20.5 -8t4.5 -25l-14 -229q-2 -24 -5.5 -29.5t-23.5 -5.5h-31q-29 0 -36 4 t-11 27q-14 73 -27 91.5t-57 22.5q-25 2 -137 2q-16 0 -30 1q-88 0 -124 -3q-15 -2 -17 -4t-5 -24q-8 -54 -8 -291q0 -148 16 -160q10 -8 260 -8q61 0 111 2t75.5 4t26.5 2q32 0 23 -35l-15 -104q-3 -18 -10 -24.5t-25 -6.5q-24 0 -82.5 4t-64.5 4l-246 6q-48 0 -58.5 -12 t-10.5 -70q0 -349 6 -394q5 -33 23 -42q1 -1 3 -2q17 -8 39.5 -13.5t40.5 -7.5l19 -3q38 -4 50.5 -13.5t12.5 -25.5v-43q0 -19 -7 -27t-30 -8q-6 0 -32.5 2t-83.5 4t-136 2q-85 0 -146 -2t-92 -4t-42 -2q-16 0 -21.5 8t-5.5 25z" />
<glyph unicode="G" horiz-adv-x="1744" d="M90 698q0 167 60.5 309t169.5 242.5t267.5 157.5t348.5 57q160 0 308 -33t194 -59q24 -14 28 -24t2 -31l-14 -180q-2 -26 -7.5 -31.5t-31.5 -5.5h-39q-12 0 -17.5 0.5t-12 5t-10 13.5t-7.5 26q-25 90 -115 131q-57 25 -134.5 40t-143.5 15q-113 0 -217 -45.5t-181 -124 t-123 -190t-46 -236.5q0 -122 40 -235.5t109.5 -200t172.5 -138.5t220 -52q59 0 147 16t154 41q29 11 37 25.5t8 48.5q0 258 -12 278q-5 7 -19.5 14.5t-28.5 12t-26.5 8.5t-13.5 4q-28 7 -34.5 15t-6.5 26v47q0 19 5.5 25t25.5 6q16 0 121 -4t125 -4q71 0 146.5 4t82.5 4 q33 0 33 -31v-37q0 -24 -6 -32.5t-35 -14.5q-54 -11 -71.5 -27t-20.5 -47q0 -4 -2 -103.5t-2 -119.5q0 -12 3 -72.5t3 -70.5q0 -20 -15.5 -29.5t-95.5 -34.5q-273 -88 -526 -88q-127 0 -243.5 29t-217.5 88.5t-175.5 145t-117.5 205t-43 261.5z" />
<glyph unicode="H" horiz-adv-x="1669" d="M92 25v41q0 24 9.5 32t43.5 15q53 11 68.5 28t17.5 54q5 108 5 354v334q0 343 -9 385q-6 36 -82 51q-33 7 -43 16t-10 31v41q0 20 6 26.5t23 6.5q15 0 108.5 -4t128.5 -4t137 4t117 4q27 0 27 -33v-41q0 -23 -10 -31t-45 -16q-53 -11 -68.5 -28t-17.5 -54q-4 -94 -4 -309 v-45q0 -54 10 -65t67 -11h529q55 0 65.5 12t10.5 64v45q0 290 -9 340q-9 35 -82 51q-35 7 -45 16t-10 31v41q0 19 6 26t23 7q15 0 105 -4t134 -4q39 0 139 4t113 4q16 0 21.5 -8t5.5 -25v-41q0 -24 -9.5 -31.5t-43.5 -15.5q-53 -11 -68.5 -28t-17.5 -54q-6 -138 -6 -354 v-334q0 -339 10 -385q7 -36 82 -51q33 -6 43 -15.5t10 -31.5v-41q0 -19 -6 -26t-23 -7q-12 0 -104.5 4t-132.5 4q-49 0 -145 -4t-107 -4q-18 0 -23.5 8.5t-5.5 24.5v41q0 24 10 32t45 15q53 11 68.5 28t17.5 54q5 118 5 311v43q-2 60 -4.5 74t-14.5 18q-12 6 -57 6h-529 q-61 0 -69 -10t-8 -88v-43q0 -298 8 -342q7 -36 82 -51q33 -6 44 -15.5t11 -31.5v-41q0 -19 -6.5 -26t-24.5 -7q-12 0 -107 4t-130 4q-48 0 -143.5 -4t-108.5 -4q-16 0 -21.5 8t-5.5 25z" />
<glyph unicode="I" horiz-adv-x="757" d="M106 25v41q0 24 10 32t44 15q53 11 68.5 28t17.5 54q6 129 6 354v334q0 339 -10 385q-6 36 -82 51q-34 7 -44 16t-10 31v41q0 20 6 26.5t23 6.5q11 0 97.5 -4t140.5 -4q44 0 142.5 4t111.5 4q26 0 26 -33v-41q0 -23 -10 -31t-45 -16q-53 -11 -68.5 -28t-17.5 -54 q-4 -110 -4 -354v-334q0 -350 8 -385q7 -36 82 -51q33 -6 44 -15.5t11 -31.5v-41q0 -19 -6 -26t-24 -7q-10 0 -101.5 4t-136.5 4q-54 0 -147.5 -4t-104.5 -4q-16 0 -21.5 8t-5.5 25z" />
<glyph unicode="J" horiz-adv-x="720" d="M-66 -360q0 10 6.5 16t22.5 12l9 4q8 4 22 11.5t32 18.5t38.5 26.5t40.5 33.5t40 41.5t35 49.5q52 87 62 218t10 599v213q0 344 -10 385q-4 21 -18 28t-83 27q-22 6 -28.5 14.5t-6.5 28.5v41q0 20 6 26.5t23 6.5q19 0 120.5 -4t117.5 -4q21 0 128.5 4t125.5 4 q26 0 26 -33v-41q0 -24 -10 -31.5t-45 -15.5q-52 -12 -68 -28t-18 -54q-4 -110 -4 -354v-213q-1 -160 -1 -272.5t1 -176.5q1 -43 1 -81q0 -28 -1 -54q-1 -59 -9 -106.5t-27 -89t-53 -79.5t-87 -79q-62 -49 -144 -88t-131.5 -54.5t-62.5 -15.5q-5 0 -11 3t-11.5 9t-10 11 t-10.5 12.5t-8 9.5q-9 18 -9 21z" />
<glyph unicode="K" horiz-adv-x="1402" d="M92 25v41q0 24 9.5 32t43.5 15q53 11 68.5 28t17.5 54q7 151 7 354v334q0 334 -11 385q-6 36 -82 51q-33 7 -43 16t-10 31v41q0 20 6 26.5t23 6.5q19 0 120 -4t117 -4q21 0 128.5 4t125.5 4q27 0 27 -33v-41q0 -23 -10 -31t-45 -16q-53 -11 -68.5 -28t-17.5 -54 q-4 -94 -4 -309v-133l2 -31q11 1 126.5 116t229 244.5t113.5 161.5q0 18 -9.5 24.5t-54.5 22.5q-17 6 -22 13.5t-5 21.5v37q0 14 1 20t7.5 10.5t20.5 4.5q9 0 99 -4t126 -4q49 0 113.5 4t81.5 4q19 0 24 -7.5t5 -25.5v-39q0 -20 -7.5 -26t-41.5 -15q-28 -10 -51.5 -30 t-108.5 -105q-27 -28 -175 -175t-171 -171q-31 -31 -31 -47q0 -10 7.5 -21.5t51.5 -70.5q50 -71 217.5 -296.5t196.5 -252.5q25 -23 43.5 -33t69.5 -29q27 -10 32 -20.5t5 -52.5q0 -11 -1 -16.5t-8 -10t-22 -4.5q-12 0 -74 2t-74 2q-36 0 -96 -2t-82 -2q-19 0 -26.5 5 t-20.5 30q-43 82 -161.5 251.5t-219.5 301t-108 131.5q-4 0 -4 -21l2 -184q0 -298 8 -342q7 -36 82 -51q34 -6 44.5 -15.5t10.5 -31.5v-41q0 -20 -5.5 -26.5t-25.5 -6.5q-14 0 -115 4t-122 4q-20 0 -127 -4t-125 -4q-16 0 -21.5 8t-5.5 25z" />
<glyph unicode="L" horiz-adv-x="1138" d="M92 25v41q0 24 9.5 32t43.5 15q53 11 68.5 28t17.5 54q5 108 5 354v334q0 343 -9 385q-6 36 -82 51q-33 7 -43 16t-10 31v41q0 20 6 26.5t23 6.5q24 0 136 -4t155 -4q29 0 128.5 4t118.5 4q15 0 23 -6t9 -12t1 -17v-49q0 -18 -11.5 -26.5t-49.5 -14.5q-60 -8 -87.5 -19.5 t-35 -26t-8.5 -46.5q-6 -111 -6 -342v-215q0 -377 6 -447q4 -54 37 -68t122 -14q164 0 204 4t67 27q23 18 40 54.5t23 76.5q5 29 15 38t26 9h49q23 0 28 -7q4 -5 4 -16q0 -4 -1 -10l-31 -286q-4 -29 -17.5 -37t-41.5 -8q-7 0 -52.5 1.5t-120.5 4t-128 4.5q-135 6 -287 6 q-117 0 -189.5 -1.5t-98.5 -3t-29 -1.5q-16 0 -21.5 8t-5.5 25z" />
<glyph unicode="M" horiz-adv-x="2048" d="M82 25v45q0 19 10 26t43 15q25 7 39 14.5t23.5 14.5t14 26.5t6 34t3.5 53.5q15 239 33 592q18 274 18 383q0 20 -1.5 28.5t-11 20.5t-32.5 20.5t-63 16.5q-29 6 -35 14.5t-6 34.5v41q0 16 6.5 24.5t12 9.5t14.5 1q15 0 110.5 -4t145.5 -4q41 0 100 4t84 4q14 0 21 -5.5 t14 -25.5q82 -227 360 -928q39 -96 41 -96q1 0 5 10t15 36.5t23 53.5q32 74 167.5 428.5t154.5 417.5q4 13 18 54t17 45q5 10 22 10q12 0 76 -4t117 -4q59 0 154.5 4t105.5 4q32 0 32 -31v-45q0 -18 -2 -25.5t-15.5 -15.5t-41.5 -14q-34 -6 -55 -14t-29 -20.5t-10 -21 t-2 -24.5q0 -44 14 -373q0 -9 9.5 -224t16.5 -336t11 -138q5 -17 24 -29.5t33.5 -16.5t26.5 -6q33 -6 40 -15t7 -36v-30q0 -20 -9 -26.5t-32 -6.5q-13 0 -91.5 4t-125.5 4t-144 -4t-110 -4q-29 0 -29 33v30q0 31 10 40.5t56 21.5q40 9 54 25.5t14 60.5q0 79 -14.5 478 t-14.5 447q0 46 -8 46q-6 0 -37 -80q-22 -55 -132 -324.5t-201 -494t-99 -250.5q-9 -24 -16 -30.5t-31 -14.5q-56 -17 -68 -17q-10 0 -19.5 18.5t-44.5 104.5q-393 968 -407 1026q-2 9 -12.5 33t-14.5 24q-5 0 -10 -110q-12 -357 -24 -586q-9 -221 -9 -237q0 -69 14 -88.5 t85 -36.5q23 -5 33 -15t10 -35v-36q0 -13 -1 -18.5t-8 -10t-22 -4.5q-11 0 -85.5 4t-113.5 4q-49 0 -119.5 -4t-78.5 -4t-12.5 1t-10.5 9t-6 23z" />
<glyph unicode="N" horiz-adv-x="1744" d="M92 18v43q0 14 2.5 21t18.5 15.5t49 15.5q29 7 41.5 15.5t19 32t6.5 72.5q0 61 3.5 219t3.5 218v213q0 314 -11 370q-6 29 -22 41t-47 19q-41 8 -52.5 19t-11.5 30v43q0 22 7 28.5t22 6.5q12 0 72 -4t92 -4q43 0 110.5 4t75.5 4q11 0 18 -5.5t25 -29.5q116 -147 174 -215 q130 -151 375.5 -434t292.5 -338q1 -1 4 -5t6 -7t4 -3q4 0 4 17q0 20 -3 127t-3 125q0 17 -2.5 170.5t-5.5 278.5t-6 141q-5 22 -23 33t-67 27q-10 3 -15 5q-17 4 -21.5 13t-4.5 26v43q0 17 7.5 24t26.5 7q17 0 78 -4t101 -4t117 4t94 4q26 0 26 -31v-33q0 -19 -1.5 -26.5 t-11.5 -14.5t-32 -10q-52 -9 -70 -32.5t-18 -82.5q0 -102 -2 -157q-6 -243 -6 -549q0 -21 1 -119q1 -97 1 -165q0 -22 1 -43q0 -40 -1 -71q0 -8 2 -52t2 -52q0 -15 -6.5 -22.5t-34.5 -28.5l-29 -27q-8 -4 -14 -4t-10.5 4t-24.5 27q-69 85 -506 589.5t-499 583.5l-4 5 q-4 5 -7.5 8.5t-5.5 3.5t-2 -23q10 -405 11 -530l2 -217q0 -181 4 -201q4 -28 27 -38.5t69 -18.5q20 -4 30 -14t11.5 -17t1.5 -19v-36q0 -20 -7 -27.5t-22 -7.5t-80.5 4t-95.5 4q-51 0 -132.5 -4t-92.5 -4q-29 0 -29 26z" />
<glyph unicode="O" horiz-adv-x="1820" d="M90 709q0 357 264 577q100 82 233 130t331 48q150 0 274.5 -32.5t206.5 -83.5t145 -121.5t97.5 -139t56 -143.5t27.5 -127t6 -98q0 -73 -13 -145t-43 -147t-74.5 -141t-111.5 -125t-150 -101t-194 -66.5t-240 -24.5q-167 0 -303.5 39.5t-230.5 108t-158 162.5t-93.5 202 t-29.5 228zM369 729q0 -81 19.5 -164t62.5 -165t104.5 -145.5t153 -102.5t200.5 -39q108 0 200 37t154 97t105.5 139t63.5 161.5t20 165.5q0 77 -18 157.5t-59 162.5t-100.5 145t-151.5 103t-203 40q-110 0 -202.5 -35.5t-155.5 -95t-107.5 -136.5t-65 -159.5t-20.5 -165.5z " />
<glyph unicode="P" d="M92 25v41q0 24 9.5 32t43.5 15q53 11 68.5 28t17.5 54q7 151 7 354v334q0 334 -11 385q-6 36 -82 51q-33 7 -43 16t-10 31v41q0 20 6 26.5t23 6.5q28 0 127.5 -4t138.5 -4q28 0 177.5 4t174.5 4q122 0 200 -22.5t142 -90.5q105 -105 105 -274q0 -98 -41.5 -179.5 t-109.5 -133t-151.5 -79.5t-170.5 -28q-13 0 -39.5 1.5t-63.5 5.5t-63.5 13t-26.5 21t25 39.5t41 27.5q66 0 108.5 8.5t85.5 38.5q64 42 99.5 110.5t35.5 145.5q0 133 -100 213q-60 52 -184 52h-51q-49 0 -64 -9.5t-18 -46.5q-4 -36 -4 -366v-211q0 -86 1 -197t2 -190.5 t1 -87.5q1 -49 23 -64t104 -26q28 -4 41.5 -11t15.5 -12.5t2 -17.5v-43q0 -20 -8 -27.5t-31 -7.5q-15 0 -118.5 4t-143.5 4q-45 0 -148 -4t-116 -4q-16 0 -21.5 8t-5.5 25z" />
<glyph unicode="Q" horiz-adv-x="1820" d="M90 692q0 122 32 234.5t99 210.5t162.5 170.5t231 114.5t296.5 42q407 0 617 -215q99 -100 151 -242.5t52 -293.5q0 -98 -23.5 -194t-73 -189t-137.5 -169t-205 -118q-67 -23 -149 -41q-53 -12 -53 -27q0 -5 31 -42t75 -80.5t72 -61.5q25 -16 45.5 -28.5t38 -21t28 -14 t25 -10t20 -6t22.5 -5.5t23 -5q17 -4 22 -11.5t5 -21.5q0 -36 -6.5 -46.5t-38.5 -16.5q-176 -33 -256 -33q-30 0 -44.5 1.5t-39 9.5t-44.5 25.5t-50.5 49.5t-67.5 82.5t-86 122.5q-13 21 -36.5 54t-28.5 38q-16 13 -101 27q-133 21 -239.5 74t-174 123.5t-112.5 159 t-63.5 175.5t-18.5 178zM369 721q0 -84 21 -170t65.5 -166.5t106.5 -143t151.5 -100t193.5 -37.5q112 0 211 41t173.5 117t117.5 191t43 254q0 267 -150 439.5t-380 172.5q-132 0 -222 -41.5t-161 -116.5q-170 -179 -170 -440z" />
<glyph unicode="R" horiz-adv-x="1366" d="M92 25v41q0 23 10 31t45 16q53 11 68.5 28t17.5 54q5 215 5 354v334q0 343 -9 385q-9 36 -82 51q-35 7 -45 16t-10 31v41q0 19 6.5 26t22.5 7q21 0 121 -4t147 -4q29 0 181 4t188 4q207 0 305 -103q102 -102 102 -250q0 -14 -2 -32t-8 -51.5t-21 -66.5t-37.5 -68 t-61 -65.5t-87.5 -49.5q-38 -13 -47 -15q-18 -5 -18 -10q0 -1 29.5 -59t73 -139.5t73.5 -131.5q56 -93 96 -152t66.5 -86t39.5 -35.5t31 -14.5q4 -2 29 -9.5t29 -9.5q9 -6 10.5 -11t1.5 -26v-35q0 -13 -7.5 -20t-13.5 -7.5t-18 -0.5q-14 0 -84.5 2t-81.5 2q-23 0 -82 -2 t-82 -2q-26 0 -36 6t-19 29q-80 200 -279 604q-14 31 -29.5 43t-49.5 12q-58 0 -72 -5t-14 -32v-100q0 -338 8 -385q10 -35 82 -51q34 -6 44.5 -15.5t10.5 -31.5v-41q0 -20 -5.5 -26.5t-23.5 -6.5q-16 0 -117 4t-120 4q-21 0 -128.5 -4t-125.5 -4q-16 0 -21.5 8t-5.5 25z M494 1163l2 -313q0 -29 8 -37t39 -8q172 0 231 39q47 30 74.5 77t34 79.5t6.5 64.5q0 12 -1 25.5t-10 46t-24.5 59t-49 53.5t-79.5 39q-57 15 -172 15q-51 0 -55 -17q-1 -8 -2 -60t-2 -63z" />
<glyph unicode="S" horiz-adv-x="1099" d="M115 78l22 211q1 11 2.5 15t8.5 8.5t22 4.5h37q37 0 41 -24q7 -39 11 -55t15 -38.5t30.5 -36.5t51.5 -28q71 -31 152 -31q116 0 183 65.5t67 145.5q0 22 -3.5 41.5t-15 40t-21 36t-35 38.5t-43 38t-58 44.5t-67 48t-83.5 57.5q-162 112 -223.5 205t-61.5 201 q0 66 22.5 124.5t59 100.5t71 69.5t71.5 47.5q107 57 284 57q85 0 164 -12t111 -31q18 -10 21.5 -19t0.5 -30l-22 -196q-3 -22 -8 -26.5t-31 -4.5h-35q-16 0 -22.5 1t-11.5 5t-7 14q-5 24 -8.5 37.5t-11.5 31t-21.5 31t-34.5 25.5q-57 33 -135 33q-95 0 -157 -51.5 t-62 -124.5q0 -83 63 -144t304 -232q3 -2 4 -3q49 -35 84.5 -66.5t76 -79t62.5 -107t22 -126.5q0 -75 -31.5 -147.5t-92.5 -134.5t-164 -100t-232 -38q-75 0 -179.5 17.5t-158.5 42.5q-23 10 -27 18q-2 5 -2 14q0 7 1 17z" />
<glyph unicode="T" horiz-adv-x="1214" d="M31 1401q0 23 5.5 31t22.5 8q18 0 100.5 -2t211 -4t258.5 -2q119 0 306 4t214 4q19 0 26 -8q5 -6 5 -16v-7l-13 -223q-1 -17 -1.5 -22t-3.5 -12t-8.5 -8t-16.5 -1h-35q-23 0 -30.5 7t-10.5 32q-4 32 -12.5 53t-17 32t-28.5 16t-34 6t-47 1h-136q-36 0 -43.5 -9.5 t-7.5 -59.5l-2 -334v-338q0 -350 8 -383q9 -46 95 -53q41 -4 53 -14t12 -33v-41q0 -19 -7 -26t-24 -7h-4q-167 8 -245 8q-32 0 -149.5 -4t-135.5 -4q-16 0 -21.5 8t-5.5 25v41q0 24 12 32t54 15q61 8 78.5 27t17.5 55q4 102 4 354v686q-1 41 -9.5 48t-55.5 7h-131 q-28 0 -40.5 -0.5t-29 -4t-24.5 -11.5t-16.5 -22.5t-14.5 -37.5q-12 -58 -17 -65q-4 -6 -28 -6h-35q-19 0 -24 7t-7 28z" />
<glyph unicode="U" horiz-adv-x="1554" d="M55 1366v41q0 19 6.5 26t22.5 7q13 0 103 -4t135 -4t142.5 4t110.5 4q17 0 22 -8.5t5 -24.5v-41q0 -23 -10 -31t-45 -16q-52 -12 -68 -28.5t-18 -53.5q-4 -110 -4 -354v-217q0 -170 9 -250.5t30 -126.5q39 -83 125.5 -127.5t197.5 -44.5q43 0 88 8t92 26t85.5 52t58.5 80 q29 63 35 135t6 256v209q0 348 -8 385q-11 36 -82 51q-35 7 -45.5 16t-10.5 31v41q0 19 6.5 26t22.5 7q9 0 78 -4t115 -4q36 0 119 4t94 4q26 0 26 -33v-41q0 -24 -10 -31.5t-45 -15.5q-52 -12 -68 -28t-18 -54q-4 -110 -4 -354v-201v-100t-1.5 -87t-4.5 -82t-8.5 -69 t-13.5 -65.5t-20.5 -55t-29 -53t-38 -44t-48.5 -42.5q-155 -115 -430 -115q-165 0 -294 48.5t-196 152.5q-45 70 -57 179t-12 325v209q0 348 -8 385q-9 36 -82 51q-35 7 -45.5 16t-10.5 31z" />
<glyph unicode="V" horiz-adv-x="1402" d="M4 1366v45q0 29 29 29q1 0 70.5 -4t183.5 -4q67 0 152.5 4t90.5 4q17 0 23 -7t6 -22v-33q0 -10 -1.5 -16t-7.5 -15t-21.5 -15.5t-41.5 -10.5q-44 -9 -60.5 -21t-16.5 -38t34 -129q50 -167 142.5 -459.5t93.5 -296.5q43 -144 45 -150q1 0 7.5 16.5t15 40.5t14.5 42 q274 769 321 903q7 28 7 33q0 26 -15.5 35t-73.5 22q-33 8 -44 17t-11 30v41q0 33 35 33q16 0 100 -4t97 -4q46 0 124 4t87 4q32 0 32 -29v-45q0 -25 -8.5 -33t-38.5 -14q-17 -4 -30 -11t-20.5 -13t-18 -24.5t-15 -28t-18.5 -40.5q-54 -124 -213 -512.5t-228 -570.5 q-35 -90 -45 -108t-30 -19q-6 -1 -47.5 -6t-79.5 -10t-41 -5q-16 0 -26.5 5.5t-18 20t-12 27.5t-12.5 41.5t-15 49.5q-370 1117 -395 1169q-11 22 -26.5 32t-57.5 19q-21 5 -21 31z" />
<glyph unicode="W" horiz-adv-x="2275" d="M14 1374v35q0 31 23 31q7 0 72 -4t151 -4q118 0 198.5 4t82.5 4q30 0 30 -29v-37q0 -18 -2 -25t-13.5 -12.5t-37.5 -9.5q-60 -9 -78 -26t-18 -44q0 -32 75.5 -297.5t118.5 -404.5q71 -252 95 -305q5 14 16.5 55.5t24.5 90t14 53.5q23 78 83 277.5t108.5 362.5t80.5 277 q14 53 22 65t32 15q124 16 186 16q9 0 14 -3.5t9 -14t6 -21t6.5 -32.5t9.5 -41q41 -157 135.5 -482.5t112.5 -396.5q10 -42 28 -100.5t21 -71.5q15 -51 20 -51t80.5 241t149.5 494.5t74 280.5t-16.5 37.5t-80.5 31.5q-31 9 -38 15.5t-7 25.5v37q0 18 7.5 23.5t21.5 5.5 q16 0 109.5 -4t113.5 -4q32 0 106.5 4t84.5 4q14 0 21 -5t8 -10t1 -14v-37q0 -32 -20 -39q-63 -20 -85.5 -40.5t-45.5 -88.5q-51 -149 -172 -495q-38 -109 -92.5 -277.5t-92 -286.5t-41.5 -129q-8 -19 -32 -24q-35 -6 -207 -21h-2q-17 0 -25 15q-8 16 -26 80 q-3 12 -127.5 429t-149.5 509q-15 45 -24 81q-7 0 -41 -118q-33 -115 -155.5 -482.5t-145.5 -447.5q-9 -32 -22 -39t-67 -10l-143 -15q-21 0 -28 14.5t-29 88.5q-1 1 -55 181t-119.5 395t-127.5 407.5t-77 218.5q-10 19 -22 27t-58 28q-18 6 -23.5 13.5t-5.5 25.5z" />
<glyph unicode="X" horiz-adv-x="1517" d="M16 23v40q0 21 9.5 28t48.5 18q6 2 13.5 6t17.5 12t18 15.5t20.5 21t20.5 22t23 26.5t22 26.5t24 28.5t23 28q46 53 192.5 228.5t153.5 187.5q4 8 4 10q0 7 -33 51q-5 5 -194.5 261.5t-198.5 266.5q-12 12 -25 17t-53 14q-18 4 -23 11t-5 28v39q0 14 5 21.5t10 8.5t15 1 q8 0 48 -2t101 -4t120 -2q69 0 162 4t100 4q29 0 29 -31v-39q0 -25 -10 -33t-52 -12q-67 -8 -67 -43q0 -13 10.5 -31.5t46.5 -66.5q3 -4 59.5 -85t105.5 -148.5t54 -67.5q4 0 9 6.5t30 44.5q17 27 168 250q3 5 10 15q40 67 41 79q0 40 -70 45q-24 3 -36 10t-13.5 13.5 t-1.5 19.5v43q0 16 6.5 23.5t24.5 7.5q6 0 71.5 -4t151.5 -4q64 0 137 4t80 4q21 0 28 -8t7 -23v-39q0 -23 -9.5 -30t-53.5 -21q-36 -11 -63 -38.5t-111 -133.5q-17 -21 -133 -161.5t-136 -166.5q-26 -30 -26 -39q0 -10 30 -51q17 -22 105 -146t104 -145q30 -39 104.5 -140 t104.5 -140q24 -33 39.5 -42t63.5 -18q18 -4 22 -10.5t4 -24.5v-40q0 -31 -26 -31q-8 0 -103.5 4t-114.5 4q-104 0 -170.5 -2t-93.5 -4t-35 -2q-38 0 -38 31v40q0 22 8.5 28.5t42.5 14.5q69 17 69 44q0 12 -8 27t-43 65q-104 145 -239 329q-21 30 -27.5 37.5t-11.5 7.5 q-8 0 -135 -179.5t-164 -239.5q-13 -26 -13 -37q0 -26 20 -37.5t62 -20.5q28 -6 34.5 -13t6.5 -26v-38q0 -15 -5 -23t-9.5 -9t-11.5 -1q-8 0 -33.5 2t-76 4t-118.5 2q-85 0 -152 -4t-71 -4q-27 0 -27 31z" />
<glyph unicode="Y" horiz-adv-x="1327" d="M-6 1368v41q0 19 8 25t23 6q16 0 100 -4t141 -4q20 0 123.5 4t120.5 4q33 0 33 -31v-41q0 -20 -11 -26.5t-49 -14.5q-51 -8 -51 -41q0 -15 11.5 -39t76.5 -143q14 -25 88 -165.5t88 -164.5q16 -33 21 -33q3 0 26 45q29 59 103 197.5t90 169.5q51 95 51 117q0 21 -15 32 t-54 19q-54 11 -54 47v41q0 18 6 24.5t23 6.5q20 0 93 -4t97 -4q80 0 146 4t71 4q21 0 28 -7.5t7 -23.5v-41q0 -13 -0.5 -18.5t-4.5 -11.5t-13 -9q-59 -19 -79.5 -36t-70.5 -91q-107 -162 -174 -270q-76 -122 -159 -248q-34 -52 -42 -74.5t-8 -60.5v-43q0 -305 9 -342 q8 -40 92 -51q42 -4 53.5 -13.5t11.5 -33.5v-41q0 -20 -5 -26.5t-23 -6.5h-4q-6 0 -78.5 4t-169.5 4q-78 0 -178 -4t-105 -4q-17 0 -22 8.5t-5 24.5v41q0 25 11.5 33t54.5 14q59 8 76.5 27t19.5 55q0 5 1 64t2 133t1 114v43q0 27 -5 43t-29 57q-44 79 -137 232t-166 270.5 t-80 126.5q-18 24 -32.5 32.5t-58.5 24.5q-17 6 -20.5 11.5t-3.5 21.5z" />
<glyph unicode="Z" horiz-adv-x="1290" d="M29 55q0 15 9.5 32.5t51.5 74.5q420 574 658 934q16 23 66 99.5t50 80.5t-3 5t-21 1q-436 0 -459 -4q-34 -7 -46 -31t-21 -88q-5 -26 -29 -26h-49q-17 0 -25 5t-9.5 10.5t-2.5 20.5l-13 230q0 18 0.5 23.5t7.5 11.5t23 6q4 0 203.5 -6.5t511.5 -6.5q74 0 141 6.5t74 6.5 q19 0 27 -7t14 -30q1 -6 11.5 -43.5t10.5 -44.5q0 -17 -9 -32.5t-36 -49.5l-3 -3t-2.5 -3t-2.5 -4q-19 -19 -377 -527t-358 -528q0 -12 70 -12l473 -2q58 1 98 24t55 62q27 67 35 75q8 13 35 13h39q19 0 26 -6q5 -4 5 -17q0 -5 -1 -12l-38 -262q-3 -17 -4.5 -23t-6.5 -14 t-14.5 -10t-26.5 -2q-27 0 -180 10q-343 20 -612 20q-127 0 -217 -10l-90 -10q-21 0 -30 22t-9 41z" />
<glyph unicode="[" horiz-adv-x="948" d="M197 -367q0 78 6 195q12 380 12 573v377q0 274 -10 572q0 10 -3 77.5t-3 71.5q0 25 7 33t32 8q13 0 70 -1t95 -1h283q22 0 62 4q11 0 27 1t20 1q13 0 20.5 -6t8.5 -12t1 -17v-47q0 -24 -5.5 -32.5t-26.5 -8.5l-289 2q-29 0 -37.5 -12t-9.5 -59q-4 -82 -4 -289v-1045 q0 -65 0.5 -114t1 -73.5t0.5 -29.5q0 -70 9 -86t52 -16h281q13 0 19.5 -5.5t7.5 -11.5t1 -16v-41q0 -26 -4.5 -33.5t-19.5 -7.5q-13 0 -78 2t-74 2q-189 -6 -401 -6q-32 1 -41.5 11t-9.5 40z" />
<glyph unicode="\" horiz-adv-x="1099" d="M70 1516q0 10 7.5 12t41.5 2h98q33 0 44.5 -8t19.5 -31q11 -38 179.5 -405t252.5 -541q208 -422 245 -494q2 -6 20.5 -43t35 -71t16.5 -35q0 -9 -7 -11t-38 -2h-88q-40 0 -52 6t-26 39q-281 654 -661 1405q-54 111 -80 156q-8 16 -8 21z" />
<glyph unicode="]" horiz-adv-x="948" d="M123 -338q0 25 6 34t27 9l288 -2q29 0 38 12.5t10 57.5q4 70 4 290v1045q0 65 -0.5 114t-1 73.5t-0.5 29.5q-2 70 -10.5 86t-51.5 16l-280 -2q-18 0 -23.5 9t-5.5 26v41q0 26 4.5 33.5t19.5 7.5q13 0 78 -2t74 -2q32 0 202.5 3t198.5 3q32 0 42 -10.5t10 -40.5 q0 -59 -7 -195q-12 -380 -12 -573v-377q0 -274 10 -571q0 -11 3.5 -78.5t3.5 -71.5q0 -25 -7 -34t-32 -9q-22 0 -82 2t-84 2l-320 -2l-71 -2q-13 -1 -20.5 4.5t-9 12t-1.5 16.5v45z" />
<glyph unicode="^" d="M92 504l455 930h155l459 -930h-172l-364 753l-361 -753h-172z" />
<glyph unicode="_" horiz-adv-x="1024" d="M0 -154h1024v-102h-1024v102z" />
<glyph unicode="`" horiz-adv-x="1024" d="M182 1511q0 10 10 12.5t37 2.5h158q46 0 58 -8t34 -52l137 -272q15 -29 15 -37q0 -12 -20 -17t-38 -5q-15 0 -63 43q-126 117 -295 286q-11 9 -22 24t-11 23z" />
<glyph unicode="a" horiz-adv-x="1062" d="M84 233q0 88 37 173q14 32 34 41.5t105 27.5l270 53q82 17 107 32.5t25 64.5v32q0 32 -2 54t-13 50.5t-30 46t-56.5 30t-89.5 12.5q-116 0 -233 -53q-5 -2 -24 -11.5t-35.5 -17.5t-20.5 -8q-12 0 -14 15.5t1 21.5l13 106q5 38 17.5 55t49.5 29q146 35 281 35 q184 0 282.5 -66t98.5 -223q0 -21 -2 -133.5t-2 -130.5l-2 -113v-131q0 -64 16.5 -89t77.5 -32q58 -7 65 -13q7 -7 7 -23v-33q0 -17 -7 -23t-36 -12l-242 -41q-32 -4 -41 -4q-17 0 -25.5 4t-17 30t-10.5 79q0 23 -1 34t-3.5 14t-6.5 3q-3 0 -22 -13.5t-41 -29.5t-27 -19 q-39 -27 -65.5 -42t-77.5 -29.5t-109 -14.5q-103 0 -167 77t-64 185zM330 250q0 -59 36.5 -87t82.5 -28q76 0 149 58q42 32 53 66t11 91v56q0 20 -3 29t-14 9q-3 0 -30 -5t-67 -14t-67 -17q-13 -4 -24.5 -8t-37 -17.5t-43 -29.5t-32 -43.5t-14.5 -59.5z" />
<glyph unicode="b" horiz-adv-x="1138" d="M-14 1432v34q0 25 34 29l299 43q3 0 18.5 2t18.5 2q27 0 27 -37q0 -103 -8 -243q-2 -31 -2.5 -176.5t-1.5 -163.5l-2 -45q0 -17 8 -17q5 0 13 5t19 15.5t18.5 18l20 20l13.5 13.5q20 20 26.5 26t28.5 22.5t40 22.5t49.5 12.5t68.5 6.5q95 0 168 -36t113 -87.5t65.5 -120 t33 -123t7.5 -106.5q0 -180 -74 -313t-197 -199t-276 -66q-104 0 -201 30t-143 58q-24 14 -31.5 29.5t-7.5 40.5q0 53 4 335.5t4 328.5v112q0 410 -12 445q-7 24 -25.5 31.5t-78.5 15.5q-37 7 -37 35zM367 424q0 -125 4.5 -172.5t17.5 -73.5q16 -31 59 -53.5t95 -22.5 q34 0 69.5 13t73 43t67 74t48 113.5t18.5 152.5q0 173 -66.5 263.5t-150.5 90.5q-64 0 -115.5 -38.5t-80.5 -100.5q-39 -84 -39 -289z" />
<glyph unicode="c" horiz-adv-x="987" d="M78 465q0 54 12 112t37.5 122t69.5 121t102.5 102.5t143 72.5t184.5 27q146 0 243 -43q33 -16 33 -50q0 -8 -2 -16l-27 -159q-5 -9 -10 -12t-18 -3h-37q-20 0 -28.5 12t-20.5 50q-6 20 -46 40.5t-102 20.5q-133 0 -214 -103.5t-81 -246.5q0 -154 88.5 -254t227.5 -100 q123 0 244 75q3 2 14 10t20 13.5t13 5.5q8 0 8 -22q0 -14 -14 -100.5t-21 -94.5q-15 -21 -117 -47.5t-190 -26.5q-93 0 -182.5 31t-164 90t-120 156t-45.5 217z" />
<glyph unicode="d" horiz-adv-x="1175" d="M78 465q0 114 28 208.5t74.5 158t108 107.5t126.5 63.5t132 19.5q68 0 151 -25q50 -20 60 -20t10 24q0 197 -6 320q-1 15 -3.5 24.5t-11.5 20.5t-28.5 17.5t-50.5 9.5q-28 1 -37.5 9.5t-9.5 29.5v36q0 15 7.5 22.5t33.5 10.5q24 2 103 12.5t147 19.5t77 9q25 0 25 -37 l-4 -147q-11 -293 -11 -479v-363q0 -188 3 -259.5t9.5 -94t26.5 -37.5q17 -12 33.5 -16t56.5 -7q20 -2 28.5 -7t8.5 -17v-39q0 -12 -5.5 -19t-13 -9.5t-22.5 -4.5l-266 -51q-12 -4 -35 -4q-6 0 -10.5 2t-7 3.5t-4.5 7.5t-2 7t-1 9l-1 8l-6 88q-3 51 -15 51q-3 0 -25.5 -17 t-48 -38t-32.5 -25q-31 -24 -53.5 -37.5t-63.5 -26t-88 -12.5q-72 0 -139.5 31t-123.5 89.5t-90 155.5t-34 218zM317 524q0 -68 14 -133.5t42 -122.5t76 -92t110 -35q219 0 219 369q0 134 -22 211q-14 49 -41 84t-56.5 49.5t-50.5 20.5t-35 6q-119 0 -187.5 -97t-68.5 -260z " />
<glyph unicode="e" horiz-adv-x="1024" d="M78 469q0 79 20 156.5t62 149.5t101.5 126.5t145 87.5t185.5 33q80 0 145.5 -20.5t118 -62.5t82 -115.5t29.5 -172.5q0 -28 -7.5 -45t-24.5 -23.5t-30 -8t-39 -1.5h-475q-58 0 -72 -10.5t-14 -66.5q0 -149 87 -245.5t224 -96.5q56 0 124 17.5t124 47.5q4 2 22.5 13.5 t35 21.5t20.5 10q6 0 6 -16q0 -17 -8.5 -98.5t-17.5 -92.5q-6 -8 -47 -27t-123.5 -39t-167.5 -20q-119 0 -216 40t-159.5 108.5t-96.5 158.5t-34 191zM350 696q0 -24 31 -24q11 0 44.5 2.5t93.5 7.5t99 8q80 6 98.5 13t18.5 34q0 8 -1.5 21.5t-10.5 40.5t-23.5 48.5 t-45.5 38.5t-72 17q-53 0 -96.5 -19.5t-67.5 -46t-40.5 -58t-22 -52.5t-5.5 -31z" />
<glyph unicode="f" horiz-adv-x="757" d="M39 856q0 5 2 14l2 9l33 75q11 27 16.5 33t22.5 6q78 0 95 6t17 39q0 4 -2 47t-2 52q0 69 20 112t99 142q33 41 56.5 63.5t65 48t99 36.5t137.5 11q49 0 95 -7.5t59 -12.5q17 -7 20 -19v-10q0 -8 -2 -18l-20 -115q-4 -31 -25 -31q-4 0 -17.5 3.5t-27.5 8t-16 5.5 q-77 18 -141 18q-27 0 -52.5 -5.5t-58.5 -22t-53.5 -56t-20.5 -98.5q0 -46 10.5 -100.5t18.5 -69.5q6 -14 22.5 -17.5t57.5 -3.5h180q33 2 40.5 -2t4.5 -26l-16 -101q-3 -19 -15 -26t-45 -6l-161 6q-46 2 -60 0q-12 -4 -14 -15t-2 -59v-248q0 -69 4 -212t8 -160 q8 -28 137 -58q40 -9 48 -19.5t8 -49.5q0 -10 -0.5 -14.5t-3.5 -8.5t-9.5 -5t-19.5 -1q-7 0 -54.5 1.5t-113.5 3t-117 1.5q-21 0 -127.5 -3t-118.5 -3q-22 0 -22 26v33q0 21 9.5 28t53.5 21q45 14 60 27t18 47q4 39 4 281v313q0 58 -8.5 67.5t-58.5 8.5l-82 -2 q-22 -2 -29.5 0t-7.5 12z" />
<glyph unicode="g" horiz-adv-x="985" d="M39 -225q0 40 21.5 76.5t68.5 82.5q46 43 55 53t9 19t-9 16.5t-32 20.5q-33 20 -48.5 38.5t-15.5 43.5q0 22 10 43t56 98q1 1 26 47t41.5 79.5t16.5 41.5q0 10 -7 20t-43 50q-8 6 -23.5 27t-33.5 70t-18 101q0 60 22.5 116t66 102t115.5 74t162 28q48 0 80.5 -5 t138.5 -28q81 -18 195 -18h57q23 -3 23 -29v-35q0 -21 -5.5 -26t-33.5 -13q-67 -21 -79.5 -28.5t-12.5 -28.5q0 -23 4 -46t4 -40q0 -41 -11.5 -83.5t-39.5 -86t-68 -77.5t-103.5 -55.5t-140.5 -21.5q-21 0 -63 5.5t-57 5.5q-17 0 -28.5 -10.5t-27.5 -51.5q-16 -48 -16 -67 q0 -36 37 -49.5t129 -20.5l221 -12q77 -5 134.5 -32t86 -60t46 -75t21 -67t3.5 -47q0 -159 -141 -265t-375 -106q-52 0 -106 6.5t-111 23t-101 41.5t-72 65t-28 90zM254 -129q0 -79 80.5 -140t189.5 -61q97 0 176.5 52t79.5 131q0 36 -14.5 63t-41.5 42.5t-52.5 25t-60 13 t-49.5 4.5t-36 1q-129 0 -180 -16q-34 -9 -63 -39.5t-29 -75.5zM328 698q0 -85 42 -137.5t107 -52.5q77 0 117.5 69t40.5 152q0 79 -42.5 131.5t-109.5 52.5q-78 0 -116.5 -61.5t-38.5 -153.5z" />
<glyph unicode="h" d="M31 1427v35q0 12 5.5 18.5t11.5 8t18 2.5l307 47q20 4 26 4q27 0 27 -39q0 -22 -3 -135t-3 -131q0 -92 -2 -175t-4 -132t-2 -58q0 -51 4 -51q1 0 67 66q42 42 63.5 61t54.5 39.5t69 27.5t86 7q157 0 241 -72q58 -50 69 -109t11 -268v-116q0 -129 1 -187.5t6.5 -95t11 -43 t22.5 -14.5q7 -3 47 -16.5t41 -14.5q17 -10 17 -33v-33q0 -26 -25 -26q-6 0 -32.5 1.5t-81.5 3t-130 1.5q-97 0 -164 -3t-69 -3q-23 0 -23 26v33q0 21 9.5 28t54.5 21q43 13 59 27t17 47q6 65 6 281v137q0 28 -0.5 44t-4 45.5t-9.5 47.5t-19 41t-31 36t-47 22.5t-65 9.5 q-102 0 -179 -84q-34 -36 -50.5 -77t-18.5 -68.5t-2 -84.5v-69q0 -291 12 -316q5 -8 11.5 -13.5t29 -15t64.5 -22.5q20 -5 24 -12.5t4 -24.5v-33q0 -14 -5 -20t-19 -6q-7 0 -33 1.5t-78.5 3t-124.5 1.5q-80 0 -134.5 -1.5t-78.5 -3t-29 -1.5q-22 0 -22 26v33q0 21 9.5 28 t53.5 21q43 13 59 27t19 47q4 43 4 281v446q0 413 -12 445q-2 6 -5 10.5t-5.5 8t-8.5 6.5t-9.5 4.5t-13.5 3.5t-16 3.5t-21 4t-25 4.5q-22 4 -29.5 12.5t-7.5 21.5z" />
<glyph unicode="i" horiz-adv-x="606" d="M49 20v33q0 21 9.5 28t54.5 21q44 12 59 26.5t18 47.5q5 92 5 281v166q0 67 -0.5 103t-4 70.5t-8 48t-16 25.5t-24.5 14.5t-36 4.5q-32 1 -43.5 8.5t-11.5 24.5v34q0 18 6.5 24t28.5 9q281 33 322 33q26 0 26 -41l-2 -76q-1 -73 -2 -139.5t-1.5 -109t-0.5 -97.5v-102 q0 -268 8 -301q6 -22 26.5 -34t82.5 -32q20 -5 24 -12.5t4 -24.5v-33q0 -15 -5 -20.5t-19 -5.5q-8 0 -33 1.5t-79 3t-132 1.5q-75 0 -125.5 -1.5t-74.5 -3t-33 -1.5q-23 0 -23 26zM129 1321q0 68 47.5 106.5t108.5 38.5q70 0 118 -36t48 -107q0 -64 -47 -109t-115 -45 q-66 0 -113 44.5t-47 107.5z" />
<glyph unicode="j" horiz-adv-x="606" d="M-33 -383q0 2 1 4.5t5 6t7.5 7t12.5 12t17 15.5q34 30 60.5 59.5t46 64.5t33 63t22 73.5t13.5 76.5t7 90.5t2.5 97.5t0.5 114v322q0 68 -0.5 103.5t-4 70t-7.5 48t-15 25.5t-23.5 14.5t-35.5 4.5q-32 2 -45 8t-13 23v36q0 18 6.5 23.5t28.5 7.5q27 2 154.5 18.5 t150.5 16.5q25 0 33 -5.5t8 -31.5l-2 -360v-312q0 -42 3 -152.5t3 -152.5q0 -47 -7 -80.5t-30.5 -76t-73 -87.5t-128.5 -98q-123 -82 -156 -82q-11 0 -42.5 12t-31.5 21zM125 1319q0 70 52 112t118 42q62 0 109 -42.5t47 -107.5q0 -68 -49 -110t-117 -42q-67 0 -113.5 42 t-46.5 106z" />
<glyph unicode="k" horiz-adv-x="1099" d="M29 1427v37q0 11 6 17t10.5 7.5t17.5 4.5l318 47q13 2 22 2q16 0 20 -6q7 -10 7 -57l-10 -424q-4 -240 -4 -326v-123q0 -28 12 -28q10 0 75 64.5t127 136t62 87.5q0 12 -11 17.5t-44 13.5q-17 5 -23 7.5t-10 9t-4 18.5v43q0 24 29 23q10 0 88.5 -2.5t109.5 -2.5 q15 0 94.5 3t90.5 2q19 0 27 -4.5t8 -20.5v-41q0 -26 -11 -32.5t-63 -12.5q-27 -4 -40.5 -11.5t-49.5 -37.5q-162 -125 -213 -172q-23 -28 -23 -39q0 -10 6.5 -22t34.5 -54q103 -150 168.5 -240t105.5 -131t57 -51.5t44 -19.5q31 -8 38 -13.5t7 -23.5v-29q0 -20 -5.5 -24.5 t-39.5 -10.5q-179 -31 -234 -31q-25 0 -41 14.5t-55 74.5q-13 20 -77 123.5t-117.5 188.5t-61.5 91q-4 4 -12 4q-24 0 -43 -33q-6 -8 -6 -51q0 -127 4 -181.5t11 -68.5t26 -22q6 -2 28 -9.5t40.5 -14t19.5 -7.5q16 -8 16 -33v-33q0 -14 -5 -20t-19 -6q-9 0 -32 1.5t-75.5 3 t-132.5 1.5q-76 0 -127.5 -1.5t-76 -3t-34.5 -1.5q-22 0 -22 26v33q0 21 9.5 28t53.5 21q43 13 59 27t19 47q4 86 4 281v446q0 408 -12 445q-7 23 -24 30t-80 17q-37 4 -37 32z" />
<glyph unicode="l" horiz-adv-x="606" d="M43 1430v34q0 12 5.5 18.5t11.5 8t18 2.5l342 49q16 0 16 -22v-58q0 -78 -3 -270.5t-3 -288.5v-446q0 -291 12 -316q5 -8 11.5 -13.5t29 -15t64.5 -22.5q20 -5 24 -12.5t4 -24.5v-33q0 -14 -5 -20t-19 -6q-7 0 -35 1.5t-82 3t-125 1.5q-81 0 -132 -1.5t-72 -3t-31 -1.5 q-23 0 -23 26v33q0 21 9.5 28t54.5 21q43 13 59 27t19 47q4 86 4 281v446q0 407 -13 445q-7 25 -24 32t-80 15q-37 7 -37 35z" />
<glyph unicode="m" horiz-adv-x="1896" d="M47 903v39q0 25 5.5 30.5t27.5 8.5q292 41 323 41q15 0 18.5 -17.5t6.5 -105.5l2 -43q0 -43 14 -43q7 0 31.5 26t36.5 42q35 40 55 59t54 41.5t76.5 31.5t101.5 9q39 0 76.5 -7.5t76.5 -25t69 -53t42 -84.5q10 -43 22 -43q3 0 41 57q15 23 25 36t38 39t57.5 41t79.5 27.5 t108 12.5q74 0 139.5 -29t101.5 -82q29 -42 35 -102q4 -44 5 -169q0 -45 -1 -101v-82q0 -268 8 -301q4 -22 25 -34t84 -32q19 -6 24 -14t5 -23v-33q0 -15 -5.5 -20.5t-19.5 -5.5q-7 0 -31 1.5t-77.5 3t-131.5 1.5q-81 0 -133.5 -1.5t-74.5 -3t-29 -1.5q-23 0 -23 26v33 q0 21 9.5 28t54.5 21q43 13 59 27t17 47q6 64 6 281v82q0 116 -5.5 164.5t-27.5 78.5t-58.5 43t-68.5 13q-111 0 -191 -101q-27 -32 -36 -81.5t-9 -139.5v-59q0 -289 13 -316q5 -9 11 -14t28.5 -14.5t64.5 -22.5q19 -6 24 -14t5 -23v-33q0 -15 -5.5 -20.5t-19.5 -5.5 q-5 0 -27.5 1.5t-77 3t-138.5 1.5q-77 0 -128 -1.5t-74 -3t-32 -1.5q-22 0 -22 26v33q0 21 9.5 28t53.5 21q43 13 59 27t17 47q4 43 4 281v69q0 57 -1.5 91t-6.5 74t-16 62.5t-29.5 43t-47 29t-67.5 8.5q-110 0 -186 -99q-27 -36 -34 -82.5t-7 -126.5v-69q0 -268 6 -301 q6 -22 26.5 -34t83.5 -32q13 -4 19 -10t7 -11t1 -16v-33q0 -26 -23 -26q-9 0 -37 1.5t-82 3t-126 1.5q-77 0 -129 -1.5t-75 -3t-30 -1.5q-22 0 -22 26v33q0 21 9.5 28t53.5 21q44 12 59.5 26t18.5 48q6 88 6 281v127q0 156 -14 215t-45 67q-28 6 -90 13q-25 2 -25 24z" />
<glyph unicode="n" horiz-adv-x="1290" d="M39 903v39q0 23 5.5 30.5t27.5 10.5q43 4 119 14t134.5 17.5t75.5 7.5q18 0 23 -55q8 -82 8 -123q0 -6 4.5 -16.5t12.5 -10.5t45 37q13 13 40.5 41.5t38 38.5t33 29t38.5 26t41.5 17t54 13t63.5 3q116 0 202.5 -49.5t102.5 -143.5q6 -36 7 -79t1 -226v-67 q0 -238 5.5 -283t33.5 -57q8 -3 47 -16.5t41 -14.5q17 -8 17 -33v-33q0 -26 -23 -26q-2 0 -69.5 3t-166.5 3q-109 0 -176 -3l-67 -3q-23 0 -23 26v33q0 21 9.5 28t54.5 21q44 12 59.5 26t18.5 48q4 59 4 281v67v58t-1.5 52.5t-4.5 50.5t-9 42.5t-14.5 38.5t-22 29.5 t-30.5 24t-40 13t-52 5.5q-126 0 -207 -99q-22 -28 -33 -68.5t-12.5 -70.5t-1.5 -90v-53q0 -238 5.5 -283t33.5 -57q8 -3 47 -16.5t41 -14.5q16 -8 16 -33v-33q0 -26 -23 -26q-10 0 -81.5 3t-155.5 3q-105 0 -173 -3t-69 -3q-22 0 -22 26v33q0 21 9.5 28t53.5 21 q44 13 59.5 26.5t18.5 47.5q4 53 4 281v69q0 75 -8 182.5t-23 131.5q-19 31 -88 34q-37 1 -48 8t-11 21z" />
<glyph unicode="o" horiz-adv-x="1175" d="M76 473q0 107 34 205.5t96.5 175t160 122.5t215.5 46q301 0 424 -178q96 -133 96 -322q0 -48 -7.5 -98t-26 -105t-46 -104.5t-71 -94.5t-97 -77.5t-128 -52t-161.5 -19.5q-104 0 -188 29t-139 77.5t-92.5 114.5t-53.5 136t-16 145zM317 512q0 -162 78 -272.5t205 -110.5 q111 0 184.5 103t73.5 245q0 46 -8 95.5t-28 104t-50 97t-79 70.5t-109 28q-123 0 -195 -106t-72 -254z" />
<glyph unicode="p" horiz-adv-x="1214" d="M27 913v33q0 33 39 37q41 5 119 17.5t137.5 22t72.5 9.5q15 0 22.5 -10.5t9.5 -24.5t3 -45l4 -106q0 -10 8 -10q2 0 35 30t72 65.5t49 43.5q58 47 178 47q86 0 152.5 -28t118.5 -107q90 -137 90 -334q0 -71 -14.5 -144t-51 -151t-91 -138t-144.5 -99t-201 -39 q-39 0 -101 12t-65 12q-12 0 -12 -24q0 -169 3.5 -205.5t24.5 -48.5q14 -8 142 -39q27 -5 37 -12.5t10 -24.5v-33q0 -16 -8 -21.5t-27 -5.5q-8 0 -36 2t-93 3.5t-164 1.5q-85 0 -140 -1.5t-79.5 -3.5t-34.5 -2q-16 0 -21 6.5t-5 20.5v33q0 22 11 29.5t60 21.5q48 13 59 30 t13 66q3 66 8 398v241q0 62 -9 207.5t-22 181.5q-9 22 -30.5 32.5t-87.5 17.5q-25 1 -33 10t-8 26zM449 444q0 -109 14.5 -166t48.5 -104q48 -65 133 -65q109 0 179.5 111.5t70.5 293.5q0 143 -59 238.5t-156 95.5q-50 0 -104 -34t-95 -93q-32 -47 -32 -277z" />
<glyph unicode="q" horiz-adv-x="1138" d="M78 438q0 82 15 159.5t52.5 156t94.5 137t147.5 95t204.5 36.5q103 0 194 -25l56 -14q20 0 73 53q33 30 42 36.5t18 6.5q29 0 29 -41l-7 -116q-10 -425 -10 -514v-308q0 -297 8 -338q6 -24 25 -35t82 -32q25 -8 33 -14.5t8 -22.5v-33q0 -20 -7 -26.5t-26 -6.5 q-6 0 -94 3.5t-207 3.5q-68 0 -122.5 -1.5t-84.5 -3.5t-39 -2q-31 0 -31 29v37q0 22 7 27.5t41 11.5q113 24 136 36t27 54q9 79 9 272q0 43 -15 43q-10 0 -47 -30q-83 -63 -132 -82t-118 -19q-119 0 -202.5 64.5t-121.5 167.5t-38 235zM317 518q0 -96 23 -181t75 -144.5 t124 -59.5q56 0 122.5 41t79.5 78q9 23 14 125.5t5 163.5q0 107 -17 180t-48.5 108t-65 48.5t-78.5 13.5q-94 0 -164 -101.5t-70 -271.5z" />
<glyph unicode="r" horiz-adv-x="909" d="M37 897v35q0 25 7 32.5t32 10.5q40 5 118.5 17t137.5 21t69 9q29 0 29 -39l-2 -100q2 -56 4.5 -72t13.5 -16q6 0 18.5 12.5t62.5 68.5q24 26 38 42q24 26 39 40t43.5 31.5t66.5 25t89 7.5q41 0 57 -11q14 -10 14 -30v-6l-8 -144q0 -53 -26 -53q-3 0 -21.5 4t-50 8.5 t-66.5 4.5q-81 0 -129.5 -25.5t-66.5 -60.5q-23 -42 -29 -90.5t-6 -169.5v-93q0 -80 8 -180q3 -35 23 -45.5t106 -30.5q54 -13 64 -18.5t10 -26.5v-28q0 -33 -27 -33q-12 0 -43 1.5t-98.5 3t-169.5 1.5q-82 0 -152.5 -3t-76.5 -3q-23 0 -23 26v33q0 21 9.5 28t54.5 21 q44 12 59 26.5t18 47.5q5 62 5 281v67q0 59 -4 117.5t-24 129.5t-54 85q-28 10 -88 14q-18 1 -24.5 7t-6.5 20z" />
<glyph unicode="s" horiz-adv-x="872" d="M86 84l14 139q0 33 33 33h35q18 0 23 -7.5t14 -45.5q14 -54 76.5 -88.5t128.5 -34.5q75 0 126.5 37.5t51.5 97.5q0 27 -10 48.5t-34 39.5t-44 28.5t-58 28.5q-73 33 -116 55.5t-89 54.5t-69.5 63t-39 74.5t-15.5 97.5q0 38 9 75t29 76t57.5 72.5t88.5 56.5q86 39 221 39 q68 0 132.5 -13.5t92.5 -29.5q28 -17 25 -47l-14 -121q-1 -24 -7 -30.5t-22 -6.5h-33q-15 0 -21 8t-20 45q-12 29 -37.5 48t-57 26t-48 8.5t-31.5 1.5q-47 0 -81 -14t-49.5 -30.5t-24.5 -39.5t-10 -32.5t-1 -16.5q0 -64 70 -113q48 -33 223 -112q93 -41 152 -112t59 -160 q0 -57 -23.5 -109.5t-71.5 -99.5t-134 -75t-199 -28q-160 0 -266 54q-25 11 -31 22q-4 8 -4 25v12z" />
<glyph unicode="t" horiz-adv-x="757" d="M6 858q0 7 6 25l25 67q14 36 20 42.5t25 6.5q6 0 35.5 -2t34.5 -2q24 0 36.5 7.5t14.5 15.5t2 24q0 1 -4 99t-4 119q0 34 12 48.5t43 26.5l129 45q46 15 47 15q12 0 16.5 -12t4.5 -21q0 -3 -4 -36t-8 -70.5t-5 -47.5q-10 -107 -10 -164q0 -13 3.5 -22t8 -13.5t15.5 -6.5 t18.5 -2.5t24.5 -0.5h165q17 0 95 5l24 2q19 0 19 -17q0 -15 -27 -104q-8 -24 -19.5 -32.5t-37.5 -8.5q-14 0 -104 5t-107 5q-23 0 -33 -0.5t-19 -4t-12 -11.5q-4 -16 -4 -72v-315v-65t1 -55t3 -49t5.5 -40t9 -34.5t14 -25t19 -21.5t25 -13t32.5 -9t41 -2q58 0 145 23 q5 0 25 5t22 5q14 0 14 -16q-12 -122 -22 -136q-6 -7 -40 -17.5t-94.5 -20t-119.5 -9.5q-101 0 -167 17.5t-98 53.5t-43 76t-11 101l4 232v276q0 88 -7 105.5t-45 17.5q-7 0 -44.5 -2t-43.5 -2l-32 -2q-19 0 -19 14z" />
<glyph unicode="u" horiz-adv-x="1214" d="M18 922v36q0 17 6.5 22.5t28.5 7.5q43 4 125.5 13t141 15t69.5 6q21 0 21 -27l-4 -88q-11 -200 -11 -280v-158q0 -137 6.5 -183.5t30.5 -78.5q41 -53 131 -53q61 0 119.5 24.5t93.5 79.5q18 27 26 69t9.5 79t1.5 118v101q0 204 -14 229q-10 19 -26.5 25t-70.5 14 q-34 5 -34 29v36q0 17 7 23.5t30 6.5q40 3 169.5 18.5t153.5 15.5q15 0 22.5 -5t6.5 -22q-8 -103 -8 -471q0 -263 4 -299q3 -34 6 -49.5t13.5 -33.5t31.5 -25.5t57 -10.5q24 -3 31.5 -9.5t7.5 -24.5v-31q0 -16 -6.5 -23t-28.5 -10l-276 -37q-12 -2 -21 -2q-20 -1 -26 9 q-8 14 -17 98q-6 56 -9 67t-13 11q-6 0 -16.5 -8t-51.5 -46q-83 -77 -134.5 -103t-133.5 -26q-38 0 -78 7t-83 22t-76.5 45t-47.5 70q-22 57 -22 114l2 215v181q0 67 -0.5 103.5t-4 70t-8.5 47t-16 25t-23.5 14t-35.5 4.5q-30 3 -43 9.5t-13 23.5z" />
<glyph unicode="v" horiz-adv-x="1062" d="M23 958v37q0 18 7.5 22.5t28.5 4.5q17 0 92.5 -3t94.5 -3q81 0 137.5 1.5t83 3t35.5 1.5q20 0 26.5 -6t6.5 -21v-37q0 -19 -8.5 -24.5t-47.5 -13.5q-42 -11 -63 -23.5t-21 -36.5q0 -14 69.5 -233.5t121.5 -372.5l8 -21q40 118 74 222q113 316 127 362q12 38 12 53 q0 35 -68 54q-34 11 -40.5 15.5t-6.5 18.5v37q0 15 5.5 21t21.5 6q8 0 50.5 -3t90.5 -3q31 0 98.5 3t73.5 3q14 0 19.5 -5t5.5 -22v-37q0 -21 -5 -25.5t-32 -12.5q-20 -6 -35 -30.5t-41 -86.5q-7 -18 -142.5 -351t-158.5 -397q-13 -33 -23.5 -40.5t-46.5 -12.5l-108 -16 q-18 0 -25 12t-30 76q-231 625 -289 764q-19 48 -30.5 61.5t-47.5 26.5q-20 6 -20 32z" />
<glyph unicode="w" horiz-adv-x="1593" d="M12 963v32q0 27 23 27q18 0 113.5 -3t111.5 -3q68 0 118.5 1.5t76.5 3t34 1.5q31 0 31 -27v-32q0 -20 -6.5 -26.5t-34.5 -14.5q-12 -3 -23.5 -6.5t-30.5 -12t-30.5 -22.5t-11.5 -31q0 -10 18 -86q19 -71 70.5 -287t58.5 -237q20 42 170 528q43 138 64 221q6 20 15.5 25 t47.5 10q7 1 34 4l49.5 5.5t25.5 2.5q17 0 22.5 -11.5t16.5 -63.5q0 -1 27.5 -110.5t59 -234.5t63.5 -240.5t42 -135.5q14 38 96.5 316t82.5 300q0 20 -10.5 32t-22.5 16.5t-42 12.5q-7 2 -11 3q-29 7 -29 34v41q0 14 6 20.5t25 6.5q23 0 78.5 -3t76.5 -3q17 0 74.5 3 t77.5 3q13 0 20 -5.5t7.5 -9.5t0.5 -12v-32q0 -23 -4.5 -29t-23.5 -12q-28 -7 -40 -27.5t-44 -112.5q-14 -39 -191 -524l-86 -238q-4 -9 -13.5 -11.5t-55.5 -8.5q-84 -14 -101 -14t-22.5 8t-15.5 41q-2 5 -3 8q-10 34 -82.5 253.5t-97.5 313.5q-9 45 -16 45q-3 0 -19.5 -45 t-36 -101.5t-24.5 -68.5q-80 -215 -137 -377q-13 -41 -24 -49.5t-54 -13.5q-92 -10 -111 -10q-18 0 -23 8.5t-18 50.5q-241 799 -278 856q-5 8 -12 12.5t-19 9t-18 7.5q-15 8 -15 29z" />
<glyph unicode="x" horiz-adv-x="1099" d="M16 25v32q0 18 7 23.5t36 11.5q13 3 31.5 19t53 57.5t58 71.5t80.5 104q18 23 27 35q56 70 72 86q20 28 20 37q0 11 -145.5 206.5t-161.5 204.5q-3 2 -25.5 10.5t-25.5 10.5q-8 6 -8 27v38q0 23 33 23q6 0 70.5 -3t140.5 -3q61 0 132 3t101 3q35 0 35 -23v-41 q0 -22 -5.5 -27.5t-27.5 -10.5q-49 -11 -58.5 -16t-9.5 -21q0 -26 70 -127q3 -4 27 -40.5t43 -63.5t22 -27q8 0 76.5 106t75.5 131q2 6 2 17q0 8 -2 13t-14 11.5t-35 11.5q-24 5 -30.5 11t-6.5 24v37q0 35 37 35q6 0 55 -3t98 -3q55 0 106 3t60 3q31 0 31 -23v-38 q0 -17 -8.5 -25t-46.5 -27q-23 -11 -47 -34t-72 -84q-187 -239 -187 -250q0 -14 147.5 -213.5t176.5 -221.5q2 -1 51 -26q8 -5 8 -23v-32q0 -20 -6 -25.5t-20 -5.5q-3 0 -75.5 3t-125.5 3q-20 0 -126 -3t-124 -3q-17 0 -21.5 8t-4.5 23v32q0 14 8 20.5t37 12.5t39 16t10 27 q0 15 -21 54.5t-108 187.5q-30 45 -39 45q-6 0 -37 -47q-4 -6 -47.5 -69t-74 -112t-30.5 -61q0 -20 14.5 -28.5t53.5 -16.5q24 -7 30.5 -13t6.5 -16v-32q0 -18 -6.5 -24.5t-22.5 -6.5q-1 0 -58 3t-112 3q-15 0 -91 -3t-89 -3q-17 0 -22 7.5t-5 23.5z" />
<glyph unicode="y" horiz-adv-x="1024" d="M10 963v34q0 25 25 25q18 0 112 -3t109 -3q35 0 131.5 3t110.5 3q9 0 18.5 -6t9.5 -19v-34q0 -21 -11.5 -28.5t-63.5 -19.5q-66 -15 -66 -57q0 -21 27.5 -95t117.5 -304q27 -62 60 -154q14 -29 16 -29q3 0 16 37t17 52q0 2 77 240.5t77 260.5q0 28 -17.5 38.5t-62.5 21.5 q-22 4 -27.5 11t-5.5 26v34q0 14 4.5 19.5t20.5 5.5q25 0 80 -3t81 -3q29 0 82 3t66 3q26 0 26 -25v-34q0 -14 -4 -20.5t-18 -12.5q-31 -14 -45.5 -36t-48.5 -112q-25 -66 -152.5 -384t-144.5 -361q-54 -143 -71 -186t-40.5 -87t-52.5 -75q-42 -47 -104.5 -67.5 t-118.5 -20.5q-45 0 -76 2t-51 9t-31 13t-16 22t-6 28t-1 38q0 67 9 103q2 12 18 12q6 0 13.5 -1.5t18 -4.5t17.5 -4q67 -13 125 -13q119 0 174 76q15 19 30 52.5t22.5 57t7.5 25.5t-12 8.5t-13 8.5q-20 20 -70 143q-298 695 -305 707q-11 22 -22.5 29.5t-42.5 17.5 q-19 6 -19 33z" />
<glyph unicode="z" horiz-adv-x="872" d="M14 72q0 16 33 57q99 122 223 285t204 273t81 116q0 4 -12 4h-248q-23 0 -34 -1t-22.5 -8t-17.5 -22q-14 -29 -19.5 -35t-19.5 -6h-32q-20 0 -25.5 8.5t-5.5 26.5l-8 201v28q0 10 6 19.5t14 9.5q7 0 110 -6t205 -6q76 0 152 3t124 6t56 3t12.5 -6t8.5 -25q10 -50 10 -65 q0 -16 -11 -32t-69 -87q-76 -94 -184 -238t-181 -246t-73 -106q0 -6 16 -6q334 0 363 6q19 4 25.5 15.5t19.5 56.5q7 22 33 22h32q14 0 20 -2t10.5 -14.5t4.5 -38.5q0 -19 5 -118.5t5 -116.5q0 -31 -24 -31q-8 0 -41.5 3.5t-104.5 7t-168 3.5q-102 0 -215 -5t-145 -9t-70 -4 q-20 0 -26 14q0 2 -5 17.5t-8.5 30t-3.5 18.5z" />
<glyph unicode="{" horiz-adv-x="909" d="M129 561q0 20 12 26.5t68 18.5q28 7 47.5 20.5t29.5 26.5t15 35t5.5 35t0.5 37q0 17 -3 107.5t-3 105.5q-2 63 -2 188q0 59 1.5 97t6.5 79t14.5 65.5t26.5 49t40.5 37.5t58 24t78.5 15t102 4q147 0 159 -10q9 -7 9 -29v-31q0 -19 -15 -23q-14 -3 -82 -5q-50 -2 -77 -9 t-48 -28.5t-28.5 -61.5t-7.5 -108q0 -176 4 -266q0 -15 2 -89.5t2 -87.5q0 -66 -10.5 -106.5t-23.5 -56t-38 -31.5q-7 -6 -33 -20t-34 -17q0 -2 8.5 -6.5t19 -10t12.5 -6.5q29 -16 44 -28.5t29.5 -35.5t20 -58t5.5 -89q0 -95 -6 -176q-4 -102 -4 -229q0 -36 0.5 -53t2.5 -48 t6.5 -46t13.5 -36.5t22 -32t33 -18.5t46 -8q78 -4 117 -4q19 -4 19 -26v-31q0 -27 -17 -33q-18 -6 -155 -6q-74 0 -125 6.5t-88.5 25.5t-59 44t-34.5 70.5t-17 96.5t-4 130q0 32 6 201.5t6 197.5q0 75 -22 108t-99 52q-40 9 -48.5 17t-8.5 40z" />
<glyph unicode="|" d="M547 -512v2048h158v-2048h-158z" />
<glyph unicode="}" horiz-adv-x="909" d="M115 -358q0 19 14 23q12 3 84 5q100 3 130 42.5t30 174.5l-2 256q-6 87 -6 176q0 69 11 109.5t29.5 60t57.5 41.5q2 2 12.5 6.5t19.5 9t9 5.5q0 2 -9 6.5t-19.5 9.5t-12.5 6q-56 30 -77 70t-21 139q0 15 3 90.5t3 88.5q4 78 4 231q0 45 -1.5 77t-7 58t-11 42.5t-19 28.5 t-25 18.5t-35.5 10.5t-44 5t-56 2q-49 2 -56 8q-5 5 -5 20v31q0 29 18 33q16 6 160 6q73 0 124 -7t87.5 -27t57.5 -45t33 -71t15.5 -95t3.5 -126q0 -32 -6 -202.5t-6 -198.5q0 -75 22.5 -108t100.5 -52q38 -9 46.5 -17.5t8.5 -39.5q0 -20 -12 -26.5t-66 -18.5 q-29 -7 -49 -20.5t-29.5 -27t-15 -35t-6 -34t-0.5 -35.5q0 -91 8 -215q2 -86 2 -190q0 -59 -1.5 -98t-7 -79.5t-15.5 -65t-27 -48.5t-40.5 -37t-58 -23t-78 -14t-101.5 -4q-148 0 -160 10q-8 6 -8 29v31z" />
<glyph unicode="~" d="M133 627q57 88 119.5 136t150.5 48q113 0 242 -70q65 -34 111.5 -51.5t93.5 -17.5q91 0 180 131l90 -107q-57 -88 -119.5 -135.5t-150.5 -44.5q-16 0 -32.5 2t-29 4t-30.5 7.5t-27 8.5t-29 11.5t-26 11.5t-28.5 13t-26.5 12q-6 3 -25.5 12.5t-27 12.5t-25 11t-27.5 11 t-26 8.5t-28.5 7.5t-28 4t-30.5 2q-97 0 -176 -135z" />
<glyph unicode="&#xa1;" horiz-adv-x="833" d="M258 1321q0 67 46.5 111.5t115.5 44.5t112 -45t43 -111q0 -70 -46.5 -114t-104.5 -44q-75 0 -120.5 46t-45.5 112zM281 49v422q0 129 6.5 180t38.5 185q25 95 45 231q3 18 12 23.5t25 5.5q32 0 39.5 -11t13.5 -63q11 -87 49 -242q15 -69 23 -133t9 -99.5t1 -98.5v-414 q0 -16 -2.5 -24.5t-14 -19.5t-40 -15.5t-76.5 -4.5q-60 0 -88 9t-34.5 23t-6.5 46z" />
<glyph unicode="&#xa2;" d="M215 659q0 116 39.5 218.5t131 189.5t226.5 129q37 11 45.5 16.5t8.5 20.5v110q0 21 24 21h58q16 0 20 -5.5t4 -17.5v-102q0 -17 8.5 -20.5t48.5 -8.5q165 -19 193 -55q8 -10 4 -37l-25 -145q-3 -20 -8.5 -26.5t-25.5 -6.5h-47q-17 0 -22.5 6t-20.5 41q-28 60 -78 60 q-27 0 -27 -25v-653q0 -31 31 -31q23 0 80.5 22t99.5 52q45 32 55 32q15 0 15 -22q0 -16 -9.5 -85t-17.5 -81q-12 -19 -79.5 -46.5t-110.5 -37.5q-44 -11 -54 -17t-10 -26v-113q0 -13 -4 -18.5t-18 -5.5h-60q-14 0 -19 5t-5 23v111q0 14 -6.5 19.5t-32.5 11.5 q-202 47 -307 175t-105 322zM459 682q0 -206 110 -283q57 -41 76 -41q21 0 21 27v614q0 27 -19 27q-4 0 -15.5 -4.5t-29 -16t-36.5 -28.5t-38 -45t-34.5 -62t-25 -83t-9.5 -105z" />
<glyph unicode="&#xa3;" d="M70 -31q0 13 6 25l41 100q16 40 24.5 56.5t26.5 33t43.5 21t69.5 4.5q36 0 47 5t32 34q72 104 72 203q0 39 -13.5 110t-25.5 98q-6 15 -67 15h-138q-14 0 -19.5 0.5t-12.5 1.5t-9 4.5t-2 9.5q0 11 37 96q8 21 16.5 30t22.5 9q3 0 46 -3t48 -3q41 0 41 27l-6 37 q-8 50 -8 100q0 24 1 40.5t9.5 52t24.5 68t49 80t80 95.5q54 55 99.5 82.5t105.5 42.5q77 22 157 22q42 0 105 -7t86 -23q13 -10 14.5 -21t-2.5 -37l-22 -159q-3 -23 -10.5 -29t-24.5 -6h-39q-17 0 -22 4t-13 22q-27 60 -139 60q-15 0 -28.5 -1t-43.5 -4.5t-53.5 -13.5 t-48 -25.5t-38.5 -42.5t-14 -63q0 -33 41 -209q12 -59 23 -70.5t55 -11.5q23 0 137 7.5t117 7.5q21 0 21 -13q0 -6 -11 -51.5t-16 -62.5q-9 -33 -16.5 -38t-42.5 -5l-201 2q-23 0 -23 -14q0 -5 6.5 -41.5t6.5 -67.5q0 -29 -2.5 -52t-13.5 -56t-30 -62.5t-54.5 -66.5 t-84.5 -74q-32 -24 -32 -33q0 -6 30 -6q25 -1 180 -14t183 -13q91 0 158.5 26.5t95.5 65.5q19 27 33 27q11 0 32 -25q17 -17 17 -24q0 -21 -68 -133q-40 -64 -68.5 -94.5t-75 -48t-118.5 -17.5q-69 0 -250 35q-187 35 -293 35q-90 0 -166 -41q-52 -29 -61 -29q-6 0 -10 5 t-4 11z" />
<glyph unicode="&#xa4;" horiz-adv-x="1298" d="M176 1042q-11 11 7 29q5 6 22 21l2 2q5 4 15 14.5t14.5 13.5t7.5 0q6 -7 35 -35.5t68.5 -67.5t64.5 -65q107 80 237 80q134 0 238 -80q26 27 64 64.5t70.5 69t35.5 34.5t7 -0.5t13.5 -12.5t16.5 -15q26 -21 31.5 -32t-3.5 -20t-71.5 -73.5t-85.5 -87.5q84 -100 84 -238 q0 -130 -86 -246q20 -19 82.5 -84t74.5 -75q7 -8 0 -18.5t-28 -31.5q-3 -2 -4 -3l-3 -3l-4 -4q-14 -14 -19 -17t-13 3q-6 7 -33.5 34t-66 65t-64.5 65q-104 -76 -236 -76q-64 0 -126.5 21t-108.5 55q-27 -28 -63 -64t-68 -67.5t-33 -32.5q-2 -2 -4.5 -2.5t-5.5 1t-5.5 3 t-7 5.5t-8.5 7q-58 43 -41 60q10 9 73.5 73.5t86.5 85.5q-88 119 -88 246q0 135 86 238q-19 18 -53 52.5t-67.5 68.5t-39.5 40zM408 643q0 -104 70.5 -177t170.5 -73q102 0 174 72.5t72 177.5q0 101 -71.5 175.5t-174.5 74.5q-100 0 -170.5 -74.5t-70.5 -175.5z" />
<glyph unicode="&#xa5;" d="M12 1370v45q0 25 31 25q6 0 32.5 -2t80 -4t123.5 -2q79 0 147.5 4t71.5 4q18 0 25 -6.5t7 -22.5v-39q0 -22 -8 -28.5t-41 -14.5q-27 -7 -37 -9.5t-21 -8.5t-14 -14t-3 -21q0 -30 47 -109q24 -41 153 -288q32 -63 43 -82t17 -19q2 0 3.5 1t3 3.5t3 4.5t3.5 6.5t3.5 7.5 t3.5 8.5t4 9.5q11 25 72.5 135t112.5 208t51 122q0 20 -17 28.5t-69 20.5q-31 6 -40 14t-9 25v43q0 25 34 25q1 0 62 -4t131 -4q48 0 115 4t81 4q29 0 29 -25v-43q0 -14 -9 -20.5t-54 -24.5q-11 -5 -21.5 -13.5t-22.5 -24t-19.5 -27t-22 -35.5t-21.5 -35q-4 -7 -81.5 -131 t-112.5 -178q-35 -52 -35 -74q0 -18 30 -18h177q25 0 33 -4t8 -23v-43q0 -18 -6.5 -23.5t-26.5 -5.5h-260q-19 0 -32 -7t-19.5 -16.5t-10 -28.5t-4 -32t-0.5 -39q0 -16 5 -23t11.5 -8t24.5 -1h277q24 0 32.5 -4t8.5 -23v-43q0 -18 -6.5 -24.5t-26.5 -6.5h-281 q-19 0 -25.5 -0.5t-12 -6t-5.5 -17.5v-43q0 -117 2.5 -163.5t8 -60.5t20.5 -24q19 -12 92 -25q24 -5 30.5 -13t6.5 -22v-45q0 -11 -7 -17t-12 -6.5t-16 -0.5q-13 0 -76.5 4t-144.5 4q-96 0 -155 -2t-79.5 -4t-23.5 -2q-35 0 -35 24v45q0 19 12 26t54 13q78 13 88 56 q6 37 6 213v43q0 12 -5 17.5t-11.5 6t-24.5 0.5h-270q-25 0 -33 5t-8 26v43q0 19 9 23t36 4h274q25 0 30 8.5t5 44.5q0 39 -16 76q-9 16 -18.5 21t-31.5 5h-247q-18 0 -25 1t-11.5 7.5t-4.5 20.5v43q0 19 8.5 23t36.5 4h172q30 0 30 20q0 11 -108 190l-156 259 q-25 40 -39 51.5t-49 23.5q-24 8 -30.5 13.5t-6.5 21.5z" />
<glyph unicode="&#xa6;" d="M547 358h158v-716h-158v716zM547 666v716h158v-716h-158z" />
<glyph unicode="&#xa7;" d="M92 514q0 32 9 68t33.5 86.5t80.5 103.5t137 96q9 5 23 12q25 13 30 16.5t5 8.5t-35 35q-29 25 -39 33.5t-40.5 41t-45 57.5t-28 65.5t-13.5 81.5q0 63 28.5 121.5t84 107.5t150.5 78.5t216 29.5q89 0 175 -15t123.5 -27.5t53.5 -20.5t18.5 -23.5t-1.5 -39.5l-15 -138 q-3 -34 -8 -41.5t-22 -7.5h-56q-21 0 -28 4.5t-13 20.5q-12 26 -19.5 40t-27.5 40.5t-42 40.5t-60 26t-84 12q-107 0 -156 -45t-49 -104q0 -72 87 -136q53 -40 237 -136q42 -22 66 -35t68 -40t71 -49.5t61 -58t53.5 -70t33 -80.5t13.5 -95q0 -56 -18.5 -106t-41.5 -82 t-62.5 -65t-61.5 -47t-59 -36q-41 -23 -41 -29t37 -31q159 -105 159 -262q0 -79 -37 -152t-98 -116q-72 -51 -172 -74.5t-194 -23.5q-45 0 -98.5 4t-140 24t-138.5 53q-23 14 -27.5 27.5t0.5 34.5l23 143q3 20 10.5 24.5t28.5 4.5h53q26 0 32.5 -6.5t18.5 -44.5 q19 -58 87 -94.5t167 -36.5q54 0 94 13t61 31.5t33.5 42.5t15.5 41t3 33q0 29 -6.5 52t-27 45t-40 37.5t-63.5 37t-78 36.5t-103 44q-391 161 -391 414zM338 608q0 -42 16 -78t46 -64t57 -46t65 -39q44 -23 126 -60.5t93 -37.5q20 0 64 22q46 23 78 63.5t42.5 70t10.5 46.5 q0 81 -35 131t-127 103q-198 115 -229 115q-8 0 -29.5 -7.5t-52 -25.5t-58.5 -42.5t-47.5 -64.5t-19.5 -86z" />
<glyph unicode="&#xa8;" horiz-adv-x="1024" d="M195 1331q0 58 35.5 102t93.5 44q63 0 97 -43.5t34 -102.5q0 -65 -37.5 -106t-93.5 -41q-60 0 -94.5 44.5t-34.5 102.5zM569 1331q0 58 35.5 102t93.5 44q63 0 97 -43.5t34 -102.5q0 -65 -37.5 -106t-93.5 -41q-60 0 -94.5 44.5t-34.5 102.5z" />
<glyph unicode="&#xa9;" horiz-adv-x="1818" d="M152 723q0 153 60 291.5t161 237.5t241 157.5t293 58.5q155 0 296 -59t242 -158.5t160.5 -237.5t59.5 -290q0 -147 -58.5 -282.5t-158 -235.5t-241.5 -159.5t-300 -59.5q-156 0 -296.5 59.5t-240.5 159t-159 235.5t-59 283zM299 723q0 -122 47.5 -234t128.5 -194 t194 -131t238 -49q128 0 243 50.5t195.5 134t127.5 194.5t47 229q0 163 -80.5 303.5t-222.5 224.5t-310 84q-165 0 -304.5 -81.5t-221.5 -222.5t-82 -308zM485 717q0 176 131 297t347 121q68 0 135 -13t94 -23t39 -16q21 -11 16 -43l-12 -106q-4 -22 -14 -27q-9 -4 -21 -4 q-25 0 -31 5t-14 30q-11 36 -65.5 59t-110.5 23q-119 0 -193.5 -87.5t-74.5 -211.5q0 -115 71 -196t183 -81q63 0 111.5 21t76.5 49l14.5 14.5t10 7.5t12.5 4.5t16 0.5q17 0 24.5 -1t13.5 -9t3 -25l-14 -94q-2 -28 -37 -41q-124 -56 -262 -56q-193 0 -321 111t-128 291z" />
<glyph unicode="&#xaa;" horiz-adv-x="720" d="M78 766q0 39 6.5 67t14.5 43t24.5 24.5t27 12.5t31.5 7l201 32q33 6 39 16t6 58q0 16 -2 25.5t-10.5 24.5t-31 22.5t-58.5 7.5q-55 0 -127 -27q-58 -18 -62 -18q-27 0 -22 33l6 61q2 18 9 28t26 19q93 31 196 31q140 0 196 -44t56 -128q0 -17 -2 -102t-2 -99 q0 -139 23 -153q16 -9 47 -13q24 -4 28 -10.5t4 -38.5q0 -23 -28 -29l-172 -28q-40 -7 -48.5 8t-13.5 86q-74 -55 -112.5 -71.5t-71.5 -16.5q-178 0 -178 172zM258 774q0 -32 18 -45.5t41 -13.5q45 0 80 28q16 11 23.5 25.5t7.5 46.5v41q0 27 -10 27q-6 0 -46.5 -12 t-54.5 -17q-16 -7 -26.5 -13.5t-21.5 -24.5t-11 -42z" />
<glyph unicode="&#xab;" d="M90 567q0 33 82 115l244 244q51 51 63.5 61.5t26.5 13.5q15 3 35 3q60 0 78 -2.5t18 -12.5q0 -7 -18 -34.5t-40 -57.5t-26 -39l-72 -110q-88 -137 -88 -181q0 -28 18 -61.5t74 -118.5l138 -207q26 -40 26 -45q0 -12 -18 -12q-20 -2 -76 -2q-27 0 -39 2.5t-33.5 17.5 t-54.5 49l-238 248q-73 76 -86.5 93.5t-13.5 35.5zM584 567q0 33 82 115l241 244q8 8 23 22q35 34 45.5 42t23.5 11q15 3 35 3q60 0 78 -2.5t18 -12.5q0 -7 -18 -34.5t-39.5 -58t-25.5 -38.5l-72 -110q-88 -134 -88 -181q0 -29 18.5 -64t73.5 -116l68 -102q41 -64 69 -105 q25 -38 25 -45q0 -12 -19 -12q-20 -2 -73 -2q-39 0 -59 10t-68 59l-238 248q-73 76 -86.5 93.5t-13.5 35.5z" />
<glyph unicode="&#xac;" d="M111 641v168h1032v-588h-168v420h-864z" />
<glyph unicode="&#xad;" horiz-adv-x="833" d="M92 459l31 129q8 33 13.5 41t25.5 8l74 -2q23 0 143.5 -3t140.5 -3q10 0 166 6l39 2q18 0 18 -19q0 -14 -4 -30l-24 -109q-8 -38 -14.5 -46.5t-32.5 -8.5q-22 0 -137 3t-134 3q-99 0 -166 -2.5t-93 -5.5l-27 -2q-25 0 -19 39z" />
<glyph unicode="&#xae;" horiz-adv-x="1818" d="M152 723q0 153 60 291.5t161 237.5t241 157.5t293 58.5q155 0 296 -59t242 -158.5t160.5 -237.5t59.5 -290q0 -147 -58.5 -282.5t-158 -235.5t-241.5 -159.5t-300 -59.5q-156 0 -296.5 59.5t-240.5 159t-159 235.5t-59 283zM299 723q0 -122 47.5 -234t128.5 -194 t194 -131t238 -49q128 0 243 50.5t195.5 134t127.5 194.5t47 229q0 163 -80.5 303.5t-222.5 224.5t-310 84q-165 0 -304.5 -81.5t-221.5 -222.5t-82 -308zM561 391q0 16 7.5 20.5t43.5 12.5q18 6 24.5 15t6.5 34v346q0 137 -3.5 177t-14.5 48q-41 8 -54 17q-7 4 -8.5 10.5 t-1.5 32.5q0 29 27 29q28 0 82.5 -2.5t81.5 -2.5q12 0 134.5 3t145.5 2q100 -3 147.5 -60.5t47.5 -130.5q0 -125 -115 -174q-13 -6 -31 -16.5t-18 -14.5t43 -77t96 -150.5t72 -85.5q36 -12 43.5 -20.5t7.5 -38.5q0 -25 -27 -25q-15 0 -42 0.5t-54 1.5t-52 2t-42 2h-16 q-11 3 -17 10t-18 31l-150 272q-16 30 -26.5 41t-24.5 11q-25 0 -25 -27q0 -239 11 -246q4 -3 28 -10.5t27 -9.5q12 -7 14 -14.5t2 -36.5q0 -27 -26 -27q-13 0 -75 3t-71 3q-13 0 -77 -3t-76 -3q-13 0 -19 7.5t-7 16t-1 27.5zM831 999q0 -4 2.5 -84t2.5 -90q0 -13 4 -18.5 t9.5 -6.5t22.5 -1q154 0 154 123q0 29 -6.5 50t-20 33.5t-26 20t-33.5 10.5t-31.5 3.5t-31.5 0.5q-29 0 -37.5 -6t-8.5 -35z" />
<glyph unicode="&#xaf;" horiz-adv-x="1024" d="M188 1249q0 8 16 58.5t17 52.5q7 22 16.5 30.5t34.5 8.5q115 -4 303 -4q18 0 116 3t114 3q26 0 26 -17q0 -23 -32 -112q-9 -23 -18 -29t-31 -6q-18 0 -123 2t-170 2.5t-117 -2.5q-60 -6 -127 -6q-25 0 -25 16z" />
<glyph unicode="&#xb0;" d="M246 1092q0 162 113.5 271.5t267.5 109.5t266.5 -111t112.5 -270q0 -154 -110 -266.5t-269 -112.5t-270 111.5t-111 267.5zM399 1092q0 -95 65.5 -164.5t162.5 -69.5q95 0 161 68.5t66 165.5q0 102 -69 168.5t-158 66.5q-91 0 -159.5 -67.5t-68.5 -167.5z" />
<glyph unicode="&#xb1;" d="M96 -51v112q0 20 3.5 25.5t21.5 5.5h1009q16 0 20.5 -4.5t4.5 -26.5v-108q0 -13 -1 -18.5t-6.5 -10t-17.5 -4.5h-1009q-16 0 -20.5 4t-4.5 25zM96 606v113q0 20 3.5 25.5t21.5 5.5h399q12 0 15.5 3.5t3.5 16.5v412q0 12 1 15.5t7 6t22 2.5h113q21 0 26 -3t5 -21v-412 q0 -8 1 -11.5t5 -6t14 -2.5h397q16 0 20.5 -4.5t4.5 -26.5v-109q0 -12 -1 -17.5t-6.5 -10t-17.5 -4.5h-397q-13 0 -16.5 -3.5t-3.5 -17.5v-350q0 -17 -4.5 -22t-26.5 -5h-113q-20 0 -25 4t-5 23v350q0 13 -3 17t-16 4h-399q-12 0 -16 1t-6.5 7t-2.5 20z" />
<glyph unicode="&#xb2;" horiz-adv-x="833" d="M63 678q-4 18 2 27t41 38q66 55 124.5 110t123 124t102.5 135t38 115q0 32 -13 54.5t-34 32.5t-39 13.5t-37 3.5q-66 0 -144 -39q-4 -1 -16.5 -8t-23.5 -12.5t-15 -5.5t-7 1.5t-4.5 3t-3 5.5t-1.5 5.5t-1 6.5t-1 6l-7 92q-2 33 44.5 58.5t105.5 36t113 10.5 q18 0 32.5 -0.5t47.5 -5t58.5 -12t57.5 -24t53 -39t35.5 -59t14.5 -81.5q0 -73 -41 -135t-146 -164q-82 -82 -213 -197h197q76 0 96 4t37 25q29 33 36 36q3 1 9 1h39q32 0 25 -35l-27 -170q-3 -29 -31 -29q-8 0 -49 3t-116.5 6t-166.5 3t-176 -6l-84 -6q-18 0 -24 25z" />
<glyph unicode="&#xb3;" horiz-adv-x="833" d="M115 678l14 88q5 29 23 29q6 0 71 -39q49 -27 115 -27q71 0 119.5 41t48.5 94q0 59 -65 95.5t-152 33.5l-70 -2q-19 0 -26 7t-7 24q0 14 5 45.5t10 40.5q9 18 51 18q97 0 163 34t66 95q0 39 -31.5 68t-93.5 29q-65 0 -118 -27q-2 -1 -20.5 -11t-33 -17t-18.5 -7 q-21 0 -21 31v78q0 14 1 20.5t8 14.5t22 16q84 43 221 43q146 0 219 -55q76 -56 76 -150q0 -17 -3 -34.5t-17 -47.5t-38 -55t-72 -50t-113 -38q270 -27 270 -209q0 -47 -20.5 -91t-62 -83.5t-116.5 -63.5t-172 -24q-75 0 -138.5 16t-80.5 31q-18 16 -14 39z" />
<glyph unicode="&#xb4;" horiz-adv-x="1024" d="M395 1157q0 6 15 37l131 270q21 42 33 51t51 9h166q49 0 49 -15q0 -11 -56 -67l-292 -283q-22 -22 -46 -22q-51 0 -51 20z" />
<glyph unicode="&#xb5;" d="M111 -303q0 52 24.5 149t24.5 170v1008h168v-692q0 -105 48.5 -167.5t143.5 -62.5q86 0 158.5 64t83.5 117v741h168v-786q0 -105 17.5 -138.5t60.5 -33.5q42 0 64 37.5t22 105.5h49q3 -103 -48 -168.5t-149 -65.5q-169 0 -180 193h-8q-51 -88 -119 -140.5t-172 -52.5 q-75 0 -133 35t-88 88h-4v-82q0 -73 32.5 -170t32.5 -149q0 -67 -27 -109.5t-75 -42.5q-44 0 -69 42.5t-25 109.5z" />
<glyph unicode="&#xb6;" horiz-adv-x="1669" d="M100 1077q0 162 107 260q66 63 146 84t222 21q45 0 279 -4q238 -4 274 -4q51 0 181.5 2t132.5 2l69 4q17 0 24 -6t7 -21v-45q0 -15 -9.5 -21.5t-37.5 -11.5t-46 -13t-26 -18.5t-10.5 -19.5t-3.5 -22q-2 -23 -4 -363v-823q2 -352 6 -375q1 -9 3.5 -16t10 -15.5t24 -15 t42.5 -10.5q33 -6 42 -14t9 -25v-33q0 -27 -29 -27q-6 0 -36 2t-35 2q-366 9 -377 9q-28 0 -173 -4.5t-169 -4.5l-96 -4q-31 0 -31 27v33q0 18 10 22.5t58 14.5q38 7 60 16t32 27t12 33t2 47q0 56 4 335v791q0 366 -6 393q-6 21 -28 26t-89 5q-133 0 -200 -57 q-95 -81 -95 -207q0 -11 0.5 -22.5t6 -40t15.5 -52.5t31 -54.5t50 -52.5t75.5 -38.5t104.5 -20.5q44 -3 56.5 -6t21.5 -14q22 -26 22 -41q0 -12 -21 -20.5t-52.5 -12t-53.5 -5t-37 -1.5q-114 0 -206.5 33t-150 89.5t-88 129t-30.5 153.5zM999 80q0 -289 5 -350 q2 -17 4.5 -25.5t10 -24t23.5 -23t41 -7.5q37 0 59 16t27 37q4 20 11 401v799q0 325 -9 371q-4 27 -26 41t-51 14q-76 0 -86 -55q-7 -31 -9 -379v-815z" />
<glyph unicode="&#xb7;" horiz-adv-x="606" d="M141 666q0 68 48 111.5t106 43.5q76 0 121 -45t45 -112q0 -65 -46.5 -110.5t-115.5 -45.5q-68 0 -113 46t-45 112z" />
<glyph unicode="&#xb8;" horiz-adv-x="1024" d="M399 -397q0 3 12.5 11.5t27.5 18.5t18 13q16 10 48 46.5t32 63.5q0 24 -19 47q-22 25 -26.5 32t-4.5 20q0 9 19 30l45 49q28 31 53 31q12 0 24 -9.5t56 -51.5q68 -68 68 -111q0 -33 -29.5 -70t-120.5 -94q-5 -3 -22.5 -13t-31 -17.5t-30.5 -16t-30 -13.5t-19 -5 q-9 0 -39.5 16t-30.5 23z" />
<glyph unicode="&#xb9;" horiz-adv-x="833" d="M106 1276q-6 17 0.5 24t38.5 25q211 127 232 141q12 7 23.5 15t15.5 10.5t8.5 4t9.5 1.5q4 0 55 -9t58 -9q15 -1 25 -7t10 -14q0 -27 -4 -67q-5 -115 -5 -203v-205q2 -249 7 -258q6 -8 19 -12t63 -11q27 -4 35 -11t8 -21v-35q0 -27 -31 -27q-18 0 -92 3t-115 3 q-52 0 -127.5 -3t-83.5 -3q-29 0 -29 27v35q0 20 14.5 25.5t84.5 13.5q28 3 33.5 13t7.5 50q0 1 0.5 35t1 78.5t0.5 70.5v160q0 46 -0.5 86t-1 62t-0.5 24q0 15 -13 15q-1 0 -22 -7l-164 -61q-24 -8 -27 -8q-15 0 -22 20z" />
<glyph unicode="&#xba;" horiz-adv-x="796" d="M59 901q0 44 10 87t36 88t65.5 79t104.5 56t147 22q141 0 227 -81.5t86 -219.5q0 -151 -98 -244.5t-250 -93.5q-66 0 -123.5 18.5t-104 54.5t-73.5 96.5t-27 137.5zM256 934q0 -102 47.5 -168t108.5 -66q56 0 92.5 54t36.5 139q0 107 -51 172t-105 65q-57 0 -93 -53 t-36 -143z" />
<glyph unicode="&#xbb;" d="M111 989q0 12 18 12q30 3 74 3q38 0 58.5 -10t68.5 -60l237 -250q77 -80 89 -95t12 -32q0 -33 -82 -115l-242 -243q-66 -66 -76 -72q-6 -3 -14 -4q-12 -2 -37 -2q-63 0 -79.5 1.5t-16.5 10.5q0 5 7.5 17.5t19 30t22.5 33t22.5 31t14.5 19.5l69 113q91 139 91 180 q0 27 -19.5 62t-75.5 116l-65 103q-9 14 -28 41t-44 65q-24 37 -24 45zM604 989q0 12 19 12q30 3 73 3q37 0 58 -10.5t69 -59.5l238 -250q71 -74 85.5 -92t14.5 -35q0 -33 -82 -115l-241 -243q-53 -53 -66 -64t-27 -12q-10 -2 -34 -2q-63 0 -80 1.5t-17 10.5q0 6 18 33.5 t40 59.5t26 38l72 113q88 135 88 178q0 29 -17.5 62.5t-74.5 117.5l-68 103q-7 13 -69 106q-25 38 -25 45z" />
<glyph unicode="&#xbc;" horiz-adv-x="1820" d="M82 1276q-6 17 0.5 24t38.5 25q200 120 231 141q10 6 20 12.5t14 9.5t9 5.5t8 3t7 0.5t54 -9t58 -9q15 -1 25 -7t10 -14q0 -27 -4 -67q-4 -92 -4 -203v-205q2 -251 6 -258q6 -8 19 -12t63 -11q27 -4 35 -11t8 -21v-35q0 -27 -31 -27q-18 0 -92 3t-115 3q-52 0 -127.5 -3 t-83.5 -3q-28 0 -28 27v35q0 20 14.5 25.5t83.5 13.5q28 3 33.5 13t7.5 50q0 1 0.5 35t1 78.5t0.5 70.5v160q0 46 -0.5 86t-1 62t-0.5 24q0 15 -12 15q-2 0 -23 -7l-164 -61q-24 -8 -26 -8q-16 0 -23 20zM535 -6q0 3 13.5 33.5t18.5 38.5q204 422 527 1202q3 8 17 45t27 70 t17 42q6 13 15 16t44 5l76 4q38 2 47 0t9 -14q0 -3 -31 -65l-67 -134t-44 -90q-224 -486 -473 -1106q-13 -35 -24.5 -42.5t-51.5 -10.5l-77 -6q-43 -3 -43 12zM1031.5 361.5q4.5 10.5 29.5 44.5q125 175 317 413q38 46 47 55t19 9q6 0 51 -11t78 -14q31 -3 31 -27 q0 -11 -3.5 -44.5t-3.5 -38.5q-6 -129 -6 -238t2 -117q1 -8 5.5 -11.5t9 -4t14.5 -0.5l111 8q28 0 28 -16q0 -3 -2 -9l-2 -6l-26 -75q-5 -16 -13.5 -21.5t-29.5 -5.5q-6 0 -38.5 2t-37.5 2q-11 0 -15 -4t-4 -16q0 -129 9 -140q4 -4 18.5 -9.5t31.5 -10.5t19 -6q12 -6 12 -23 v-29q0 -26 -30 -26q-6 0 -25 1.5t-57.5 3t-91.5 1.5q-54 0 -96.5 -3t-47.5 -3q-26 0 -26 26v29q0 16 10.5 22.5t46.5 14.5q22 6 26.5 16.5t4.5 53.5q0 76 -2 86q0 10 -6.5 13t-28.5 3q-135 0 -186 -4q-8 0 -50 -3t-45 -3q-15 0 -26 22l-21 68q-5 15 -0.5 25.5zM1163 377h209 q28 0 34.5 4.5t6.5 26.5v307q-7 -9 -118 -157.5t-132 -180.5z" />
<glyph unicode="&#xbd;" horiz-adv-x="1820" d="M66 1276q-6 17 0 24t38 25q211 127 232 141q12 7 23.5 15t15.5 10.5t8.5 4t9.5 1.5t55 -9t58 -9q15 -1 25 -7t10 -14q0 -27 -4 -67q-5 -115 -5 -203v-205q2 -249 7 -258q6 -8 19 -12t63 -11q27 -4 35 -11t8 -21v-35q0 -27 -31 -27q-18 0 -92 3t-115 3q-52 0 -127.5 -3 t-83.5 -3q-29 0 -29 27v35q0 20 14.5 25.5t84.5 13.5q28 3 33.5 13t7.5 50q0 1 0.5 35t1 78.5t0.5 70.5v160q0 46 -0.5 86t-1 62t-0.5 24q0 15 -13 15q-1 0 -22 -7l-164 -61q-24 -8 -27 -8q-15 0 -22 20zM496 -6q0 7 61 129q128 273 228.5 505.5t267.5 633.5q45 122 63 163 q6 13 16 16t44 5l75 4q38 2 47 0t9 -14q0 -3 -31 -65l-67 -134t-44 -90q-235 -513 -473 -1108q-13 -34 -24 -41t-50 -10l-77 -6q-45 -3 -45 12zM1061 61q-4 18 2.5 28t40.5 38q66 55 124.5 109.5t122.5 123.5t102 135t38 115q0 32 -13 54.5t-34 32.5t-39 14t-37 4 q-65 0 -143 -39q-4 -1 -16.5 -8t-24 -13t-15.5 -6t-7 1.5t-4.5 3t-3 5.5t-1.5 6t-1 7t-1 6l-6 92q-1 26 25.5 46.5t68 32.5t85.5 18.5t83 6.5q18 0 32.5 -0.5t47.5 -5t58.5 -12t57.5 -24t53 -39t35.5 -59t14.5 -81.5q0 -73 -40.5 -135.5t-145.5 -163.5q-74 -74 -213 -196 h196q78 0 97.5 3.5t35.5 24.5q3 3 8 9q29 26 37 28h39q32 0 25 -35l-27 -170q-2 -15 -8 -21.5t-22 -6.5q-8 0 -49 3t-116.5 6t-166.5 3t-176 -6l-84 -6q-19 0 -25 24z" />
<glyph unicode="&#xbe;" horiz-adv-x="1820" d="M98 678l15 88q5 29 22 29q7 0 72 -39q49 -27 115 -27q71 0 119 41t48 94q0 59 -65 95.5t-152 33.5l-69 -2q-19 0 -26 7t-7 24q0 14 4.5 45.5t9.5 40.5q9 18 52 18q97 0 163 34t66 95q0 39 -31.5 68t-93.5 29q-66 0 -119 -27q-2 -1 -20 -11t-32.5 -17t-18.5 -7 q-21 0 -21 31v78q0 14 1 20.5t8 14.5t22 16q84 43 221 43q146 0 219 -55q76 -56 76 -150q0 -17 -3 -34.5t-17.5 -47.5t-38.5 -55t-72 -50t-113 -38q270 -27 270 -209q0 -47 -20.5 -91t-62 -83.5t-116 -63.5t-171.5 -24q-75 0 -138.5 16t-80.5 31q-19 16 -15 39zM508 -6 l53 115q133 281 234 513.5t276 653.5q7 21 28.5 78t28.5 71q6 13 15.5 16t44.5 5l76 4q38 2 46.5 0t8.5 -14q0 -4 -29.5 -64t-68.5 -137.5t-45 -89.5q-267 -591 -471 -1106q-13 -34 -24.5 -41t-51.5 -10l-78 -6q-43 -3 -43 12zM1031.5 361.5q4.5 10.5 29.5 44.5 q125 175 317 413q38 46 47 55t19 9q6 0 51 -11t78 -14q31 -3 31 -27q0 -11 -3.5 -44.5t-3.5 -38.5q-6 -129 -6 -238t2 -117q1 -8 5.5 -11.5t9 -4t14.5 -0.5q11 0 63.5 4t55.5 4q9 0 14.5 -5.5t5.5 -10.5q0 -3 -2 -9l-2 -6l-26 -75q-5 -16 -13.5 -21.5t-29.5 -5.5 q-6 0 -38.5 2t-37.5 2q-11 0 -15 -4t-4 -16q0 -129 9 -140q4 -4 18.5 -9.5t31.5 -10.5t19 -6q12 -6 12 -23v-29q0 -26 -30 -26q-6 0 -25 1.5t-57.5 3t-91.5 1.5q-54 0 -96.5 -3t-47.5 -3q-26 0 -26 26v29q0 16 10.5 22.5t46.5 14.5q22 6 26.5 16.5t4.5 53.5q0 76 -2 86 q0 10 -6.5 13t-28.5 3q-135 0 -186 -4q-8 0 -50 -3t-45 -3q-15 0 -26 22l-21 68q-5 15 -0.5 25.5zM1163 377h209q28 0 34.5 4.5t6.5 26.5v307q-7 -9 -118 -157.5t-132 -180.5z" />
<glyph unicode="&#xbf;" horiz-adv-x="948" d="M117 342q0 138 73.5 274.5t206.5 237.5q7 5 46 32t55 40q8 7 11 17.5t13 66.5q13 82 21 90q7 12 47 12q26 0 34 -8.5t11 -38.5l37 -258q2 -15 3.5 -26.5t2.5 -16t1.5 -7.5t0.5 -5q0 -17 -6 -21t-35 -12q-43 -12 -74 -22.5t-80.5 -30t-84.5 -42t-69.5 -52.5t-52.5 -69.5 t-18 -84.5q0 -68 45.5 -116.5t105 -68.5t121.5 -20q39 0 125 18q3 1 14 4.5t21 6t13 2.5q10 0 12.5 -5t6.5 -29q1 -3 1 -5l18 -142q5 -20 5 -34q0 -25 -48 -35q-112 -23 -184 -23q-90 0 -161.5 25t-115 63t-72 89t-39.5 98.5t-11 95.5zM428 1333q0 65 46.5 110.5t115.5 45.5 q68 0 111.5 -46t43.5 -112q0 -68 -46.5 -111.5t-104.5 -43.5q-76 0 -121 45t-45 112z" />
<glyph unicode="&#xc0;" horiz-adv-x="1441" d="M14 25v32q0 30 6.5 39.5t38.5 16.5q22 4 31.5 8.5t20.5 11.5t24 33.5t25.5 54.5t40.5 94q173 419 323 807q48 119 99 264q15 38 24 45q12 8 45 11q3 0 45.5 4.5t76.5 8t38 3.5q17 0 25 -12.5t22 -56.5q78 -240 219.5 -661t194.5 -560q15 -39 29 -50t61 -22q12 -3 17.5 -9 t6 -12t0.5 -22v-28q0 -12 -1.5 -18t-8 -10.5t-20.5 -4.5q-17 0 -108 4t-109 4q-23 0 -144 -4t-141 -4q-14 0 -17.5 7.5t-3.5 25.5v28q0 25 8.5 33t37.5 16q68 19 86 30t18 42q0 15 -40 147t-50 140q-12 6 -250 6q-213 0 -229 -2q-12 -3 -37 -66l-74 -192q-8 -24 -8 -35 q0 -23 17.5 -33.5t70.5 -25.5q41 -13 50 -22.5t9 -33.5v-28q0 -18 -6.5 -26t-14 -9.5t-24.5 -1.5l-76 4q-75 4 -116 4q-64 0 -107.5 -2t-65 -4t-30.5 -2h-4q-16 0 -20.5 8.5t-4.5 24.5zM221 1767q0 14 10 19.5t43 11.5l183 37q32 8 47 8q14 0 25.5 -6.5t54.5 -38.5l258 -186 q35 -28 35 -37t-22 -22t-34 -13q-10 0 -211.5 67.5t-328.5 112.5q-42 14 -51 21t-9 26zM494 625q0 -14 9.5 -17.5t37.5 -3.5h284q42 0 52 2.5t10 14.5q0 16 -13 55l-139 446q-18 64 -28 64q-7 0 -21 -37l-172 -461q-20 -60 -20 -63z" />
<glyph unicode="&#xc1;" horiz-adv-x="1441" d="M14 25v32q0 30 6.5 39.5t38.5 16.5q22 4 31.5 8.5t20.5 11.5t24 33.5t25.5 54.5t40.5 94q173 419 323 807q48 119 99 264q15 38 24 45q12 8 45 11q3 0 45.5 4.5t76.5 8t38 3.5q17 0 25 -12.5t22 -56.5q78 -240 219.5 -661t194.5 -560q15 -39 29 -50t61 -22q12 -3 17.5 -9 t6 -12t0.5 -22v-28q0 -12 -1.5 -18t-8 -10.5t-20.5 -4.5q-17 0 -108 4t-109 4q-23 0 -144 -4t-141 -4q-14 0 -17.5 7.5t-3.5 25.5v28q0 25 8.5 33t37.5 16q68 19 86 30t18 42q0 15 -40 147t-50 140q-12 6 -250 6q-213 0 -229 -2q-12 -3 -37 -66l-74 -192q-8 -24 -8 -35 q0 -23 17.5 -33.5t70.5 -25.5q41 -13 50 -22.5t9 -33.5v-28q0 -18 -6.5 -26t-14 -9.5t-24.5 -1.5l-76 4q-75 4 -116 4q-64 0 -107.5 -2t-65 -4t-30.5 -2h-4q-16 0 -20.5 8.5t-4.5 24.5zM494 625q0 -14 9.5 -17.5t37.5 -3.5h284q42 0 52 2.5t10 14.5q0 16 -13 55l-139 446 q-18 64 -28 64q-7 0 -21 -37l-172 -461q-20 -60 -20 -63zM559 1561q0 9 27 28l280 223q26 21 34.5 26t21.5 5q1 0 49 -12l211 -45q22 -5 31.5 -9.5t11.5 -8t2 -11.5q0 -16 -13 -25t-51 -22q-35 -14 -282 -98t-273 -84q-12 0 -30.5 12t-18.5 21z" />
<glyph unicode="&#xc2;" horiz-adv-x="1441" d="M14 25v32q0 30 6.5 39.5t38.5 16.5q22 4 31.5 8.5t20.5 11.5t24 33.5t25.5 54.5t40.5 94q173 419 323 807q48 119 99 264q15 38 24 45q12 8 45 11q3 0 45.5 4.5t76.5 8t38 3.5q17 0 25 -12.5t22 -56.5q78 -240 219.5 -661t194.5 -560q15 -39 29 -50t61 -22q12 -3 17.5 -9 t6 -12t0.5 -22v-28q0 -12 -1.5 -18t-8 -10.5t-20.5 -4.5q-17 0 -108 4t-109 4q-23 0 -144 -4t-141 -4q-14 0 -17.5 7.5t-3.5 25.5v28q0 25 8.5 33t37.5 16q68 19 86 30t18 42q0 15 -40 147t-50 140q-12 6 -250 6q-213 0 -229 -2q-12 -3 -37 -66l-74 -192q-8 -24 -8 -35 q0 -23 17.5 -33.5t70.5 -25.5q41 -13 50 -22.5t9 -33.5v-28q0 -18 -6.5 -26t-14 -9.5t-24.5 -1.5l-76 4q-75 4 -116 4q-64 0 -107.5 -2t-65 -4t-30.5 -2h-4q-16 0 -20.5 8.5t-4.5 24.5zM358 1567q0 2 4 7.5t10.5 12.5t8.5 10l194 211q24 25 34.5 30t45.5 5h152q35 0 49.5 -5 t28.5 -21l184 -209q25 -27 25 -35q0 -9 -40 -20t-50 -11q-13 0 -50 19l-172 96q-43 24 -55 24q-7 0 -27 -8.5t-30 -15.5l-191 -96q-39 -19 -51 -19q-15 0 -42.5 6t-27.5 19zM494 625q0 -14 9.5 -17.5t37.5 -3.5h284q42 0 52 2.5t10 14.5q0 16 -13 55l-139 446q-18 64 -28 64 q-7 0 -21 -37l-172 -461q-20 -60 -20 -63z" />
<glyph unicode="&#xc3;" horiz-adv-x="1441" d="M14 25v32q0 30 6.5 39.5t38.5 16.5q22 4 31.5 8.5t20.5 11.5t24 33.5t25.5 54.5t40.5 94q173 419 323 807q48 119 99 264q15 38 24 45q12 8 45 11q3 0 45.5 4.5t76.5 8t38 3.5q17 0 25 -12.5t22 -56.5q78 -240 219.5 -661t194.5 -560q15 -39 29 -50t61 -22q12 -3 17.5 -9 t6 -12t0.5 -22v-28q0 -12 -1.5 -18t-8 -10.5t-20.5 -4.5q-17 0 -108 4t-109 4q-23 0 -144 -4t-141 -4q-14 0 -17.5 7.5t-3.5 25.5v28q0 25 8.5 33t37.5 16q68 19 86 30t18 42q0 15 -40 147t-50 140q-12 6 -250 6q-213 0 -229 -2q-12 -3 -37 -66l-74 -192q-8 -24 -8 -35 q0 -23 17.5 -33.5t70.5 -25.5q41 -13 50 -22.5t9 -33.5v-28q0 -18 -6.5 -26t-14 -9.5t-24.5 -1.5l-76 4q-75 4 -116 4q-64 0 -107.5 -2t-65 -4t-30.5 -2h-4q-16 0 -20.5 8.5t-4.5 24.5zM272 1612q0 12 62 74q78 81 143.5 124t143.5 43q62 0 176 -49q115 -47 149 -47 q29 0 73 20t71 42q28 24 36 24q9 0 27 -19t18 -28q0 -11 -25 -42t-44 -50q-72 -81 -118.5 -108t-98.5 -27q-42 0 -87 15t-155 61q-72 28 -108 28q-38 0 -80 -15.5t-70 -39.5q-45 -39 -57 -39q-11 0 -33.5 11.5t-22.5 21.5zM494 625q0 -14 9.5 -17.5t37.5 -3.5h284 q42 0 52 2.5t10 14.5q0 16 -13 55l-139 446q-18 64 -28 64q-7 0 -21 -37l-172 -461q-20 -60 -20 -63z" />
<glyph unicode="&#xc4;" horiz-adv-x="1441" d="M14 25v32q0 30 6.5 39.5t38.5 16.5q22 4 31.5 8.5t20.5 11.5t24 33.5t25.5 54.5t40.5 94q173 419 323 807q48 119 99 264q15 38 24 45q12 8 45 11q3 0 45.5 4.5t76.5 8t38 3.5q17 0 25 -12.5t22 -56.5q78 -240 219.5 -661t194.5 -560q15 -39 29 -50t61 -22q12 -3 17.5 -9 t6 -12t0.5 -22v-28q0 -12 -1.5 -18t-8 -10.5t-20.5 -4.5q-17 0 -108 4t-109 4q-23 0 -144 -4t-141 -4q-14 0 -17.5 7.5t-3.5 25.5v28q0 25 8.5 33t37.5 16q68 19 86 30t18 42q0 15 -40 147t-50 140q-12 6 -250 6q-213 0 -229 -2q-12 -3 -37 -66l-74 -192q-8 -24 -8 -35 q0 -23 17.5 -33.5t70.5 -25.5q41 -13 50 -22.5t9 -33.5v-28q0 -18 -6.5 -26t-14 -9.5t-24.5 -1.5l-76 4q-75 4 -116 4q-64 0 -107.5 -2t-65 -4t-30.5 -2h-4q-16 0 -20.5 8.5t-4.5 24.5zM356 1718q0 58 33 104t94 46q59 0 94 -42t35 -102q0 -63 -36.5 -107t-94.5 -44 q-57 0 -91 41.5t-34 103.5zM494 625q0 -14 9.5 -17.5t37.5 -3.5h284q42 0 52 2.5t10 14.5q0 16 -13 55l-139 446q-18 64 -28 64q-7 0 -21 -37l-172 -461q-20 -60 -20 -63zM829 1718q0 60 34 105t93 45q61 0 95 -43t34 -101q0 -63 -36.5 -107t-94.5 -44q-55 0 -90 41t-35 104 z" />
<glyph unicode="&#xc5;" horiz-adv-x="1441" d="M14 25v32q0 30 6.5 39.5t38.5 16.5q22 4 31.5 8.5t20.5 11.5t24 33.5t25.5 54.5t40.5 94q173 419 323 807q48 119 99 264q15 38 24 45q12 8 45 11q3 0 45.5 4.5t76.5 8t38 3.5q15 0 21.5 -9t20.5 -46q3 -9 5 -14q24 -72 72.5 -221t61.5 -187.5t47 -141.5t49.5 -147 t47.5 -137t62.5 -179t73.5 -208q13 -38 27.5 -48.5t62.5 -23.5q12 -3 17.5 -9t6 -12t0.5 -22v-28q0 -12 -1.5 -18t-8 -10.5t-20.5 -4.5q-17 0 -108 4t-109 4q-23 0 -144 -4t-141 -4q-14 0 -17.5 7.5t-3.5 25.5v28q0 25 8.5 33t37.5 16q68 19 86 30t18 42q0 15 -40 147 t-50 140q-12 6 -250 6q-213 0 -229 -2q-12 -3 -37 -66l-74 -192q-8 -24 -8 -35q0 -23 17.5 -33.5t70.5 -25.5q41 -13 50 -22.5t9 -33.5v-28q0 -18 -6.5 -26t-14 -9.5t-24.5 -1.5l-76 4q-75 4 -116 4q-64 0 -107.5 -2t-65 -4t-30.5 -2h-4q-16 0 -20.5 8.5t-4.5 24.5z M446 1767q0 89 84 150t220 61q71 0 126.5 -13t89.5 -33.5t56 -48t30.5 -54t8.5 -53.5q0 -92 -77 -156t-228 -64q-80 0 -142 19t-97.5 50.5t-53 67.5t-17.5 74zM494 625q0 -14 9.5 -17.5t37.5 -3.5h284q42 0 52 2.5t10 14.5q0 16 -13 55l-139 446q-18 64 -28 64q-5 0 -13 -15 l-26 -67l-154 -416q-20 -60 -20 -63zM639 1767q0 -58 35 -96.5t88 -38.5q52 0 84.5 38.5t32.5 98.5q0 58 -33 95t-86 37q-48 0 -84.5 -37t-36.5 -97z" />
<glyph unicode="&#xc6;" horiz-adv-x="1896" d="M25 20v39q0 20 8.5 28t44.5 26q21 11 31.5 20.5t33.5 44.5t64 111q475 911 487 954q2 6 2 17q0 45 -65 51q-32 1 -42.5 11.5t-10.5 33.5v47q0 20 7.5 28.5t32.5 8.5q3 0 75 -3t227 -6.5t362 -3.5q68 0 243 6.5t189 6.5q15 0 22.5 -5t9 -12t1.5 -20l-10 -221 q-1 -19 -2.5 -25.5t-8.5 -11t-22 -4.5h-33q-21 0 -27 6.5t-12 38.5q-7 37 -14 52.5t-16 30t-42.5 17.5t-64.5 4.5t-111 1.5q-145 0 -151 -6t-10 -61q0 -3 -1 -77.5t-1 -111.5l-2 -121q0 -98 6 -102q7 -5 72 -8.5t104 -3.5q25 0 151 4t152 4q29 0 29 -18q0 -15 -2 -25 l-15 -88q-3 -25 -8.5 -33t-24.5 -8q-41 0 -196 10q-86 4 -221 4q-34 0 -40.5 -18t-6.5 -119q0 -192 6 -285q6 -68 48.5 -81t219.5 -13q101 0 150 29t75 110q8 28 18 34.5t29 6.5h41q20 0 24 -6.5t1 -27.5l-29 -261q-3 -22 -11.5 -29t-29.5 -7q-53 0 -233 8q-264 8 -371 8 q-123 0 -215 -4t-94 -4q-17 0 -23 6.5t-6 21.5v39q0 30 12 39.5t68 24.5q33 9 45 26t14 54q5 118 5 213q0 84 -21 88q-24 4 -225 4q-193 0 -205 -8q-16 -11 -85 -156.5t-69 -175.5q0 -27 19.5 -37.5t64.5 -19.5q37 -8 46.5 -18t9.5 -34v-39q0 -14 -9 -21t-40 -7q-17 0 -72 4 t-86 4q-40 0 -128 -4t-108 -4q-14 0 -21 4.5t-8 9.5t-1 14zM582 662q0 -12 17.5 -15.5t62.5 -3.5h206q67 0 81.5 7.5t11.5 45.5l-3 510q0 86 -45 86q-32 0 -59 -45q-10 -19 -109 -228t-106 -222q-57 -128 -57 -135z" />
<glyph unicode="&#xc7;" horiz-adv-x="1554" d="M90 705q0 270 158 464q241 295 690 295q172 0 307 -32t193 -64q34 -17 26 -59l-18 -174q-3 -33 -8.5 -41.5t-28.5 -8.5h-37q-24 0 -31 8.5t-20 47.5q-21 70 -72 102q-66 41 -150.5 59.5t-156.5 18.5q-244 0 -406.5 -170.5t-162.5 -431.5q0 -125 45 -238.5t119.5 -193.5 t173 -127t202.5 -47q121 0 236 46.5t178 116.5q22 25 32.5 30t33.5 5q44 0 59.5 -3t15.5 -15q0 -9 -4 -25l-18 -112q-6 -37 -22 -56.5t-56 -36.5q-214 -94 -475 -94q-133 0 -245.5 25.5t-193.5 69t-145 103.5t-104.5 125.5t-67 139.5t-37 140.5t-10.5 132.5zM633 -432 q0 3 39 31q57 40 105 93t48 97q0 8 -0.5 13.5t-3 12.5t-3.5 9.5t-7 13.5t-8 15q-4 4 -4 8q0 8 8 16l45 49q16 19 25 19q6 0 81 -43q81 -49 105 -69.5t24 -49.5q0 -42 -55.5 -92t-125.5 -85.5t-126 -60t-63 -24.5q-13 0 -48.5 19.5t-35.5 27.5z" />
<glyph unicode="&#xc8;" horiz-adv-x="1175" d="M88 1767q0 14 10 19.5t43 11.5l183 37q32 8 47 8q14 0 25.5 -6.5t54.5 -38.5l258 -186q34 -27 34 -37q0 -9 -21.5 -22t-33.5 -13q-10 0 -212.5 67.5t-328.5 112.5q-41 14 -50 20.5t-9 26.5zM92 27v39q0 24 10 32.5t43 14.5q53 13 68.5 29.5t17.5 52.5q7 154 7 356v332 q0 334 -11 385q-6 36 -82 51q-33 7 -43 16t-10 31v41q0 20 6 26.5t23 6.5q10 0 81.5 -2.5t182 -5t215.5 -2.5q118 0 203.5 2.5t127 5t54.5 2.5q37 0 37 -39l-12 -230q0 -11 -2.5 -17.5t-9 -9t-10.5 -3t-13 -0.5h-29q-25 0 -33.5 8.5t-15.5 48.5q-12 78 -68 88q-20 4 -167 4 q-152 0 -158 -6q-6 -4 -7 -16t-1 -64q-2 -115 -2 -180q0 -152 1.5 -180t8.5 -35q12 -10 270 -10q56 0 158 4q4 0 25 2t22 2q18 0 21.5 -10.5t-1.5 -30.5l-10 -82q-3 -29 -8 -37t-27 -8q-49 0 -129 8q-74 2 -264 2q-31 0 -45.5 -4t-17.5 -18q-4 -32 -4 -205q0 -160 4 -207 q2 -23 9.5 -38t16.5 -23t30.5 -12t37 -4.5t49.5 -0.5h83t66.5 1.5t57 4.5t42 8.5t35.5 13.5t23.5 20.5t20 28.5t12.5 38q8 30 17 44.5t17.5 17.5t24.5 3h39q21 0 28 -7t5 -23l-33 -248q-3 -26 -11 -39t-16.5 -15.5t-25.5 -2.5q-16 0 -115.5 4.5t-132.5 5.5q-236 8 -342 8 q-92 0 -161.5 -2t-106.5 -4t-49 -2q-16 0 -21.5 8t-5.5 27z" />
<glyph unicode="&#xc9;" horiz-adv-x="1175" d="M92 27v39q0 24 10 32.5t43 14.5q53 13 68.5 29.5t17.5 52.5q7 154 7 356v332q0 334 -11 385q-6 36 -82 51q-33 7 -43 16t-10 31v41q0 20 6 26.5t23 6.5q10 0 81.5 -2.5t182 -5t215.5 -2.5q118 0 203.5 2.5t127 5t54.5 2.5q37 0 37 -39l-12 -230q0 -11 -2.5 -17.5t-9 -9 t-10.5 -3t-13 -0.5h-29q-25 0 -33.5 8.5t-15.5 48.5q-12 78 -68 88q-20 4 -167 4q-152 0 -158 -6q-6 -4 -7 -16t-1 -64q-2 -115 -2 -180q0 -152 1.5 -180t8.5 -35q12 -10 270 -10q56 0 158 4q4 0 25 2t22 2q18 0 21.5 -10.5t-1.5 -30.5l-10 -82q-3 -29 -8 -37t-27 -8 q-49 0 -129 8q-74 2 -264 2q-31 0 -45.5 -4t-17.5 -18q-4 -32 -4 -205q0 -160 4 -207q2 -23 9.5 -38t16.5 -23t30.5 -12t37 -4.5t49.5 -0.5h83t66.5 1.5t57 4.5t42 8.5t35.5 13.5t23.5 20.5t20 28.5t12.5 38q8 30 17 44.5t17.5 17.5t24.5 3h39q21 0 28 -7t5 -23l-33 -248 q-3 -26 -11 -39t-16.5 -15.5t-25.5 -2.5q-16 0 -115.5 4.5t-132.5 5.5q-236 8 -342 8q-92 0 -161.5 -2t-106.5 -4t-49 -2q-16 0 -21.5 8t-5.5 27zM426 1561q0 9 27 28l280 223q27 22 34.5 26.5t20.5 4.5q2 0 50 -12l211 -45q22 -5 31.5 -9.5t11.5 -8t2 -11.5q0 -16 -13 -25 t-51 -22q-35 -14 -282 -98t-273 -84q-12 0 -30.5 12t-18.5 21z" />
<glyph unicode="&#xca;" horiz-adv-x="1175" d="M92 27v39q0 24 10 32.5t43 14.5q53 13 68.5 29.5t17.5 52.5q7 154 7 356v332q0 334 -11 385q-6 36 -82 51q-33 7 -43 16t-10 31v41q0 20 6 26.5t23 6.5q10 0 81.5 -2.5t182 -5t215.5 -2.5q118 0 203.5 2.5t127 5t54.5 2.5q37 0 37 -39l-12 -230q0 -11 -2.5 -17.5t-9 -9 t-10.5 -3t-13 -0.5h-29q-25 0 -33.5 8.5t-15.5 48.5q-12 78 -68 88q-20 4 -167 4q-152 0 -158 -6q-6 -4 -7 -16t-1 -64q-2 -115 -2 -180q0 -152 1.5 -180t8.5 -35q12 -10 270 -10q56 0 158 4q4 0 25 2t22 2q18 0 21.5 -10.5t-1.5 -30.5l-10 -82q-3 -29 -8 -37t-27 -8 q-49 0 -129 8q-74 2 -264 2q-31 0 -45.5 -4t-17.5 -18q-4 -32 -4 -205q0 -160 4 -207q2 -23 9.5 -38t16.5 -23t30.5 -12t37 -4.5t49.5 -0.5h83t66.5 1.5t57 4.5t42 8.5t35.5 13.5t23.5 20.5t20 28.5t12.5 38q8 30 17 44.5t17.5 17.5t24.5 3h39q21 0 28 -7t5 -23l-33 -248 q-3 -26 -11 -39t-16.5 -15.5t-25.5 -2.5q-16 0 -115.5 4.5t-132.5 5.5q-236 8 -342 8q-92 0 -161.5 -2t-106.5 -4t-49 -2q-16 0 -21.5 8t-5.5 27zM225 1567q0 2 4 7.5t10.5 12.5t8.5 10l194 211q24 25 34.5 30t45.5 5h152q35 0 49.5 -5t28.5 -21l184 -209q25 -27 25 -35 q0 -9 -40.5 -20t-50.5 -11q-12 0 -49 19l-172 96q-43 24 -55 24q-7 0 -27 -8.5t-30 -15.5l-191 -96q-39 -19 -51 -19q-15 0 -42.5 6t-27.5 19z" />
<glyph unicode="&#xcb;" horiz-adv-x="1175" d="M92 27v39q0 24 10 32.5t43 14.5q53 13 68.5 29.5t17.5 52.5q7 154 7 356v332q0 334 -11 385q-6 36 -82 51q-33 7 -43 16t-10 31v41q0 20 6 26.5t23 6.5q10 0 81.5 -2.5t182 -5t215.5 -2.5q118 0 203.5 2.5t127 5t54.5 2.5q37 0 37 -39l-12 -230q0 -11 -2.5 -17.5t-9 -9 t-10.5 -3t-13 -0.5h-29q-25 0 -33.5 8.5t-15.5 48.5q-12 78 -68 88q-20 4 -167 4q-152 0 -158 -6q-6 -4 -7 -16t-1 -64q-2 -115 -2 -180q0 -152 1.5 -180t8.5 -35q12 -10 270 -10q56 0 158 4q4 0 25 2t22 2q18 0 21.5 -10.5t-1.5 -30.5l-10 -82q-3 -29 -8 -37t-27 -8 q-49 0 -129 8q-74 2 -264 2q-31 0 -45.5 -4t-17.5 -18q-4 -32 -4 -205q0 -160 4 -207q2 -23 9.5 -38t16.5 -23t30.5 -12t37 -4.5t49.5 -0.5h83t66.5 1.5t57 4.5t42 8.5t35.5 13.5t23.5 20.5t20 28.5t12.5 38q8 30 17 44.5t17.5 17.5t24.5 3h39q21 0 28 -7t5 -23l-33 -248 q-3 -26 -11 -39t-16.5 -15.5t-25.5 -2.5q-16 0 -115.5 4.5t-132.5 5.5q-236 8 -342 8q-92 0 -161.5 -2t-106.5 -4t-49 -2q-16 0 -21.5 8t-5.5 27zM223 1718q0 58 33 104t94 46q59 0 94 -42t35 -102q0 -63 -36.5 -107t-94.5 -44q-57 0 -91 41.5t-34 103.5zM696 1718 q0 60 34 105t93 45q61 0 95 -43t34 -101q0 -63 -36.5 -107t-94.5 -44q-55 0 -90 41t-35 104z" />
<glyph unicode="&#xcc;" horiz-adv-x="757" d="M-121 1767q0 14 10 19.5t43 11.5l183 37q32 8 47 8q14 0 25.5 -6.5t54.5 -38.5l258 -186q35 -28 35 -37t-22 -22t-34 -13q-10 0 -211.5 67.5t-328.5 112.5q-42 14 -51 21t-9 26zM106 25v41q0 24 10 31.5t44 15.5q53 11 68.5 28t17.5 54q6 129 6 354v334q0 339 -10 385 q-6 36 -82 51q-34 7 -44 16t-10 31v41q0 20 6 26.5t23 6.5q19 0 120 -4t118 -4q21 0 128.5 4t125.5 4q26 0 26 -33v-41q0 -23 -10 -31t-45 -16q-53 -11 -68.5 -28t-17.5 -54q-4 -110 -4 -354v-334q0 -350 8 -385q7 -36 82 -51q33 -6 44 -15.5t11 -31.5v-41q0 -19 -6 -26 t-24 -7q-15 0 -116 4t-122 4q-20 0 -127 -4t-125 -4q-16 0 -21.5 8t-5.5 25z" />
<glyph unicode="&#xcd;" horiz-adv-x="757" d="M106 25v41q0 24 10 31.5t44 15.5q53 11 68.5 28t17.5 54q6 129 6 354v334q0 339 -10 385q-6 36 -82 51q-34 7 -44 16t-10 31v41q0 20 6 26.5t23 6.5q19 0 120 -4t118 -4q21 0 128.5 4t125.5 4q26 0 26 -33v-41q0 -23 -10 -31t-45 -16q-53 -11 -68.5 -28t-17.5 -54 q-4 -110 -4 -354v-334q0 -350 8 -385q7 -36 82 -51q33 -6 44 -15.5t11 -31.5v-41q0 -19 -6 -26t-24 -7q-15 0 -116 4t-122 4q-20 0 -127 -4t-125 -4q-16 0 -21.5 8t-5.5 25zM217 1561q0 9 27 28l280 223q26 21 34.5 26t21.5 5q1 0 49 -12l211 -45q22 -5 31.5 -9.5t11.5 -8 t2 -11.5q0 -16 -13 -25t-51 -22q-35 -14 -282 -98t-273 -84q-12 0 -30.5 12t-18.5 21z" />
<glyph unicode="&#xce;" horiz-adv-x="757" d="M16 1567q0 2 4 7.5t10.5 12.5t8.5 10l194 211q24 25 34.5 30t45.5 5h152q35 0 49.5 -5t28.5 -21l184 -209q25 -27 25 -35q0 -9 -40 -20t-50 -11q-13 0 -50 19l-172 96q-43 24 -55 24q-7 0 -27 -8.5t-30 -15.5l-191 -96q-39 -19 -51 -19q-15 0 -42.5 6t-27.5 19zM106 25 v41q0 24 10 31.5t44 15.5q53 11 68.5 28t17.5 54q6 129 6 354v334q0 339 -10 385q-6 36 -82 51q-34 7 -44 16t-10 31v41q0 20 6 26.5t23 6.5q19 0 120 -4t118 -4q21 0 128.5 4t125.5 4q26 0 26 -33v-41q0 -23 -10 -31t-45 -16q-53 -11 -68.5 -28t-17.5 -54q-4 -110 -4 -354 v-334q0 -350 8 -385q7 -36 82 -51q33 -6 44 -15.5t11 -31.5v-41q0 -19 -6 -26t-24 -7q-15 0 -116 4t-122 4q-20 0 -127 -4t-125 -4q-16 0 -21.5 8t-5.5 25z" />
<glyph unicode="&#xcf;" horiz-adv-x="757" d="M14 1718q0 58 33 104t94 46q59 0 94 -42t35 -102q0 -63 -36.5 -107t-94.5 -44q-57 0 -91 41.5t-34 103.5zM106 25v41q0 24 10 31.5t44 15.5q53 11 68.5 28t17.5 54q6 129 6 354v334q0 339 -10 385q-6 36 -82 51q-34 7 -44 16t-10 31v41q0 20 6 26.5t23 6.5q19 0 120 -4 t118 -4q21 0 128.5 4t125.5 4q26 0 26 -33v-41q0 -23 -10 -31t-45 -16q-53 -11 -68.5 -28t-17.5 -54q-4 -110 -4 -354v-334q0 -350 8 -385q7 -36 82 -51q33 -6 44 -15.5t11 -31.5v-41q0 -19 -6 -26t-24 -7q-15 0 -116 4t-122 4q-20 0 -127 -4t-125 -4q-16 0 -21.5 8t-5.5 25 zM487 1718q0 60 34 105t93 45q61 0 95 -43t34 -101q0 -63 -36.5 -107t-94.5 -44q-55 0 -90 41t-35 104z" />
<glyph unicode="&#xd0;" horiz-adv-x="1705" d="M92 25v41q0 24 9.5 31.5t43.5 15.5q53 11 68.5 28t17.5 54q7 151 7 354v88q0 19 -8 23t-33 4h-64q-19 0 -25.5 1t-11 7t-4.5 20v88q0 17 8.5 21t34.5 4h68q21 0 28 6t7 25v47q0 334 -11 385q-6 36 -82 51q-33 7 -43 16t-10 31v41q0 20 6 26.5t23 6.5q25 0 129.5 -4 t157.5 -4q24 0 288 8q148 4 205 4q77 0 132.5 -5t127 -21.5t136.5 -54.5t124 -97q195 -197 195 -527q0 -321 -205 -536q-65 -69 -136.5 -114.5t-146 -66.5t-137 -28.5t-141.5 -7.5q-7 0 -154 6q-238 8 -241 8q-92 0 -169.5 -2t-119.5 -4t-47 -2q-16 0 -21.5 8t-5.5 25z M494 637l2 -361q0 -67 11 -99t44 -38q49 -10 229 -10q126 0 226 40t160.5 102t100.5 145t55 162t15 161q0 281 -161 437q-30 29 -62.5 50t-77 33.5t-78 20t-100.5 10.5t-106.5 3.5t-130.5 0.5h-93q-28 -4 -30 -16q-4 -20 -4 -387v-55q0 -21 8 -26t33 -5h270q17 0 23.5 -1 t12 -6.5t5.5 -17.5v-88q0 -18 -6 -23t-27 -5h-276q-26 0 -34.5 -4t-8.5 -23z" />
<glyph unicode="&#xd1;" horiz-adv-x="1744" d="M92 18v43q0 14 2.5 21t18.5 15.5t49 15.5q29 7 41.5 15.5t19 32t6.5 72.5q0 61 3.5 219t3.5 218v213q0 314 -11 370q-6 29 -22 41t-47 19q-41 8 -52.5 19t-11.5 30v43q0 22 7 28.5t22 6.5q16 0 83.5 -4t80.5 -4q19 0 96 4t90 4q11 0 18 -5.5t25 -29.5q116 -147 174 -215 q130 -151 375.5 -434t292.5 -338q1 -1 4 -5t6 -7t4 -3q4 0 4 17q0 20 -3 127t-3 125q0 17 -2.5 170.5t-5.5 278.5t-6 141q-5 22 -23 33t-67 27q-10 3 -15 5q-17 4 -21.5 13t-4.5 26v43q0 17 7.5 24t26.5 7q17 0 78 -4t101 -4t117 4t94 4q26 0 26 -31v-33q0 -19 -1.5 -26.5 t-11.5 -14.5t-32 -10q-52 -9 -70 -32.5t-18 -82.5q0 -102 -2 -157q-6 -243 -6 -549q0 -21 1 -119t1.5 -165.5t-0.5 -113.5q0 -8 2 -52t2 -52q0 -15 -6.5 -22.5t-34.5 -28.5l-29 -27q-8 -4 -14 -4t-10.5 4t-24.5 27q-69 85 -506 589.5t-499 583.5l-4 5q-4 5 -7.5 8.5 t-5.5 3.5t-2 -23q10 -405 11 -530l2 -217q0 -181 4 -201q4 -28 27 -38.5t69 -18.5q20 -4 30 -14t11.5 -17t1.5 -19v-36q0 -20 -7 -27.5t-22 -7.5t-80.5 4t-95.5 4q-28 0 -119 -4t-106 -4q-29 0 -29 26zM436 1612q0 12 62 74q78 82 143 124.5t143 42.5q63 0 177 -49 q115 -47 149 -47q29 0 72.5 20t70.5 42q28 24 37 24t27 -19t18 -28q0 -11 -25 -42t-44 -50q-72 -81 -118.5 -108t-98.5 -27q-42 0 -87 15t-155 61q-72 28 -109 28q-38 0 -79.5 -15.5t-69.5 -39.5q-45 -39 -57 -39q-11 0 -33.5 11.5t-22.5 21.5z" />
<glyph unicode="&#xd2;" horiz-adv-x="1820" d="M90 709q0 357 264 577q100 82 233 130t331 48q150 0 274.5 -32.5t206.5 -83.5t145 -121.5t97.5 -139t56 -143.5t27.5 -127t6 -98q0 -73 -13 -145t-43 -147t-74.5 -141t-111.5 -125t-150 -101t-194 -66.5t-240 -24.5q-167 0 -303.5 39.5t-230.5 108t-158 162.5t-93.5 202 t-29.5 228zM369 729q0 -81 19.5 -164t62.5 -165t104.5 -145.5t153 -102.5t200.5 -39q108 0 200 37t154 97t105.5 139t63.5 161.5t20 165.5q0 77 -18 157.5t-59 162.5t-100.5 145t-151.5 103t-203 40q-110 0 -202.5 -35.5t-155.5 -95t-107.5 -136.5t-65 -159.5t-20.5 -165.5z M412 1767q0 14 10 19.5t43 11.5l182 37q32 8 47 8q14 0 25.5 -6.5t54.5 -38.5l258 -186q35 -28 35 -37t-21.5 -22t-33.5 -13q-10 0 -212.5 67.5t-328.5 112.5q-41 14 -50 20.5t-9 26.5z" />
<glyph unicode="&#xd3;" horiz-adv-x="1820" d="M90 709q0 357 264 577q100 82 233 130t331 48q150 0 274.5 -32.5t206.5 -83.5t145 -121.5t97.5 -139t56 -143.5t27.5 -127t6 -98q0 -73 -13 -145t-43 -147t-74.5 -141t-111.5 -125t-150 -101t-194 -66.5t-240 -24.5q-167 0 -303.5 39.5t-230.5 108t-158 162.5t-93.5 202 t-29.5 228zM369 729q0 -81 19.5 -164t62.5 -165t104.5 -145.5t153 -102.5t200.5 -39q108 0 200 37t154 97t105.5 139t63.5 161.5t20 165.5q0 77 -18 157.5t-59 162.5t-100.5 145t-151.5 103t-203 40q-110 0 -202.5 -35.5t-155.5 -95t-107.5 -136.5t-65 -159.5t-20.5 -165.5z M750 1561q0 6 4 10.5t22 17.5l281 223q27 22 34.5 26.5t20.5 4.5q1 0 49 -12l211 -45q22 -5 31.5 -9.5t11.5 -8t2 -11.5q0 -16 -13 -25t-50 -22q-35 -14 -282 -98t-273 -84q-12 0 -30.5 12t-18.5 21z" />
<glyph unicode="&#xd4;" horiz-adv-x="1820" d="M90 709q0 357 264 577q100 82 233 130t331 48q150 0 274.5 -32.5t206.5 -83.5t145 -121.5t97.5 -139t56 -143.5t27.5 -127t6 -98q0 -73 -13 -145t-43 -147t-74.5 -141t-111.5 -125t-150 -101t-194 -66.5t-240 -24.5q-167 0 -303.5 39.5t-230.5 108t-158 162.5t-93.5 202 t-29.5 228zM369 729q0 -81 19.5 -164t62.5 -165t104.5 -145.5t153 -102.5t200.5 -39q108 0 200 37t154 97t105.5 139t63.5 161.5t20 165.5q0 77 -18 157.5t-59 162.5t-100.5 145t-151.5 103t-203 40q-110 0 -202.5 -35.5t-155.5 -95t-107.5 -136.5t-65 -159.5t-20.5 -165.5z M549 1567q0 1 22 30l195 211q24 25 34.5 30t45.5 5h151q35 0 49.5 -5t28.5 -21l185 -209q24 -26 24 -35t-40 -20t-50 -11q-12 0 -49 19l-172 96q-43 24 -55 24q-7 0 -27.5 -9t-30.5 -15l-190 -96q-39 -19 -52 -19q-15 0 -42 6t-27 19z" />
<glyph unicode="&#xd5;" horiz-adv-x="1820" d="M90 709q0 357 264 577q100 82 233 130t331 48q150 0 274.5 -32.5t206.5 -83.5t145 -121.5t97.5 -139t56 -143.5t27.5 -127t6 -98q0 -73 -13 -145t-43 -147t-74.5 -141t-111.5 -125t-150 -101t-194 -66.5t-240 -24.5q-167 0 -303.5 39.5t-230.5 108t-158 162.5t-93.5 202 t-29.5 228zM369 729q0 -81 19.5 -164t62.5 -165t104.5 -145.5t153 -102.5t200.5 -39q108 0 200 37t154 97t105.5 139t63.5 161.5t20 165.5q0 77 -18 157.5t-59 162.5t-100.5 145t-151.5 103t-203 40q-110 0 -202.5 -35.5t-155.5 -95t-107.5 -136.5t-65 -159.5t-20.5 -165.5z M463 1612q0 13 61 74q78 81 143.5 124t143.5 43q62 0 176 -49q115 -47 150 -47q29 0 72.5 20t70.5 42q28 24 37 24t27 -19t18 -28q0 -11 -25 -41.5t-45 -50.5q-72 -81 -118.5 -108t-98.5 -27q-42 0 -86 14.5t-155 61.5q-72 28 -109 28q-38 0 -80 -15.5t-70 -39.5 q-45 -39 -57 -39q-11 0 -33 11.5t-22 21.5z" />
<glyph unicode="&#xd6;" horiz-adv-x="1820" d="M90 709q0 357 264 577q100 82 233 130t331 48q150 0 274.5 -32.5t206.5 -83.5t145 -121.5t97.5 -139t56 -143.5t27.5 -127t6 -98q0 -73 -13 -145t-43 -147t-74.5 -141t-111.5 -125t-150 -101t-194 -66.5t-240 -24.5q-167 0 -303.5 39.5t-230.5 108t-158 162.5t-93.5 202 t-29.5 228zM369 729q0 -81 19.5 -164t62.5 -165t104.5 -145.5t153 -102.5t200.5 -39q108 0 200 37t154 97t105.5 139t63.5 161.5t20 165.5q0 77 -18 157.5t-59 162.5t-100.5 145t-151.5 103t-203 40q-110 0 -202.5 -35.5t-155.5 -95t-107.5 -136.5t-65 -159.5t-20.5 -165.5z M547 1718q0 58 33 104t94 46q59 0 94 -42t35 -102q0 -63 -36.5 -107t-94.5 -44q-57 0 -91 41.5t-34 103.5zM1020 1718q0 60 34 105t93 45q61 0 95 -43t34 -101q0 -63 -36.5 -107t-94.5 -44q-55 0 -90 41t-35 104z" />
<glyph unicode="&#xd7;" d="M188 340q0 8 13 18l295 291q8 8 8 15q0 6 -8 14l-293 287q-13 13 -13 16q0 9 17 23l78 79q15 15 20 15q8 0 19 -11l288 -292q11 -11 13 -11q5 0 16 11l289 295q12 12 16 12q9 0 23 -17l80 -79q14 -12 14 -21q0 -8 -10 -18l-297 -289q-8 -11 -8 -14q0 -7 8 -15l293 -289 q12 -10 12 -16q0 -5 -14 -22l-78 -76q-17 -17 -23 -17q-7 0 -18 11l-289 292q0 2 -4.5 6.5t-7.5 4.5q-4 0 -15 -11l-290 -294q-9 -13 -17 -13q-7 0 -22 15l-80 79q-15 17 -15 21z" />
<glyph unicode="&#xd8;" horiz-adv-x="1820" d="M90 711q0 360 264 577q216 178 557 178q114 0 200 -15t122 -28q77 -26 80 -26q16 0 33 28l84 119q2 2 4 5.5t3.5 5.5l3 4t2.5 3.5t2.5 3.5t2.5 3t2.5 1.5l3 1l3 1t3.5 0.5q15 0 23 -8l49 -35q20 -13 20 -29q0 -10 -14 -33l-74 -106q-16 -21 -16 -31q0 -13 27 -37 q124 -106 190 -256t66 -317q0 -75 -14 -149t-44.5 -148.5t-76 -140.5t-112.5 -123.5t-149.5 -99t-191.5 -65.5t-234 -24q-181 0 -336 47q-26 9 -30 9q-11 0 -17 -5t-18 -24l-96 -137q-24 -35 -37 -35q-9 0 -27 12l-49 35q-16 8 -16 25q0 11 24 47l80 110q14 21 14 31 q0 9 -5 14.5t-31 26.5q-33 26 -47.5 38t-42.5 41t-52 62q-69 93 -101 210.5t-32 232.5zM369 727q0 -82 19 -167.5t45 -145t53 -97.5t44 -38q16 0 37 32l619 887q18 27 18 39q0 20 -20 31q-91 59 -248 59q-133 0 -242 -50t-179 -134t-108 -191t-38 -225zM645 186 q0 -30 85 -53.5t167 -23.5q125 0 231 49.5t176 134t109 194.5t39 232q0 99 -25.5 198t-58 156t-55.5 57q-18 0 -41 -34l-608 -871q-19 -29 -19 -39z" />
<glyph unicode="&#xd9;" horiz-adv-x="1554" d="M63 1366v41q0 19 6.5 26t22.5 7q19 0 120.5 -4t117.5 -4q21 0 128.5 4t125.5 4q17 0 21.5 -8t4.5 -25v-41q0 -23 -10 -31t-45 -16q-52 -12 -68 -28.5t-18 -53.5q-4 -110 -4 -354v-217q0 -170 9 -250.5t30 -126.5q39 -83 125.5 -127.5t197.5 -44.5q43 0 88 8t92 26 t85.5 52t58.5 80q29 63 35 135t6 256v209q0 348 -8 385q-11 36 -82 51q-35 7 -45 16t-10 31v41q0 20 6 26.5t22 6.5t98 -4t95 -4q18 0 108 4t105 4q26 0 26 -33v-41q0 -24 -10 -31.5t-45 -15.5q-52 -12 -68 -28t-18 -54q-4 -110 -4 -354v-201v-100t-1.5 -87t-4.5 -82 t-8.5 -69t-13.5 -65.5t-20.5 -55t-29 -53t-38 -44t-48.5 -42.5q-155 -115 -430 -115q-360 0 -489 201q-45 70 -57.5 180t-12.5 324v209q0 348 -8 385q-9 36 -82 51q-35 7 -45.5 16t-10.5 31zM279 1767q0 14 10 19.5t43 11.5l182 37q32 8 47 8q14 0 25.5 -6.5t54.5 -38.5 l258 -186q35 -28 35 -37t-21.5 -22t-33.5 -13q-10 0 -212.5 67.5t-328.5 112.5q-41 14 -50 20.5t-9 26.5z" />
<glyph unicode="&#xda;" horiz-adv-x="1554" d="M63 1366v41q0 19 6.5 26t22.5 7q19 0 120.5 -4t117.5 -4q21 0 128.5 4t125.5 4q17 0 21.5 -8t4.5 -25v-41q0 -23 -10 -31t-45 -16q-52 -12 -68 -28.5t-18 -53.5q-4 -110 -4 -354v-217q0 -170 9 -250.5t30 -126.5q39 -83 125.5 -127.5t197.5 -44.5q43 0 88 8t92 26 t85.5 52t58.5 80q29 63 35 135t6 256v209q0 348 -8 385q-11 36 -82 51q-35 7 -45 16t-10 31v41q0 20 6 26.5t22 6.5t98 -4t95 -4q18 0 108 4t105 4q26 0 26 -33v-41q0 -24 -10 -31.5t-45 -15.5q-52 -12 -68 -28t-18 -54q-4 -110 -4 -354v-201v-100t-1.5 -87t-4.5 -82 t-8.5 -69t-13.5 -65.5t-20.5 -55t-29 -53t-38 -44t-48.5 -42.5q-155 -115 -430 -115q-360 0 -489 201q-45 70 -57.5 180t-12.5 324v209q0 348 -8 385q-9 36 -82 51q-35 7 -45.5 16t-10.5 31zM616 1561q0 9 27 28l281 223q27 22 34.5 26.5t20.5 4.5q1 0 49 -12l211 -45 q22 -5 31.5 -9.5t11.5 -8t2 -11.5q0 -16 -13 -25t-50 -22q-35 -14 -282 -98t-273 -84q-12 0 -31 12t-19 21z" />
<glyph unicode="&#xdb;" horiz-adv-x="1554" d="M63 1366v41q0 19 6.5 26t22.5 7q19 0 120.5 -4t117.5 -4q21 0 128.5 4t125.5 4q17 0 21.5 -8t4.5 -25v-41q0 -23 -10 -31t-45 -16q-52 -12 -68 -28.5t-18 -53.5q-4 -110 -4 -354v-217q0 -170 9 -250.5t30 -126.5q39 -83 125.5 -127.5t197.5 -44.5q43 0 88 8t92 26 t85.5 52t58.5 80q29 63 35 135t6 256v209q0 348 -8 385q-11 36 -82 51q-35 7 -45 16t-10 31v41q0 20 6 26.5t22 6.5t98 -4t95 -4q18 0 108 4t105 4q26 0 26 -33v-41q0 -24 -10 -31.5t-45 -15.5q-52 -12 -68 -28t-18 -54q-4 -110 -4 -354v-201v-100t-1.5 -87t-4.5 -82 t-8.5 -69t-13.5 -65.5t-20.5 -55t-29 -53t-38 -44t-48.5 -42.5q-155 -115 -430 -115q-360 0 -489 201q-45 70 -57.5 180t-12.5 324v209q0 348 -8 385q-9 36 -82 51q-35 7 -45.5 16t-10.5 31zM416 1567q0 1 22 30l195 211q24 25 34.5 30t45.5 5h151q35 0 49.5 -5t28.5 -21 l184 -209q25 -27 25 -35q0 -9 -40 -20t-50 -11q-12 0 -49 19l-172 96q-43 24 -56 24q-7 0 -27 -8.5t-30 -15.5l-190 -96q-39 -19 -52 -19q-15 0 -42 6t-27 19z" />
<glyph unicode="&#xdc;" horiz-adv-x="1554" d="M63 1366v41q0 19 6.5 26t22.5 7q19 0 120.5 -4t117.5 -4q21 0 128.5 4t125.5 4q17 0 21.5 -8t4.5 -25v-41q0 -23 -10 -31t-45 -16q-52 -12 -68 -28.5t-18 -53.5q-4 -110 -4 -354v-217q0 -170 9 -250.5t30 -126.5q39 -83 125.5 -127.5t197.5 -44.5q43 0 88 8t92 26 t85.5 52t58.5 80q29 63 35 135t6 256v209q0 348 -8 385q-11 36 -82 51q-35 7 -45 16t-10 31v41q0 20 6 26.5t22 6.5t98 -4t95 -4q18 0 108 4t105 4q26 0 26 -33v-41q0 -24 -10 -31.5t-45 -15.5q-52 -12 -68 -28t-18 -54q-4 -110 -4 -354v-201v-100t-1.5 -87t-4.5 -82 t-8.5 -69t-13.5 -65.5t-20.5 -55t-29 -53t-38 -44t-48.5 -42.5q-155 -115 -430 -115q-360 0 -489 201q-45 70 -57.5 180t-12.5 324v209q0 348 -8 385q-9 36 -82 51q-35 7 -45.5 16t-10.5 31zM414 1718q0 58 33 104t94 46q59 0 94 -42t35 -102q0 -63 -36.5 -107t-94.5 -44 q-57 0 -91 41.5t-34 103.5zM887 1718q0 60 34 105t93 45q61 0 95 -43t34 -101q0 -63 -36.5 -107t-94.5 -44q-55 0 -90 41t-35 104z" />
<glyph unicode="&#xdd;" horiz-adv-x="1327" d="M-6 1368v41q0 19 8 25t23 6q16 0 100 -4t141 -4q20 0 123.5 4t120.5 4q33 0 33 -31v-41q0 -20 -11 -26.5t-49 -14.5q-51 -8 -51 -41q0 -15 11.5 -39t76.5 -143q14 -25 88 -165.5t88 -164.5q16 -33 21 -33q3 0 26 45q29 59 103 197.5t90 169.5q51 95 51 117q0 21 -15 32 t-54 19q-54 11 -54 47v41q0 18 6 24.5t23 6.5q20 0 93 -4t97 -4q80 0 146 4t71 4q21 0 28 -7.5t7 -23.5v-41q0 -13 -0.5 -18.5t-4.5 -11.5t-13 -9q-59 -19 -79.5 -36t-70.5 -91q-107 -162 -174 -270q-76 -122 -159 -248q-34 -52 -42 -74.5t-8 -60.5v-43q0 -305 9 -342 q8 -40 92 -51q42 -4 53.5 -13.5t11.5 -33.5v-41q0 -20 -5 -26.5t-23 -6.5h-4q-6 0 -78.5 4t-169.5 4q-78 0 -178 -4t-105 -4q-17 0 -22 8.5t-5 24.5v41q0 25 11.5 33t54.5 14q59 8 76.5 27t19.5 55q0 5 1 64t2 133t1 114v43q0 27 -5 43t-29 57q-44 79 -137 232t-166 270.5 t-80 126.5q-18 24 -32.5 32.5t-58.5 24.5q-17 6 -20.5 11.5t-3.5 21.5zM502 1561q0 6 4 10.5t22 17.5l281 223q27 22 34.5 26.5t20.5 4.5q1 0 49 -12l211 -45q22 -5 31.5 -9.5t11.5 -8t2 -11.5q0 -16 -13 -25t-50 -22q-35 -14 -282 -98t-273 -84q-12 0 -30.5 12t-18.5 21z " />
<glyph unicode="&#xde;" d="M92 25v41q0 24 9.5 31.5t43.5 15.5q53 11 68.5 28t17.5 54q7 151 7 354v334q0 334 -11 385q-6 36 -82 51q-33 7 -43 16t-10 31v41q0 20 6 26.5t23 6.5q19 0 119 -4t116 -4q21 0 129.5 4t126.5 4q27 0 27 -33v-41q0 -23 -10 -31t-45 -16q-59 -14 -75.5 -37t-16.5 -90 q0 -26 10.5 -31.5t58.5 -5.5q9 0 99.5 3t107.5 3q35 0 54.5 -0.5t59 -6.5t68 -16.5t65 -33.5t66.5 -55q105 -111 105 -275q0 -98 -41.5 -179.5t-109.5 -133t-151.5 -79.5t-170.5 -28q-13 0 -39.5 1.5t-63.5 5.5t-63.5 13t-26.5 21t25 40t41 28q66 0 108.5 8.5t85.5 38.5 q64 42 99.5 110.5t35.5 145.5q0 133 -100 213q-59 49 -184 49h-51q-57 0 -70 -12t-14 -72q0 -3 -0.5 -48t-1 -106.5t-0.5 -103.5v-133q0 -226 4 -352q1 -53 23 -66.5t104 -23.5q28 -4 41.5 -11t15.5 -12.5t2 -17.5v-43q0 -20 -8 -27.5t-31 -7.5q-17 0 -125 4t-137 4 q-78 0 -136 -2t-88 -4t-40 -2q-16 0 -21.5 8t-5.5 25z" />
<glyph unicode="&#xdf;" horiz-adv-x="1175" d="M35 854q0 9 14.5 54t20.5 59q9 18 45 18h41q42 0 52.5 12.5t10.5 51.5v100q7 50 51.5 115.5t85.5 108.5t72 69q119 96 274 96q56 0 105.5 -11t96 -35.5t73.5 -72.5t27 -114q0 -27 -3.5 -48.5t-31 -75t-80.5 -116.5q-93 -110 -114 -142t-21 -69q0 -43 33.5 -86.5 t132.5 -134.5q62 -58 93 -89.5t64 -75t45.5 -84.5t12.5 -91q0 -61 -23 -117.5t-66.5 -102.5t-113.5 -74t-156 -28q-82 0 -205 41q-32 14 -39.5 29t-3.5 39l11 137q1 13 2.5 19.5t6.5 11t15 4.5h41q19 0 26 -7.5t11 -35.5q5 -47 44 -87t106 -40q38 0 66.5 14t41.5 30.5 t20 39.5t8 32.5t1 16.5q0 52 -32.5 90t-164.5 152q-101 86 -143.5 143.5t-42.5 122.5q0 46 18.5 77.5t77.5 100.5q135 162 135 297q0 56 -14.5 97t-38.5 61.5t-47.5 29.5t-48.5 9q-34 0 -73 -15t-67 -49q-26 -33 -31 -79.5t-5 -184.5v-752q0 -91 8 -231l4 -57 q0 -20 -7 -26.5t-30 -6.5q-11 0 -87 3t-91 3q-13 0 -78 -3t-76 -3q-22 0 -22 26v33q0 21 9.5 28t53.5 21q43 13 59 27t17 47q1 8 6 281v272q0 81 -8.5 98.5t-52.5 16.5l-74 -2q-32 0 -39.5 1.5t-7.5 10.5z" />
<glyph unicode="&#xe0;" horiz-adv-x="1062" d="M84 233q0 88 37 173q14 32 34 41.5t105 27.5l270 53q82 17 107 32.5t25 64.5v32q0 32 -2 54t-13 50.5t-30 46t-56.5 30t-89.5 12.5q-116 0 -233 -53q-5 -2 -24 -11.5t-35.5 -17.5t-20.5 -8q-12 0 -14 15.5t1 21.5l13 106q5 38 17.5 55t49.5 29q146 35 281 35 q184 0 282.5 -66t98.5 -223q0 -21 -2 -133.5t-2 -130.5l-2 -113v-131q0 -64 16.5 -89t77.5 -32q58 -7 65 -13q7 -7 7 -23v-33q0 -17 -7 -23t-36 -12l-242 -41q-32 -4 -41 -4q-17 0 -25.5 4t-17 30t-10.5 79q0 23 -1 34t-3.5 14t-6.5 3q-3 0 -22 -13.5t-41 -29.5t-27 -19 q-39 -27 -65.5 -42t-77.5 -29.5t-109 -14.5q-103 0 -167 77t-64 185zM178 1511q0 10 10.5 12.5t38.5 2.5h158q45 0 56.5 -8t33.5 -52l137 -272q17 -33 17 -37q0 -12 -21 -17t-39 -5t-61 43q-69 60 -199.5 187t-130.5 146zM330 250q0 -59 36.5 -87t82.5 -28q76 0 149 58 q42 32 53 66t11 91v56q0 20 -3 29t-14 9q-3 0 -30 -5t-67 -14t-67 -17q-13 -4 -24.5 -8t-37 -17.5t-43 -29.5t-32 -43.5t-14.5 -59.5z" />
<glyph unicode="&#xe1;" horiz-adv-x="1062" d="M84 233q0 88 37 173q14 32 34 41.5t105 27.5l270 53q82 17 107 32.5t25 64.5v32q0 32 -2 54t-13 50.5t-30 46t-56.5 30t-89.5 12.5q-116 0 -233 -53q-5 -2 -24 -11.5t-35.5 -17.5t-20.5 -8q-12 0 -14 15.5t1 21.5l13 106q5 38 17.5 55t49.5 29q146 35 281 35 q184 0 282.5 -66t98.5 -223q0 -21 -2 -133.5t-2 -130.5l-2 -113v-131q0 -64 16.5 -89t77.5 -32q58 -7 65 -13q7 -7 7 -23v-33q0 -17 -7 -23t-36 -12l-242 -41q-32 -4 -41 -4q-17 0 -25.5 4t-17 30t-10.5 79q0 23 -1 34t-3.5 14t-6.5 3q-3 0 -22 -13.5t-41 -29.5t-27 -19 q-39 -27 -65.5 -42t-77.5 -29.5t-109 -14.5q-103 0 -167 77t-64 185zM330 250q0 -59 36.5 -87t82.5 -28q76 0 149 58q42 32 53 66t11 91v56q0 20 -3 29t-14 9q-3 0 -30 -5t-67 -14t-67 -17q-13 -4 -24.5 -8t-37 -17.5t-43 -29.5t-32 -43.5t-14.5 -59.5zM414 1157q0 4 16 37 l129 270q21 42 33 51t51 9h166q49 0 49 -15q0 -12 -55 -67q-127 -127 -291 -283q-24 -22 -45 -22q-53 0 -53 20z" />
<glyph unicode="&#xe2;" horiz-adv-x="1062" d="M84 233q0 88 37 173q14 32 34 41.5t105 27.5l270 53q82 17 107 32.5t25 64.5v32q0 32 -2 54t-13 50.5t-30 46t-56.5 30t-89.5 12.5q-116 0 -233 -53q-5 -2 -24 -11.5t-35.5 -17.5t-20.5 -8q-12 0 -14 15.5t1 21.5l13 106q5 38 17.5 55t49.5 29q146 35 281 35 q184 0 282.5 -66t98.5 -223q0 -21 -2 -133.5t-2 -130.5l-2 -113v-131q0 -64 16.5 -89t77.5 -32q58 -7 65 -13q7 -7 7 -23v-33q0 -17 -7 -23t-36 -12l-242 -41q-32 -4 -41 -4q-17 0 -25.5 4t-17 30t-10.5 79q0 23 -1 34t-3.5 14t-6.5 3q-3 0 -22 -13.5t-41 -29.5t-27 -19 q-39 -27 -65.5 -42t-77.5 -29.5t-109 -14.5q-103 0 -167 77t-64 185zM213 1153q0 1 10 21l221 329q16 24 27 28.5t41 4.5h90q22 0 31 -1.5t18.5 -8.5t18.5 -23l170 -317q14 -27 14 -33q0 -14 -29 -20q-4 0 -24 -3.5t-23 -3.5q-13 0 -23.5 7t-35.5 30l-131 117 q-25 23 -31.5 28t-13.5 5q-9 0 -17 -5t-37 -28l-155 -117q-33 -23 -41 -28t-17 -5q-18 0 -40.5 5.5t-22.5 17.5zM330 250q0 -59 36.5 -87t82.5 -28q76 0 149 58q42 32 53 66t11 91v56q0 20 -3 29t-14 9q-3 0 -30 -5t-67 -14t-67 -17q-13 -4 -24.5 -8t-37 -17.5t-43 -29.5 t-32 -43.5t-14.5 -59.5z" />
<glyph unicode="&#xe3;" horiz-adv-x="1062" d="M84 233q0 88 37 173q14 32 34 41.5t105 27.5l270 53q82 17 107 32.5t25 64.5v32q0 32 -2 54t-13 50.5t-30 46t-56.5 30t-89.5 12.5q-116 0 -233 -53q-5 -2 -24 -11.5t-35.5 -17.5t-20.5 -8q-12 0 -14 15.5t1 21.5l13 106q5 38 17.5 55t49.5 29q146 35 281 35 q184 0 282.5 -66t98.5 -223q0 -21 -2 -133.5t-2 -130.5l-2 -113v-131q0 -64 16.5 -89t77.5 -32q58 -7 65 -13q7 -7 7 -23v-33q0 -17 -7 -23t-36 -12l-242 -41q-32 -4 -41 -4q-17 0 -25.5 4t-17 30t-10.5 79q0 23 -1 34t-3.5 14t-6.5 3q-3 0 -22 -13.5t-41 -29.5t-27 -19 q-39 -27 -65.5 -42t-77.5 -29.5t-109 -14.5q-103 0 -167 77t-64 185zM125 1235q0 8 16.5 30t41 50t28.5 33q67 70 114 96t103 26q50 0 158 -51q84 -41 123 -41q25 0 64 18t58 30.5t31 21.5q35 29 47 29q8 0 20.5 -15t12.5 -24q0 -21 -96 -133q-67 -72 -108 -98.5t-81 -26.5 q-63 0 -170 61q-53 29 -78.5 39t-50.5 10q-77 0 -151 -69q-17 -17 -25 -17q-9 0 -33 9.5t-24 21.5zM330 250q0 -59 36.5 -87t82.5 -28q76 0 149 58q42 32 53 66t11 91v56q0 20 -3 29t-14 9q-3 0 -30 -5t-67 -14t-67 -17q-13 -4 -24.5 -8t-37 -17.5t-43 -29.5t-32 -43.5 t-14.5 -59.5z" />
<glyph unicode="&#xe4;" horiz-adv-x="1062" d="M84 233q0 88 37 173q14 32 34 41.5t105 27.5l270 53q82 17 107 32.5t25 64.5v32q0 32 -2 54t-13 50.5t-30 46t-56.5 30t-89.5 12.5q-116 0 -233 -53q-5 -2 -24 -11.5t-35.5 -17.5t-20.5 -8q-12 0 -14 15.5t1 21.5l13 106q5 38 17.5 55t49.5 29q146 35 281 35 q184 0 282.5 -66t98.5 -223q0 -21 -2 -133.5t-2 -130.5l-2 -113v-131q0 -64 16.5 -89t77.5 -32q58 -7 65 -13q7 -7 7 -23v-33q0 -17 -7 -23t-36 -12l-242 -41q-32 -4 -41 -4q-17 0 -25.5 4t-17 30t-10.5 79q0 23 -1 34t-3.5 14t-6.5 3q-3 0 -22 -13.5t-41 -29.5t-27 -19 q-39 -27 -65.5 -42t-77.5 -29.5t-109 -14.5q-103 0 -167 77t-64 185zM190 1329q0 60 35.5 104t93.5 44q66 0 100 -43.5t34 -102.5q0 -66 -38.5 -106.5t-92.5 -40.5q-60 0 -96 43.5t-36 101.5zM330 250q0 -59 36.5 -87t82.5 -28q76 0 149 58q42 32 53 66t11 91v56q0 20 -3 29 t-14 9q-3 0 -30 -5t-67 -14t-67 -17q-13 -4 -24.5 -8t-37 -17.5t-43 -29.5t-32 -43.5t-14.5 -59.5zM565 1329q0 61 36 104.5t93 43.5q65 0 99 -43t34 -103q0 -65 -38 -106t-93 -41q-60 0 -95.5 43.5t-35.5 101.5z" />
<glyph unicode="&#xe5;" horiz-adv-x="1062" d="M84 233q0 88 37 173q14 32 34 41.5t105 27.5l270 53q82 17 107 32.5t25 64.5v32q0 32 -2 54t-13 50.5t-30 46t-56.5 30t-89.5 12.5q-116 0 -233 -53q-5 -2 -24 -11.5t-35.5 -17.5t-20.5 -8q-12 0 -14 15.5t1 21.5l13 106q5 38 17.5 55t49.5 29q146 35 281 35 q184 0 282.5 -66t98.5 -223q0 -21 -2 -133.5t-2 -130.5l-2 -113v-131q0 -64 16.5 -89t77.5 -32q58 -7 65 -13q7 -7 7 -23v-33q0 -17 -7 -23t-36 -12l-242 -41q-32 -4 -41 -4q-17 0 -25.5 4t-17 30t-10.5 79q0 23 -1 34t-3.5 14t-6.5 3q-3 0 -22 -13.5t-41 -29.5t-27 -19 q-39 -27 -65.5 -42t-77.5 -29.5t-109 -14.5q-103 0 -167 77t-64 185zM221 1372q0 58 30 101.5t76 66t90.5 33t84.5 10.5q145 0 220 -61.5t75 -147.5q0 -90 -79 -149.5t-212 -59.5q-130 0 -207.5 58t-77.5 149zM330 250q0 -59 36.5 -87t82.5 -28q76 0 149 58q42 32 53 66 t11 91v56q0 20 -3 29t-14 9q-3 0 -30 -5t-67 -14t-67 -17q-13 -4 -24.5 -8t-37 -17.5t-43 -29.5t-32 -43.5t-14.5 -59.5zM401 1370q0 -61 29.5 -94t73.5 -33q43 0 76.5 32t33.5 99q0 41 -14 76q-27 55 -92 55q-41 0 -74 -33.5t-33 -101.5z" />
<glyph unicode="&#xe6;" horiz-adv-x="1593" d="M84 236q0 59 19 119t38 79q15 19 140 43l213 41q117 22 142.5 40t25.5 83q0 68 -11 106t-47 62q-56 41 -147 41q-100 0 -226 -55q-1 -1 -21 -11.5t-35.5 -18t-20.5 -7.5q-11 0 -14 8.5t-1 30.5l11 106q2 17 4.5 25t11.5 21t30.5 23t55.5 19q117 31 248 31q183 0 266 -70 q10 -9 24 -23.5t23 -23t14 -8.5q10 0 41 31q94 94 275 94q258 0 344 -166q43 -82 43 -178q0 -61 -20 -83t-87 -22h-467q-56 0 -69 -11t-13 -68q0 -76 22.5 -137t56.5 -98t77.5 -61.5t82 -34t73.5 -9.5q64 0 140.5 22t141.5 62q38 22 43 22q7 0 7 -14q0 -22 -6.5 -95 t-14.5 -83q-21 -31 -135 -64t-219 -33q-114 0 -201.5 39t-126.5 80q-9 9 -23 26.5t-24.5 28.5t-17.5 11q-11 0 -86 -50q-60 -41 -89 -59t-71.5 -39.5t-80 -29t-83.5 -7.5q-73 0 -126.5 27.5t-80 71t-38 85t-11.5 81.5zM332 236q0 -14 10.5 -40t32.5 -42q36 -25 88 -25 q83 0 151 59q27 25 41.5 60.5t14.5 103.5q0 34 -4 66q-2 14 -5.5 18t-13.5 4q-33 0 -112 -19.5t-111 -37.5q-32 -17 -52.5 -37t-28 -42.5t-9.5 -35.5t-2 -32zM905 705q0 -37 45 -37q12 0 224 18q84 9 108.5 20.5t24.5 41.5q0 9 -3 24t-14.5 39t-29 43.5t-51 34t-76.5 14.5 q-57 0 -103.5 -23.5t-72 -57.5t-39 -65t-13.5 -52z" />
<glyph unicode="&#xe7;" horiz-adv-x="985" d="M78 465q0 54 12 112t37.5 122t69.5 121t102.5 102.5t143 72.5t184.5 27q146 0 243 -43q40 -19 31 -66l-27 -159q-5 -9 -10 -12t-18 -3h-37q-21 0 -27 7.5t-17 41.5l-3 9q-7 23 -47.5 44t-102.5 21q-133 0 -214 -103.5t-81 -246.5q0 -154 88.5 -254t227.5 -100 q123 0 244 75q3 2 14 10t20 13.5t13 5.5q8 0 8 -22q0 -14 -14 -100.5t-21 -94.5q-15 -21 -117 -47.5t-190 -26.5q-93 0 -182.5 31t-164 90t-120 156t-45.5 217zM381 -397q0 3 11.5 11.5t27 19t18.5 12.5q16 10 48 46.5t32 63.5q0 25 -18 47q-22 23 -26.5 31t-4.5 21 q0 10 18 30l45 49q28 31 54 31q12 0 24 -9.5t56 -51.5q67 -67 67 -113q0 -33 -30 -69.5t-121 -92.5q-110 -65 -131 -65q-9 0 -39.5 16t-30.5 23z" />
<glyph unicode="&#xe8;" horiz-adv-x="1024" d="M78 469q0 79 20 156.5t62 149.5t101.5 126.5t145 87.5t185.5 33q80 0 145.5 -20.5t118 -62.5t82 -115.5t29.5 -172.5q0 -28 -7.5 -45t-24.5 -23.5t-30 -8t-39 -1.5h-475q-58 0 -72 -10.5t-14 -66.5q0 -149 87 -245.5t224 -96.5q56 0 124 17.5t124 47.5q4 2 22.5 13.5 t35 21.5t20.5 10q6 0 6 -16q0 -17 -8.5 -98.5t-17.5 -92.5q-6 -8 -47 -27t-123.5 -39t-167.5 -20q-119 0 -216 40t-159.5 108.5t-96.5 158.5t-34 191zM182 1511q0 10 10.5 12.5t36.5 2.5h158q46 0 58 -8t34 -52l137 -272q15 -29 15 -37q0 -12 -20 -17t-38 -5q-15 0 -63 43 q-5 4 -51 47.5t-86.5 82.5t-87.5 85t-75 78t-28 40zM350 696q0 -24 31 -24q11 0 44.5 2.5t93.5 7.5t99 8q80 6 98.5 13t18.5 34q0 8 -1.5 21.5t-10.5 40.5t-23.5 48.5t-45.5 38.5t-72 17q-53 0 -96.5 -19.5t-67.5 -46t-40.5 -58t-22 -52.5t-5.5 -31z" />
<glyph unicode="&#xe9;" horiz-adv-x="1024" d="M78 469q0 79 20 156.5t62 149.5t101.5 126.5t145 87.5t185.5 33q80 0 145.5 -20.5t118 -62.5t82 -115.5t29.5 -172.5q0 -28 -7.5 -45t-24.5 -23.5t-30 -8t-39 -1.5h-475q-58 0 -72 -10.5t-14 -66.5q0 -149 87 -245.5t224 -96.5q56 0 124 17.5t124 47.5q4 2 22.5 13.5 t35 21.5t20.5 10q6 0 6 -16q0 -17 -8.5 -98.5t-17.5 -92.5q-6 -8 -47 -27t-123.5 -39t-167.5 -20q-119 0 -216 40t-159.5 108.5t-96.5 158.5t-34 191zM350 696q0 -24 31 -24q11 0 44.5 2.5t93.5 7.5t99 8q80 6 98.5 13t18.5 34q0 8 -1.5 21.5t-10.5 40.5t-23.5 48.5 t-45.5 38.5t-72 17q-53 0 -96.5 -19.5t-67.5 -46t-40.5 -58t-22 -52.5t-5.5 -31zM438 1157q0 2 17 37l131 270q19 41 32 50.5t50 9.5h168q49 0 49 -15q0 -5 -10.5 -18.5t-29 -33t-34.5 -35.5t-35.5 -35t-23.5 -23l-215 -205q-22 -22 -45 -22q-54 0 -54 20z" />
<glyph unicode="&#xea;" horiz-adv-x="1024" d="M78 469q0 79 20 156.5t62 149.5t101.5 126.5t145 87.5t185.5 33q80 0 145.5 -20.5t118 -62.5t82 -115.5t29.5 -172.5q0 -28 -7.5 -45t-24.5 -23.5t-30 -8t-39 -1.5h-475q-58 0 -72 -10.5t-14 -66.5q0 -149 87 -245.5t224 -96.5q56 0 124 17.5t124 47.5q4 2 22.5 13.5 t35 21.5t20.5 10q6 0 6 -16q0 -17 -8.5 -98.5t-17.5 -92.5q-6 -8 -47 -27t-123.5 -39t-167.5 -20q-119 0 -216 40t-159.5 108.5t-96.5 158.5t-34 191zM193 1153q0 1 10 21l221 329q16 24 27 28.5t41 4.5h90q22 0 31 -1.5t18 -8.5t18 -23l170 -317q15 -29 15 -33 q0 -14 -29 -20q-4 0 -24 -3.5t-23 -3.5q-13 0 -24.5 7t-35.5 30l-131 117q-25 23 -31.5 28t-13.5 5q-11 0 -44 -26q-2 -2 -3 -2.5t-3 -2t-3 -2.5l-156 -117q-49 -32 -57 -33q-18 0 -40.5 5.5t-22.5 17.5zM350 696q0 -24 31 -24q11 0 44.5 2.5t93.5 7.5t99 8q80 6 98.5 13 t18.5 34q0 8 -1.5 21.5t-10.5 40.5t-23.5 48.5t-45.5 38.5t-72 17q-53 0 -96.5 -19.5t-67.5 -46t-40.5 -58t-22 -52.5t-5.5 -31z" />
<glyph unicode="&#xeb;" horiz-adv-x="1024" d="M78 469q0 79 20 156.5t62 149.5t101.5 126.5t145 87.5t185.5 33q80 0 145.5 -20.5t118 -62.5t82 -115.5t29.5 -172.5q0 -28 -7.5 -45t-24.5 -23.5t-30 -8t-39 -1.5h-475q-58 0 -72 -10.5t-14 -66.5q0 -149 87 -245.5t224 -96.5q56 0 124 17.5t124 47.5q4 2 22.5 13.5 t35 21.5t20.5 10q6 0 6 -16q0 -17 -8.5 -98.5t-17.5 -92.5q-6 -8 -47 -27t-123.5 -39t-167.5 -20q-119 0 -216 40t-159.5 108.5t-96.5 158.5t-34 191zM195 1331q0 58 35.5 102t93.5 44q63 0 97 -43.5t34 -102.5q0 -65 -37.5 -106t-93.5 -41q-60 0 -94.5 44.5t-34.5 102.5z M350 696q0 -24 31 -24q11 0 44.5 2.5t93.5 7.5t99 8q80 6 98.5 13t18.5 34q0 8 -1.5 21.5t-10.5 40.5t-23.5 48.5t-45.5 38.5t-72 17q-53 0 -96.5 -19.5t-67.5 -46t-40.5 -58t-22 -52.5t-5.5 -31zM569 1331q0 58 35.5 102t93.5 44q63 0 97 -43.5t34 -102.5q0 -65 -37.5 -106 t-93.5 -41q-60 0 -94.5 44.5t-34.5 102.5z" />
<glyph unicode="&#xec;" horiz-adv-x="606" d="M-27 1511q0 10 10 12.5t37 2.5h158q46 0 58 -8t34 -52l138 -272q14 -27 14 -37q0 -12 -20 -17t-37 -5q-16 0 -64 43q-126 117 -295 286q-11 9 -22 24t-11 23zM49 20v33q0 21 9.5 28t54.5 21q44 12 59 26.5t18 47.5q5 92 5 281v166q0 67 -0.5 103t-4 70.5t-8 48t-16 25.5 t-24.5 14.5t-36 4.5q-32 1 -43.5 8.5t-11.5 24.5v34q0 18 6.5 24t28.5 9q281 33 322 33q26 0 26 -41l-2 -76q-1 -73 -2 -139.5t-1.5 -109t-0.5 -97.5v-102q0 -268 8 -301q6 -22 26.5 -34t82.5 -32q20 -5 24 -12.5t4 -24.5v-33q0 -15 -5 -20.5t-19 -5.5q-8 0 -33 1.5t-79 3 t-132 1.5q-75 0 -125.5 -1.5t-74.5 -3t-33 -1.5q-23 0 -23 26z" />
<glyph unicode="&#xed;" horiz-adv-x="606" d="M49 20v33q0 21 9.5 28t54.5 21q44 12 59 26.5t18 47.5q5 92 5 281v166q0 67 -0.5 103t-4 70.5t-8 48t-16 25.5t-24.5 14.5t-36 4.5q-33 3 -44 9.5t-11 23.5v34q0 18 6.5 24t28.5 9l322 33q26 0 26 -41l-2 -76q-1 -73 -2 -139.5t-1.5 -109t-0.5 -97.5v-102q0 -268 8 -301 q6 -22 26.5 -34t82.5 -32q20 -5 24 -12.5t4 -24.5v-33q0 -15 -5 -20.5t-19 -5.5l-45 2q-132 4 -199 4q-62 0 -180 -4l-53 -2q-23 0 -23 26zM186 1157q0 2 17 37l129 270q21 42 33 51t51 9h166q49 0 49 -15q0 -8 -8 -17.5t-48 -49.5q-195 -195 -292 -283q-22 -22 -45 -22 q-52 0 -52 20z" />
<glyph unicode="&#xee;" horiz-adv-x="606" d="M-16 1153q0 1 10 21l221 329q16 24 27 28.5t41 4.5h90q22 0 31 -1.5t18 -8.5t18 -23l170 -317q15 -29 15 -33q0 -14 -29 -20q-4 0 -24 -3.5t-23 -3.5q-13 0 -24.5 7t-35.5 30l-131 117q-25 23 -31.5 28t-13.5 5q-11 0 -44 -26q-2 -2 -3 -2.5t-3 -2t-3 -2.5l-156 -117 q-49 -32 -57 -33q-18 0 -40.5 5.5t-22.5 17.5zM49 20v33q0 21 9.5 28t54.5 21q44 12 59 26.5t18 47.5q5 92 5 281v166q0 67 -0.5 103t-4 70.5t-8 48t-16 25.5t-24.5 14.5t-36 4.5q-32 1 -43.5 8.5t-11.5 24.5v34q0 18 6.5 24t28.5 9q281 33 322 33q26 0 26 -41l-2 -76 q-1 -73 -2 -139.5t-1.5 -109t-0.5 -97.5v-102q0 -268 8 -301q6 -22 26.5 -34t82.5 -32q20 -5 24 -12.5t4 -24.5v-33q0 -15 -5 -20.5t-19 -5.5q-8 0 -33 1.5t-79 3t-132 1.5q-75 0 -125.5 -1.5t-74.5 -3t-33 -1.5q-23 0 -23 26z" />
<glyph unicode="&#xef;" horiz-adv-x="606" d="M-14 1331q0 58 35.5 102t93.5 44q63 0 97 -43.5t34 -102.5q0 -65 -37.5 -106t-93.5 -41q-60 0 -94.5 44.5t-34.5 102.5zM49 20v33q0 21 9.5 28t54.5 21q44 12 59 26.5t18 47.5q5 92 5 281v166q0 67 -0.5 103t-4 70.5t-8 48t-16 25.5t-24.5 14.5t-36 4.5q-32 1 -43.5 8.5 t-11.5 24.5v34q0 18 6.5 24t28.5 9q281 33 322 33q26 0 26 -41l-2 -76q-1 -73 -2 -139.5t-1.5 -109t-0.5 -97.5v-102q0 -268 8 -301q6 -22 26.5 -34t82.5 -32q20 -5 24 -12.5t4 -24.5v-33q0 -15 -5 -20.5t-19 -5.5q-8 0 -33 1.5t-79 3t-132 1.5q-75 0 -125.5 -1.5t-74.5 -3 t-33 -1.5q-23 0 -23 26zM360 1331q0 58 35.5 102t93.5 44q63 0 97.5 -43.5t34.5 -102.5q0 -65 -38 -106t-94 -41q-60 0 -94.5 44.5t-34.5 102.5z" />
<glyph unicode="&#xf0;" horiz-adv-x="1175" d="M76 473q0 122 41 227t110 175t159.5 109.5t188.5 39.5q96 0 183 -41q53 -27 65 -27q13 0 13 25q0 31 -25.5 111t-36.5 106q-13 38 -20.5 50t-18.5 12q-2 0 -24 -11l-86 -49q-19 -12 -29 -12t-21 14l-24 47q-6 12 -6 21q0 13 20 24l111 64q18 8 22 13t4 13q0 7 -26.5 63.5 t-26.5 68.5q0 19 19 30l26 17q8 6 21 6q30 0 94 -103q14 -18 25 -18q4 0 24 10l88 49q21 13 29 13q11 0 18 -15l29 -49q6 -12 6 -18q0 -13 -22 -23l-82 -47q-25 -14 -25 -27q0 -3 33 -71q170 -332 170 -686q0 -99 -14.5 -179t-41 -136.5t-53.5 -93.5t-63 -69 q-148 -137 -369 -137q-216 0 -350.5 136.5t-134.5 367.5zM317 512q0 -162 78 -272.5t205 -110.5q111 0 184.5 103t73.5 245q0 46 -8 95.5t-28 104t-50 97t-79 70.5t-109 28q-123 0 -195 -106t-72 -254z" />
<glyph unicode="&#xf1;" horiz-adv-x="1290" d="M39 903v39q0 23 5.5 30.5t27.5 10.5l321 39q31 0 31 -55q1 -18 3 -48t3.5 -52t1.5 -23q0 -6 4.5 -16.5t12.5 -10.5t45 37q108 113 143 131q66 39 166 39q74 0 137.5 -20.5t110 -65.5t57.5 -109q6 -36 7 -79t1 -226v-67q0 -238 5.5 -283t33.5 -57q8 -3 47 -16.5t41 -14.5 q17 -8 17 -33v-33q0 -26 -23 -26l-47 2q-122 4 -189 4q-120 0 -190 -4l-53 -2q-23 0 -23 26v33q0 21 9.5 28t54.5 21q44 12 59.5 26t18.5 48q4 59 4 281v67v58t-1.5 52.5t-4.5 50.5t-9 42.5t-14.5 38.5t-22 29.5t-30.5 24t-40 13t-52 5.5q-126 0 -207 -99q-22 -28 -33 -68.5 t-12.5 -70.5t-1.5 -90v-53q0 -238 5.5 -283t33.5 -57q8 -3 47 -16.5t41 -14.5q16 -8 16 -33v-33q0 -26 -23 -26l-47 2q-126 4 -190 4q-119 0 -189 -4l-53 -2q-22 0 -22 26v33q0 21 9.5 28t53.5 21q44 13 59.5 26.5t18.5 47.5q4 53 4 281v69q0 75 -8 182.5t-23 131.5 q-19 31 -88 34q-37 1 -48 8t-11 21zM238 1214q0 15 86 111q69 73 116.5 98t98.5 25q57 0 159 -51q83 -41 121 -41q32 0 76 21t80 48q1 1 12 8t21 14t12 7q9 0 22 -15t13 -24q0 -13 -34.5 -56.5t-64.5 -76.5q-64 -71 -105.5 -98t-82.5 -27q-54 0 -168 62q-53 29 -79 39 t-52 10q-76 0 -150 -70q-16 -16 -24 -16q-10 0 -33.5 9.5t-23.5 22.5z" />
<glyph unicode="&#xf2;" horiz-adv-x="1175" d="M76 473q0 107 34 205.5t96.5 175t160 122.5t215.5 46q301 0 424 -178q96 -133 96 -322q0 -48 -7.5 -98t-26 -105t-46 -104.5t-71 -94.5t-97 -77.5t-128 -52t-161.5 -19.5q-104 0 -188 29t-139 77.5t-92.5 114.5t-53.5 136t-16 145zM258 1511q0 10 10.5 12.5t36.5 2.5h158 q46 0 58 -8t34 -52l137 -272q15 -29 15 -37q0 -12 -20 -17t-38 -5q-15 0 -63 43q-5 4 -51 47.5t-86.5 82.5t-87.5 85t-75 78t-28 40zM317 512q0 -162 78 -272.5t205 -110.5q111 0 184.5 103t73.5 245q0 46 -8 95.5t-28 104t-50 97t-79 70.5t-109 28q-123 0 -195 -106 t-72 -254z" />
<glyph unicode="&#xf3;" horiz-adv-x="1175" d="M76 473q0 107 34 205.5t96.5 175t160 122.5t215.5 46q301 0 424 -178q96 -133 96 -322q0 -48 -7.5 -98t-26 -105t-46 -104.5t-71 -94.5t-97 -77.5t-128 -52t-161.5 -19.5q-104 0 -188 29t-139 77.5t-92.5 114.5t-53.5 136t-16 145zM317 512q0 -162 78 -272.5t205 -110.5 q111 0 184.5 103t73.5 245q0 46 -8 95.5t-28 104t-50 97t-79 70.5t-109 28q-123 0 -195 -106t-72 -254zM471 1157q0 8 14 37l131 270q21 41 33.5 50.5t50.5 9.5h166q49 0 49 -15q0 -5 -10.5 -18.5t-29 -33t-34.5 -35.5t-35.5 -35t-23.5 -23l-215 -205q-22 -22 -45 -22 q-51 0 -51 20z" />
<glyph unicode="&#xf4;" horiz-adv-x="1175" d="M76 473q0 107 34 205.5t96.5 175t160 122.5t215.5 46q301 0 424 -178q96 -133 96 -322q0 -48 -7.5 -98t-26 -105t-46 -104.5t-71 -94.5t-97 -77.5t-128 -52t-161.5 -19.5q-104 0 -188 29t-139 77.5t-92.5 114.5t-53.5 136t-16 145zM268 1153q0 2 2 6t5 9t4 6l221 329 q16 24 27 28.5t40 4.5h90q22 0 31 -1.5t18.5 -8.5t18.5 -23l170 -317q14 -27 14 -33q0 -9 -6 -13t-22 -7q-4 0 -24 -3.5t-23 -3.5q-13 0 -24.5 7t-35.5 30l-131 117q-25 23 -31.5 28t-13.5 5q-11 0 -44 -26q-6 -5 -9 -7l-156 -117q-49 -32 -57 -33q-18 0 -41 5.5t-23 17.5z M317 512q0 -162 78 -272.5t205 -110.5q111 0 184.5 103t73.5 245q0 46 -8 95.5t-28 104t-50 97t-79 70.5t-109 28q-123 0 -195 -106t-72 -254z" />
<glyph unicode="&#xf5;" horiz-adv-x="1175" d="M76 473q0 107 34 205.5t96.5 175t160 122.5t215.5 46q301 0 424 -178q96 -133 96 -322q0 -48 -7.5 -98t-26 -105t-46 -104.5t-71 -94.5t-97 -77.5t-128 -52t-161.5 -19.5q-104 0 -188 29t-139 77.5t-92.5 114.5t-53.5 136t-16 145zM180 1235q0 8 16.5 30t41 50t28.5 33 q67 70 114 96t103 26q50 0 158 -51q84 -41 123 -41q25 0 64 17.5t58.5 30.5t31.5 22q35 29 47 29q7 0 19.5 -15t12.5 -24q0 -21 -96 -133q-67 -73 -107.5 -99t-80.5 -26q-63 0 -170 61q-53 29 -78.5 39t-50.5 10q-78 0 -152 -69q-17 -17 -24 -17q-9 0 -33.5 9.5t-24.5 21.5z M317 512q0 -162 78 -272.5t205 -110.5q111 0 184.5 103t73.5 245q0 46 -8 95.5t-28 104t-50 97t-79 70.5t-109 28q-123 0 -195 -106t-72 -254z" />
<glyph unicode="&#xf6;" horiz-adv-x="1175" d="M76 473q0 107 34 205.5t96.5 175t160 122.5t215.5 46q301 0 424 -178q96 -133 96 -322q0 -48 -7.5 -98t-26 -105t-46 -104.5t-71 -94.5t-97 -77.5t-128 -52t-161.5 -19.5q-104 0 -188 29t-139 77.5t-92.5 114.5t-53.5 136t-16 145zM270 1329q0 61 35.5 104.5t93.5 43.5 q63 0 97 -43.5t34 -102.5q0 -65 -37.5 -106t-93.5 -41q-59 0 -94 43.5t-35 101.5zM317 512q0 -162 78 -272.5t205 -110.5q111 0 184.5 103t73.5 245q0 46 -8 95.5t-28 104t-50 97t-79 70.5t-109 28q-123 0 -195 -106t-72 -254zM645 1331q0 58 35.5 102t93.5 44 q63 0 97 -43.5t34 -102.5q0 -65 -37.5 -106t-93.5 -41q-60 0 -94.5 44.5t-34.5 102.5z" />
<glyph unicode="&#xf7;" d="M96 606v113q0 20 3.5 25.5t21.5 5.5h1009q16 0 20.5 -4.5t4.5 -26.5v-109q0 -12 -1 -17.5t-6.5 -10t-17.5 -4.5h-1009q-12 0 -16 1t-6.5 7t-2.5 20zM504 332q0 52 36.5 87.5t86.5 35.5q49 0 85 -36.5t36 -86.5t-36 -85.5t-85 -35.5q-50 0 -86.5 35.5t-36.5 85.5zM504 993 q0 52 37.5 87.5t85.5 35.5t84.5 -36t36.5 -87q0 -48 -35.5 -84.5t-85.5 -36.5q-51 0 -87 35.5t-36 85.5z" />
<glyph unicode="&#xf8;" horiz-adv-x="1175" d="M76 473q0 81 19.5 158.5t61.5 148.5t101.5 124.5t146 85.5t189.5 32q92 0 176 -23q33 -10 41 -10q11 0 17 6t18 25l45 74q16 26 29 26q8 0 20 -6l39 -24q20 -11 20 -25q0 -11 -12 -31l-45 -71q-12 -24 -12 -31q0 -6 31 -35q71 -68 106 -169t35 -206q0 -36 -5 -76.5 t-20 -96t-39 -105.5t-66.5 -101t-98 -88t-138.5 -60.5t-182 -23.5q-39 0 -121 15q-13 3 -26.5 6.5t-20.5 5.5t-8 2q-2 0 -4 -0.5t-3.5 -1t-3.5 -2t-3 -2.5t-3 -4l-3 -4.5t-4 -5.5t-5 -7l-47 -77q-12 -19 -18.5 -26t-14.5 -7q-6 0 -22 8l-39 25q-17 8 -17 22q0 8 21 43l33 55 q16 27 16 37t-24 29q-71 59 -115.5 161t-44.5 230zM317 502q0 -92 21 -172t43 -80q5 0 10 4t11.5 12t10.5 14t10.5 16.5t8.5 12.5l266 473q17 25 17 41q0 20 -36 34.5t-83 14.5q-134 0 -206.5 -103.5t-72.5 -266.5zM479 172q0 -22 39 -33.5t70 -11.5q114 0 192 96t78 271 q0 92 -16.5 162.5t-38.5 70.5q-7 0 -14.5 -9t-32.5 -50l-264 -463q-13 -27 -13 -33z" />
<glyph unicode="&#xf9;" horiz-adv-x="1214" d="M18 922v36q0 17 6.5 22.5t28.5 8.5q43 4 125.5 12.5t141 14.5t69.5 6q21 0 21 -27l-4 -88q-11 -200 -11 -280v-158q0 -137 6.5 -183.5t30.5 -78.5q41 -53 131 -53q61 0 119.5 24.5t93.5 79.5q18 27 26 69t9.5 79t1.5 118v101q0 204 -14 229q-10 19 -26.5 25t-70.5 14 q-34 5 -34 29v36q0 17 7 23.5t30 7.5q40 3 169.5 18t153.5 15q15 0 22.5 -5t6.5 -22q-8 -103 -8 -471q0 -263 4 -299q3 -34 6 -49.5t13.5 -33.5t31.5 -25.5t57 -10.5q24 -3 31.5 -9.5t7.5 -24.5v-31q0 -16 -6.5 -23t-28.5 -10l-276 -37q-38 -6 -46.5 7.5t-17.5 97.5 q-6 56 -9 67t-13 11q-6 0 -16.5 -8t-51.5 -46q-83 -77 -134.5 -103t-133.5 -26q-38 0 -78 7t-83 22t-76.5 45t-47.5 70q-22 57 -22 114l2 215v181q0 67 -0.5 103.5t-4 70t-8.5 47t-16 25t-23.5 14t-35.5 4.5q-30 3 -43 9.5t-13 23.5zM279 1511q0 10 10 12.5t37 2.5h157 q46 0 58 -8t34 -52l138 -272q14 -27 14 -37q0 -12 -20 -17t-37 -5q-16 0 -64 43q-126 117 -295 286q-10 9 -21 24t-11 23z" />
<glyph unicode="&#xfa;" horiz-adv-x="1214" d="M18 922v36q0 17 6.5 22.5t28.5 8.5l301 31l35 2q21 0 21 -27l-4 -88q-11 -200 -11 -280v-158q0 -137 6.5 -183.5t30.5 -78.5q41 -53 131 -53q61 0 119.5 24.5t93.5 79.5q18 27 26 69t9.5 79t1.5 118v101q2 45 -1.5 127.5t-12.5 101.5q-10 19 -26.5 25t-70.5 14 q-34 5 -34 29v36q0 17 7 23.5t30 7.5l292 31q40 4 50 -0.5t10 -24.5q0 -8 -2 -52.5t-2 -51.5q0 -18 -2 -112t-2 -109v-146q0 -263 4 -299q3 -34 6 -49.5t13.5 -33.5t31.5 -25.5t57 -10.5q24 -3 31.5 -9.5t7.5 -24.5v-31q0 -16 -6.5 -23t-28.5 -10l-276 -37q-38 -6 -46.5 7.5 t-17.5 97.5q-6 56 -9 67t-13 11q-6 0 -16.5 -8t-51.5 -46q-83 -77 -134.5 -103t-133.5 -26q-38 0 -78 7t-83 22t-76.5 45t-47.5 70q-22 57 -22 114l2 215v181q0 67 -0.5 103.5t-4 70t-8.5 47t-16 25t-23.5 14t-35.5 4.5q-30 3 -43 9.5t-13 23.5zM489 1157q0 2 17 37l129 270 q21 42 33 51t51 9h166q49 0 49 -15q0 -12 -55 -67q-127 -127 -291 -283q-24 -22 -45 -22q-54 0 -54 20z" />
<glyph unicode="&#xfb;" horiz-adv-x="1214" d="M18 922v36q0 17 6.5 22.5t28.5 8.5q43 4 125.5 12.5t141 14.5t69.5 6q21 0 21 -27l-4 -88q-11 -200 -11 -280v-158q0 -137 6.5 -183.5t30.5 -78.5q41 -53 131 -53q61 0 119.5 24.5t93.5 79.5q18 27 26 69t9.5 79t1.5 118v101q0 204 -14 229q-10 19 -26.5 25t-70.5 14 q-34 5 -34 29v36q0 17 7 23.5t30 7.5q40 3 169.5 18t153.5 15q15 0 22.5 -5t6.5 -22q-8 -103 -8 -471q0 -263 4 -299q3 -34 6 -49.5t13.5 -33.5t31.5 -25.5t57 -10.5q24 -3 31.5 -9.5t7.5 -24.5v-31q0 -16 -6.5 -23t-28.5 -10l-276 -37q-38 -6 -46.5 7.5t-17.5 97.5 q-6 56 -9 67t-13 11q-6 0 -16.5 -8t-51.5 -46q-83 -77 -134.5 -103t-133.5 -26q-38 0 -78 7t-83 22t-76.5 45t-47.5 70q-22 57 -22 114l2 215v181q0 67 -0.5 103.5t-4 70t-8.5 47t-16 25t-23.5 14t-35.5 4.5q-30 3 -43 9.5t-13 23.5zM289 1153q0 1 10 21l221 329 q16 24 27 28.5t41 4.5h90q22 0 31 -1.5t18 -8.5t18 -23l170 -317q15 -29 15 -33q0 -14 -29 -20q-4 0 -24 -3.5t-23 -3.5q-13 0 -23.5 7t-35.5 30l-131 117q-35 33 -46 33t-44 -26q-6 -5 -9 -7l-155 -117q-33 -23 -41 -28t-17 -5q-18 0 -40.5 5.5t-22.5 17.5z" />
<glyph unicode="&#xfc;" horiz-adv-x="1214" d="M18 922v36q0 17 6.5 22.5t28.5 8.5l301 31l35 2q21 0 21 -27l-4 -88q-11 -200 -11 -280v-158q0 -137 6.5 -183.5t30.5 -78.5q41 -53 131 -53q61 0 119.5 24.5t93.5 79.5q18 27 26 69t9.5 79t1.5 118v101q2 45 -1.5 127.5t-12.5 101.5q-10 19 -26.5 25t-70.5 14 q-34 5 -34 29v36q0 17 7 23.5t30 7.5l292 31q40 4 50 -0.5t10 -24.5q0 -8 -2 -52.5t-2 -51.5q0 -18 -2 -112t-2 -109v-146q0 -263 4 -299q3 -34 6 -49.5t13.5 -33.5t31.5 -25.5t57 -10.5q24 -3 31.5 -9.5t7.5 -24.5v-31q0 -16 -6.5 -23t-28.5 -10l-276 -37q-38 -6 -46.5 7.5 t-17.5 97.5q-6 56 -9 67t-13 11q-6 0 -16.5 -8t-51.5 -46q-83 -77 -134.5 -103t-133.5 -26q-38 0 -78 7t-83 22t-76.5 45t-47.5 70q-22 57 -22 114l2 215v181q0 67 -0.5 103.5t-4 70t-8.5 47t-16 25t-23.5 14t-35.5 4.5q-30 3 -43 9.5t-13 23.5zM266 1329q0 60 35.5 104 t93.5 44q65 0 99 -43t34 -103q0 -65 -38 -106t-93 -41q-60 0 -95.5 43.5t-35.5 101.5zM643 1329q0 61 35 104.5t92 43.5q65 0 99 -43t34 -103q0 -65 -38 -106t-93 -41q-60 0 -94.5 43.5t-34.5 101.5z" />
<glyph unicode="&#xfd;" horiz-adv-x="1024" d="M10 963v34q0 25 25 25q18 0 112 -3t109 -3q35 0 131.5 3t110.5 3q9 0 18.5 -6t9.5 -19v-34q0 -21 -11.5 -28.5t-63.5 -19.5q-66 -15 -66 -57q0 -21 27.5 -95t117.5 -304q27 -62 60 -154q14 -29 16 -29q3 0 16 37t17 52q0 2 77 240.5t77 260.5q0 28 -17.5 38.5t-62.5 21.5 q-22 4 -27.5 11t-5.5 26v34q0 14 4.5 19.5t20.5 5.5q25 0 80 -3t81 -3q29 0 82 3t66 3q26 0 26 -25v-34q0 -14 -4 -20.5t-18 -12.5q-31 -14 -45.5 -36t-48.5 -112q-25 -66 -152.5 -384t-144.5 -361q-54 -143 -71 -186t-40.5 -87t-52.5 -75q-42 -47 -104.5 -67.5 t-118.5 -20.5q-45 0 -76 2t-51 9t-31 13t-16 22t-6 28t-1 38q0 67 9 103q2 12 18 12q6 0 13.5 -1.5t18 -4.5t17.5 -4q67 -13 125 -13q119 0 174 76q15 19 30 52.5t22.5 57t7.5 25.5t-12 8.5t-13 8.5q-20 20 -70 143q-298 695 -305 707q-11 22 -22.5 29.5t-42.5 17.5 q-19 6 -19 33zM418 1157q0 8 14 37l131 270q21 42 33 51t51 9h166q49 0 49 -15q0 -9 -10 -21t-45 -46q-88 -88 -293 -283q-22 -22 -45 -22q-51 0 -51 20z" />
<glyph unicode="&#xfe;" horiz-adv-x="1175" d="M31 1427v35q0 5 1 9t3.5 7t4 4.5t6 3l6 2t8 2t8.5 1.5q319 51 325 51q29 0 29 -39q0 -93 -6 -168l-10 -465q0 -26 6 -26q4 0 47 39t59 55q31 30 51 44.5t64 27t106 12.5q84 0 149.5 -28t119.5 -107q92 -141 92 -334q0 -71 -14.5 -144t-51 -151t-91 -138t-144.5 -99 t-201 -39q-44 0 -113 14q-40 10 -53 10q-14 0 -14 -24v-99q0 -43 0.5 -65.5t5 -43.5t8.5 -29t18.5 -17.5t26 -12.5t39.5 -10l86 -18q33 -9 33 -35v-33q0 -17 -7.5 -22t-27.5 -5q-10 0 -40 2t-93.5 3.5t-155.5 1.5q-107 0 -177 -3.5t-73 -3.5q-16 0 -21 6.5t-5 20.5v33 q0 22 11 29.5t60 21.5q48 13 58.5 29.5t13.5 66.5q6 264 6 398v706q0 416 -10 445q-5 15 -16 23.5t-19 10.5t-33 5.5t-36 5.5q-39 7 -39 34zM412 444q0 -109 14.5 -166t48.5 -104q48 -65 133 -65q109 0 179.5 111.5t70.5 293.5q0 143 -59 238.5t-156 95.5q-50 0 -104 -34 t-95 -93q-32 -47 -32 -277z" />
<glyph unicode="&#xff;" horiz-adv-x="1024" d="M10 963v34q0 25 25 25q18 0 112 -3t109 -3q35 0 131.5 3t110.5 3q9 0 18.5 -6t9.5 -19v-34q0 -21 -11.5 -28.5t-63.5 -19.5q-66 -15 -66 -57q0 -21 27.5 -95t117.5 -304q27 -62 60 -154q14 -29 16 -29q3 0 16 37t17 52q0 2 77 240.5t77 260.5q0 28 -17.5 38.5t-62.5 21.5 q-22 4 -27.5 11t-5.5 26v34q0 14 4.5 19.5t20.5 5.5q25 0 80 -3t81 -3q29 0 82 3t66 3q26 0 26 -25v-34q0 -14 -4 -20.5t-18 -12.5q-31 -14 -45.5 -36t-48.5 -112q-25 -66 -152.5 -384t-144.5 -361q-54 -143 -71 -186t-40.5 -87t-52.5 -75q-42 -47 -104.5 -67.5 t-118.5 -20.5q-45 0 -76 2t-51 9t-31 13t-16 22t-6 28t-1 38q0 67 9 103q2 12 18 12q6 0 13.5 -1.5t18 -4.5t17.5 -4q67 -13 125 -13q119 0 174 76q15 19 30 52.5t22.5 57t7.5 25.5t-12 8.5t-13 8.5q-20 20 -70 143q-298 695 -305 707q-11 22 -22.5 29.5t-42.5 17.5 q-19 6 -19 33zM195 1331q0 58 35.5 102t93.5 44q63 0 97 -43.5t34 -102.5q0 -65 -37.5 -106t-93.5 -41q-60 0 -94.5 44.5t-34.5 102.5zM569 1331q0 58 35.5 102t93.5 44q63 0 97 -43.5t34 -102.5q0 -65 -37.5 -106t-93.5 -41q-60 0 -94.5 44.5t-34.5 102.5z" />
<glyph unicode="&#x152;" horiz-adv-x="2086" d="M90 698q0 170 61.5 314.5t167.5 243t252 153.5t312 55q68 0 288 -20q120 -12 252 -12q142 0 249.5 3t158.5 6t57 3q27 0 33 -8.5t4 -30.5l-10 -231q-1 -13 -2 -18t-6.5 -11t-14.5 -6h-43q-32 0 -37 39q-10 68 -34.5 90t-85.5 22q-238 0 -262 -4q-19 -5 -19 -43 q-4 -242 -4 -375q0 -34 5 -48.5t18 -18.5q21 -6 233 -6q80 0 134.5 2t76.5 4l22 2q24 0 19 -27l-21 -104q-3 -22 -10 -28.5t-33 -6.5q-111 0 -192 6q-46 4 -191 4q-42 0 -51.5 -11.5t-9.5 -64.5q0 -232 6 -331q3 -71 38 -87t165 -16q52 0 80 1t61 4.5t50 10.5t35.5 19.5 t30 31t21.5 46.5q2 4 9.5 28t9.5 27q7 12 31 12h45q9 0 14 -1t9 -8t3 -21l-26 -269q-2 -22 -13 -31.5t-41 -9.5q-23 0 -94 5.5t-213.5 11.5t-339.5 6q-111 0 -305 -23q-65 -8 -160 -8q-111 0 -216.5 29.5t-199 90.5t-164.5 146.5t-112 205t-41 257.5zM369 735 q0 -121 37 -233.5t105.5 -202.5t176.5 -144.5t238 -54.5q27 0 55.5 3t62 11t56 25t26.5 41q9 57 9 385v299q0 60 -3 149.5t-4 129.5q-2 16 -2 41q0 46 -6 67t-24 33q-65 43 -176 43q-109 0 -209 -43t-176 -119t-121 -188t-45 -242z" />
<glyph unicode="&#x153;" horiz-adv-x="1783" d="M76 469q0 38 5 80.5t20.5 97.5t39.5 106t65.5 101.5t94.5 87t131.5 59.5t171.5 23q252 0 346 -137q25 -39 37 -39q4 0 13.5 10.5t19 22.5t12.5 14q127 127 320 127q84 0 151.5 -25t108 -63t67.5 -86t37 -90.5t10 -81.5q0 -68 -19 -85.5t-79 -17.5h-536q-11 0 -17 -21 t-6 -40q0 -67 9 -114t38 -95q44 -70 117.5 -109.5t157.5 -39.5q52 0 107 15.5t79 27t68 34.5q3 1 14.5 9t22 14t14.5 6q12 0 12 -10q0 -15 -11 -94t-16 -90q-6 -13 -42 -33.5t-112.5 -41t-164.5 -20.5q-66 0 -122.5 10t-91 22.5t-69 35.5t-48.5 35.5t-38 36.5q-2 2 -11 12.5 t-16.5 19.5t-9.5 9q-3 0 -11.5 -10t-18 -22t-11.5 -14q-37 -37 -73 -62.5t-106.5 -49t-155.5 -23.5q-124 0 -222 40t-158.5 109.5t-92 158t-31.5 190.5zM317 502q0 -158 79.5 -265.5t193.5 -107.5q86 0 148.5 52.5t92 133.5t29.5 179q0 69 -18 134.5t-52 119.5t-89 87 t-123 33q-46 0 -91 -23.5t-83.5 -67t-62.5 -115.5t-24 -160zM1102 707q0 -35 41 -35q14 0 239 18q68 5 93.5 16t25.5 48q0 58 -47.5 101.5t-118.5 43.5q-53 0 -100 -23t-74.5 -55t-43 -63t-15.5 -51z" />
<glyph unicode="&#x178;" horiz-adv-x="1327" d="M-6 1368v41q0 19 8 25t23 6q16 0 100 -4t141 -4q20 0 123.5 4t120.5 4q33 0 33 -31v-41q0 -20 -11 -26.5t-49 -14.5q-51 -8 -51 -41q0 -15 11.5 -39t76.5 -143q14 -25 88 -165.5t88 -164.5q16 -33 21 -33q3 0 26 45q29 59 103 197.5t90 169.5q51 95 51 117q0 21 -15 32 t-54 19q-54 11 -54 47v41q0 18 6 24.5t23 6.5q20 0 93 -4t97 -4q80 0 146 4t71 4q21 0 28 -7.5t7 -23.5v-41q0 -13 -0.5 -18.5t-4.5 -11.5t-13 -9q-59 -19 -79.5 -36t-70.5 -91q-107 -162 -174 -270q-76 -122 -159 -248q-34 -52 -42 -74.5t-8 -60.5v-43q0 -305 9 -342 q8 -40 92 -51q42 -4 53.5 -13.5t11.5 -33.5v-41q0 -20 -5 -26.5t-23 -6.5h-4q-6 0 -78.5 4t-169.5 4q-78 0 -178 -4t-105 -4q-17 0 -22 8.5t-5 24.5v41q0 25 11.5 33t54.5 14q59 8 76.5 27t19.5 55q0 5 1 64t2 133t1 114v43q0 27 -5 43t-29 57q-44 79 -137 232t-166 270.5 t-80 126.5q-18 24 -32.5 32.5t-58.5 24.5q-17 6 -20.5 11.5t-3.5 21.5zM299 1718q0 58 33 104t94 46q59 0 94 -42t35 -102q0 -63 -36.5 -107t-94.5 -44q-57 0 -91 41.5t-34 103.5zM772 1718q0 60 34 105t93 45q61 0 95 -43t34 -101q0 -63 -36.5 -107t-94.5 -44q-55 0 -90 41 t-35 104z" />
<glyph unicode="&#x2c6;" horiz-adv-x="1024" d="M193 1153q0 1 10 21l221 329q16 24 27 28.5t41 4.5h90q22 0 31 -1.5t18 -8.5t18 -23l170 -317q15 -29 15 -33q0 -14 -29 -20q-4 0 -24 -3.5t-23 -3.5q-13 0 -24.5 7t-35.5 30l-131 117q-25 23 -31.5 28t-13.5 5q-11 0 -44 -26q-2 -2 -3 -2.5t-3 -2t-3 -2.5l-156 -117 q-49 -32 -57 -33q-18 0 -40.5 5.5t-22.5 17.5z" />
<glyph unicode="&#x2dc;" horiz-adv-x="1024" d="M104 1235q0 8 16.5 30t41 50t28.5 33q67 70 114.5 96t103.5 26q49 0 157 -51q84 -41 123 -41q25 0 64 17.5t58.5 30.5t31.5 22q35 29 47 29q8 0 20.5 -15t12.5 -24q0 -20 -97 -133q-67 -73 -107.5 -99t-80.5 -26q-63 0 -170 61q-53 29 -78.5 39t-50.5 10q-78 0 -152 -69 q-17 -17 -24 -17q-9 0 -33.5 9.5t-24.5 21.5z" />
<glyph unicode="&#x2000;" horiz-adv-x="989" />
<glyph unicode="&#x2001;" horiz-adv-x="1978" />
<glyph unicode="&#x2002;" horiz-adv-x="989" />
<glyph unicode="&#x2003;" horiz-adv-x="1978" />
<glyph unicode="&#x2004;" horiz-adv-x="659" />
<glyph unicode="&#x2005;" horiz-adv-x="494" />
<glyph unicode="&#x2006;" horiz-adv-x="329" />
<glyph unicode="&#x2007;" horiz-adv-x="329" />
<glyph unicode="&#x2008;" horiz-adv-x="247" />
<glyph unicode="&#x2009;" horiz-adv-x="395" />
<glyph unicode="&#x200a;" horiz-adv-x="109" />
<glyph unicode="&#x2010;" horiz-adv-x="833" d="M92 459l31 129q8 33 13.5 41t25.5 8l74 -2q23 0 143.5 -3t140.5 -3q10 0 166 6l39 2q18 0 18 -19q0 -14 -4 -30l-24 -109q-8 -38 -14.5 -46.5t-32.5 -8.5q-22 0 -137 3t-134 3q-99 0 -166 -2.5t-93 -5.5l-27 -2q-25 0 -19 39z" />
<glyph unicode="&#x2011;" horiz-adv-x="833" d="M92 459l31 129q8 33 13.5 41t25.5 8l74 -2q23 0 143.5 -3t140.5 -3q10 0 166 6l39 2q18 0 18 -19q0 -14 -4 -30l-24 -109q-8 -38 -14.5 -46.5t-32.5 -8.5q-22 0 -137 3t-134 3q-99 0 -166 -2.5t-93 -5.5l-27 -2q-25 0 -19 39z" />
<glyph unicode="&#x2012;" horiz-adv-x="833" d="M92 459l31 129q8 33 13.5 41t25.5 8l74 -2q23 0 143.5 -3t140.5 -3q10 0 166 6l39 2q18 0 18 -19q0 -14 -4 -30l-24 -109q-8 -38 -14.5 -46.5t-32.5 -8.5q-22 0 -137 3t-134 3q-99 0 -166 -2.5t-93 -5.5l-27 -2q-25 0 -19 39z" />
<glyph unicode="&#x2013;" horiz-adv-x="1290" d="M78 430q0 1 3 16t3 17l22 117q7 38 14.5 46.5t29.5 8.5l129 -2q441 -6 442 -6q197 0 397 8q36 4 68 4q26 0 26 -18q0 -2 -4 -20t-4 -21l-22 -107q-9 -39 -17 -48t-32 -9q-21 0 -250 5t-258 5q-52 0 -249.5 -4t-234.5 -6l-43 -2q-20 0 -20 16z" />
<glyph unicode="&#x2014;" horiz-adv-x="1554" d="M76 430q0 1 3 16t3 17l22 117q7 37 14.5 46t28.5 9q26 0 161 -2t157 -2l330 -4q35 -2 104 -2q381 0 518 10l41 4q21 0 21 -18q0 -14 -9 -41l-22 -107q-9 -39 -17 -48t-32 -9l-92 2q-26 0 -276 4t-302 4q-81 0 -170 -1t-160 -2.5t-129.5 -3t-93.5 -2.5t-37 -1l-43 -2 q-20 0 -20 16z" />
<glyph unicode="&#x2018;" horiz-adv-x="606" d="M156 1159q0 47 15 96.5t38 89.5t40 64t32 41q3 3 20.5 23.5t28 32t26 27.5t27 24t18.5 8q14 0 43 -9t29 -22q0 -3 -11 -22t-23.5 -40.5t-14.5 -27.5l-8 -16q-7 -15 -11.5 -27t-11.5 -29.5t-10.5 -33.5t-3.5 -29q0 -28 9.5 -46t41.5 -57q33 -42 33 -96q0 -62 -40.5 -100.5 t-98.5 -38.5q-55 0 -111.5 50t-56.5 138z" />
<glyph unicode="&#x2019;" horiz-adv-x="606" d="M133 993q0 3 11 22t23.5 40.5t14.5 27.5q45 101 45 136q0 28 -9 45.5t-42 56.5q-33 42 -33 96q0 62 40.5 100.5t99.5 38.5q55 0 111.5 -50t56.5 -138q0 -47 -15 -96.5t-38 -89.5t-40 -64t-32 -41q-3 -3 -14.5 -16.5t-18.5 -21t-19 -21t-20.5 -21.5t-18.5 -17t-17.5 -13 t-12.5 -4q-15 0 -43.5 8.5t-28.5 21.5z" />
<glyph unicode="&#x201a;" horiz-adv-x="606" d="M143 -301q0 3 11 22t24 40.5t15 27.5l7 15q8 16 12.5 28t11.5 29.5t10.5 33.5t3.5 29q0 28 -9.5 46t-42.5 57q-32 41 -32 96q0 62 40.5 100.5t98.5 38.5q55 0 111.5 -50t56.5 -138q0 -47 -15 -96.5t-38 -89.5t-40 -64t-32 -41q-4 -4 -14.5 -16.5t-18 -21t-19 -21.5 t-20.5 -21.5t-19 -17t-17.5 -13t-12.5 -4.5q-14 0 -43 9t-29 22z" />
<glyph unicode="&#x201c;" horiz-adv-x="1062" d="M147 1159q0 47 15 96.5t38 89.5t40 64t32 41q4 4 14.5 16.5t18 21t19 21.5t20.5 21.5t19 17t17.5 13t12.5 4.5q14 0 43 -9t29 -22q0 -3 -11 -22t-23.5 -40.5t-14.5 -27.5q-6 -8 -25.5 -57.5t-19.5 -77.5t9.5 -46t41.5 -57q33 -42 33 -96q0 -62 -40.5 -100.5t-99.5 -38.5 q-55 0 -111.5 50t-56.5 138zM602 1159q0 47 15 96.5t38 89.5t40 64t32 41q4 4 14.5 16.5t18 21t19 21.5t20.5 21.5t19 17t17.5 13t12.5 4.5q14 0 43 -9t29 -22q0 -3 -11 -22t-24 -40.5t-15 -27.5q-6 -8 -25.5 -57.5t-19.5 -77.5t9.5 -46t42.5 -57q32 -41 32 -96 q0 -62 -40.5 -100.5t-98.5 -38.5q-55 0 -111.5 50t-56.5 138z" />
<glyph unicode="&#x201d;" horiz-adv-x="1062" d="M143 993q0 3 11 22t24 40.5t15 27.5q45 101 45 136q0 28 -9.5 45t-42.5 57q-32 41 -32 96q0 62 40.5 100.5t98.5 38.5q55 0 111.5 -50t56.5 -138q0 -47 -15 -96.5t-38 -89.5t-40 -64t-32 -41q-3 -3 -14.5 -16.5t-18.5 -21t-19 -21t-20.5 -21.5t-18.5 -17t-17.5 -13 t-12.5 -4q-15 0 -43.5 8.5t-28.5 21.5zM598 993q0 3 11 22t23.5 40.5t14.5 27.5q45 101 45 136q0 28 -9 45.5t-42 56.5q-33 42 -33 96q0 62 40.5 100.5t99.5 38.5q55 0 111 -50t56 -138q0 -61 -27.5 -129t-51 -102.5t-45.5 -59.5q-3 -3 -14.5 -16.5t-18.5 -21t-19 -21 t-20.5 -21.5t-18.5 -17t-17.5 -13t-12.5 -4q-15 0 -43.5 8.5t-28.5 21.5z" />
<glyph unicode="&#x201e;" horiz-adv-x="1062" d="M143 -301q0 3 11 22t24 40.5t15 27.5l7 15q8 16 12.5 28t11.5 29.5t10.5 33.5t3.5 29q0 28 -9.5 46t-42.5 57q-32 41 -32 96q0 62 40.5 100.5t98.5 38.5q55 0 111.5 -50t56.5 -138q0 -47 -15 -96.5t-38 -89.5t-40 -64t-32 -41q-4 -4 -14.5 -16.5t-18 -21t-19 -21.5 t-20.5 -21.5t-19 -17t-17.5 -13t-12.5 -4.5q-14 0 -43 9t-29 22zM578 -301q0 3 11 22t23.5 40.5t14.5 27.5q6 8 25.5 57.5t19.5 77.5t-9.5 46t-41.5 57q-33 42 -33 96q0 62 40.5 100.5t98.5 38.5q55 0 111.5 -50t56.5 -138q0 -47 -15 -96.5t-38 -89.5t-40 -64t-32 -41 q-4 -4 -14.5 -16.5t-18 -21t-19 -21.5t-20.5 -21.5t-19 -17t-17.5 -13t-12.5 -4.5q-14 0 -42.5 9t-28.5 22z" />
<glyph unicode="&#x2022;" horiz-adv-x="1363" d="M344 664q0 139 100 238t238 99q140 0 240 -99t100 -238t-100 -238.5t-240 -99.5q-138 0 -238 99.5t-100 238.5z" />
<glyph unicode="&#x2026;" horiz-adv-x="1818" d="M143 129q0 68 48 112t106 44q76 0 121 -45.5t45 -112.5q0 -65 -46.5 -110.5t-115.5 -45.5q-68 0 -113 46t-45 112zM750 129q0 68 47.5 112t105.5 44q76 0 121 -45.5t45 -112.5q0 -65 -46.5 -110.5t-115.5 -45.5q-68 0 -112.5 46t-44.5 112zM1356 129q0 68 47.5 112 t105.5 44q76 0 121 -45.5t45 -112.5q0 -65 -46.5 -110.5t-115.5 -45.5q-68 0 -112.5 46t-44.5 112z" />
<glyph unicode="&#x202f;" horiz-adv-x="395" />
<glyph unicode="&#x2039;" horiz-adv-x="720" d="M76 567q0 33 82 115l241 244q68 65 79 71q6 2 14 4q15 3 34 3q60 0 78.5 -2.5t18.5 -12.5q0 -7 -18 -34.5t-40 -57.5t-26 -39l-72 -110q-88 -137 -88 -181q0 -29 18.5 -64t73.5 -116l137 -207q25 -38 25 -45q0 -12 -19 -12q-18 -2 -73 -2q-27 0 -39 2.5t-33.5 17.5 t-54.5 49l-238 248q-73 76 -86.5 93.5t-13.5 35.5z" />
<glyph unicode="&#x203a;" horiz-adv-x="720" d="M86 989q0 12 20 12q27 3 74 3q37 0 58 -10.5t69 -59.5l238 -250q75 -78 87.5 -94t12.5 -33q0 -33 -82 -115l-244 -243q-50 -52 -63 -63.5t-27 -12.5q-10 -2 -34 -2q-63 0 -80 1.5t-17 10.5q0 7 18 34.5t40 59t26 37.5l72 113q88 137 88 180q0 27 -19 62t-73 116l-68 103 q-7 13 -69 106q-27 41 -27 45z" />
<glyph unicode="&#x205f;" horiz-adv-x="494" />
<glyph unicode="&#x2122;" horiz-adv-x="2086" d="M63 1397q0 9 0.5 12t2.5 11t8.5 11t17.5 3q8 0 37.5 -2t104 -4.5t192.5 -2.5q108 0 176.5 2.5t96.5 4.5t38 2q15 0 22.5 -7.5t8 -12.5t0.5 -17l-2 -135q-1 -22 -11 -26.5t-44 -4.5q-17 0 -23.5 10t-11.5 39q-6 25 -17 33t-38 8h-93q-7 -1 -10.5 -4t-6.5 -14t-3 -31 l-2 -185v-153q0 -211 8 -225q7 -12 64 -21q20 -4 24 -13.5t4 -41.5q0 -25 -28 -25q-13 0 -77 2t-75 2q-54 0 -109.5 -2t-60.5 -2q-20 0 -24.5 9.5t-4.5 39.5q0 16 9 20.5t53 14.5q20 5 27 11t8 24q1 8 2 99t2 106v155q-1 12 -1.5 67t-1.5 103t-3 54q-3 7 -9.5 8.5t-33.5 1.5 q-81 0 -98 -6t-23 -41q-6 -31 -15.5 -37t-46.5 -6q-26 0 -26 31zM842 655q0 17 9 23t40 14q21 4 25.5 15t9.5 61q32 466 32 535q0 17 -1.5 24.5t-11 13.5t-30.5 9q-28 3 -33 12t-5 47q0 10 6.5 17.5t17.5 7.5q16 0 82.5 -2t77.5 -2q27 0 62 2t46 2q18 0 26 -12t22 -58 q109 -286 145 -379q14 -38 24 -64.5t14 -37t7 -19.5q23 60 78.5 201t77.5 199l53 151q10 19 29 19q21 0 62 -2t62 -2q13 0 75 2t71 2q33 0 33 -25v-29q0 -14 -8 -19t-39 -13q-28 -8 -33.5 -15t-5.5 -37q0 -37 14 -298t18 -281q3 -13 10.5 -17t41.5 -12q21 -6 24.5 -14 t3.5 -41q0 -25 -24 -25q-13 0 -74.5 2t-69.5 2q-34 0 -87.5 -2t-65.5 -2q-17 0 -21 10.5t-4 36.5q0 17 9.5 23.5t33.5 9.5q21 3 28 11t7 26q0 44 -10 264q-10 163 -15 260q-4 -14 -129 -325q-110 -278 -122 -299q-19 -31 -76 -31q-14 0 -22 10.5t-19 40.5q-190 463 -240 606 q-1 -17 -5 -150t-9 -224q-8 -92 -8 -142q0 -24 8.5 -31t50.5 -16q20 -4 24.5 -14t4.5 -41q0 -10 -7 -17.5t-20 -7.5q-10 0 -61 2t-58 2q-10 0 -64 -2t-63 -2q-12 0 -17.5 7t-6 14t-0.5 26z" />
<glyph unicode="&#x25fc;" horiz-adv-x="1024" d="M0 0v1024h1024v-1024h-1024z" />
<glyph unicode="&#xfb01;" horiz-adv-x="1214" d="M31 854q0 4 2 11l2 7l26 84q7 23 15 30t24 7q6 0 35.5 -2t34.5 -2q49 0 49 53q0 8 -3 49t-3 48q0 42 5 69t41.5 88t109.5 140q102 114 311 114q150 0 170 -28q3 -2 11 -20t11 -19q4 -2 19 -5t31 -6t18 -4q43 -8 83 -44.5t40 -100.5q0 -21 -7.5 -45t-24 -48.5t-47 -40 t-71.5 -15.5q-137 0 -170 137q-3 11 -6 18.5t-14 16.5t-29 16q-33 12 -78 12q-40 0 -71.5 -8.5t-51 -20t-34 -30.5t-21 -34t-10 -37t-4 -32t-0.5 -26q0 -34 5.5 -92.5t14.5 -71.5q18 -23 84 -23h170q119 0 265 15q5 0 33 5t32 5q23 0 23 -27q0 -56 -2 -79q-2 -115 -2 -285 v-176q0 -240 5 -284t33 -56q8 -3 47.5 -16.5t41.5 -14.5q16 -8 16 -33v-33q0 -26 -23 -26q-8 0 -86 3t-149 3q-102 0 -171 -3t-73 -3q-22 0 -22 26v33q0 21 9.5 28t53.5 21q44 12 59.5 26t18.5 48q4 59 4 281v299q0 46 -19.5 69t-86.5 23h-181q-58 0 -70 -10.5t-12 -67.5 v-313q0 -264 9 -301q4 -22 24.5 -34t83.5 -32q20 -5 24.5 -13t4.5 -24v-33q0 -26 -25 -26q-7 0 -31.5 1.5t-77.5 3t-130 1.5t-129 -1.5t-76.5 -3t-32.5 -1.5q-23 0 -23 26v33q0 21 9.5 28t54.5 21q44 13 59.5 26.5t16.5 47.5q4 59 4 281v321q0 44 -12.5 57t-49.5 13 q-9 0 -51.5 -4t-44.5 -4q-18 0 -18 14z" />
<glyph unicode="&#xfb02;" horiz-adv-x="1214" d="M29 854q0 6 4 18l4 11l29 69q9 24 16 30.5t27 6.5h65q21 2 31 11t10 32q0 7 -2 46.5t-2 45.5q0 86 14 117t103 152q111 151 299 151q64 0 127 -18q66 -17 71 -17q7 0 52 9q133 26 145 26q20 0 25.5 -8.5t5.5 -26.5q0 -9 -2 -57.5t-2 -56.5q0 -30 -3.5 -189.5t-3.5 -185.5 v-563q0 -264 9 -301q4 -22 24.5 -34t83.5 -32q19 -6 24 -14t5 -23v-33q0 -15 -5.5 -20.5t-19.5 -5.5q-7 0 -80.5 3t-156.5 3q-76 0 -128 -1.5t-77 -3t-35 -1.5q-22 0 -22 26v33q0 21 9.5 28t53.5 21q44 13 59.5 26.5t16.5 47.5q4 74 4 281v698q0 29 -0.5 44t-4 42 t-10.5 42.5t-21 35.5t-34 31t-51.5 18.5t-71.5 7.5q-81 0 -136.5 -45t-55.5 -145q0 -69 20 -146q10 -41 78 -41l129 9q6 0 36.5 3t31.5 3q20 0 20 -15q0 -3 -2 -11.5t-2 -10.5l-22 -90q-6 -28 -12.5 -33.5t-34.5 -5.5q-12 0 -73 2t-71 2q-55 0 -64.5 -13t-9.5 -85v-297 q0 -129 1 -188t6.5 -95.5t11.5 -43t22 -13.5q6 -2 28 -9.5t40.5 -14t19.5 -7.5q17 -8 17 -33v-33q0 -14 -5.5 -20t-19.5 -6q-3 0 -76 3t-161 3q-74 0 -126.5 -1.5t-78.5 -3t-35 -1.5q-22 0 -22 26v33q0 21 9.5 28t53.5 21q43 13 59 27t19 47q6 64 6 633q0 16 -10 26.5 t-27 10.5q-10 0 -65 -3t-64 -3q-20 0 -20 14z" />
</font>
</defs>
</svg>
