<?xml version="1.0" standalone="no"?>
<!DOCTYPE svg PUBLIC "-//W3C//DTD SVG 1.1//EN" "http://www.w3.org/Graphics/SVG/1.1/DTD/svg11.dtd" >
<svg xmlns="http://www.w3.org/2000/svg">
<metadata></metadata>
<defs>
<font id="itc_mendoza_roman_bookitalic" horiz-adv-x="1175" >
<font-face units-per-em="2048" ascent="1838" descent="-410" />
<missing-glyph horiz-adv-x="587" />
<glyph horiz-adv-x="2048" />
<glyph horiz-adv-x="2048" />
<glyph unicode="&#xd;" horiz-adv-x="2048" />
<glyph unicode=" "  horiz-adv-x="587" />
<glyph unicode="&#x09;" horiz-adv-x="587" />
<glyph unicode="&#xa0;" horiz-adv-x="587" />
<glyph unicode="!" horiz-adv-x="796" d="M215 96q0 65 39 116.5t98 51.5q43 0 77 -34.5t34 -94.5q0 -67 -41.5 -116.5t-95.5 -49.5q-42 0 -76.5 31t-34.5 96zM336 362q0 159 24 603q12 175 54 426q4 23 10.5 37t28.5 25t61 11q52 0 74 -11t22 -36q0 -13 -10 -92.5t-39.5 -248t-68.5 -339.5l-72 -311 q-15 -65 -22 -77.5t-29 -12.5q-11 0 -15 0.5t-9.5 2.5t-7 7.5t-1.5 15.5z" />
<glyph unicode="&#x22;" d="M424 1305l6 73q3 53 25 69.5t84 16.5q54 0 69 -10.5t15 -36.5q0 -19 -5 -39l-16 -73q-6 -33 -19 -83.5t-25 -91t-22 -74.5l-10 -34q-16 -51 -28.5 -66.5t-28.5 -15.5q-22 0 -28 15.5t-9 64.5q-13 177 -8 285zM766 1305l4 73q4 52 26 69t85 17q52 0 68 -10.5t16 -36.5 q0 -4 -7 -39l-14 -73q-13 -70 -65 -248q-9 -31 -14 -44.5t-14 -34.5t-18.5 -29.5t-21.5 -8.5q-21 0 -27.5 14t-9.5 56q-14 211 -8 295z" />
<glyph unicode="#" horiz-adv-x="1290" d="M20 371q0 17 9 35l28 79q9 25 20.5 30t49.5 3l141 -2q15 0 23 2t17 11.5t16 29.5l77 223q9 13 9 27q0 9 -8.5 12.5t-36.5 3.5l-232 -2q-28 0 -36.5 6t-8.5 19t8 29l33 88q7 19 15.5 23.5t31.5 4.5l248 -4q36 -2 46.5 5t23.5 42l137 391q13 27 26 27q15 0 38.5 -9.5 t23.5 -25.5q0 -12 -6 -24l-127 -363q-3 -11 -6 -18t-4 -9t-1 -4q0 -16 29 -16l305 -2q35 0 47.5 9t24.5 44l139 389q10 29 25 29t39 -8.5t24 -24.5q0 -12 -10 -43l-117 -327q-3 -6 -8.5 -24.5t-5.5 -22.5q0 -15 25 -15l143 4q19 0 27 -0.5t16.5 -2t11 -6t2.5 -11.5 q0 -3 -1 -9t-1 -8l-37 -98q-7 -23 -18.5 -28t-38.5 -5l-154 2q-21 0 -28 -1.5t-13 -8.5t-12 -26l-80 -230q-1 -1 -5.5 -14t-4.5 -15q0 -20 41 -20l231 6q32 0 39 -2.5t7 -15.5q0 -4 -1.5 -9t-1.5 -6l-36 -96q-6 -19 -13.5 -27.5t-15 -10t-23.5 -1.5l-247 4q-17 0 -25 -1.5 t-17.5 -11.5t-17.5 -30l-108 -309q-5 -13 -9 -19t-6 -7t-6 -1t-16 5l-35 8q-18 6 -18 20q0 3 8 31l96 272q8 21 8 33q0 18 -35 18h-297q-30 0 -43.5 -7.5t-21.5 -28.5l-121 -336q-1 -6 -7 -10.5t-11 -4.5q-4 0 -19 5l-28 8q-19 6 -19 18q0 15 8 31l99 278q0 2 2 9t2 10 q0 10 -15 16q-10 2 -59 2l-111 -4q-37 0 -37 23zM410 532q0 -20 28 -20h316q29 0 39 8t18 31l82 231q8 16 8 33q0 16 -31 16h-313q-27 0 -37 -5t-16 -25l-88 -248q-6 -12 -6 -21z" />
<glyph unicode="$" d="M117 69.5q1 9.5 2 20.5l33 154l2.5 10t3.5 8.5t6.5 9t10 5t15.5 2.5h31q13 0 19.5 -11.5t15.5 -50.5q11 -38 40 -66.5t63.5 -41t59 -18t38.5 -5.5q17 0 22.5 9.5t7.5 29.5l68 508q1 12 0.5 21t-8.5 19.5t-27 26.5q-29 25 -56.5 51t-60 67t-56.5 82t-40 94t-16 106 q0 74 29 137.5t77 107t104.5 71.5t116.5 38q31 4 39 11t11 24l12 90q2 18 8 24.5t27 6.5h28q17 0 20 -7.5t1 -21.5l-10 -78q-3 -27 5 -34.5t48 -8.5q117 -5 199 -41q31 -13 39 -20.5t8 -20.5q0 -14 -4 -22l-33 -148q-3 -15 -9 -20.5t-24 -5.5h-37q-13 0 -19 11.5t-9 45.5 q-1 13 -3.5 21.5t-10 21.5t-25 24t-45.5 21q-40 14 -80 14q-12 0 -18 -8.5t-9 -32.5l-57 -436q-3 -28 3 -41.5t40 -42.5q69 -59 131.5 -135.5t93.5 -152.5q27 -60 27 -140q0 -50 -13.5 -98.5t-43 -97t-85 -89.5t-131.5 -65q-11 -3 -67 -16.5t-58 -14.5q-20 -9 -20 -41 l-12 -94q-4 -26 -31 -26h-31q-13 0 -18.5 4t-5 10.5t1.5 13.5l10 80q5 35 -1.5 43t-43.5 8q-133 5 -262 62q-20 8 -29 18.5t-8 20zM444 1126q0 -54 35.5 -114t68.5 -93.5t38 -33.5q4 0 5.5 5.5t6.5 37.5l47 366q4 20 3 31.5t-11 11.5q-21 0 -52 -14.5t-63.5 -40t-55 -67.5 t-22.5 -89zM569 129q-8 -37 15 -37q11 0 33 5.5t53.5 22t59.5 40.5t47.5 67t19.5 95q0 50 -18 94t-68 106q-11 17 -36.5 43.5t-33.5 26.5q-11 0 -16 -39z" />
<glyph unicode="%" horiz-adv-x="1744" d="M150 940q0 83 24.5 170t69 163t119 124.5t163.5 48.5q138 0 220.5 -86.5t82.5 -241.5q0 -92 -27 -180.5t-76 -160t-127 -115.5t-171 -44q-128 0 -203 93t-75 229zM289 983q0 -126 49.5 -200t126.5 -74q91 0 157 105.5t66 262.5q0 73 -16 132t-56 100t-98 41t-104.5 -37 t-72 -94.5t-39 -118t-13.5 -117.5zM397 -14q0 2 113 184q403 660 702 1227q23 42 32 50.5t36 8.5h86q35 0 35 -14q0 -4 -9.5 -20t-21 -34t-14.5 -24q-122 -179 -262.5 -412.5t-232.5 -398t-243 -440.5q-45 -91 -57 -107q-9 -15 -17 -20t-28 -6l-70 -7q-22 -3 -35.5 -0.5 t-13.5 13.5zM952 293q0 84 24.5 171t70 162t119.5 123t163 48q139 0 221 -87.5t82 -242.5q0 -72 -16.5 -143t-50 -135t-80.5 -113t-112.5 -78t-141.5 -29q-127 0 -203 93t-76 231zM1092 334q0 -127 50 -201t126 -74q92 0 157.5 105.5t65.5 263.5q0 72 -15.5 131t-55.5 100 t-99 41q-47 0 -86.5 -24.5t-65 -63.5t-43.5 -88.5t-26 -97.5t-8 -92z" />
<glyph unicode="&#x26;" horiz-adv-x="1744" d="M100 399q0 92 33 173.5t79 134t104 94.5t98.5 61.5t72.5 30.5q48 15 48 31q0 2 -8 28t-9 31q-14 98 -14 119q0 148 112.5 251t286.5 103q119 0 180.5 -52.5t61.5 -125.5q0 -43 -23 -86t-55.5 -73.5t-66.5 -54.5t-58 -36t-29 -12q-6 0 -12 2.5t-9 4.5t-9.5 8t-8.5 7 q-14 10 -14 15q0 3 8 10t22 17.5t19 15.5q74 65 74 147q0 49 -34 78t-89 29q-12 0 -26 -1.5t-46.5 -13.5t-56.5 -33.5t-43.5 -68t-19.5 -109.5q0 -42 4.5 -73t31 -104.5t78.5 -180.5q47 -97 154 -269.5t125 -172.5q15 0 49 50t65 134t31 158q0 60 -24 118t-70 84q-5 3 -14 7 t-12 7.5t-3 8.5q0 3 5 12t15.5 28t18.5 34q10 17 22 24.5t38 7.5q14 0 84.5 -2t81.5 -2q122 0 221 13q5 1 44 9.5t46 8.5q14 0 14 -12q0 -5 -4.5 -20t-7.5 -19l-16 -49q-16 -39 -36.5 -56.5t-58.5 -17.5q-16 0 -97.5 3t-94.5 3q-17 0 -17 -14q0 -7 3.5 -43.5t3.5 -42.5 q0 -111 -52 -240.5t-143 -236.5q-33 -39 -33 -43q0 -10 48 -64.5t83 -87.5q80 -78 164 -78q103 0 180 117q25 41 37 41q9 0 17 -4l30 -17q9 -6 9 -16q0 -15 -14.5 -49t-43.5 -78t-65.5 -83.5t-87 -67t-101.5 -27.5q-45 0 -91 17.5t-79 40t-73.5 63t-61 65t-55.5 68.5 q-24 30 -35 30q-3 0 -43 -20q-100 -59 -184 -88t-185 -29q-110 0 -200.5 36t-148 96.5t-89 137t-31.5 160.5zM274 449q0 -65 25 -124t71.5 -106.5t121.5 -75.5t167 -28q90 0 172 33.5t82 60.5q0 9 -39 63q-85 120 -147 231t-135 275q-20 45 -35 45q-6 0 -34 -12t-71 -41 t-82 -69.5t-67.5 -107.5t-28.5 -144z" />
<glyph unicode="'" horiz-adv-x="796" d="M406 1305l4 73q4 53 26.5 69.5t83.5 16.5q53 0 68.5 -10.5t15.5 -36.5q0 -9 -2 -22.5t-2 -16.5l-16 -73q-7 -33 -20 -83.5t-24.5 -91t-21.5 -74t-10 -34.5q-17 -51 -29.5 -66.5t-27.5 -15.5q-22 0 -28 15.5t-9 64.5q-13 177 -8 285z" />
<glyph unicode="(" horiz-adv-x="1024" d="M260 438q0 110 25.5 225.5t79.5 242.5t152 258t231 245q164 141 182 141q12 0 28.5 -13.5t16.5 -20.5q0 -15 -53 -68q-25 -24 -54 -54.5t-78 -91.5t-93 -126t-91.5 -156t-82 -184.5t-57 -209t-22.5 -231.5q0 -105 17.5 -206t38.5 -169.5t59.5 -146.5t60 -113.5 t59.5 -94.5q7 -11 11 -17q5 -9 13.5 -18.5t13 -16.5t4.5 -14q0 -8 -17 -24.5t-26 -16.5q-29 0 -164 170q-123 155 -188.5 336.5t-65.5 373.5z" />
<glyph unicode=")" horiz-adv-x="1024" d="M45 -412q0 15 53 68q25 24 54 54.5t78 91.5t92.5 126t91.5 156t82 184.5t56.5 209t22.5 231.5q0 70 -7.5 138t-18 120.5t-29.5 110t-32.5 92.5t-37 81t-34 64t-32 53.5t-22.5 36.5q-14 22 -31 46t-24.5 35.5t-7.5 18.5q0 8 17 24.5t26 16.5q29 0 164 -170 q123 -155 188.5 -336.5t65.5 -373.5q0 -110 -25.5 -225.5t-79.5 -242.5t-152 -258t-231 -245q-164 -141 -182 -141q-12 0 -28.5 13.5t-16.5 20.5z" />
<glyph unicode="*" d="M293 1202q0 38 29 91t57 53q17 0 126 -70t118 -70q12 0 12 17q0 22 -14.5 131t-14.5 121q0 39 22.5 52t82.5 13q98 0 98 -41q0 -10 -50 -143.5t-50 -138.5t4 -9t8 -4q5 0 81.5 38.5t90.5 47.5q86 47 102 47q28 0 43 -30t15 -68q0 -65 -13.5 -78t-76.5 -16q-11 0 -185 -12 q-40 -3 -48.5 -5.5t-8.5 -9.5q0 -11 97 -111.5t97 -121.5q0 -28 -56.5 -67.5t-82.5 -39.5q-22 0 -31.5 20.5t-37.5 121.5q-39 132 -43 137q-3 6 -13 6q-9 0 -18.5 -12.5t-38.5 -63.5q-7 -11 -31 -53t-44.5 -78t-22.5 -39q-14 -22 -39 -22q-10 0 -17.5 2t-29 15.5t-56.5 41.5 q-26 19 -26 39q0 15 13.5 28t94.5 78q90 64 120 88.5t30 36.5q0 18 -78 23q-6 0 -49 2.5t-78.5 5t-46.5 4.5q-21 3 -31 12t-10 31z" />
<glyph unicode="+" d="M76 625v73q0 15 1 20t6.5 8t18.5 3h410q13 0 16.5 3.5t3.5 17.5v430q0 17 4.5 20.5t26.5 3.5h76q20 0 24.5 -3t4.5 -21v-430q0 -9 1 -12.5t5 -6t14 -2.5h412q18 0 21 -4t3 -27v-73q0 -21 -3 -26t-21 -5h-412q-13 0 -16.5 -3.5t-3.5 -17.5v-430q0 -17 -4.5 -20.5 t-24.5 -3.5h-76q-14 0 -19 0.5t-8.5 6t-3.5 17.5v430q0 9 -1 12.5t-5 6t-14 2.5h-410q-16 0 -21 4.5t-5 26.5z" />
<glyph unicode="," horiz-adv-x="606" d="M14 -285q0 10 47 62q29 34 44.5 56t30 62t14.5 85q0 31 -13 71q-18 55 -18 88q0 45 35.5 85t87.5 40q45 0 86 -32.5t41 -100.5q0 -78 -34 -148.5t-99 -148.5q-46 -56 -104 -112t-73 -56q-10 0 -14 4q-31 31 -31 45z" />
<glyph unicode="-" horiz-adv-x="757" d="M55 459q0 3 2 9t2 7l25 53q28 57 35 64q12 8 53 8q24 0 147.5 -3t143.5 -3q16 0 101 3t98 3q28 0 28 -18q0 -9 -4 -17l-31 -63q-3 -6 -7.5 -15.5t-6 -13t-5.5 -10t-5.5 -8.5t-5 -6t-6 -4.5t-6.5 -2t-8.5 -2t-10.5 -0.5q-15 0 -45.5 2t-32.5 2q-25 2 -164 2 q-119 0 -219 -4l-55 -2q-23 0 -23 19z" />
<glyph unicode="." horiz-adv-x="606" d="M121 96q0 65 39 116.5t98 51.5q43 0 77 -34.5t34 -94.5q0 -67 -42 -116.5t-98 -49.5q-40 0 -74 31t-34 96z" />
<glyph unicode="/" horiz-adv-x="1024" d="M57 -8q0 10 31 57q450 734 770 1356q23 42 32 50.5t34 8.5h84q34 0 34 -14q0 -4 -25.5 -45.5t-60 -97t-38.5 -62.5q-266 -460 -553 -962q-79 -138 -111 -203q-32 -64 -44.5 -77.5t-35.5 -16.5l-68 -4q-49 -4 -49 10z" />
<glyph unicode="0" d="M80 520q0 96 18 201t51.5 211t88 201.5t122 169.5t158.5 117.5t193 43.5q52 0 106.5 -17t111.5 -58t101 -101t72 -154.5t28 -209.5q0 -138 -28 -276t-83.5 -259.5t-130.5 -215.5t-176 -149t-214 -55q-175 0 -296.5 150.5t-121.5 400.5zM266 604q0 -104 17.5 -189.5 t45.5 -141t65.5 -93.5t76 -54.5t78.5 -16.5q17 0 38.5 4t59.5 17.5t78.5 49t73.5 88.5q60 95 102.5 250.5t42.5 335.5q0 120 -26.5 214.5t-69.5 149t-93 82t-102 27.5q-47 0 -110.5 -32.5t-112.5 -100.5q-84 -114 -124 -275.5t-40 -314.5z" />
<glyph unicode="1" d="M258 1133q0 11 10 19.5t62 39.5q66 39 213.5 134t183.5 128q16 16 29 16q3 0 22.5 -8t40.5 -17.5t25 -10.5q22 -9 22 -25q0 -7 -12 -55q-35 -171 -102.5 -651t-67.5 -533q0 -41 21 -52t129 -30q26 -3 32 -12t0 -21l-6 -41q-3 -22 -24 -22q-6 0 -28.5 2t-75 4t-130.5 2 q-121 0 -193 -4t-77 -4q-14 0 -20.5 5.5t-6 13.5t1.5 16l6 32q2 18 12 23t66 14q22 3 34.5 5.5t26.5 9.5t20 11t14.5 21t11.5 28t9 42.5t9 54.5t10 74q55 411 97 696q16 118 16 148q0 16 -12 16q-5 0 -35.5 -11.5t-91 -38t-125.5 -58.5q-62 -31 -68 -31q-10 0 -18 12l-25 41 q-6 6 -6 17z" />
<glyph unicode="2" d="M31 82q-1 19 9 31.5t60 52.5q260 227 439 399q189 183 274 326q53 87 53 186q0 56 -20.5 99t-54 66.5t-70 34.5t-74.5 11q-121 0 -229 -55q-8 -4 -36.5 -18.5t-49.5 -24.5t-23 -10q-6 0 -11 5.5t-5 12.5q0 13 4 25l16 100q3 21 9.5 30.5t28 22.5t73.5 35q128 53 268 53 q93 0 164 -28t113 -76.5t63 -107.5t21 -126q0 -84 -23 -151.5t-96.5 -165t-193.5 -215t-332 -309.5q-86 -76 -97 -90q-10 -10 -10 -17q0 -14 66 -14h274q107 0 162.5 16t81.5 64q15 26 24.5 33.5t24.5 7.5h35q31 0 22 -33l-65 -234q-6 -26 -35 -26q-54 0 -154 10 q-252 6 -282 6q-156 0 -254 -8l-127 -8q-29 0 -33 24z" />
<glyph unicode="3" d="M76 72q0 8 4 20l24 82q0 1 2 5.5t3.5 7t4 6t6 5t7.5 1.5q14 0 23 -9l4 -2q5 -3 11 -6.5t16 -8.5t21.5 -10t26 -11t30 -11t33.5 -10t36 -8.5t39 -5.5t41 -2q91 0 172.5 31.5t135.5 96.5t54 150q0 77 -38 133.5t-99.5 86.5t-127 43.5t-134.5 13.5h-70q-18 3 -18 22 q0 11 4 23l22 67q7 24 19 28.5t57 6.5q88 3 170 23.5t151.5 58t111.5 99.5t42 139q0 31 -10.5 60.5t-34 57.5t-69 45t-107.5 17q-106 0 -223 -49q-5 -2 -25 -13t-38 -19.5t-23 -8.5q-24 0 -19 37l13 96q3 20 13 30.5t44 24.5q153 49 287 49q106 0 184.5 -28.5t119 -75 t59 -95t18.5 -100.5q0 -76 -33.5 -142t-82.5 -109.5t-111 -76.5t-113 -49t-93 -22q-28 -4 -28 -12t51 -17q36 -7 72.5 -20t82.5 -40.5t80.5 -63t58 -93t23.5 -125.5q0 -80 -28 -148.5t-78 -119t-117 -86.5t-146 -54t-165 -18q-112 0 -229 31t-117 72z" />
<glyph unicode="4" d="M48 639.5q4 14.5 24 38.5q215 257 326.5 380.5t375.5 393.5q4 4 11 10.5t11 10t8.5 7.5t8 5.5t6.5 1.5q8 0 103 -53q16 -8 16 -19q0 -2 -6 -29.5t-12 -58t-7 -37.5q-29 -155 -61.5 -371t-32.5 -249q0 -21 10 -31t26.5 -10.5t37.5 0.5l113 6q41 3 51 1t10 -15t-4 -25 l-27 -78q-8 -28 -20.5 -34.5t-40.5 -6.5l-113 2q-45 2 -59 -6t-17 -47q-1 -14 -8.5 -76.5t-13.5 -119.5t-6 -74q0 -35 15 -46.5t61 -21.5q44 -8 54.5 -13t10.5 -20q0 -3 -3 -23t-3 -22q-3 -10 -8 -14t-17 -4q-172 8 -235 8q-57 0 -101.5 -2t-69 -4t-32.5 -2q-16 0 -20 7 t0 24l4 32q2 15 16 23.5t53 9.5q51 3 70.5 25.5t28.5 85.5q34 217 34 247q0 22 -13.5 29.5t-37.5 7.5q-37 0 -227.5 -4t-222.5 -4q-24 0 -32 6.5t-13 30.5l-21 102q-5 11 -1 25.5zM190 643q0 -13 35 -16l267 -4q108 0 139 8q17 4 22 19t13 77l53 358q1 12 6.5 51.5t10.5 75 t5 37.5q0 13 -6 13q-11 0 -146.5 -146.5t-267 -300.5t-131.5 -172z" />
<glyph unicode="5" d="M111 39q0 21 6 27l30 71q9 23 29 23q6 0 19.5 -3t33.5 -7.5t31 -6.5q43 -8 119 -8q225 0 326 129q79 105 79 238q0 118 -80.5 198t-205.5 80q-38 0 -87 -11t-83.5 -22.5t-36.5 -11.5q-13 0 -24 15.5t-11 25.5q0 4 5 24.5t5 24.5q36 159 72 564q4 49 11 57q6 6 22 6 q9 0 54 -3.5t125.5 -7t176.5 -3.5q89 0 177 7t95 7q29 0 29 -20q0 -21 -6 -33l-18 -64q-11 -39 -30.5 -55t-58.5 -16q-5 0 -119.5 8t-236.5 8q-73 0 -96 -30.5t-37 -139.5q-20 -128 -20 -197q0 -24 20 -24q3 0 44.5 5t100.5 5q121 0 186 -22.5t107 -61.5q103 -89 103 -235 q0 -116 -60.5 -228.5t-159 -196t-231 -135t-270.5 -51.5q-135 0 -135 70z" />
<glyph unicode="6" d="M135 406q0 129 46 258t119.5 232t164.5 197.5t182 163t171 120t132.5 77t65.5 25.5q18 0 32.5 -17t14.5 -26q0 -18 -41 -43q-105 -73 -236.5 -198t-218 -224.5t-86.5 -120.5q0 -10 11 -10l67 20q86 29 164 29q146 0 236 -101.5t90 -271.5q0 -144 -64 -269t-181.5 -201.5 t-260.5 -76.5q-179 0 -293.5 116.5t-114.5 320.5zM315 391q0 -80 24.5 -142t63.5 -96.5t80.5 -51.5t81.5 -17q114 0 208.5 112.5t94.5 268.5q0 80 -27.5 146.5t-88 110.5t-144.5 44q-70 0 -124.5 -29.5t-85 -71.5t-50.5 -96.5t-26.5 -97.5t-6.5 -80z" />
<glyph unicode="7" d="M94 -8q0 8 22.5 52.5t78.5 135t127 191.5q120 170 244 331.5t362 460.5q65 80 65 88t-7 9.5t-38 1.5h-399q-64 0 -83.5 -5t-37.5 -26q-34 -48 -47 -57q-10 -5 -12 -5h-50q-27 0 -18 39l25 168q6 39 19.5 50.5t45.5 11.5q23 0 189 -9.5t229 -9.5q108 0 187.5 4.5t120 9.5 t52.5 5q19 0 21 -15v-16l-6 -72q-1 -14 -6.5 -23.5t-34.5 -49.5q-319 -422 -391.5 -524t-180.5 -283q-116 -198 -229 -420q-18 -35 -27 -41.5t-45 -9.5l-116 -13q-25 -4 -42.5 -0.5t-17.5 21.5z" />
<glyph unicode="8" d="M106 299q0 46 12 89t29 76t49 68t57 57.5t68.5 52.5t68.5 45t71 42q6 2 14 9.5t8 15.5q0 11 -18 26q-26 21 -49.5 44t-65 72t-67 109.5t-25.5 120.5q0 42 13 85.5t45.5 89.5t81 81.5t127 58.5t175.5 23q21 0 38 -0.5t59 -6t75 -15t74.5 -30.5t69 -49.5t46.5 -74.5 t19 -104q0 -57 -18.5 -109t-42 -86.5t-63.5 -69.5t-64.5 -52t-63.5 -40q-3 -2 -23 -14.5t-37 -23.5t-21 -15q-2 0 -5.5 -3.5t-3.5 -6.5q0 -10 47 -47q224 -181 224 -350q0 -109 -65.5 -200.5t-179 -144.5t-249.5 -53q-191 0 -300.5 96t-109.5 234zM283 309q0 -52 19.5 -93.5 t48.5 -65.5t65.5 -39.5t65.5 -21t53 -5.5q77 0 135.5 23.5t89.5 61t46 75.5t15 75q0 98 -94 207q-34 37 -91.5 92.5t-70.5 55.5q-4 0 -31.5 -14t-70 -45.5t-83 -72t-69 -103t-28.5 -130.5zM440 1145q0 -88 95 -189q99 -110 122 -110q7 0 32.5 13.5t61.5 41.5t69 64t56 88.5 t23 107.5q0 84 -61 138.5t-160 54.5q-104 0 -171 -62t-67 -147z" />
<glyph unicode="9" d="M137 -10q0 6 5.5 11.5t35.5 29.5q16 13 27 22q120 96 261.5 236t213.5 229q27 32 67.5 87.5t40.5 68.5q0 10 -12 10q-3 0 -22 -7t-21 -9q-132 -47 -209 -47q-131 0 -235.5 100t-104.5 250q0 90 35 177.5t97 158t158.5 114t209.5 43.5q178 0 286.5 -115.5t108.5 -308.5 q0 -127 -42 -254t-145.5 -270t-264.5 -274q-88 -71 -190 -142.5t-167.5 -112t-76.5 -40.5t-17 6l-26 20q-13 9 -13 17zM365 1006q0 -111 68.5 -184.5t189.5 -73.5q67 0 118 22t80 55.5t47.5 78.5t24.5 84t6 79q0 138 -68.5 210.5t-158.5 72.5q-73 0 -133.5 -32.5 t-97.5 -83.5t-56.5 -110.5t-19.5 -117.5z" />
<glyph unicode=":" horiz-adv-x="606" d="M121 96q0 65 39 116.5t98 51.5q43 0 77 -34.5t34 -94.5q0 -67 -42 -116.5t-98 -49.5q-40 0 -74 31t-34 96zM236 850q0 64 38.5 116t98.5 52q42 0 76 -35t34 -94q0 -66 -41 -116t-96 -50q-42 0 -76 32.5t-34 94.5z" />
<glyph unicode=";" horiz-adv-x="606" d="M14 -285q0 10 47 62q29 34 44.5 56t30 62t14.5 85q0 31 -13 71q-18 55 -18 88q0 45 35.5 85t87.5 40q45 0 86 -32.5t41 -100.5q0 -78 -34 -148.5t-99 -148.5q-46 -56 -104 -112t-73 -56q-10 0 -14 4q-31 31 -31 45zM223 850q0 62 38 115t99 53q41 0 76 -34t35 -95 q0 -69 -41.5 -117.5t-95.5 -48.5q-45 0 -78 34t-33 93z" />
<glyph unicode="&#x3c;" d="M94 444v148l1041 461v-168l-828 -367l828 -366v-168z" />
<glyph unicode="=" d="M76 473v74q0 21 4 26t22 5h998q18 0 21 -4t3 -27v-74q0 -14 -0.5 -19t-6 -8.5t-17.5 -3.5h-998q-16 0 -21 4.5t-5 26.5zM76 774v76q0 14 1 18.5t6.5 7.5t18.5 3h998q18 0 21 -4t3 -25v-76q0 -14 -0.5 -19t-6 -8.5t-17.5 -3.5h-998q-18 0 -22 5t-4 26z" />
<glyph unicode="&#x3e;" d="M94 -16v168l828 366l-828 367v168l1041 -461v-148z" />
<glyph unicode="?" horiz-adv-x="1024" d="M172 96q0 64 38.5 116t98.5 52q42 0 76.5 -35t34.5 -96q0 -66 -42 -115t-95 -49q-42 0 -76.5 31t-34.5 96zM292 353.5q0 8.5 1 17.5l14 247q2 40 5.5 49.5t23.5 18.5q97 42 138 61t88.5 47t82.5 58q60 53 90.5 117t30.5 123q0 88 -68 152.5t-202 64.5q-9 0 -42.5 -3.5 t-63.5 -7.5l-30 -4q-20 0 -20 29l-2 68q0 14 1 20t7.5 12.5t20.5 12.5q68 28 184 28q63 0 120.5 -18.5t107.5 -56.5t80 -106t30 -157q0 -91 -34.5 -180t-90 -156.5t-118 -118t-124.5 -79.5q-83 -40 -84 -41q-4 -4 -8.5 -17.5t-5.5 -15.5l-41 -125q-12 -40 -18 -49.5 t-19 -9.5h-31q-12 0 -17.5 5.5t-5.5 14z" />
<glyph unicode="@" horiz-adv-x="1708" d="M106 618q0 183 80 344t211.5 271t301.5 173.5t348 63.5q284 0 447 -147.5t163 -388.5q0 -173 -88 -319t-242 -246q-109 -72 -233 -72q-146 0 -146 102q0 30 25 158q-185 -248 -307 -248q-59 0 -96.5 54.5t-37.5 154.5q0 60 17 132.5t53.5 149t86.5 139t124 102.5t158 40 q43 0 67 -8q3 0 19.5 -5t19.5 -5q9 0 29 29q12 19 27 22l57 10q35 12 35 -14q0 -2 -25 -96.5t-29 -106.5q-33 -131 -54.5 -244t-26.5 -159t-5 -64q0 -51 62 -51t128.5 45.5t121 119t90 176t35.5 206.5q0 67 -16.5 129t-54.5 120t-93 101t-138 68.5t-184 25.5 q-169 0 -318 -63.5t-250.5 -167.5t-160.5 -240t-59 -280q0 -108 33.5 -202.5t88.5 -161.5t127 -115t149 -71.5t153 -23.5q24 0 56 2.5t103.5 15.5t141 35t159.5 68.5t168 108.5q37 32 52 32q16 0 32.5 -18t16.5 -27q0 -15 -35.5 -49.5t-105 -79t-157.5 -85t-209.5 -68 t-244.5 -27.5q-143 0 -259.5 40.5t-191.5 106t-125.5 152.5t-72 176t-21.5 180zM684 557q0 -106 61 -106q41 0 91.5 47t93.5 110q41 57 71.5 141t30.5 146q0 16 -3.5 27.5t-13.5 24t-34.5 19.5t-62.5 7q-50 0 -92 -37.5t-67.5 -90.5t-43 -114.5t-24.5 -106t-7 -67.5z" />
<glyph unicode="A" horiz-adv-x="1290" d="M-80 12q0 25 5.5 39.5t11 19.5t18.5 11q69 38 160 225q17 35 237.5 452.5t263.5 504.5q60 128 77.5 155.5t45.5 34.5q96 25 119 25q15 0 22 -23.5t14 -73.5q0 -5 0.5 -8t1 -7.5t1.5 -8.5q61 -409 170 -965q3 -12 21.5 -109.5t23.5 -115.5q9 -40 29 -60t65 -30 q17 -2 20 -8q2 -3 2 -11q0 -4 -1 -10l-4 -35q-3 -22 -29 -22q-16 0 -99.5 4t-97.5 4q-18 0 -111.5 -4t-103.5 -4q-29 0 -26 31l4 28q3 17 13.5 22t72.5 23q74 19 74 80q0 13 -18.5 141.5t-18.5 131.5q-8 45 -20 58t-52 13h-360q-43 0 -56 -7.5t-33 -43.5 q-42 -77 -95.5 -185.5t-53.5 -133.5q0 -29 27 -42t88 -26q27 -5 34.5 -11.5t4.5 -29.5l-5 -29q-2 -20 -28 -20q-3 0 -72.5 4t-109.5 4q-36 0 -115.5 -4t-91.5 -4q-25 0 -25 20zM455 659q0 -14 32 -14h314q29 1 35 9q4 5 4 16q0 9 -2 22l-74 426l-12 82q-6 12 -11 12 q-4 0 -16 -22q-2 -5 -4 -8t-4.5 -8.5t-5.5 -10.5l-246 -477q-10 -22 -10 -27z" />
<glyph unicode="B" horiz-adv-x="1251" d="M25 23l6 34q1 16 11 21t46 10q62 9 82.5 27.5t26.5 66.5q33 221 85 634t52 464q0 33 -18 44t-80 22q-20 3 -26 10t-3 26l4 39q1 9 11 15t22 6q16 0 101.5 -4t121.5 -4q18 0 148.5 4t164.5 4q106 0 166 -23t101 -63q83 -83 83 -211q0 -114 -68.5 -201t-189.5 -127 q-6 -3 -46.5 -16t-43.5 -15q-6 0 -6 -6q0 -10 55 -18q28 -6 42.5 -9.5t53 -16t63 -25.5t58.5 -38.5t54 -54.5t34.5 -72.5t14.5 -94.5q0 -41 -9.5 -83.5t-30.5 -88t-51.5 -86.5t-77 -78t-102.5 -64t-131 -43t-161 -16q-32 0 -153.5 4t-151.5 4q-49 0 -138.5 -4t-91.5 -4 q-28 0 -28 26v5zM385 221q0 -30 11.5 -50.5t26 -31t41 -16t42.5 -6t45 -0.5q88 0 149.5 12t118.5 55q135 96 135 256q0 83 -43 146t-135 94q-39 14 -90.5 18t-185.5 4q-38 0 -50 -14.5t-18 -62.5l-39 -322q-8 -58 -8 -82zM467 866q0 -30 20 -37.5t80 -7.5q80 0 145 20.5 t105 53t67.5 74.5t38.5 81.5t11 77.5q0 41 -11.5 72.5t-27 51.5t-45.5 34.5t-53 21.5t-64 10.5t-64 4t-67 0.5q-53 0 -65.5 -13t-18.5 -65l-43 -313q-1 -10 -3 -26t-3.5 -27.5t-1.5 -12.5z" />
<glyph unicode="C" horiz-adv-x="1441" d="M113 643q0 118 33.5 233.5t105.5 222t174 187.5t250.5 129.5t322.5 48.5q129 0 250 -26.5t174 -48.5q28 -11 39 -20.5t11 -22.5q0 -3 -3.5 -17t-3.5 -16l-32 -154q-6 -29 -27 -29h-43q-15 0 -21.5 9t-15.5 41q-7 19 -13 31t-23 32t-50.5 38t-81.5 32q-96 26 -190 26 q-125 0 -233.5 -40t-185.5 -107.5t-132 -156t-82 -186t-27 -196.5q0 -156 62 -282.5t182.5 -201.5t280.5 -75q37 0 78.5 5t98 19t111 46t92.5 78q22 27 31 33t27 6h41q27 0 22 -37l-16 -123q-2 -18 -21.5 -34.5t-38.5 -25t-53 -22.5q-183 -70 -383 -70q-169 0 -275 39 t-186 101q-123 96 -186 233.5t-63 300.5z" />
<glyph unicode="D" horiz-adv-x="1630" d="M45 20l4 35q2 13 13.5 21t41.5 14q49 10 71 31t30 86q57 387 92 645q1 13 14.5 120t26 206t12.5 102q0 35 -18.5 46t-83.5 24q-16 3 -23.5 5t-14.5 11t-5 23l4 36q2 17 29 17q8 0 35.5 -2t78.5 -4t117 -2q40 0 236.5 4t238.5 4q164 0 265.5 -38.5t172.5 -103.5 q181 -168 181 -473q0 -199 -68.5 -362t-194.5 -275q-62 -56 -132.5 -96t-124.5 -59t-118.5 -29.5t-94.5 -12t-72 -1.5q-36 0 -218.5 4t-211.5 4q-75 0 -133.5 -2t-89.5 -4t-39 -2q-22 0 -22 19q0 4 1 9zM401 262q0 -86 65.5 -115.5t238.5 -29.5q67 0 120 5.5t116 22 t122 51.5t111 89q90 93 143 242.5t53 287.5q0 48 -8 98.5t-27 110.5t-57.5 116.5t-93.5 96.5q-61 43 -143 61.5t-220 18.5q-211 0 -248 -13.5t-51 -95.5q0 -3 -14.5 -103t-31 -221t-34.5 -254t-29.5 -235.5t-11.5 -132.5z" />
<glyph unicode="E" horiz-adv-x="1099" d="M25 23l6 34q1 16 11 21t46 10q62 9 82.5 27.5t26.5 66.5q33 221 85 634t52 464q0 33 -18 44t-80 22q-20 3 -26 10t-3 26l4 39q5 21 35 21q4 0 33.5 -2t112 -4t216.5 -2q46 0 227.5 4t215.5 4q15 0 18 -8q2 -4 1.5 -8.5t-1.5 -10.5l-39 -219q0 -2 -1 -6l-1.5 -6t-2 -5.5 t-2 -5t-2.5 -4t-3.5 -3.5t-4 -2t-5.5 -1h-47q-14 0 -20 9t-7 32q-2 31 -9 50t-15.5 30t-29.5 16t-38.5 6t-55.5 1h-200q-38 0 -49 -12t-17 -50l-57 -385q-4 -16 -4 -35q0 -27 22.5 -32t122.5 -5q28 0 177 4.5t173 4.5q16 0 23 -7t4 -30l-8 -74q-3 -19 -12 -27t-33 -8 q-23 0 -144 3t-141 3l-170 -2q-18 -3 -28 -12t-11.5 -14.5t-3.5 -16.5l-41 -327q-4 -32 -4 -56q0 -53 27 -79.5t86 -26.5h231q65 0 105.5 14t68.5 56q7 8 16 21t13.5 19t12 11t16.5 4h40q28 0 23 -29l-43 -196q-7 -31 -41 -31q-12 0 -73 2t-183 4t-285 2q-143 0 -244 -4 t-102 -4q-19 0 -25 8q-4 6 -4 15q0 4 1 8z" />
<glyph unicode="F" horiz-adv-x="1024" d="M25 23l6 34q1 16 11 21t46 10q62 9 82.5 27.5t26.5 66.5q33 221 85 634t52 464q0 33 -18 44t-80 22q-20 3 -26 10t-3 26l4 39l1 3q1 2 2 3t2.5 3.5t4.5 4.5t6.5 3.5t9 2.5t11.5 1t35.5 -2t104 -4t190.5 -2q138 0 297 4t174 4q17 0 20 -8q2 -4 1.5 -8.5t-1.5 -10.5 l-39 -213q-5 -39 -22 -39h-47q-14 0 -21 9.5t-8 33.5q-1 30 -7.5 49t-15.5 29.5t-30.5 15.5t-39 6t-53.5 1h-200q-38 0 -48.5 -12t-17.5 -50l-57 -385q-4 -20 -4 -37q0 -27 30 -32q30 -3 146 -3q26 0 162.5 3.5t158.5 3.5q18 0 23 -8.5t2 -26.5l-8 -74q-2 -12 -5 -18.5 t-11.5 -11.5t-24.5 -5q-24 0 -150.5 3t-146.5 3q-127 0 -160 -2q-19 -2 -29.5 -10.5t-12.5 -14.5t-3 -18l-41 -327q-10 -92 -10 -113q0 -35 28 -56.5t111 -29.5q24 -3 34.5 -11.5t8.5 -23.5l-6 -39q-1 -7 -2.5 -10.5t-7.5 -6.5t-17 -3q-5 0 -29.5 2t-83.5 4t-149 2 q-83 0 -144 -4t-69 -4q-28 0 -28 26v5z" />
<glyph unicode="G" horiz-adv-x="1593" d="M113 643q0 110 31.5 222t101.5 220.5t169.5 192t248 135t325.5 51.5q136 0 252.5 -24.5t175.5 -48.5q34 -13 42 -24t3 -36l-35 -172q-6 -29 -26 -29h-43q-13 0 -20 6.5t-13 26.5q-6 26 -12 41t-18.5 34t-34.5 34t-56 28q-98 39 -237 39q-157 0 -285 -57.5t-208 -153.5 t-122.5 -216t-42.5 -250q0 -135 43 -244.5t115.5 -179t164 -107t191.5 -37.5t200.5 26.5t123.5 61.5q18 26 29.5 127.5t11.5 155.5q0 47 -23.5 59t-95.5 15q-13 1 -18.5 1.5t-14 1.5t-10.5 3t-6.5 6t-2.5 10t1 14l4 35q4 29 31 29h4q57 0 128 -4t101 -4q32 0 113.5 4 t105.5 4q13 0 18.5 -5t5.5 -12t-1 -14l-4 -37q-3 -17 -13.5 -22t-58.5 -14q-20 -4 -30 -9.5t-25 -26t-25.5 -66.5t-19.5 -120q-11 -95 -19 -190q-1 -16 -3.5 -23t-14.5 -17.5t-39 -23.5q-58 -28 -193.5 -59t-277.5 -31q-207 0 -366 90.5t-242.5 243t-83.5 340.5z" />
<glyph unicode="H" horiz-adv-x="1554" d="M25 23l4 34q3 17 11.5 21t45.5 10q28 3 42 5.5t28.5 12.5t20 17.5t13 34t10.5 48.5t11 73q26 184 74.5 568.5t48.5 432.5q0 35 -18.5 45.5t-82.5 20.5q-19 3 -24 10t-2 26l4 39q3 21 33 21q3 0 67 -4t148 -4q21 0 100.5 4t91.5 4q15 0 22.5 -6.5t4.5 -30.5l-4 -29 q-1 -14 -4.5 -20t-20.5 -12t-53 -9q-40 -3 -54.5 -19.5t-21.5 -68.5l-53 -354q-6 -30 -6 -55q0 -24 15 -35.5t52 -11.5h549q55 0 65.5 10t18.5 65l47 391q2 17 2 29q0 26 -8 36q-12 14 -53 21q-48 9 -57.5 15.5t-6.5 30.5l5 30q3 23 20 23q11 0 69 -4t144 -4q51 0 123 4 t82 4q24 0 24 -25v-6l-6 -43q-1 -16 -11 -20.5t-56 -10.5q-53 -9 -64 -21t-20 -69q-13 -69 -78.5 -555t-65.5 -538q0 -37 18.5 -49t96.5 -27q14 -3 20 -10.5t5 -24.5l-7 -33q-2 -18 -24 -18q-18 0 -102 4t-113 4q-72 0 -139.5 -4t-73.5 -4q-35 0 -29 35l4 34q1 15 13.5 19.5 t58.5 9.5q29 3 47 11.5t27.5 27.5t13 34.5t8.5 49.5l53 375q2 16 2 37q0 25 -16 33t-49 8h-549q-50 0 -66 -11t-22 -63l-47 -389q-2 -16 -2 -53q0 -33 17.5 -45t72.5 -23q32 -6 40.5 -10.5t8.5 -16.5q0 -63 -33 -63q-5 0 -75 4t-146 4q-68 0 -138.5 -4t-74.5 -4 q-26 0 -26 25v6z" />
<glyph unicode="I" horiz-adv-x="681" d="M25 23l4 34q3 16 13 21t44 10q64 9 84.5 27.5t26.5 66.5q33 221 85 634t52 464q0 33 -18.5 44t-82.5 22q-19 3 -24 10t-2 26l4 39q3 21 33 21l66 -4q66 -4 141 -4q47 0 118 4t86 4q16 0 20 -8q3 -6 4 -14q0 -4 -1 -9l-4 -43q-3 -17 -13.5 -21t-58.5 -10q-55 -7 -67 -28.5 t-27 -130.5q-67 -465 -119 -902q-10 -102 -10 -122q0 -37 18 -49t95 -27q17 -3 21.5 -11t2.5 -24l-4 -33q-2 -18 -27 -18q-12 0 -110.5 4t-118.5 4q-72 0 -135 -4t-68 -4q-28 0 -28 26v5z" />
<glyph unicode="J" horiz-adv-x="645" d="M-201 -358q0 14 54 34q44 16 81.5 38t66 43.5t52.5 52.5t40 54.5t30.5 60.5t22.5 59.5t16.5 63t12 58.5t9.5 58q50 303 98 683.5t48 432.5q0 33 -18.5 44t-82.5 22q-20 3 -24 9.5t-2 26.5l4 39q1 12 12.5 16.5t20.5 4.5l61 -4q61 -4 145 -4q66 0 110 2t64 4t29 2 q26 0 26 -23q0 -4 -1 -8l-6 -43q-1 -17 -11.5 -21t-58.5 -10q-52 -6 -66 -26t-26 -111q-111 -813 -135 -1022q-6 -55 -10 -85t-11 -75.5t-15 -71.5t-21.5 -62t-29.5 -59t-40 -51.5t-53.5 -49t-68 -42.5t-85.5 -42q-40 -16 -104.5 -37t-86.5 -21q-17 0 -26 15l-17 32 q-4 8 -4 13z" />
<glyph unicode="K" horiz-adv-x="1290" d="M27 23l4 34q1 16 11 21t46 10q62 9 82.5 27.5t28.5 66.5q34 234 84.5 641.5t50.5 456.5q0 33 -18 44t-80 22q-20 3 -25.5 10t-3.5 26l6 39q0 9 9.5 15t21.5 6q6 0 69 -4t138 -4q57 0 126.5 4t77.5 4q28 0 25 -31l-6 -43q-1 -16 -12 -20.5t-60 -10.5q-54 -7 -66.5 -29 t-27.5 -130q-86 -623 -119 -902q-10 -102 -10 -122q0 -37 18.5 -49t96.5 -27q29 -5 22 -35l-4 -33q-2 -18 -25 -18q-13 0 -112 4t-119 4q-68 0 -131.5 -4t-71.5 -4q-27 0 -27 21q0 5 1 10zM481 752q0 9 51 55q56 50 220 203q97 92 219 223q41 44 41 72q0 23 -14.5 31 t-63.5 20q-19 5 -14 37l4 30q3 19 24 19q19 0 104.5 -4t96.5 -4q22 0 101 4t93 4q25 0 25 -21q0 -25 -5.5 -39t-12.5 -18.5t-21 -9.5q-44 -17 -74.5 -39.5t-109.5 -97.5q-286 -267 -434 -412q-35 -35 -35 -43q0 -7 92 -154t212 -311.5t177 -196.5q28 -13 103 -28 q11 -1 14.5 -6.5t3.5 -18.5q0 -55 -31 -55q-53 2 -104 2q-95 0 -185 -8q-13 0 -19.5 7t-20.5 36q-27 55 -149.5 258t-258.5 411q-29 48 -29 54z" />
<glyph unicode="L" horiz-adv-x="1099" d="M45 20l4 35q2 13 13.5 21t41.5 14q62 13 78 39t29 117q79 546 86 606q1 13 14.5 120t26 206t12.5 102q0 35 -18.5 46t-83.5 24q-16 3 -23.5 5t-14.5 11t-5 23l6 36q2 17 27 17q18 0 111.5 -4t115.5 -4q70 0 124 2t81.5 4t31.5 2q23 0 23 -17q0 -11 -4 -36.5t-12 -30.5 q-9 -6 -66.5 -18.5t-62.5 -14.5q-21 -9 -34 -27.5t-20 -62.5q-38 -260 -86.5 -625.5t-48.5 -400.5q0 -24 8.5 -40t19 -24t30 -12.5t31.5 -5t34 -0.5h219q72 0 115 20t74 86q26 53 36.5 64.5t30.5 11.5h37q16 1 21 -11q3 -7 3 -17q0 -5 -1 -11l-56 -243q-6 -35 -51 -35 q-14 0 -65 3.5t-148.5 7t-224.5 3.5q-94 0 -171.5 -1.5t-123 -3.5t-76.5 -4t-47 -3.5t-20 -1.5q-14 0 -18 6q-3 4 -4 14q0 3 1 8z" />
<glyph unicode="M" horiz-adv-x="1972" d="M20 27l5 36q3 16 11.5 21.5t39.5 11.5q38 8 56 30t32 89q17 80 176 868q33 165 33 179q0 20 -9.5 33.5t-33 23.5t-43 15t-60.5 14q-13 3 -18.5 8t-5 11t1.5 13l6 41q0 21 25 21q18 0 115.5 -4t123.5 -4q28 0 86 4t64 4q15 0 22.5 -7t11.5 -28q41 -189 113 -475l119 -469 q6 -25 21 -78.5t20 -62.5q0 -2 3 -6.5t7 -4.5q8 0 17 14.5t32 61.5q1 2 195.5 396t269.5 554q34 72 46 88.5t34 16.5q23 0 78 -4t88 -4q49 0 86.5 2t56.5 4t23 2q52 0 47 -29l-6 -43q-2 -12 -9.5 -18.5t-29.5 -10.5q-67 -14 -82 -36.5t-21 -100.5q-15 -172 -43 -554 t-28 -464q0 -50 21.5 -68.5t97.5 -37.5q18 -4 22 -13t2 -24l-4 -29q-2 -22 -27 -22q-2 0 -19.5 2t-58 4t-100.5 2q-108 0 -177 -4t-71 -4q-16 0 -19 11.5t1 23.5l4 32q1 8 3 12t11 8.5t25 6.5q66 10 83.5 35t22.5 86l39 463q43 502 43 563q0 14 -6 14q-11 0 -86 -143 l-563 -1102q-10 -20 -17.5 -27.5t-21.5 -7.5h-33q-12 0 -18 8t-12 33l-277 1063q-5 18 -16 67.5t-18 75t-11 25.5q-6 0 -8 -6.5t-8 -44.5q-17 -80 -87.5 -456t-93.5 -501q-10 -58 -10 -71q0 -34 30 -51t87 -27q17 -3 20.5 -11.5t-0.5 -17.5l-6 -39q-2 -22 -28 -22 q-7 0 -28 2t-63 4t-100 2q-57 0 -94.5 -2t-54.5 -4t-25 -2q-21 0 -25 9q-3 6 -3 16q0 4 1 10z" />
<glyph unicode="N" horiz-adv-x="1705" d="M39 25l4 32q3 17 14 22.5t58 14.5q30 6 43.5 16.5t25 44t23.5 107.5q22 134 80.5 558.5t58.5 451.5q0 36 -24 49.5t-97 28.5q-16 3 -19 10.5t-1 25.5l4 35q3 21 29 21q15 0 69.5 -4t89.5 -4q21 0 63.5 4t55.5 4t21 -8.5t34 -49.5q30 -47 105.5 -158.5t95.5 -142.5 q87 -133 215.5 -322.5t218 -318.5t92.5 -131q2 -2 7 -2t8 18.5t15 115.5q3 20 4.5 31.5t4 31.5t4.5 39q4 34 29 212.5t44.5 330.5t19.5 184q0 34 -15.5 43.5t-91.5 27.5q-29 6 -36 13t-5 28l6 37q4 21 23 21t99 -4t106 -4q32 0 97 4t89 4q28 0 28 -26q0 -4 -1 -9l-4 -37 q-1 -14 -11.5 -19t-56.5 -16t-57 -34t-31 -152q-41 -257 -95.5 -648.5t-60.5 -475.5q-2 -35 -16 -43q-34 -29 -43 -29t-21 12q-69 96 -417.5 598t-384.5 559q-39 62 -48 62q-3 0 -6 -10t-9 -50.5t-15 -108t-25 -196.5q-32 -257 -74 -543q-8 -57 -8 -104q0 -42 20 -55.5 t93 -32.5q18 -4 22.5 -10.5t1.5 -24.5l-4 -33q-3 -24 -32 -24q-26 0 -103.5 4t-107.5 4q-40 0 -101 -4t-76 -4q-13 0 -19 7q-5 6 -5 20v6z" />
<glyph unicode="O" horiz-adv-x="1669" d="M115 645q0 90 23.5 184t68 185.5t114.5 172.5t157 143t202.5 98t243.5 36q160 0 289.5 -54.5t211.5 -148t126 -212.5t44 -252q0 -161 -61.5 -311.5t-167.5 -264.5t-258.5 -183t-323.5 -69q-151 0 -278.5 55t-212 148t-131.5 215.5t-47 257.5zM311 672q0 -114 33.5 -217.5 t94.5 -184t154.5 -128.5t205.5 -48q169 0 307.5 94.5t215.5 250t77 335.5q0 81 -18.5 160.5t-58.5 153t-97 129t-139 89t-179 33.5q-167 0 -304 -89.5t-214.5 -242.5t-77.5 -335z" />
<glyph unicode="P" d="M45 20l4 35q1 8 4 13t15.5 11t35.5 11q21 5 31.5 7t23.5 9.5t18.5 12t13.5 22t11 30t9 46t9.5 60t10.5 81.5q6 52 37 283t56.5 425.5t25.5 211.5q0 36 -18.5 47.5t-81.5 24.5q-16 3 -24.5 5t-15.5 11t-5 23l6 36q2 17 27 17q28 0 112 -4t105 -4q17 0 173 4t195 4 q114 0 179.5 -22.5t117.5 -69.5q99 -92 99 -232q0 -59 -17 -120.5t-57.5 -123.5t-99.5 -110t-150.5 -78.5t-202.5 -30.5q-19 0 -43.5 1.5t-57.5 5t-55 12t-22 20.5q0 6 6 15l19 26q13 15 34 15q179 0 263 41q90 44 138 126.5t48 172.5q0 35 -8.5 67t-28.5 64.5t-59.5 57 t-94.5 36.5q-49 10 -194 10q-65 0 -84 -21.5t-29 -91.5q-18 -128 -92 -677q-39 -312 -39 -355q0 -18 3 -28.5t15 -25.5t43 -25t81 -15q21 -2 31 -8.5t9.5 -15t-0.5 -17.5l-4 -33q-1 -7 -2.5 -10.5t-6.5 -6.5t-15 -3q-22 0 -135 4t-131 4q-19 0 -111 -4t-102 -4q-17 0 -21 7 q-3 5 -3 12q0 4 1 9z" />
<glyph unicode="Q" horiz-adv-x="1669" d="M115 645q0 91 24 186t68.5 186.5t115 172t157.5 142t202 97t242 35.5q156 0 284.5 -53t212 -144t129 -212.5t45.5 -259.5q0 -192 -79.5 -355.5t-210.5 -277.5q-69 -59 -149.5 -99.5t-121.5 -52.5t-98 -24q43 -46 112.5 -113t110.5 -100q117 -97 205 -97h51q17 -5 17 -45 q0 -14 -23 -20l-180 -57q-35 -9 -41 -9q-59 0 -126.5 63t-215.5 237q-7 8 -10 12q-57 68 -70 88q-13 18 -22 21.5t-48 6.5q-82 6 -163.5 37t-157 89.5t-133.5 135.5t-92.5 183.5t-34.5 226.5zM311 674q0 -134 40 -245.5t108 -184.5t157.5 -113.5t188.5 -40.5q116 0 224 52 t189.5 141t131 217t49.5 272q0 84 -19 164.5t-59.5 153.5t-97.5 128.5t-138.5 88t-177.5 32.5q-117 0 -225 -48.5t-190.5 -134t-131.5 -211.5t-49 -271z" />
<glyph unicode="R" horiz-adv-x="1327" d="M45 20l4 35q1 13 9.5 17.5t47.5 15.5q18 5 29 8q42 11 57.5 61t36.5 201q64 479 115 834q6 39 6 86q0 36 -18 47.5t-82 24.5q-16 3 -24.5 5t-15.5 11t-5 23l6 36q2 17 27 17q13 0 104.5 -4t124.5 -4t164 4t164 4q27 0 47 -0.5t63 -6.5t74.5 -16.5t71 -32.5t65 -52t43 -79 t17.5 -110q0 -135 -85.5 -240.5t-244.5 -148.5q-30 -7 -37.5 -11t-7.5 -12q0 -7 70 -142.5t164.5 -289t144.5 -186.5q33 -21 73 -31q15 -4 21 -9q7 -5 8 -15q0 -6 -2 -13l-6 -39q-2 -16 -27 -16q-11 0 -83 2q-44 1 -69 0h-24q-24 -2 -39 -2q-16 0 -22 2q-14 4 -23 26 q-61 131 -340 633q-23 40 -34 49t-42 9h-71q-32 0 -39 -10.5t-12 -51.5l-58 -446q-6 -47 -6 -56q0 -35 23 -45.5t90 -17.5q31 -6 28 -31l-6 -37q-3 -24 -31 -24q-4 0 -84.5 4t-107.5 4q-19 0 -117 -4t-114 -4q-14 0 -18 6q-3 4 -4 14q0 3 1 8zM477 858q0 -17 14 -24t58 -7 q60 0 95.5 2t88 13.5t96.5 34.5q67 33 108.5 97.5t41.5 141.5q0 54 -26.5 108.5t-82.5 78.5q-26 11 -63 16t-65.5 5.5t-104.5 0.5q-70 0 -86.5 -8t-22.5 -51l-47 -355z" />
<glyph unicode="S" horiz-adv-x="987" d="M23 76q0 8 6 35l28 139q3 11 5 16.5t11 11t23 5.5h29q13 0 18.5 -9t10.5 -32q6 -23 11 -36t25 -35.5t52 -39.5q66 -37 157 -37q126 0 208.5 60.5t82.5 156.5q0 60 -34 124t-144 169q-57 54 -84.5 81.5t-69 70.5t-61 68.5t-44 62.5t-35 66.5t-18 65.5t-7.5 75 q0 69 27.5 133t81.5 118t147.5 86.5t212.5 32.5q111 0 190 -23t102 -44q7 -6 7 -19q0 -8 -3 -20l-32 -139q0 -1 -2 -8t-2.5 -8t-3 -6.5t-4 -6.5t-5 -4t-7.5 -3.5t-9 -0.5h-35q-18 0 -24.5 10.5t-6.5 36.5q0 36 -26 60.5t-66 34t-65.5 12.5t-44.5 3q-65 0 -115 -17t-77 -41 t-44 -55t-22 -55t-5 -45q0 -73 51.5 -142t190.5 -198q40 -37 57.5 -53.5t52.5 -52.5t51.5 -58t40.5 -58t35.5 -67t20 -70.5t8.5 -80.5q0 -92 -41.5 -165.5t-112.5 -119t-162 -69t-194 -23.5q-125 0 -231 36t-106 71z" />
<glyph unicode="T" horiz-adv-x="1099" d="M92 1204l17 209q0 9 1.5 14.5t8.5 10t20 4.5q24 0 202.5 -4.5t274.5 -5.5q60 0 302 5t266 5q16 0 24 -4q7 -4 7 -9l-1 -12l-28 -223q-1 -10 -2.5 -15.5t-9 -11.5t-19.5 -6h-37q-14 0 -17.5 9.5t-7.5 53.5q-1 2 -1 3.5v3.5q-3 43 -22 60.5t-79 17.5h-205q-28 0 -35.5 -10 t-13.5 -54q-21 -131 -82 -592t-61 -495q0 -17 2.5 -26t12.5 -21.5t37 -20.5t71 -12q17 -2 24 -6.5t7.5 -11t-0.5 -15.5l-5 -31q-2 -22 -36 -22q-3 0 -66 4t-152 4q-73 0 -122 -2t-72 -4t-31 -2q-34 0 -28 31l4 34q3 17 11 21t46 10q64 9 84.5 27.5t26.5 66.5 q149 1032 149 1104q0 16 -8.5 19.5t-36.5 3.5h-180q-26 0 -39 -0.5t-31.5 -5t-28.5 -14t-20 -27.5t-16 -45q-5 -24 -12 -37t-13 -16t-14 -3h-47q-17 0 -19 9q-1 5 -1 15q0 8 1 19z" />
<glyph unicode="U" horiz-adv-x="1517" d="M182 1386l4 35q2 21 35 21q23 0 99.5 -4t107.5 -4q68 0 112 2t64 4t29 2q8 0 12 -5.5t4 -8.5v-15l-4 -35q-3 -20 -13.5 -26.5t-56.5 -22.5q-41 -14 -52 -44t-31 -159q-22 -158 -58 -399q-35 -247 -35 -311q0 -59 14 -106t38.5 -76.5t44.5 -46t47 -31.5q102 -54 213 -54 q58 0 119 14.5t127.5 58t101.5 110.5q36 68 51 148.5t59 424.5q3 24 12 98.5t19 155t12 94.5q1 6 3 21t3 26t1 15q0 36 -20 48.5t-85 29.5q-29 7 -34.5 14t-2.5 31l4 30q3 21 27 21q14 0 79.5 -4t137.5 -4q51 0 100 4t60 4q14 0 20 -4t6 -11q0 -4 -2 -14l-6 -39 q-2 -12 -10 -17t-41 -14q-52 -13 -64.5 -39.5t-31.5 -158.5q-61 -443 -72 -537q-7 -61 -10.5 -89t-10.5 -79t-14 -77t-18.5 -66.5t-25.5 -65.5t-33 -55t-43.5 -54t-55.5 -46q-150 -107 -395 -107q-263 0 -393 123q-115 111 -115 291q0 79 54.5 467.5t54.5 417.5 q0 19 -5.5 31.5t-20 19.5t-26.5 10t-39 8q-38 7 -46 15q-6 6 -6 22q0 5 1 12z" />
<glyph unicode="V" horiz-adv-x="1327" d="M106 1368q0 2 -1 5q0 5 1 11l7 39q1 6 3 9.5t8.5 6.5t18.5 3q19 0 104.5 -4t114.5 -4q56 0 120.5 4t74.5 4q27 0 21 -29l-5 -39q-3 -13 -12.5 -19.5t-40.5 -15.5q-58 -15 -76 -27.5t-18 -45.5q0 -25 5.5 -55.5t39.5 -190.5q24 -123 79.5 -408.5t61.5 -316.5 q6 -36 9.5 -45.5t9.5 -9.5t35 61q29 62 48 102.5t53 108.5l52 104t85.5 170t113.5 224q85 164 101 200.5t16 63.5q0 54 -109 67q-32 3 -40 11.5t-5 33.5l4 31q3 25 33 25q16 0 96 -4t109 -4q60 0 123.5 4t70.5 4q19 0 23 -9q2 -4 3 -9q0 -6 -3 -13l-4 -29q-2 -13 -7.5 -19.5 t-27.5 -14.5q-32 -12 -58 -43.5t-81 -137.5q-206 -387 -246 -462q-112 -212 -332 -646q-36 -70 -46.5 -84.5t-31.5 -17.5l-80 -14q-6 -1 -11 -1q-17 0 -23 10q-8 14 -17 81q-31 197 -129.5 680.5t-99.5 486.5q-13 76 -32.5 106.5t-70.5 39.5q-19 3 -28 8.5t-9 13.5z" />
<glyph unicode="W" horiz-adv-x="2162" d="M120 1364q-2 5 -2 11q0 7 3 16l4 34q2 17 25 17q31 0 96 -4t88 -4q30 0 121 4t120 4q11 0 17.5 -6.5t5.5 -16.5l-6 -39q-1 -19 -11.5 -24.5t-62.5 -18.5q-27 -5 -44 -10.5t-32.5 -19.5t-15.5 -35q0 -15 25.5 -189.5t55.5 -375.5t36 -252q2 -14 30 -226q0 -11 7 -16l2 -2 q7 0 20 33q128 292 322 719q172 378 200 444q14 33 21.5 39.5t36.5 7.5l92 8q10 1 18 1q16 -1 20 -5q6 -6 13 -47q13 -80 46.5 -323t70.5 -514t43 -312q4 -26 12 -26q6 0 41 77q26 65 133 295t201.5 431.5t97.5 213.5q4 12 4 25q0 26 -19 36t-108 34q-18 5 -22 12.5t-2 23.5 l6 35q0 23 26 23q10 0 72.5 -4t136.5 -4q64 0 122 4t63 4q22 0 22 -20q0 -6 -2 -13l-4 -31q-1 -11 -3 -16.5t-9 -11.5t-21 -11q-37 -11 -50 -23.5t-42 -68.5q-360 -704 -549 -1110l-59 -125q-10 -22 -17.5 -28t-27.5 -9l-86 -16q-8 -1 -15 -1q-21 0 -28 14q-9 18 -19 116 q-10 91 -69.5 521.5t-65.5 477.5q-13 103 -18 103q-4 0 -23 -37q-425 -923 -467 -1001q-6 -11 -38 -79t-35 -73q-17 -20 -39 -23l-97 -18q-9 -2 -16 -2q-17 1 -22 11q-8 14 -17 85q-15 126 -84 541.5t-112 640.5q-13 62 -26.5 80.5t-64.5 32.5q-21 6 -25 16z" />
<glyph unicode="X" horiz-adv-x="1327" d="M-80 20l6 33q1 15 12 21.5t58 21.5q26 8 52.5 33t90.5 94q35 39 127 142t156.5 176t124.5 143q25 28 30 34.5t5 12.5q0 3 -56 97t-123.5 206t-83.5 140q-56 99 -84 131.5t-71 42.5q-21 5 -31 12t-10 14v15l4 34q3 19 23 19q8 0 28 -2t65 -4t115 -2q78 0 126.5 2t69 4 t30.5 2q23 0 20 -27l-6 -33q-1 -11 -4.5 -16.5t-17 -12.5t-39.5 -14q-35 -8 -48.5 -16.5t-13.5 -26.5q0 -12 3.5 -23.5t26 -56.5t68.5 -126l113 -195q26 -51 35 -51q3 0 25.5 29t27.5 38q20 27 96 126.5t107 142.5q45 64 54 79.5t9 34.5q0 22 -22 35.5t-74 22.5 q-22 4 -27.5 13t-3.5 26l7 32q2 19 30 19q7 0 28.5 -2t72 -4t127.5 -2q84 0 143 4t61 4q20 0 20 -18q0 -4 -1 -9l-2 -31q-1 -10 -12 -17t-58 -28q-33 -14 -99 -84.5t-388 -441.5q-58 -70 -58 -76q0 -18 148 -256q4 -7 95.5 -159.5t111.5 -180.5q20 -27 38.5 -39t49.5 -20 q20 -4 29.5 -9t10 -12t-0.5 -16l-4 -35q-2 -18 -27 -18q-17 0 -103 4t-100 4q-40 0 -122 -4t-105 -4q-13 0 -18.5 5t-6 8.5t-0.5 14.5l4 31q3 14 11 20.5t30 12.5q54 16 66 23.5t12 29.5q0 24 -18.5 63.5t-73.5 135.5q-37 65 -63 109.5t-36.5 63.5t-19.5 34q-43 69 -51 69 t-146 -178t-184 -246q-18 -29 -18 -55q0 -45 74 -55q17 -3 25 -9.5t7.5 -13.5t-0.5 -14l-4 -31q-1 -6 -2.5 -8.5t-7 -6t-14.5 -3.5q-15 0 -99 4t-127 4q-37 0 -111 -4t-91 -4t-21 7q-3 5 -3 12q0 4 1 9z" />
<glyph unicode="Y" horiz-adv-x="1214" d="M70 1378l6 45q2 19 33 19q9 0 66.5 -4t129.5 -4q47 0 126 4t91 4q25 0 25 -21q0 -32 -8.5 -48.5t-18 -21t-35.5 -12.5q-2 -1 -10 -3.5t-11.5 -3.5t-11 -4t-11 -5.5t-9.5 -5.5t-9 -6.5t-6.5 -8t-5 -9.5t-1.5 -11q0 -12 39 -100.5t88.5 -196t58.5 -127.5q27 -67 49 -106 q7 -15 14 -15q3 0 27 34.5t62 91t55 81.5q41 58 107 142t95 127t29 69q0 22 -21 34t-89 25q-39 7 -39 31q0 44 10 57t31 13q17 0 94 -4t90 -4q53 0 131 4t84 4q24 0 21 -23l-5 -39q-2 -12 -22 -24q-36 -21 -62 -50.5t-122 -154.5q-360 -469 -404 -528q-19 -25 -23.5 -34 t-7.5 -28q-11 -65 -31 -218t-20 -189q0 -37 22 -51t107 -27q20 -3 24 -9.5t1 -21.5l-4 -33q-3 -20 -25 -20q-4 0 -29.5 2t-68.5 4t-90 2q-49 0 -92.5 -1t-72 -2t-49.5 -2t-32.5 -2t-13.5 -1q-35 0 -29 35l4 30q3 16 13.5 20.5t60.5 12.5q57 8 72.5 32t25.5 97q6 35 29.5 200 t23.5 175q0 24 -65 154q-135 273 -244 481q-24 49 -49.5 79t-65.5 35q-26 4 -30 9q-3 4 -3 14q0 5 1 12z" />
<glyph unicode="Z" horiz-adv-x="1214" d="M-39 35q-4 20 29 49q9 9 48 54.5t80.5 94.5t79.5 94.5t40 47.5q317 392 563 688q180 225 180 231q0 11 -53 11h-350q-31 0 -45.5 -0.5t-37 -2.5t-34 -7.5t-25.5 -14.5t-22.5 -23.5t-14.5 -35.5q-11 -41 -17 -50.5t-24 -9.5h-39q-23 0 -28.5 10.5t-5.5 45.5l4 186 q1 24 7 31.5t21 7.5q16 0 176 -5t234 -5q115 0 297 5t190 5q26 0 31 -19l12 -39q2 -8 2 -15t-2 -12q-4 -10 -28 -38q-109 -133 -384.5 -467t-375.5 -457q-182 -221 -190 -235q-11 -14 -11 -17q0 -12 21 -12h456q42 0 68 1.5t67 7.5t71 22.5t48 42.5q31 42 40 50.5t26 8.5h37 q22 0 22 -20q0 -7 -4 -23l-39 -196q-3 -19 -9.5 -26t-24.5 -7q-4 0 -11 0.5l-28 2t-52 3.5q-140 4 -460 4q-110 0 -226 -2.5t-193 -5t-91 -2.5t-17 10z" />
<glyph unicode="[" horiz-adv-x="1062" d="M246 -408q0 11 18 124.5t39.5 245t26.5 163.5q27 176 77 560.5t58 473.5q2 13 9.5 94.5t15 155t8.5 76.5q6 35 16 45t35 10q19 0 111 -1t155 -1.5t107 0.5q14 0 45 0.5t51 0.5t24 -1q14 -6 11 -37l-4 -28q-3 -22 -11 -28.5t-32 -6.5h-271q-53 0 -65 -20t-27 -126 q-59 -463 -115 -868q-68 -475 -84 -617q-8 -66 -8 -96q0 -33 14.5 -40t69.5 -7h228q38 0 45 -4.5t4 -28.5l-4 -41q-3 -17 -9.5 -22.5t-23.5 -5.5l-363 2q-126 -3 -140 2q-11 6 -11 26z" />
<glyph unicode="\" horiz-adv-x="1024" d="M213 1446q0 18 41 18h72q26 0 32 -7t17 -46q133 -523 381 -1270q3 -7 16.5 -44t24 -66.5t10.5 -32.5q0 -15 -19 -17.5t-34 1.5l-56 4q-23 3 -29.5 11.5t-15.5 43.5q-48 176 -142 482.5t-166 532.5t-83 255q-3 11 -24 63.5t-23 59.5q0 2 -1 6t-1 6z" />
<glyph unicode="]" horiz-adv-x="1062" d="M6 -399l4 28q2 21 9.5 28t31.5 7h273q20 0 30 0.5t20.5 7t14.5 13t9.5 27.5t8 39.5t7.5 60.5q9 66 52.5 396.5t63.5 469.5q6 47 37.5 272t34.5 250q21 168 21 189q0 35 -15 42t-71 7h-228q-37 0 -44.5 4t-4.5 28l6 41q2 15 8 22t25 7l363 -2q111 3 131 -0.5t20 -28.5 q0 -17 -35 -225q-57 -326 -124 -843.5t-91 -790.5q-4 -58 -15.5 -73t-37.5 -15l-375 2q-4 0 -33.5 -1t-54 -1t-31.5 2q-15 4 -10 37z" />
<glyph unicode="^" d="M80 504l455 930h155l459 -930h-172l-365 753l-360 -753h-172z" />
<glyph unicode="_" horiz-adv-x="1024" d="M0 -154h1024v-102h-1024v102z" />
<glyph unicode="`" horiz-adv-x="1024" d="M446 1485q0 16 35 16h142q22 0 29 -6.5t16 -34.5l96 -282q10 -27 10 -33q0 -9 -15.5 -15t-23.5 -6q-13 0 -26 17l-246 311q-17 17 -17 33z" />
<glyph unicode="a" horiz-adv-x="1024" d="M61 293q0 67 13.5 143.5t39.5 157.5t69.5 154.5t98.5 132t132.5 93t165.5 34.5q46 0 90 -13q1 0 29 -7t30 -7q10 0 16 6t21 33q14 20 57 31l51 16q10 3 17 3q16 0 16 -17q0 -20 -22 -119q-92 -530 -92 -731q0 -54 18 -71t51 -17q6 0 36.5 2t35.5 1q13 0 15.5 -7.5 t2.5 -38.5q0 -10 -2 -15t-14 -12.5t-37 -15.5l-168 -49q-30 -9 -45 -9q-61 0 -61 78q0 18 7 79.5t14 116t7 56.5q0 8 -6 8q-5 0 -33 -35q-62 -99 -170 -204q-101 -101 -190 -101q-87 0 -140 90.5t-53 233.5zM236 324q0 -24 3 -48t12.5 -59.5t33 -57.5t59.5 -22q19 0 40.5 9 t40.5 23t39.5 33.5t36 38t32 40.5t26 35.5t19.5 28t10 15.5q46 77 72.5 169.5t31 139t4.5 83.5q0 131 -161 131q-66 0 -116.5 -32.5t-96.5 -123.5q-37 -74 -61.5 -194t-24.5 -209z" />
<glyph unicode="b" horiz-adv-x="985" d="M96 1442l4 31q2 11 10.5 17t15 7t26.5 4q34 4 100 14t115 17.5t57 7.5q29 0 29 -27q0 -25 -4 -53l-109 -690q-4 -4 -4 -16q0 -6 4 -6q7 0 39 43q12 16 27 34.5t52.5 56t74 65t87 49.5t97.5 22q51 0 88.5 -23t56.5 -54t30.5 -75t14 -74t2.5 -63q0 -135 -39 -269t-109 -244 t-178 -178.5t-233 -68.5q-25 0 -52 3.5t-63.5 14.5t-64 29t-47 51.5t-19.5 77.5q0 31 73 587.5t73 606.5q0 35 -20 45.5t-91 20.5q-30 5 -38 11q-6 4 -6 16q0 4 1 10zM279 238q0 -82 36 -127q33 -41 91 -41q51 0 100 39.5t86 91.5q63 87 103 224.5t40 242.5q0 11 -0.5 20 t-2.5 29t-6 36t-13 35t-21 31.5t-31 21.5t-43 9q-41 0 -92 -35.5t-85.5 -74.5t-61.5 -78q-51 -79 -75.5 -207.5t-24.5 -216.5z" />
<glyph unicode="c" horiz-adv-x="796" d="M59 287q0 89 14 181t56.5 204t110.5 190q132 156 368 156q146 0 146 -62q0 -4 -1 -14t-1 -12l-23 -101q-7 -31 -13 -38t-20 -7h-32q-10 0 -15.5 7t-19.5 38q-4 9 -14 21.5t-38.5 27.5t-64.5 15q-61 0 -110 -41.5t-78.5 -103.5t-50 -139t-28 -144t-7.5 -123q0 -43 5.5 -81 t20.5 -78.5t47.5 -64.5t79.5 -24q74 0 140 41.5t110 93.5q3 5 13.5 17t15.5 12q10 0 16 -31t6 -45q0 -12 -4.5 -22t-24 -30.5t-57.5 -49.5q-141 -111 -291 -111q-60 0 -106.5 19t-74 49.5t-45 73.5t-24 85t-6.5 91z" />
<glyph unicode="d" horiz-adv-x="1024" d="M61 289q0 120 40 260t114 248q40 58 84 99.5t79.5 62.5t77.5 33t66.5 14t57.5 2q58 0 108 -17q8 -4 21 -4q14 0 18 11.5t10 68.5q1 15 8.5 77.5t13 119t5.5 73.5q0 37 -19.5 47.5t-109.5 22.5q-16 3 -21.5 8.5t-5.5 16.5q0 30 6 44t14 17.5t29 7.5q229 39 269 39 q39 0 39 -37q0 -26 -19 -137q-69 -445 -131 -954q-20 -167 -20 -215q0 -47 18 -64.5t53 -17.5q3 0 18.5 1t26 1.5t17.5 -0.5q20 -4 20 -29q-1 -23 -3 -31t-9 -14.5t-25 -11.5l-200 -56q-20 -4 -29 -4q-26 0 -40.5 15.5t-14.5 60.5q0 4 10 139l10 111q0 8 -6 8q-2 0 -20 -18 q-47 -64 -73 -98t-69 -83t-74.5 -74t-71.5 -44t-77 -19q-78 0 -136.5 84.5t-58.5 235.5zM236 334q0 -197 110 -197q45 0 105 52t113.5 133t90.5 191t37 214q0 156 -155 156q-132 0 -205 -133q-40 -74 -68 -194t-28 -222z" />
<glyph unicode="e" horiz-adv-x="796" d="M57 289q0 97 16.5 194.5t56.5 195t98 172t148.5 121t201.5 46.5q17 0 31.5 -1t46 -9t53.5 -22t39.5 -45t17.5 -73q0 -67 -35 -129t-97 -111t-130 -86.5t-150 -70.5q-1 0 -29 -9.5t-48.5 -18t-24.5 -13.5q-14 -19 -14 -108q0 -39 6.5 -75t22 -72.5t47 -58.5t75.5 -22 q52 0 107 26.5t84 51t51 49.5q3 3 14 15.5t19 20t12 7.5q10 0 18 -39q6 -25 6 -32q0 -11 -2 -18t-14.5 -24t-38.5 -40q-30 -27 -50.5 -43.5t-64 -43.5t-98.5 -41t-117 -14q-63 0 -111 21t-75.5 52.5t-44 76t-22 84.5t-5.5 86zM256 547q0 -21 18 -21q10 0 43.5 13.5t80 42.5 t90 65.5t74 90t30.5 110.5q0 34 -19.5 61t-58.5 27q-50 0 -95.5 -39.5t-73.5 -95t-49.5 -114.5t-30.5 -96.5t-9 -43.5z" />
<glyph unicode="f" horiz-adv-x="645" d="M-149 -408q0 6 4 19l16 78q4 18 17.5 25t41.5 7q96 0 127.5 8t59.5 46q27 37 38 94.5t23 191.5q24 258 62 545q24 202 24 225q0 27 -24 27l-144 -2q-30 0 -30 10q0 3 8 19l51 82q12 23 54 23q7 0 14 -1l51 -2q35 0 43 15.5t14 80.5q7 101 29.5 160.5t70.5 114.5 q45 52 91.5 88.5t80 54.5t75 27.5t62.5 10.5t56 1q71 0 143 -16q35 -5 35 -31q0 -10 -4 -18l-27 -80q-2 -11 -10.5 -23t-21.5 -12q-8 0 -56 12q-53 14 -118 14q-178 0 -220 -110q-13 -37 -23.5 -118.5t-10.5 -125.5q0 -31 10.5 -39t38.5 -6l237 4q7 0 13 -4.5t6 -11.5 q0 -13 -4 -17l-25 -77q-8 -23 -46 -23h-9l-174 2q-51 0 -64 -16.5t-22 -91.5q-12 -94 -42.5 -334t-41.5 -320q-46 -337 -224 -471q-81 -57 -180 -57q-30 0 -46.5 2t-22.5 8t-6 12z" />
<glyph unicode="g" horiz-adv-x="911" d="M-86 -215q0 41 20.5 82.5t47.5 71.5t74.5 66.5t78 56.5t82.5 51q21 11 21 20q0 6 -27 27t-27 49q0 21 11 43.5t49 83.5q35 52 35 57q0 9 -15 17q-28 15 -43 24t-38.5 29.5t-36 42t-22 57.5t-9.5 80q0 42 11.5 89t40.5 98.5t71.5 92.5t111 68t152.5 27q19 0 32 -0.5 t30.5 -4t26.5 -5.5t38.5 -10t48.5 -13q25 -6 100 -6h148q15 0 21 -10q4 -7 4 -16q0 -4 -1 -9q-5 -26 -8 -35.5t-12 -16.5t-27 -9l-74 -13q-12 -2 -19.5 -8t-10 -16t-3.5 -18t-1 -21q0 -102 -36.5 -190.5t-109.5 -141.5q-41 -29 -88 -47.5t-77.5 -24.5t-82.5 -12 q-24 -3 -39 -22t-18.5 -34t-3.5 -26q0 -27 29.5 -53t124.5 -74l71 -35.5t58.5 -32t53 -34.5t38.5 -35.5t32 -43.5t16 -49t7 -61q0 -87 -45 -153t-118.5 -102t-153.5 -53t-164 -17q-177 0 -276 66t-99 153zM104 -184q0 -71 59 -119.5t156 -48.5q62 0 124.5 21.5t110.5 71.5 t48 118q0 69 -65 121q-54 39 -121 70.5t-92 31.5q-6 0 -28.5 -11.5t-55 -35t-63 -54t-52 -74.5t-21.5 -91zM287 625q0 -48 15 -80.5t38 -45.5t39.5 -17.5t30.5 -4.5q92 0 155.5 98.5t63.5 215.5q0 60 -29 103.5t-98 43.5q-56 0 -99.5 -32t-67.5 -82t-36 -101t-12 -98z" />
<glyph unicode="h" horiz-adv-x="1138" d="M104 4q0 9 18.5 136t40.5 274.5t27 185.5q89 658 89 743q0 31 -17.5 47.5t-75.5 20.5q-41 3 -52 9t-11 22q0 20 4 33t13 19.5t16.5 8.5t21.5 4q225 33 275 33q26 0 26 -29q0 -30 -6 -69l-72 -447q-2 -12 -11.5 -75t-18.5 -120t-9 -61q0 -12 7 -12q9 0 47 43 q95 103 218 175.5t210 72.5q67 0 101 -37t34 -100q0 -35 -41 -350t-41 -367q0 -27 9.5 -36t33.5 -9q7 0 47 5t47 5q23 0 23 -27q0 -41 -9.5 -52.5t-39.5 -18.5l-240 -56q-12 -4 -31 -4q-21 0 -29 18.5t-8 37.5q0 33 48.5 350.5t48.5 376.5q0 96 -86 96q-93 0 -210 -95.5 t-153 -205.5q-22 -70 -57 -443q-5 -52 -8 -65.5t-13 -22.5q-16 -16 -37 -20q-11 -2 -35 -8.5t-43 -11.5t-22 -5q-29 0 -29 31z" />
<glyph unicode="i" horiz-adv-x="606" d="M82 920l6 26q4 17 12 22.5t33 10.5l240 37q10 2 28 2q41 0 41 -47q0 -39 -28 -201q-27 -158 -49.5 -342t-22.5 -246q0 -33 12 -45t39 -12q7 0 44.5 3t43.5 3q27 0 27 -27q0 -28 -7 -43t-15 -19t-27 -9l-230 -58q-6 -1 -13.5 -2t-11.5 -1.5t-7 -0.5q-16 0 -26.5 7.5 t-14.5 19t-5 18.5t-1 13q0 10 52 378t52 406q0 42 -22.5 52.5t-108.5 15.5q-27 2 -37 9q-6 4 -6 15q0 6 2 15zM281 1309q0 69 43.5 110t91.5 41q49 0 80.5 -33.5t31.5 -93.5q0 -70 -40.5 -114.5t-90.5 -44.5q-47 0 -81.5 37.5t-34.5 97.5z" />
<glyph unicode="j" horiz-adv-x="530" d="M-106 -373q0 13 24 23q20 10 42.5 23.5t63.5 52.5t60 81q13 27 18.5 43t17.5 83t25.5 165t42.5 314q2 16 15 115.5t24 187t11 98.5q0 42 -24.5 54.5t-111.5 13.5q-19 1 -27.5 6.5t-8 14t1.5 18.5l4 26q3 26 45 33l241 37q4 0 13 1t14 1q37 0 37 -43q0 -5 -4 -35t-9 -62.5 t-6 -37.5q-25 -162 -57.5 -424t-44.5 -393q-4 -45 -7 -73t-10 -65t-16.5 -61.5t-25.5 -54.5t-37.5 -52t-53 -45.5t-71.5 -44.5q-117 -57 -146 -57q-16 0 -28 22.5t-12 34.5zM262 1309q0 69 43 110t92 41q52 0 82.5 -35.5t30.5 -91.5q0 -68 -40 -113.5t-93 -45.5 q-47 0 -81 37t-34 98z" />
<glyph unicode="k" horiz-adv-x="1024" d="M111 14q0 3 12 85t26 178.5t17 121.5q3 28 35 276t55 441.5t23 229.5q0 14 -2.5 22.5t-12.5 19.5t-34.5 16.5t-63.5 6.5q-43 4 -43 31q0 20 4 33t13 19.5t16.5 8.5t21.5 4q225 33 283 33q14 0 20 -5.5t6 -23.5q0 -14 -22 -145q-40 -234 -102 -703.5t-66 -578.5 q-1 -50 -16 -65t-58 -27l-53 -15q-8 -1 -21.5 -3t-25.5 8t-12 32zM379 565q0 7 55 45q100 69 176 144t76 104q0 10 -8 17t-35 14q-38 10 -40 16q-1 2 -1 4q0 29 8.5 45.5t18 20t26.5 6.5l279 35q13 3 24 3q8 1 14 -1q16 -4 15 -21q0 -27 -6.5 -44t-13 -23t-21.5 -17 q-12 -8 -197 -156t-194 -161q-2 -2 -2 -8q0 -13 86.5 -162t122.5 -201q26 -37 49 -63t38.5 -38.5t32.5 -19t25.5 -7.5t22.5 -1q38 0 45.5 -2.5t7.5 -19.5q0 -20 -4 -33t-14.5 -21.5t-19.5 -12t-27 -9.5l-93 -29q-21 -6 -37 -6q-29 0 -48.5 15t-57.5 73q-60 92 -134.5 216.5 t-121.5 208.5t-47 89z" />
<glyph unicode="l" horiz-adv-x="569" d="M119 31q0 19 26 192q40 275 90 671.5t50 451.5q0 14 -2.5 22.5t-12.5 19.5t-34.5 16.5t-63.5 6.5q-45 4 -45 31q0 20 4 33t13.5 19.5t17 8.5t22.5 4l271 33q24 0 30.5 -7t6.5 -22q0 -6 -21 -145q-33 -192 -72 -480t-62.5 -488t-23.5 -220q0 -33 13 -45t36 -12q7 0 45 4 t44 4q31 0 26 -29l-2 -28q-1 -19 -9 -24.5t-32 -10.5l-233 -62q-12 -4 -27 -4q-24 0 -39.5 15.5t-15.5 44.5z" />
<glyph unicode="m" horiz-adv-x="1669" d="M63 911l3 31q1 14 13 21t40 12l231 39q16 4 35 4q35 0 35 -39q0 -24 -24.5 -143t-24.5 -129q0 -7 3.5 -12t6.5 -5q10 0 16 12q11 15 49 57t103 104.5t144.5 108.5t142.5 46q45 0 79.5 -36t34.5 -101q0 -57 -14 -115q-2 -5 -7 -29.5t-5 -27.5q0 -15 10 -15q8 0 14 11 q73 94 142.5 160t124 97t93.5 43.5t72 12.5q36 0 62.5 -14t39.5 -36t19 -43.5t6 -43.5q0 -34 -46 -341.5t-46 -369.5q0 -28 11.5 -39.5t37.5 -11.5q7 0 32 2.5t47 4.5l22 3q18 0 18 -25q0 -43 -9 -55t-40 -18l-240 -56q-1 0 -11.5 -2t-16.5 -2q-18 0 -28.5 12.5t-12.5 23.5 t-2 22q0 39 52 350t52 373q0 48 -18.5 68t-42.5 20q-57 0 -133 -55.5t-138 -139.5t-80 -160q-11 -44 -53 -407q-5 -49 -15 -66.5t-44 -23.5l-62 -11q-34 -6 -49.5 0t-15.5 27q0 1 25 162t50 343t25 234q0 97 -61 97q-20 0 -34.5 -3.5t-42.5 -17.5t-69 -50t-94 -93 q-73 -80 -95.5 -164t-51.5 -356q-11 -89 -14.5 -109t-12.5 -33q-7 -15 -53 -26l-49 -11q-13 -3 -23 -3q-39 0 -39 40q0 1 49 336q43 294 43 418q0 70 -25.5 90t-103.5 23q-17 1 -26 6t-10 10t-1 14z" />
<glyph unicode="n" d="M59 907q0 39 9.5 50.5t48.5 17.5l241 41q2 0 12 1t15 1q16 0 27.5 -9.5t11.5 -29.5q0 -15 -24.5 -138.5t-24.5 -135.5q0 -15 10 -15q4 0 15.5 10.5t15.5 16.5q59 61 103 102t109.5 93t129 79t121.5 27q70 0 102.5 -41t32.5 -100q0 -27 -46 -336t-46 -371q0 -51 47 -51 q8 0 47.5 4t46.5 4q27 0 27 -29q0 -39 -10.5 -50.5t-39.5 -16.5l-239 -56q-1 0 -12 -2t-17 -2q-43 0 -43 56q0 40 50 353.5t50 373.5q0 46 -20.5 66t-48.5 20q-94 0 -212 -100t-157 -208q-19 -53 -29 -114.5t-36 -286.5q0 -22 -9 -76q-6 -30 -16 -43t-29 -18l-55 -14 q-21 -7 -41 -7q-37 0 -37 41q0 12 25.5 177.5t28.5 193.5q34 255 34 379q0 30 -4.5 50.5t-11 32t-22 18t-28.5 9t-40 5.5q-52 6 -58 12q-4 4 -4 16z" />
<glyph unicode="o" horiz-adv-x="987" d="M55 317q0 71 14 147.5t41 156t72.5 150t102.5 126.5t136.5 88.5t170.5 32.5q182 0 262 -123q57 -88 57 -221q0 -59 -8.5 -122.5t-28.5 -132.5t-49.5 -133t-74.5 -122.5t-99 -101t-128 -68t-158 -25.5q-60 0 -109 15t-80.5 38t-55 56.5t-35.5 64t-19.5 67t-9 60t-1.5 47.5 zM236 354q0 -134 50.5 -209t119.5 -75q89 0 166 86t119 214t42 257q0 138 -49.5 214.5t-136.5 76.5q-60 0 -112.5 -39.5t-88 -101.5t-61 -138t-37.5 -149t-12 -136z" />
<glyph unicode="p" horiz-adv-x="1024" d="M-82 -387l4 31q3 16 16 22.5t68 18.5q51 10 62.5 29.5t25.5 109.5q30 188 76.5 534t46.5 418q0 56 -20.5 71t-87.5 25q-48 9 -57 13.5t-9 19.5q0 39 9.5 49t41.5 15l248 47l25 2q34 0 34 -39q0 -14 -14 -79.5t-14 -76.5q0 -18 12 -18q5 0 27 22q70 74 159.5 132.5 t163.5 58.5q37 0 71 -14t69 -47t56 -99.5t21 -159.5q0 -78 -15.5 -165t-56 -185t-100.5 -175.5t-159 -129t-222 -51.5l-86 4q-14 1 -21 -7.5t-8.5 -16.5t-4.5 -31l-17 -154q-1 -14 -1 -25q0 -35 13 -49q19 -18 95 -30q36 -6 52 -12t18.5 -11t2.5 -16q0 -41 -11 -53.5 t-30 -12.5q-8 0 -36.5 3t-79.5 6t-115 3q-75 0 -124.5 -3t-72 -6t-30.5 -3q-26 0 -26 25q0 4 1 10zM313 188q0 -30 17.5 -49.5t45 -26t41.5 -8.5t27 -2q85 0 153 56.5t105.5 142t56.5 172.5t19 162q0 98 -32 156.5t-99 58.5q-18 0 -39 -3.5t-59 -20t-70 -44.5t-63 -84.5 t-47 -132.5q-16 -77 -36 -218t-20 -159z" />
<glyph unicode="q" horiz-adv-x="948" d="M51 287q0 134 46.5 283.5t123.5 250.5q76 101 165 144t200 43q40 0 80 -7q4 0 29.5 -5t29.5 -5t7 0.5t7.5 2.5t7 4t11 7t14.5 9l62 39q21 16 32 16t17 -9t6 -18q-52 -321 -62 -380q-22 -150 -67 -513.5t-45 -398.5q0 -30 21 -48t87 -28q17 -3 26 -9t9 -12.5v-12.5l-2 -29 q-1 -10 -3.5 -16t-11.5 -11.5t-24 -5.5q-8 0 -32 3t-72 6t-115 3q-83 0 -142.5 -6t-62.5 -6q-28 0 -20 33l6 35q3 19 15 25t69 20q54 11 67.5 33.5t24.5 105.5l49 336q6 37 6 43q0 14 -6 14q-9 0 -29 -30q-21 -27 -30 -38t-37 -43t-51 -49.5t-56 -39.5t-69 -32.5t-74 -10.5 q-21 0 -43 4.5t-53 23.5t-54.5 50t-40 90.5t-16.5 138.5zM225 336q0 -189 117 -189q109 0 223 164q52 82 81.5 220.5t29.5 218.5q0 133 -137 133q-51 0 -91.5 -14.5t-68 -41.5t-44.5 -53t-32 -61q-35 -78 -56.5 -187.5t-21.5 -189.5z" />
<glyph unicode="r" horiz-adv-x="833" d="M63 907q0 41 10 51.5t56 18.5l217 37q23 4 39 4q35 0 35 -37q0 -21 -18.5 -124.5t-18.5 -111.5q0 -12 8 -12q7 0 14.5 7.5t10.5 15.5q75 110 124 163t100.5 76t125.5 23q16 0 24 -0.5t19.5 -4t16.5 -12t5 -22.5q0 -13 -2 -31l-12 -86q-4 -33 -43 -33l-96 2 q-111 -10 -203.5 -124.5t-114.5 -311.5q-3 -18 -12.5 -105.5t-18.5 -172t-10 -88.5q-7 -36 -63 -43l-57 -11q-14 -3 -25 -3q-13 0 -20 4q-13 8 -13 28q0 12 9 68l10 57q12 81 41.5 327t29.5 322q0 32 -7.5 52.5t-24 30.5t-32 13t-42.5 5q-49 4 -56 10q-6 6 -6 18z" />
<glyph unicode="s" horiz-adv-x="796" d="M14 76l25 131q1 8 2.5 11.5t6.5 7t13 3.5h41q13 0 18.5 -6.5t12.5 -34.5q3 -17 7 -28t15.5 -30.5t28.5 -31t49 -21t74 -9.5q88 0 141.5 34.5t53.5 92.5q0 51 -32 89.5t-146 139.5q-107 96 -152 160.5t-45 152.5q0 123 96.5 202t247.5 79q62 0 131.5 -10.5t110.5 -28.5 q17 -7 17 -24q0 -4 -1 -9l-24 -131q-3 -9 -5 -13.5t-9 -9t-19 -4.5h-41q-12 0 -16.5 8.5t-10.5 39.5q-17 84 -151 84q-69 0 -107 -25q-59 -33 -59 -98q0 -32 10 -58.5t37.5 -57t53.5 -53.5t79 -67q105 -87 153 -155t48 -154q0 -129 -104 -206t-257 -77q-144 0 -260 49 q-34 13 -34 45q0 6 1 13z" />
<glyph unicode="t" horiz-adv-x="720" d="M49 874q0 7 12 31l39 64q7 14 22 17t46 1l65 -2q17 0 24 1.5t15.5 7.5t12 22.5t7 41.5t7.5 70q14 146 14 162q0 27 8 39t25 19l119 47q1 0 9 2t11 2q10 0 11 -17.5t-2 -21.5l-56 -301q-1 -11 -2.5 -19.5t-2 -12t-1 -6.5t-0.5 -5q0 -23 18 -28q13 -4 41 -4q11 0 25 1 l184 4q31 2 38 0.5t7 -8.5q0 -8 -4 -12l-28 -84q-3 -10 -8.5 -16.5t-14.5 -9t-15 -3t-18 -0.5l-174 6h-14q-39 0 -49 -10q-12 -12 -17 -76q-3 -34 -23 -199.5t-22 -179.5q-14 -154 -14 -194q0 -50 20.5 -77.5t75.5 -27.5q28 0 73 7t80.5 14.5t39.5 7.5q7 0 11 -1.5t5.5 -5 t2 -6t0.5 -7.5l-1 -5l-8 -43q-2 -10 -3.5 -14t-6.5 -10.5t-15.5 -11.5t-29.5 -11q-61 -20 -130 -31.5t-108 -11.5q-77 0 -135.5 41t-58.5 123q0 35 48 345t48 347q0 25 -9 30t-38 5h-6h-107q-43 -3 -43 14z" />
<glyph unicode="u" horiz-adv-x="1138" d="M57 901l9 47q1 14 9.5 19t28.5 8l244 37q18 6 49 6q35 0 35 -39q0 -6 -24.5 -171t-49 -349.5t-24.5 -237.5q0 -78 61 -78q59 0 137.5 46t142.5 116t85 135q27 77 61 420q8 85 17 111.5t36 29.5l74 9q32 6 48 2t16 -27q0 -2 -26 -178t-51.5 -375t-25.5 -256q0 -26 8.5 -39 t18 -15.5t25.5 -2.5q6 0 28.5 1.5t42.5 3t21 1.5q13 0 17 -6q3 -4 4 -13q0 -4 -1 -8l-6 -43q-2 -18 -33 -24l-231 -56q-16 -4 -31 -4q-37 0 -37 41q0 22 15.5 133t15.5 117q0 17 -8 17q-3 0 -15 -11.5t-12 -13.5q-124 -121 -250 -211q-109 -74 -186 -74q-67 0 -107.5 40.5 t-40.5 107.5q0 9 42 317t42 373q0 44 -24.5 56t-91.5 14q-48 2 -54 8q-5 6 -4 16z" />
<glyph unicode="v" horiz-adv-x="985" d="M20 911l7 29q3 20 9.5 24t37.5 9l200 35q3 0 20 3t19 3q11 0 16.5 -11.5t10.5 -39.5l117 -758q11 -64 18 -64q5 0 23 35q7 18 72 151t125.5 266t70.5 177q6 18 6 41q0 68 -94 68q-22 0 -29.5 1t-12 8.5t-1.5 24.5l4 31q3 17 14 22.5t45 10.5l232 37q4 4 28 4q15 0 28 -10 t13 -29q0 -45 -106 -246q-144 -281 -338 -616q-41 -81 -68 -125q-9 -14 -30 -19q-14 -4 -36 -10.5t-35 -10t-17 -3.5q-16 0 -23 21.5t-22 103.5q-119 652 -148 725q-19 47 -45.5 61t-81.5 19q-30 3 -30 25q0 3 1 7z" />
<glyph unicode="w" horiz-adv-x="1554" d="M27 913l6 29q3 19 15 25.5t44 11.5l191 31q14 2 32 2q16 0 20.5 -8.5t6.5 -30.5l80 -572q2 -14 9.5 -80.5t14 -122t9.5 -59.5l4 4q17 17 148 328.5t159 419.5q7 26 10.5 37.5t12.5 32t20.5 31t26.5 12.5l96 14h16l1 1q7 0 13 -9t7 -27q4 -82 35 -307l45 -389 q1 -3 14 -137q0 -15 8 -15q5 0 97 208q26 58 42 93q136 293 136 371q0 64 -99 76q-42 0 -37 28l7 37q3 7 5 11t12 9.5t26 8.5l219 35q35 6 59 6q33 0 33 -29q0 -34 -146 -337t-321 -625q-18 -35 -26 -43.5t-31 -14.5q-3 -1 -24.5 -6t-41 -9.5t-23.5 -4.5q-6 0 -9.5 2.5 t-6 11t-3.5 14.5t-3 21q-54 405 -78 569q-21 142 -27 154q-8 -6 -20 -39q-147 -336 -336 -670q-12 -23 -19 -29t-26 -12q-66 -22 -80 -22q-13 0 -19 16.5t-12 63.5q-100 668 -118 727q-11 37 -18 54.5t-22 37.5t-39 27.5t-61 7.5q-10 0 -14 0.5t-11 2.5q-6 4 -8 10 q-1 4 -1 10v7z" />
<glyph unicode="x" horiz-adv-x="948" d="M-2 18l41 205q3 15 12.5 21t40.5 6q10 0 16 -6t21 -31q10 -16 25 -16q32 0 85 77.5t91.5 163.5t38.5 117q0 11 -11 50t-22.5 75.5t-26 79t-14.5 43.5q-12 34 -31.5 51.5t-58.5 17.5q-3 0 -21 -1t-30.5 -1.5t-20.5 0.5q-15 5 -8 27l6 39q4 25 21 31l202 47q4 4 29 4 q20 0 29 -18t30 -91q27 -98 78 -315q4 -18 10 -27q12 15 31 58q37 90 97 197t114 155q64 53 127 53q25 0 35 -10q7 -8 7 -27q0 -6 -1 -14l-16 -176q-1 -21 -8.5 -25t-38.5 -4q-13 0 -27 14q-19 19 -37 19q-29 0 -59.5 -27.5t-71.5 -95.5q-45 -75 -72.5 -142t-27.5 -96 q0 -38 88 -243q28 -64 46 -82.5t54 -18.5q6 0 37.5 2t36.5 2q15 0 22.5 -4t6.5 -9.5t-1 -10.5l-8 -37q-5 -30 -30 -33q-42 -8 -104.5 -20t-97.5 -18.5t-44 -6.5q-26 0 -42 40.5t-54 193.5q-38 158 -50 200.5t-18 42.5q-1 0 -10 -20t-19 -43t-12 -27q-17 -39 -42.5 -87 t-65.5 -112.5t-90 -115.5t-97 -68q-21 -8 -47 -8q-45 0 -45 39q0 7 2 16z" />
<glyph unicode="y" horiz-adv-x="987" d="M-73 -386q-1 4 -1 8q0 9 4 18l13 75q6 28 15 33q4 2 11 2q2 0 31.5 -8t30.5 -8q36 -6 49 -6q82 0 135 45t111 153q49 95 49 125q0 19 -80.5 348t-93.5 365q-8 20 -11 27t-16 29t-25 32.5t-34.5 20.5t-48.5 10q-12 0 -21 1t-17.5 6.5t-7.5 14.5l3 39q0 17 8.5 23.5 t31.5 9.5l209 31q18 6 37 6q18 0 24 -12t15 -66l96 -485l41 -199q1 -8 11 -27q4 0 51 97q6 14 63 128t66 136q92 188 92 235q0 18 -9.5 30.5t-24.5 18.5t-27.5 8.5t-24.5 2.5q-20 0 -27 1t-13 7t-5 20l4 39q2 15 13.5 22t47.5 13l209 31q24 6 41 6q18 0 30.5 -9.5 t12.5 -27.5q0 -17 -8.5 -37.5t-35.5 -72.5q-8 -16 -13 -25q-115 -217 -289 -529l-250 -456q-22 -42 -33.5 -62.5t-35.5 -58.5t-42 -58.5t-46.5 -47.5t-57 -40.5t-66 -23.5t-79.5 -10q-44 0 -70 7.5t-33 19t-9 25.5z" />
<glyph unicode="z" horiz-adv-x="872" d="M-18 41q-2 5 -2 10q0 9 6 18q10 15 61 72q349 388 555 641q9 9 22 27t13 25q0 16 -45 16h-248q-32 0 -44 -7t-38 -38q-14 -19 -33 -19h-34q-18 0 -21 14.5t2 39.5l17 121q3 25 9.5 34t26.5 9q35 0 164 -7q32 -1 72 -2.5t67 -2.5t37 -1q34 0 148.5 7.5t128.5 7.5 q11 0 15.5 -5t6.5 -18l4 -53q0 -17 -4 -25t-26 -31q-112 -119 -360.5 -408t-248.5 -298q0 -10 46 -10h292q48 0 65 4.5t30 21.5q17 19 22 23.5t13 9t18 4.5h31q20 0 23 -5t1 -28l-18 -149q-1 -17 -3 -25t-9.5 -15t-22.5 -7q-2 0 -41.5 4.5t-120 9t-180.5 4.5 q-122 0 -204.5 -4.5t-117.5 -9t-41 -4.5q-15 0 -22 18z" />
<glyph unicode="{" horiz-adv-x="948" d="M190 537q0 39 21 45q44 13 69.5 21.5t47 23t31.5 26t18 37t11 48.5t7 69q30 319 46.5 432.5t50.5 177.5q22 41 55.5 67.5t79 37.5t84.5 14.5t96 3.5q66 0 83.5 -5.5t14.5 -27.5q-5 -31 -10.5 -38t-30.5 -7h-56t-45 -2t-38.5 -5t-29 -10t-25 -15.5t-18 -24t-15.5 -32.5 t-11.5 -44t-11.5 -56t-10 -71q-2 -16 -23.5 -228.5t-29.5 -252.5q-11 -51 -35.5 -88t-79.5 -64q-26 -9 -26 -18q0 -3 12 -12.5t26 -20.5t17 -14q41 -41 41 -105q0 -68 -37 -256q-12 -59 -30.5 -198.5t-18.5 -204.5q0 -28 10 -48t22.5 -30t34 -15t35.5 -6t35 -1q74 0 84 -2 l3 -2q3 -1 5 -3t4 -5.5t2 -8.5q0 -41 -16.5 -49t-79.5 -8q-61 0 -101 3t-82.5 14t-66.5 32t-39.5 57.5t-15.5 89.5q0 47 6 102t13 101.5t28 167.5q41 243 41 262q0 80 -94 115q-39 12 -48.5 17t-9.5 14z" />
<glyph unicode="|" d="M532 -512v2048h111v-2048h-111z" />
<glyph unicode="}" horiz-adv-x="948" d="M37 -414q0 38 13.5 46t66.5 8q46 0 66.5 1.5t48.5 7.5t38.5 19.5t26 36.5t21.5 60t15 88.5t16 123.5t16 164v2q23 220 37 271q16 57 60 89q9 7 23 15l47 27q0 1 1.5 3t1.5 3q0 3 -12 12.5t-26.5 20.5t-17.5 14q-41 44 -41 102q0 67 37 258q11 62 30 199t19 201 q0 29 -9 48.5t-22 30.5t-39 16.5t-50 7t-64 1.5q-24 0 -33 1t-14.5 7.5t-3.5 20.5q2 17 4 23t6.5 13.5t16.5 9t28 2.5t47 1q60 0 101 -3.5t81.5 -15.5t64 -33.5t38 -57.5t14.5 -87q0 -15 -0.5 -30t-1 -27.5t-2.5 -31t-3.5 -30l-4.5 -34.5t-5 -34t-6.5 -40t-6.5 -41.5t-8 -49 t-9 -52.5q-41 -240 -41 -262q0 -28 10.5 -49.5t33 -36t39.5 -22t46 -17.5q21 -10 21 -23q0 -37 -19 -43q-43 -13 -69 -22t-47.5 -23t-31.5 -25.5t-18 -37t-11 -48t-7 -67.5q-28 -303 -46 -424.5t-52 -187.5q-39 -74 -114 -98.5t-190 -24.5q-74 0 -92 3.5t-18 20.5z" />
<glyph unicode="~" d="M121 625q57 88 119.5 136t150.5 48q113 0 242 -70q65 -34 111.5 -51.5t93.5 -17.5q91 0 180 131l90 -107q-57 -88 -119.5 -135.5t-150.5 -44.5q-14 0 -27.5 1t-28.5 4t-25.5 5.5t-26.5 8t-24.5 8.5t-25.5 10.5t-23 10t-25.5 11.5t-23.5 11q-5 3 -28.5 14t-31.5 14.5 t-28 12t-32 12t-29.5 8.5t-34 6.5t-33.5 1.5q-97 0 -176 -135z" />
<glyph unicode="&#xa1;" horiz-adv-x="796" d="M225 16q0 5 6 57.5t24 166.5t42 231q32 160 131 584q5 26 12 34.5t27 8.5q14 0 19.5 -1t9.5 -7.5t4 -20.5q0 -125 -10 -332t-15 -264q-14 -213 -53 -430q-4 -23 -10 -36.5t-28.5 -25.5t-61.5 -12q-55 0 -76 11.5t-21 35.5zM373 1298q0 66 42 116t97 50q44 0 76.5 -33.5 t32.5 -93.5q0 -63 -38.5 -115.5t-99.5 -52.5q-42 0 -76 35t-34 94z" />
<glyph unicode="&#xa2;" d="M283 528q0 104 22 211.5t65.5 209.5t118.5 179t170 105q34 9 42.5 16.5t11.5 32.5l16 119q2 19 8 25t27 6h29q14 0 16.5 -8.5t-0.5 -28.5l-14 -107q-3 -14 -0.5 -20t14.5 -6q37 0 59.5 -1.5t52 -6.5t44 -18t14.5 -34q0 -6 -2 -15.5t-2 -10.5l-23 -101q-6 -31 -10.5 -38 t-21.5 -7h-31q-10 0 -16 7t-21 38q-10 23 -35 39t-35 16q-4 0 -5 -1t-3 -7.5t-4 -21.5l-96 -719q-2 -29 2 -32q2 -1 6 -1q21 0 81 39.5t103 87.5q4 5 14 16t13 11q10 0 17.5 -30t7.5 -44q0 -37 -78 -98t-133 -82q-34 -13 -42.5 -19.5t-9.5 -25.5l-20 -144q-1 -11 -2.5 -14.5 t-7.5 -7.5t-19 -4h-33q-17 0 -20.5 9.5t0.5 29.5l14 112q3 23 -2.5 27t-32.5 4q-68 1 -118 26.5t-77.5 70t-40.5 98t-13 118.5zM457 594q0 -154 57 -213q35 -35 59 -35q13 0 17.5 9t7.5 36l94 709q2 28 -1 29q-2 1 -7 1q-17 0 -48 -23.5t-56 -55.5q-48 -64 -78 -166.5 t-37.5 -171t-7.5 -119.5z" />
<glyph unicode="&#xa3;" d="M49 0q0 7 8.5 23t19 34.5t13.5 24.5q11 24 31 32.5t90 24.5q22 5 34.5 9t36 15.5t40.5 30.5t37 49t36 77t29 108q12 58 21.5 134.5t9.5 103.5q0 21 -12 26.5t-52 5.5l-129 -2q-24 0 -24 17q0 12 6 18l49 74q14 20 26.5 24.5t45.5 4.5h45q39 0 46 11.5t7 76.5 q0 78 26 150.5t117 193.5q28 37 49 62t53.5 53t66.5 44.5t82.5 27.5t105.5 11q178 0 178 -61q0 -21 -8 -37l-31 -92q-13 -37 -37 -37q-30 0 -38.5 6t-22.5 35q-9 19 -41 30t-74 11q-90 0 -138.5 -46t-80.5 -140q-13 -39 -26 -131t-13 -134q0 -25 13.5 -29.5t68.5 -4.5l243 2 q15 0 15 -13q0 -2 -33 -78q-21 -49 -80 -49l-151 2q-55 0 -67 -4.5t-15 -29.5q-19 -153 -35.5 -212.5t-71.5 -148.5q-23 -38 -45.5 -64.5t-31.5 -36t-9 -16.5q0 -13 60 -16q23 -2 45 -5.5t63 -10.5t80 -13q84 -14 133 -14q103 0 156 37q3 1 29 19t32 18q9 0 28 -15.5 t19 -21.5q0 -16 -61 -94q-81 -105 -176 -105q-75 0 -254 41q-124 30 -160 36.5t-84 6.5q-111 0 -182 -41q-52 -39 -60 -39t-29.5 11.5t-21.5 19.5z" />
<glyph unicode="&#xa4;" horiz-adv-x="985" d="M139 305q0 1 64 65t73 72q-75 95 -75 207q0 116 75 205q-137 137 -137 139q0 5 21.5 27t25.5 22q1 0 9 -7.5t10 -8.5q15 -16 36.5 -37.5t48.5 -48t38 -37.5q95 70 202 70q110 0 205 -70q11 11 38 37.5t48.5 48t36.5 37.5q17 16 19 16q5 0 26 -21.5t21 -27.5l-35 -35 q-1 -2 -103 -104q76 -86 76 -205q0 -112 -76 -207q11 -9 74.5 -71.5t63.5 -65.5q0 -5 -22 -27t-25 -22q-2 0 -37 35l-105 104q-95 -69 -205 -69q-109 0 -204 69q-139 -139 -140 -139q-4 0 -25.5 22t-21.5 27zM330 649q0 -86 58.5 -146.5t141.5 -60.5q84 0 143.5 60t59.5 147 q0 84 -59 145.5t-144 61.5q-84 0 -142 -61.5t-58 -145.5z" />
<glyph unicode="&#xa5;" horiz-adv-x="1214" d="M18 1378l5 45q2 19 32 19q19 0 94.5 -4t96.5 -4q33 0 116.5 4t96.5 4q22 0 22 -21q0 -32 -7.5 -48.5t-17 -21.5t-34.5 -12q-24 -7 -36 -11.5t-26 -17t-14 -28.5t27 -84q14 -33 82 -213.5t80 -210.5q15 -37 24 -37q6 0 22 23.5t72 113.5q11 17 97.5 148.5t101.5 157.5 q29 44 39 63.5t10 38.5q0 23 -22 35t-88 24q-18 4 -27 11.5t-8.5 17t0.5 19.5l4 26q2 14 8.5 20.5t26.5 6.5q14 0 86.5 -4t95.5 -4q68 0 137.5 4t75.5 4q23 0 20 -23l-6 -39q0 -8 -6.5 -14t-32.5 -23q-32 -21 -70 -65.5t-122 -163.5q-1 -2 -64 -90t-132 -183.5t-85 -117.5 q-16 -16 -16 -25q0 -6 12 -6h227q45 0 52 -7q4 -5 4 -15q0 -18 -4 -29.5t-11.5 -16t-13 -5.5t-14.5 -1h-285q-27 0 -35 -10q-9 -13 -14.5 -49t-5.5 -47q0 -12 4 -14t22 -2h277q23 0 32.5 -1t16 -6t6.5 -16q0 -20 -4 -32.5t-12 -17.5t-13.5 -6t-15.5 -1h-289q-25 0 -32.5 -7 t-10.5 -42q-20 -165 -20 -205q0 -45 21 -58t96 -24q31 -6 36.5 -11t4.5 -26l-5 -31q-3 -20 -24 -20q-5 0 -24 2t-60 4t-100 2q-80 0 -137.5 -2t-85.5 -4t-38 -2q-27 0 -22 35l4 30q1 16 12 20.5t62 12.5q31 5 51.5 17t26.5 21.5t12 23.5q8 23 21.5 123.5t13.5 119.5 q0 11 -7 16t-28 5h-264q-34 0 -44 4t-10 18q0 20 3.5 33t11 18t13 6t15.5 1h295q10 0 15 0.5t10 5.5t6 14q10 58 10 82q0 14 -7 17t-25 3h-267q-34 0 -43.5 3.5t-9.5 17.5q0 33 9.5 43t33.5 10h254q18 0 18 13q0 2 -10 24t-10 23q-10 20 -109.5 245t-123.5 265 q-43 72 -99 81q-27 4 -31 9.5t-2 25.5z" />
<glyph unicode="&#xa6;" d="M532 358h111v-716h-111v716zM532 666v716h111v-716h-111z" />
<glyph unicode="&#xa7;" d="M45 -350q0 16 6 31l35 98q7 23 16 27t45 4q10 0 14.5 -6t22.5 -44q19 -41 83.5 -75.5t170.5 -34.5q144 0 224.5 63.5t80.5 141.5q0 71 -63.5 121.5t-224.5 127.5q-65 32 -112.5 59t-99.5 66t-84 78.5t-53.5 92t-21.5 110.5q0 36 10.5 75.5t35.5 88.5t78.5 95.5 t129.5 78.5q6 3 54 22.5t52 22.5q2 2 2 4q0 1 -16.5 16t-36 33t-24.5 23q-86 86 -86 211q0 112 66.5 195.5t171.5 124t231 40.5q97 0 180.5 -22.5t127.5 -53t44 -57.5q0 -7 -6 -25l-31 -94q-8 -28 -37 -28h-29q-13 0 -18 4t-8 18q-5 18 -9 28.5t-14 30.5t-25 32t-38 25.5 t-58 20t-79 6.5q-136 0 -216.5 -63.5t-80.5 -153.5q0 -74 55.5 -122t218.5 -130q91 -46 152.5 -86.5t109.5 -88.5t70 -104t22 -124q0 -254 -327 -369q-25 -8 -25 -14q0 -7 66 -47q131 -100 131 -232q0 -72 -33 -136t-94.5 -114t-159 -79t-217.5 -29q-152 0 -270 39 q-64 22 -86.5 37t-22.5 41zM266 549q0 -116 127 -205q44 -32 115 -66t94 -34q18 0 69 19t99 44q18 9 36 22t45 38t43.5 62.5t16.5 80.5q0 49 -25 96.5t-57 73.5q-50 42 -136.5 90.5t-112.5 48.5q-7 0 -30 -5.5t-59.5 -17t-74.5 -33t-72 -49.5t-56 -71.5t-22 -93.5z" />
<glyph unicode="&#xa8;" horiz-adv-x="1024" d="M334 1294q0 62 33.5 104t76.5 42q48 0 72.5 -26.5t24.5 -72.5q0 -64 -33.5 -108.5t-81.5 -44.5q-12 0 -25.5 4t-29.5 14t-26.5 33t-10.5 55zM682 1294q0 60 32.5 103t76.5 43q96 0 96 -99q0 -67 -35 -110t-80 -43q-12 0 -25 4.5t-29 14.5t-26 32.5t-10 54.5z" />
<glyph unicode="&#xa9;" horiz-adv-x="1818" d="M164 741q0 152 60.5 288.5t162 233.5t238 153.5t284.5 56.5t284.5 -56.5t238 -153.5t162.5 -233.5t61 -288.5q0 -198 -99.5 -366.5t-271.5 -267.5t-375 -99q-154 0 -292.5 58.5t-237.5 157t-157 234t-58 283.5zM297 741q0 -168 82.5 -309t223 -222t306.5 -81 q125 0 238 48t195.5 130t131 195.5t48.5 238.5q0 172 -86 314t-226.5 220.5t-300.5 78.5q-164 0 -304.5 -81t-224 -222.5t-83.5 -309.5zM475 727q0 86 36 165.5t100 140.5t160.5 97.5t209.5 36.5q72 0 158 -18.5t106 -34.5q8 -7 11 -22t-1 -23l-20 -78q-6 -22 -14.5 -26 t-44.5 -4q-13 0 -21.5 8.5t-21.5 31.5q-16 25 -68 39.5t-109 14.5q-128 0 -215.5 -94t-87.5 -224q0 -66 22 -119t57.5 -85t78.5 -49t88 -17q35 0 91.5 14t86.5 41q25 21 36 26t42 5q6 0 11 -1t8.5 -2.5t5.5 -4.5t3.5 -4.5t2 -6.5t0.5 -7v-8v-7l-10 -59q-4 -40 -101 -69.5 t-190 -29.5q-185 0 -297.5 106.5t-112.5 266.5z" />
<glyph unicode="&#xaa;" horiz-adv-x="645" d="M68 770q0 69 21 142.5t60 138.5t103 107t141 42q36 0 72 -16l22 -13q4 0 12.5 15t10.5 22q9 12 33 17l35 8q34 11 34 -14l-37 -201q-30 -176 -30 -299q0 -24 7 -31.5t23 -7.5q3 0 17 1t22.5 1.5t14.5 -0.5q16 -4 16 -39q0 -13 -6.5 -21.5t-30.5 -15.5l-112 -33 q-20 -4 -31 -4q-51 0 -51 56q0 16 3.5 44t8.5 60t6 43q-14 -27 -36 -58.5t-53 -66t-69.5 -57.5t-74.5 -23q-60 0 -95.5 56.5t-35.5 146.5zM203 791q0 -99 53 -99q17 0 42 16.5t52 48t50.5 72.5t39 95t15.5 110q0 31 -18.5 48.5t-69.5 17.5q-38 0 -65 -17.5t-50 -64.5 q-21 -40 -35 -106.5t-14 -120.5z" />
<glyph unicode="&#xab;" horiz-adv-x="1099" d="M70 571q0 7 4 12t26 27l369 353q23 23 34 28.5t38 5.5h59q29 0 29 -16q0 -8 -27 -39l-276 -332q-31 -38 -31 -55q0 -14 16 -49l178 -350l15 -29q0 -16 -31 -16h-49q-23 0 -30.5 6t-31.5 39l-272 381q-20 30 -20 34zM524 571v3t0.5 2.5t1.5 3t2.5 3t2.5 3t4 4.5t5 5.5 t6.5 6.5t8.5 8l369 353q22 23 34 28.5t37 5.5h60q30 0 30 -16q0 -7 -28 -39l-277 -332q-30 -37 -30 -55q0 -14 16 -49l178 -350q14 -23 14 -29q0 -16 -30 -16h-47q-23 0 -32 6t-32 39l-272 381q-21 31 -21 34z" />
<glyph unicode="&#xac;" d="M98 641v168h1032v-588h-167v420h-865z" />
<glyph unicode="&#xad;" horiz-adv-x="757" d="M55 459q0 3 2 9t2 7l25 53q28 57 35 64q12 8 53 8q24 0 147.5 -3t143.5 -3q16 0 101 3t98 3q28 0 28 -18q0 -9 -4 -17l-31 -63q-3 -6 -7.5 -15.5t-6 -13t-5.5 -10t-5.5 -8.5t-5 -6t-6 -4.5t-6.5 -2t-8.5 -2t-10.5 -0.5q-15 0 -45.5 2t-32.5 2q-25 2 -164 2 q-119 0 -219 -4l-55 -2q-23 0 -23 19z" />
<glyph unicode="&#xae;" horiz-adv-x="1818" d="M164 733q0 152 60.5 288.5t162 233t238 153t284.5 56.5q198 0 369 -95.5t274 -264.5t103 -371q0 -198 -99.5 -366.5t-271.5 -267.5t-375 -99q-154 0 -292.5 58.5t-237.5 157t-157 234t-58 283.5zM297 733q0 -168 82.5 -309t223 -222t306.5 -81q125 0 238 48t195.5 130 t131 195.5t48.5 238.5q0 172 -86 314t-226.5 220.5t-300.5 78.5q-164 0 -304.5 -81t-224 -222.5t-83.5 -309.5zM551 383q0 39 10 49t53 21q15 1 19.5 17.5t15.5 96.5l66 467q0 3 -0.5 6t-1 5.5t-2.5 4t-3.5 3t-4.5 3t-5.5 2.5t-7.5 2t-8.5 2t-10.5 2.5t-12 2.5q-26 7 -26 31 q0 19 3 31.5t9.5 17t11.5 5.5t13 1q16 0 108.5 -2t118.5 -2h25h61t55 -2t54 -6.5t45 -12.5t40 -21t28 -31t20 -43.5t6 -57.5q0 -71 -51.5 -131t-153.5 -88q7 -11 23 -38t25.5 -42.5t26 -42.5t27.5 -43.5t26.5 -39t27 -36.5t23.5 -28.5t22.5 -22t19.5 -10.5q33 -10 41 -17 t8 -22q0 -24 -7.5 -37t-14.5 -15t-17 -2h-129q-4 0 -8 1t-7.5 4.5l-6.5 6.5t-7.5 9.5t-7.5 11t-8.5 14t-9.5 15.5q-24 44 -67 114.5t-74 121t-33 55.5q-10 16 -19 19t-42 3q-3 0 -6 -0.5t-4.5 -2l-3 -3t-2.5 -4.5l-1.5 -4.5t-2 -5.5t-1.5 -6l-26 -220q-3 -23 -1 -30t17 -10 q37 -3 49 -9t12 -26q0 -54 -41 -54l-192 2h-17q-48 0 -57.5 2.5t-9.5 18.5zM838 858q-4 -22 16 -22q23 0 37 0.5t44 3.5t49.5 11t41 20.5t32.5 35t11 51.5q0 22 -6.5 38.5t-21.5 26.5t-29.5 16t-39.5 8.5t-41.5 3t-45.5 0.5q-21 0 -23 -17z" />
<glyph unicode="&#xaf;" horiz-adv-x="1024" d="M324 1255q0 9 6 15l14 33q21 45 33 55t49 10q43 0 157 -2t158 -2q16 0 98 2t95 2q27 0 27 -16q0 -12 -25 -60q-14 -27 -19 -35t-13.5 -13t-24.5 -5q-21 0 -90.5 2t-116.5 2q-135 0 -275 -4l-51 -2q-22 0 -22 18z" />
<glyph unicode="&#xb0;" d="M276 1083q0 160 112 270.5t267 110.5q157 0 269 -111.5t112 -269.5q0 -155 -111 -266.5t-270 -111.5t-269 111t-110 267zM391 1083q0 -108 77 -187t189 -79q108 0 185.5 78t77.5 188q0 116 -80 192.5t-183 76.5q-105 0 -185.5 -77t-80.5 -192z" />
<glyph unicode="&#xb1;" d="M76 -20v75q0 15 1 19.5t6 7t19 2.5h998q9 0 12.5 -0.5t7.5 -3t5 -8.5t1 -17v-75q0 -14 -1 -19t-6.5 -8.5t-18.5 -3.5h-998q-18 0 -22 5t-4 26zM76 625v73q0 15 1 20t6.5 8t18.5 3h410q13 0 16.5 3.5t3.5 17.5v430q0 17 4.5 20.5t26.5 3.5h76q20 0 24.5 -3t4.5 -21v-430 q0 -9 1 -12.5t5 -6t14 -2.5h412q18 0 21 -4t3 -27v-73q0 -21 -3 -26t-21 -5h-412q-13 0 -16.5 -3.5t-3.5 -17.5v-374q0 -16 -4 -20.5t-25 -4.5h-76q-20 0 -25.5 3.5t-5.5 21.5v374q0 9 -1 12.5t-5 6t-14 2.5h-410q-16 0 -21 4.5t-5 26.5z" />
<glyph unicode="&#xb2;" horiz-adv-x="757" d="M66 643q-3 15 4 24.5t33 31.5q6 5 10 8q135 107 229.5 192t140.5 134t70.5 91.5t27.5 58.5t3 40q0 57 -38.5 84.5t-86.5 27.5q-75 0 -144 -32q-3 -1 -21 -9.5t-33.5 -15t-18.5 -6.5q-23 0 -17 39l8 57q5 24 19 35t67 31q76 30 170 30q117 0 179.5 -59.5t62.5 -151.5 q0 -66 -40 -140t-148 -173q-53 -49 -143 -123t-140 -108h205q69 0 95.5 7t43.5 32q14 22 23.5 26t42.5 4q37 0 26 -35l-39 -137q-6 -24 -36 -24q-196 8 -279 8q-75 0 -128.5 -2t-78.5 -4t-31 -2q-28 0 -32 22z" />
<glyph unicode="&#xb3;" horiz-adv-x="757" d="M92 639q0 12 4 16l15 47q9 27 28 27q2 0 62 -24q56 -27 118 -27q80 0 144.5 39t64.5 108q0 76 -71.5 113t-175.5 37q-42 0 -52 3t-10 21q0 11 4 19l13 39q7 20 18.5 24t64.5 9q115 6 188 51t73 116q0 35 -29 65t-98 30q-78 0 -138 -29q-56 -23 -63 -23q-24 0 -16 39l6 52 q3 18 11 26.5t36 18.5q107 28 184 28q67 0 118.5 -16.5t79.5 -44.5t42 -59.5t14 -65.5q0 -79 -65.5 -146.5t-194.5 -93.5q67 -14 112 -41.5t64.5 -60.5t26 -58t6.5 -51q0 -79 -49 -139.5t-128 -90.5t-173 -30q-72 0 -153 19.5t-81 52.5z" />
<glyph unicode="&#xb4;" horiz-adv-x="1024" d="M541 1149q0 9 22 37l217 289q15 20 23 24t33 4h149q39 0 39 -20q0 -11 -29 -33l-377 -301q-27 -18 -34 -19q-8 0 -25.5 5.5t-17.5 13.5z" />
<glyph unicode="&#xb5;" d="M80 -303q0 52 24.5 149t24.5 170v1008h168v-692q0 -105 48.5 -167.5t143.5 -62.5q86 0 158.5 64t83.5 117v741h168v-786q0 -105 17.5 -138.5t60.5 -33.5q42 0 64 37.5t22 105.5h49q3 -103 -48 -168.5t-149 -65.5q-169 0 -180 193h-8q-51 -88 -119 -140.5t-172 -52.5 q-75 0 -133 35t-88 88h-4v-82q0 -73 32.5 -170t32.5 -149q0 -67 -27 -109.5t-75 -42.5q-44 0 -69 42.5t-25 109.5z" />
<glyph unicode="&#xb6;" horiz-adv-x="1517" d="M96 1094q0 161 109 252q64 57 142.5 77.5t191.5 20.5q7 0 57 -3t160.5 -6t265.5 -3q84 0 154 3t108.5 6t46.5 3q16 0 20.5 -7.5t4.5 -21.5v-41q0 -14 -10 -20.5t-41 -10.5q-46 -7 -62 -26t-18 -51q-4 -86 -4 -373v-817q0 -377 8 -404q6 -22 21.5 -30t70.5 -19 q25 -6 30 -14t5 -39q0 -27 -27 -27q-5 0 -49 3.5t-125.5 7.5t-177.5 4q-125 0 -205 -4t-112.5 -7.5t-41.5 -3.5q-17 0 -24.5 5.5t-8.5 13t-1 30.5q0 15 11.5 20t59.5 13q32 4 51.5 14t27.5 28.5t9.5 32.5t1.5 44l1 26v68.5t0.5 88.5t1 98t0.5 88l2 780q0 337 -5 383 q-4 38 -31.5 46.5t-115.5 8.5q-144 0 -215 -51q-102 -75 -102 -209q0 -123 89 -206t242 -83q44 0 55.5 -1.5t18.5 -10.5l16 -20q5 -5 5 -11q0 -24 -62.5 -33.5t-114.5 -9.5q-114 0 -211.5 46t-160 138.5t-62.5 213.5zM898 930.5q-1 -285.5 2 -672t3 -424.5v-48t1 -40 t3.5 -36t6 -27.5t10 -23.5t15 -15t20.5 -10.5t28 -2.5q32 0 54.5 17t25.5 41q6 42 6 428v1097q0 23 -0.5 35t-4.5 31.5t-12 29t-24 17.5t-39 8q-14 0 -28 -2t-34 -17t-24 -42q-8 -58 -9 -343.5z" />
<glyph unicode="&#xb7;" horiz-adv-x="606" d="M162 641q0 65 39 116.5t98 51.5q43 0 77 -34.5t34 -94.5q0 -67 -42 -116.5t-98 -49.5q-40 0 -74 31t-34 96z" />
<glyph unicode="&#xb8;" horiz-adv-x="1024" d="M211 -371q0 6 39 31q93 57 128.5 93.5t35.5 64.5q0 14 -19 53q-12 24 -12 33q0 16 10 26l23 27q7 10 16 10q18 0 92 -49q39 -25 54.5 -45t15.5 -47q0 -28 -19.5 -56t-49 -49.5t-46 -32t-28.5 -16.5q-29 -16 -100.5 -47t-88.5 -31q-10 0 -30.5 15t-20.5 20z" />
<glyph unicode="&#xb9;" horiz-adv-x="757" d="M201 1257q0 12 9 20t46 28q168 95 229 139q37 24 45 24q10 0 60 -22q24 -11 22 -23l-24 -123q-20 -116 -51 -343.5t-31 -254.5q0 -18 9 -23t55 -12q10 -2 16 -3q37 -5 37 -25q0 -57 -37 -57q-16 0 -69 2t-73 2q-18 0 -85 -2t-91 -2q-30 0 -30 22q0 38 14 48.5t53 15.5 q27 3 37 8.5t17 23t12 60.5l59 440l10 78q0 10 -8 10q-4 0 -90.5 -43t-97.5 -43q-12 0 -19 10l-18 29q-6 6 -6 16z" />
<glyph unicode="&#xba;" horiz-adv-x="606" d="M68 786q0 53 12.5 109.5t40.5 112.5t67 100t97.5 71t126.5 27q119 0 172 -76q39 -57 39 -137q0 -54 -11.5 -110t-38.5 -113.5t-66 -102t-99.5 -72.5t-133.5 -28q-93 0 -149 56q-57 53 -57 163zM205 807q0 -69 28.5 -111.5t67.5 -42.5q75 0 129.5 97t54.5 211 q0 77 -28 118t-76 41q-55 0 -97 -55t-60.5 -124.5t-18.5 -133.5z" />
<glyph unicode="&#xbb;" horiz-adv-x="1099" d="M12 127q0 8 27 39l278 334q29 34 29 53q0 20 -16 49l-178 350q-5 10 -9 17.5t-5 9.5t-1 4q0 14 33 14h47q23 0 30.5 -6t31.5 -39l272 -381q20 -28 20 -34q0 -7 -4 -12t-24 -25l-369 -355q-16 -14 -21 -18t-14 -9.5t-17 -6t-22 -0.5h-59q-29 0 -29 16zM467 127q0 8 27 39 l278 334q29 34 29 53t-15 49l-180 350q-14 29 -14 31q0 14 33 14h47q23 0 31 -6t32 -39l271 -381q20 -30 20 -34q0 -10 -29 -37l-368 -355q-16 -14 -21 -18t-14 -9.5t-17 -6t-22 -0.5h-59q-29 0 -29 16z" />
<glyph unicode="&#xbc;" horiz-adv-x="1708" d="M139 1257q0 12 9 19.5t47 28.5q168 95 229 139q37 24 45 24q9 0 59 -22q25 -11 23 -23l-25 -123q-20 -116 -51 -343.5t-31 -254.5q0 -18 9 -23t55 -12q10 -2 16 -3q37 -5 37 -25q0 -57 -37 -57q-16 0 -68.5 2t-72.5 2q-19 0 -85 -2t-91 -2q-31 0 -31 22q0 38 14 48.5 t54 15.5q37 5 47.5 18t17.5 74l60 440l10 78q0 10 -8 10q-4 0 -91 -43t-98 -43t-18 10l-19 29q-6 6 -6 16zM309 -14q0 2 113 184q410 672 702 1229q23 40 32 48.5t34 8.5h86q37 0 37 -14q0 -4 -9 -19t-22.5 -35.5t-15.5 -23.5q-176 -259 -349 -558t-387 -693q-4 -7 -28 -53 t-29 -54q-11 -15 -18.5 -20t-26.5 -6l-70 -7q-49 -4 -49 13zM881 362q-3 19 5 32.5t46 54.5q195 217 373 385q44 40 54 47.5t17 7.5q4 0 9 -2t6 -2l57 -29q18 -6 18 -20l-16 -76q-55 -305 -55 -361q0 -5 1 -6.5t8 -3.5t23 0l72 4h31q22 0 22 -20q0 -11 -4 -19l-16 -45 q-7 -23 -18 -29t-35 -6l-68 2q-12 0 -17 -0.5t-9.5 -4.5t-6.5 -13q-6 -22 -12 -83t-6 -75q0 -13 5.5 -16.5t31.5 -9.5q37 -8 45 -12.5t8 -18.5q0 -23 -7 -35.5t-13.5 -14t-16.5 -1.5q-8 0 -71 3t-76 3q-10 0 -63 -3t-58 -3q-27 0 -27 20q0 37 11.5 47t50.5 15q26 3 34 12 t13 37q20 125 20 135q0 12 -5.5 16.5t-20.5 4.5q-23 0 -143 -3.5t-140 -3.5t-29.5 6t-13.5 25zM999 387q11 0 74 -0.5t112.5 -0.5t61.5 1q15 1 18.5 8t8.5 37l47 305q-11 -13 -153 -164.5t-169 -185.5z" />
<glyph unicode="&#xbd;" horiz-adv-x="1708" d="M156 1257q0 12 9 20t46 28q168 95 229 139q37 24 45 24q11 0 60 -22q25 -11 22 -23l-24 -123q-20 -116 -51 -343.5t-31 -254.5q0 -18 9 -23t55 -12q10 -2 16 -3q37 -5 37 -25q0 -57 -37 -57q-16 0 -69 2t-73 2q-19 0 -85 -2t-91 -2q-30 0 -30 22q0 38 14 48.5t53 15.5 q27 3 37 8.5t17 23t12 60.5l59 440l10 78q0 10 -8 10q-4 0 -90.5 -43t-97.5 -43q-12 0 -19 10l-18 29q-6 6 -6 16zM326 -14q0 3 23.5 40.5t55.5 87.5t35 56q439 725 703 1229q21 40 30.5 48.5t34.5 8.5h86q35 0 35 -14q0 -6 -45 -78q-122 -179 -260.5 -410.5t-234 -401 t-242.5 -439.5q-43 -86 -55 -107q-11 -15 -19.5 -20t-28.5 -6l-67 -7q-51 -4 -51 13zM891 53q-3 15 4 24.5t33 31.5q2 1 3.5 2t3 3t3.5 3q135 107 229.5 192t140.5 134t70.5 91.5t27.5 58.5t3 40q0 57 -38.5 84.5t-86.5 27.5q-74 0 -143 -32q-3 -1 -21.5 -9.5t-34 -15 t-18.5 -6.5q-22 0 -16 39l8 57q5 24 19 35t67 31q76 30 170 30q117 0 179 -59t62 -151q0 -142 -188 -314q-53 -49 -143 -123t-140 -108h205q69 0 96 7t44 32q14 22 23.5 26t41.5 4q38 0 27 -34l-39 -138q-6 -24 -37 -24q-196 8 -279 8q-75 0 -128.5 -2t-78 -4t-30.5 -2 q-29 0 -33 22z" />
<glyph unicode="&#xbe;" horiz-adv-x="1708" d="M74 639q0 3 2 9t2 7l16 47q0 7 7.5 17t19.5 10q1 0 61 -24q56 -27 119 -27q80 0 144.5 39t64.5 108q0 76 -71.5 113t-176.5 37q-42 0 -51.5 3t-9.5 21q0 11 4 19l12 39q7 20 19 24t65 9q115 6 188.5 51t73.5 116q0 35 -30 65t-99 30q-77 0 -137 -29q-56 -23 -64 -23 q-24 0 -16 39l6 52q3 18 11 26.5t36 18.5q107 28 187 28q128 0 190 -55.5t62 -130.5q0 -79 -65.5 -146.5t-194.5 -93.5q54 -12 94.5 -33t61.5 -43.5t33.5 -49.5t15.5 -46t3 -39q0 -79 -49 -139.5t-128 -90.5t-173 -30q-70 0 -151.5 19.5t-81.5 52.5zM352 -14q0 7 45 75 q51 75 269 442.5t327 569.5l127 232q43 86 68 131q13 20 47 20h86q35 0 35 -14q0 -6 -37 -63.5t-84 -127t-55 -82.5q-121 -196 -276.5 -468.5t-251 -445.5t-99.5 -183q-16 -33 -27 -52t-21 -27t-16 -10t-18 -3l-68 -7q-23 -3 -37 -0.5t-14 13.5zM926 362q-4 18 3.5 31 t47.5 56q164 185 405 415q3 3 7.5 7t6.5 5.5t5 4t4.5 3.5t3.5 2.5t3.5 1.5t3 0.5t3.5 0.5q3 0 9 -2t8 -2l57 -29q16 -8 16 -20q0 -2 -4.5 -26t-9.5 -51t-6 -34q-49 -270 -49 -326q0 -5 1 -6.5t8.5 -3.5t23.5 0l71 4h29q22 0 22 -20q0 -3 -1 -10t-1 -9l-16 -45 q-8 -24 -19 -29.5t-34 -5.5l-68 2q-12 0 -17.5 -0.5t-10.5 -4.5t-7 -13q-4 -18 -10 -77.5t-6 -80.5q0 -13 5.5 -16.5t31.5 -9.5q18 -4 25.5 -5.5t15 -5t10 -7t2.5 -9.5q0 -25 -7 -38.5t-13.5 -15t-16.5 -1.5t-72.5 3t-74.5 3q-11 0 -64.5 -3t-58.5 -3q-27 0 -27 22 q0 36 12.5 45.5t51.5 14.5q27 3 34 12.5t13 46.5q20 114 20 125q0 21 -28 21q-23 0 -142 -3.5t-139 -3.5t-29.5 6t-13.5 25zM1042 387h230q29 0 35.5 7t11.5 38l45 305q-19 -21 -157 -170t-165 -180z" />
<glyph unicode="&#xbf;" horiz-adv-x="1024" d="M176 307q0 91 34.5 179t90 156.5t118 119.5t126.5 82l31 15.5t34.5 17t14.5 8.5q8 5 14 30l41 125q8 29 20 52q5 8 19 8h31q24 0 20 -35l-14 -250q-2 -39 -5.5 -48.5t-23.5 -18.5q-225 -95 -309 -168q-60 -51 -90.5 -115.5t-30.5 -122.5q0 -91 69.5 -154t196.5 -63 q35 0 113 10q16 4 26 4q21 0 21 -28l2 -68q0 -13 -1 -18.5t-7.5 -13t-20.5 -13.5q-70 -29 -184 -29q-64 0 -121.5 18.5t-107 57t-78.5 106t-29 156.5zM643 1300q0 67 42 115.5t97 48.5q43 0 77 -32t34 -95q0 -65 -39.5 -116.5t-99.5 -51.5q-40 0 -75.5 35t-35.5 96z" />
<glyph unicode="&#xc0;" horiz-adv-x="1290" d="M-80 12q0 25 5.5 39.5t11 19.5t18.5 11q69 38 160 225q17 35 237.5 452.5t263.5 504.5q60 128 77.5 155.5t45.5 34.5q96 25 119 25q15 0 22 -23.5t14 -73.5q0 -5 0.5 -8t1 -7.5t1.5 -8.5q61 -409 170 -965q3 -12 21.5 -109.5t23.5 -115.5q9 -40 29 -60t65 -30 q17 -3 20 -8.5t1 -20.5l-4 -35q-3 -22 -29 -22q-16 0 -99.5 4t-97.5 4q-18 0 -111.5 -4t-103.5 -4q-29 0 -26 31l4 28q3 17 13.5 22t72.5 23q74 19 74 80q0 13 -18.5 141.5t-18.5 131.5q-8 45 -20 58t-52 13h-360q-43 0 -56 -7.5t-33 -43.5q-42 -77 -95.5 -185.5 t-53.5 -133.5q0 -29 27 -42t88 -26q27 -5 34.5 -11.5t4.5 -29.5l-5 -29q-2 -20 -28 -20q-4 0 -84.5 4t-97.5 4t-104.5 -4t-102.5 -4q-25 0 -25 20zM424 1849q0 10 18 19l90 47q41 20 52 20q18 0 49 -22l342 -246q21 -17 22 -20q0 -6 -21.5 -21.5t-29.5 -15.5t-33 10 l-454 205q-35 12 -35 24zM455 659q0 -14 32 -14h314q29 0 35.5 8.5t1.5 38.5l-74 426l-12 82q-6 12 -11 12q-4 0 -16 -22q-2 -5 -4 -8t-4.5 -8.5t-5.5 -10.5l-246 -477q-10 -22 -10 -27z" />
<glyph unicode="&#xc1;" horiz-adv-x="1290" d="M-80 12q0 25 5.5 39.5t11 19.5t18.5 11q69 38 160 225q17 35 237.5 452.5t263.5 504.5q60 128 77.5 155.5t45.5 34.5q96 25 119 25q15 0 22 -23.5t14 -73.5q0 -5 0.5 -8t1 -7.5t1.5 -8.5q61 -409 170 -965q3 -12 21.5 -109.5t23.5 -115.5q9 -40 29 -60t65 -30 q17 -3 20 -8.5t1 -20.5l-4 -35q-3 -22 -29 -22q-16 0 -99.5 4t-97.5 4q-18 0 -111.5 -4t-103.5 -4q-29 0 -26 31l4 28q3 17 13.5 22t72.5 23q74 19 74 80q0 13 -18.5 141.5t-18.5 131.5q-8 45 -20 58t-52 13h-360q-43 0 -56 -7.5t-33 -43.5q-42 -77 -95.5 -185.5 t-53.5 -133.5q0 -29 27 -42t88 -26q27 -5 34.5 -11.5t4.5 -29.5l-5 -29q-2 -20 -28 -20q-4 0 -84.5 4t-97.5 4t-104.5 -4t-102.5 -4q-25 0 -25 20zM455 659q0 -14 32 -14h314q29 0 35.5 8.5t1.5 38.5l-74 426l-12 82q-6 12 -11 12q-4 0 -16 -22q-2 -5 -4 -8t-4.5 -8.5 t-5.5 -10.5l-246 -477q-10 -22 -10 -27zM678 1657q0 8 27 24l364 220q27 18 47 18q16 0 33 -10l106 -54q24 -11 27.5 -13.5t3.5 -8.5q0 -12 -13.5 -20.5t-25.5 -10.5l-481 -170l-31 -8q-6 0 -14 4l-33 19q-10 3 -10 10z" />
<glyph unicode="&#xc2;" horiz-adv-x="1290" d="M-80 12q0 25 5.5 39.5t11 19.5t18.5 11q69 38 160 225q17 35 237.5 452.5t263.5 504.5q60 128 77.5 155.5t45.5 34.5q96 25 119 25q15 0 22 -23.5t14 -73.5q0 -5 0.5 -8t1 -7.5t1.5 -8.5q61 -409 170 -965q3 -12 21.5 -109.5t23.5 -115.5q9 -40 29 -60t65 -30 q17 -3 20 -8.5t1 -20.5l-4 -35q-3 -22 -29 -22q-16 0 -99.5 4t-97.5 4q-18 0 -111.5 -4t-103.5 -4q-29 0 -26 31l4 28q3 17 13.5 22t72.5 23q74 19 74 80q0 13 -18.5 141.5t-18.5 131.5q-8 45 -20 58t-52 13h-360q-43 0 -56 -7.5t-33 -43.5q-42 -77 -95.5 -185.5 t-53.5 -133.5q0 -29 27 -42t88 -26q27 -5 34.5 -11.5t4.5 -29.5l-5 -29q-2 -20 -28 -20q-4 0 -84.5 4t-97.5 4t-104.5 -4t-102.5 -4q-25 0 -25 20zM453 1663q0 17 24 31l314 204q33 19 59 19h49q14 0 20 -1.5t14.5 -8.5t20.5 -23l154 -190q18 -23 18 -29q0 -10 -12 -16 l-24 -17q-9 -6 -17 -6q-7 0 -35 14l-135 89q-34 24 -47 24q-4 0 -43 -14l-276 -103q-25 -8 -31 -8q-9 0 -31 13.5t-22 21.5zM455 659q0 -14 32 -14h314q29 0 35.5 8.5t1.5 38.5l-74 426l-12 82q-6 12 -11 12q-4 0 -16 -22q-2 -5 -4 -8t-4.5 -8.5t-5.5 -10.5l-246 -477 q-10 -22 -10 -27z" />
<glyph unicode="&#xc3;" horiz-adv-x="1290" d="M-80 12q0 25 5.5 39.5t11 19.5t18.5 11q69 38 160 225q17 35 237.5 452.5t263.5 504.5q60 128 77.5 155.5t45.5 34.5q96 25 119 25q15 0 22 -23.5t14 -73.5q0 -5 0.5 -8t1 -7.5t1.5 -8.5q61 -409 170 -965q3 -12 21.5 -109.5t23.5 -115.5q9 -40 29 -60t65 -30 q17 -3 20 -8.5t1 -20.5l-4 -35q-3 -22 -29 -22q-16 0 -99.5 4t-97.5 4q-18 0 -111.5 -4t-103.5 -4q-29 0 -26 31l4 28q3 17 13.5 22t72.5 23q74 19 74 80q0 13 -18.5 141.5t-18.5 131.5q-8 45 -20 58t-52 13h-360q-43 0 -56 -7.5t-33 -43.5q-42 -77 -95.5 -185.5 t-53.5 -133.5q0 -29 27 -42t88 -26q27 -5 34.5 -11.5t4.5 -29.5l-5 -29q-2 -20 -28 -20q-4 0 -84.5 4t-97.5 4t-104.5 -4t-102.5 -4q-25 0 -25 20zM365 1700q0 5 20 26t55 49t76 55t91 45.5t93 18.5q60 0 142 -49q101 -63 147 -63q12 0 24.5 2.5t26.5 7.5t24 9.5t24.5 12.5 t20.5 11.5t19.5 12.5t14.5 9q52 39 63 39q10 0 13 -6q12 -9 15 -12.5t3 -9.5q0 -13 -47.5 -63t-119.5 -98t-124 -48q-58 0 -170 65q-90 55 -133 55q-68 0 -217 -92q-18 -10 -27 -10q-12 0 -23 14t-11 19zM455 659q0 -14 32 -14h314q29 0 35.5 8.5t1.5 38.5l-74 426l-12 82 q-6 12 -11 12q-4 0 -16 -22q-2 -5 -4 -8t-4.5 -8.5t-5.5 -10.5l-246 -477q-10 -22 -10 -27z" />
<glyph unicode="&#xc4;" horiz-adv-x="1290" d="M-80 12q0 25 5.5 39.5t11 19.5t18.5 11q69 38 160 225q17 35 237.5 452.5t263.5 504.5q60 128 77.5 155.5t45.5 34.5q96 25 119 25q15 0 22 -23.5t14 -73.5q0 -5 0.5 -8t1 -7.5t1.5 -8.5q61 -409 170 -965q3 -12 21.5 -109.5t23.5 -115.5q9 -40 29 -60t65 -30 q17 -3 20 -8.5t1 -20.5l-4 -35q-3 -22 -29 -22q-16 0 -99.5 4t-97.5 4q-18 0 -111.5 -4t-103.5 -4q-29 0 -26 31l4 28q3 17 13.5 22t72.5 23q74 19 74 80q0 13 -18.5 141.5t-18.5 131.5q-8 45 -20 58t-52 13h-360q-43 0 -56 -7.5t-33 -43.5q-42 -77 -95.5 -185.5 t-53.5 -133.5q0 -29 27 -42t88 -26q27 -5 34.5 -11.5t4.5 -29.5l-5 -29q-2 -20 -28 -20q-4 0 -84.5 4t-97.5 4t-104.5 -4t-102.5 -4q-25 0 -25 20zM455 659q0 -14 32 -14h314q29 0 35.5 8.5t1.5 38.5l-74 426l-12 82q-6 12 -11 12q-4 0 -16 -22q-2 -5 -4 -8t-4.5 -8.5 t-5.5 -10.5l-246 -477q-10 -22 -10 -27zM514 1751q0 54 31.5 104t85.5 50q29 0 50 -10.5t30 -27.5t12.5 -31.5t3.5 -29.5q0 -63 -33.5 -115.5t-85.5 -52.5q-38 0 -66 30t-28 83zM926 1751q0 53 30.5 103.5t85.5 50.5q53 0 74 -30t21 -71q0 -63 -33 -114.5t-84 -51.5 q-38 0 -66 30t-28 83z" />
<glyph unicode="&#xc5;" horiz-adv-x="1290" d="M-80 12q0 25 5.5 39.5t11 19.5t18.5 11q69 38 160 225q17 35 237.5 452.5t263.5 504.5q60 128 77.5 155.5t45.5 34.5q96 25 119 25q15 0 22 -23.5t14 -73.5q0 -5 0.5 -8t1 -7.5t1.5 -8.5q61 -409 170 -965q3 -12 21.5 -109.5t23.5 -115.5q9 -40 29 -60t65 -30 q17 -3 20 -8.5t1 -20.5l-4 -35q-3 -22 -29 -22q-16 0 -99.5 4t-97.5 4q-18 0 -111.5 -4t-103.5 -4q-29 0 -26 31l4 28q3 17 13.5 22t72.5 23q74 19 74 80q0 13 -18.5 141.5t-18.5 131.5q-8 45 -20 58t-52 13h-360q-43 0 -56 -7.5t-33 -43.5q-42 -77 -95.5 -185.5 t-53.5 -133.5q0 -29 27 -42t88 -26q27 -5 34.5 -11.5t4.5 -29.5l-5 -29q-2 -20 -28 -20q-4 0 -84.5 4t-97.5 4t-104.5 -4t-102.5 -4q-25 0 -25 20zM455 659q0 -14 32 -14h314q29 0 35.5 8.5t1.5 38.5l-74 426l-12 82q-6 12 -11 12q-4 0 -16 -22q-2 -5 -4 -8t-4.5 -8.5 t-5.5 -10.5l-246 -477q-10 -22 -10 -27zM573 1784q0 90 80 151.5t203 61.5q63 0 111.5 -17.5t76 -44.5t41 -56.5t13.5 -57.5q0 -34 -14.5 -69t-44.5 -69.5t-87.5 -56.5t-132.5 -22q-121 0 -183.5 53t-62.5 127zM709 1788q0 -43 29.5 -76t80.5 -33q65 0 104.5 42.5t39.5 93.5 q0 38 -29 72t-86 34q-61 0 -100 -40.5t-39 -92.5z" />
<glyph unicode="&#xc6;" horiz-adv-x="1630" d="M-147 12q0 50 24 66q31 23 44.5 37.5t37.5 52.5q11 20 195 338t300.5 525t125.5 237q2 6 2 18q0 19 -19 33t-35 18t-30 6q-35 6 -42.5 12t-4.5 27l4 35q2 14 11 19.5t30 5.5q15 0 90.5 -3t87.5 -3q133 -4 336 -4q281 0 465 4q8 0 49.5 3t48.5 3q18 0 23.5 -5t5.5 -14 q0 -3 -2.5 -14t-2.5 -14l-36 -199q-3 -22 -9 -27.5t-26 -5.5h-33q-14 0 -19.5 11t-11.5 51q-2 18 -5 28.5t-11.5 25t-28 21.5t-49.5 7h-244q-42 0 -54 -12t-19 -66l-54 -350q-6 -18 -6 -52q0 -28 27 -33.5t135 -5.5q26 0 166.5 4.5t163.5 4.5q25 0 29.5 -13.5t-1.5 -35.5 l-4 -39q-5 -36 -12 -47t-33 -11l-78 2q-66 2 -243 2h-133q-19 -2 -30 -11.5t-13.5 -19t-3.5 -24.5l-39 -313q-4 -31 -4 -62q0 -102 102 -102h262q55 0 90.5 13.5t61.5 53.5q32 49 41 54q6 4 18 4h37q21 0 25 -8t-3 -31l-39 -176q-5 -24 -13 -32.5t-32 -8.5q-16 0 -95.5 3 t-92.5 3q-106 2 -440 2q-100 0 -168 -4l-97 -4q-12 0 -15.5 6t-2.5 25l6 34q1 9 3.5 13.5t15 9.5t36.5 8q69 10 87 31t26 84q39 268 39 291q0 21 -12.5 25.5t-57.5 4.5h-315q-22 0 -30 -1t-20.5 -8t-22 -21.5t-25.5 -42.5q-90 -156 -116 -209t-26 -88q0 -26 23 -38.5 t84 -27.5q30 -6 37.5 -10t7.5 -15q0 -19 -8 -59q-3 -12 -25 -12q-9 0 -88 4t-96 4t-105 -4t-102 -4q-20 0 -20 20zM406 664q0 -19 36 -19h297q43 0 54 14q1 2 5 32t5 32l63 504q4 36 4 47q0 24 -11 30.5t-42 6.5q-37 0 -55 -23q-13 -14 -82 -134.5t-144.5 -255t-91.5 -159.5 q-4 -8 -15 -27.5t-17 -31.5t-6 -16z" />
<glyph unicode="&#xc7;" horiz-adv-x="1441" d="M113 643q0 118 33.5 233.5t105.5 222t174 187.5t250.5 129.5t322.5 48.5q129 0 250 -26.5t174 -48.5q28 -11 39 -20.5t11 -22.5q0 -3 -3.5 -17t-3.5 -16l-32 -154q-6 -29 -27 -29h-43q-15 0 -21.5 9t-15.5 41q-7 19 -13 31t-23 32t-50.5 38t-81.5 32q-96 26 -190 26 q-125 0 -233.5 -40t-185.5 -107.5t-132 -156t-82 -186t-27 -196.5q0 -156 62 -282.5t182.5 -201.5t280.5 -75q37 0 78.5 5t98 19t111 46t92.5 78q22 27 31 33t27 6h41q27 0 22 -37l-16 -123q-2 -18 -21.5 -34.5t-38.5 -25t-53 -22.5q-183 -70 -383 -70q-169 0 -275 39 t-186 101q-123 96 -186 233.5t-63 300.5zM543 -395q0 6 65 47q95 62 124 98q24 29 24 53q0 21 -21 56q-12 20 -12 32q0 14 10 29l23 29q10 10 18 10q21 0 98 -51q42 -27 58 -47.5t16 -48.5q0 -29 -18 -57t-47 -50.5t-48 -34.5t-38 -22q-39 -20 -111.5 -51t-87.5 -31 q-9 0 -31 16.5t-22 22.5z" />
<glyph unicode="&#xc8;" horiz-adv-x="1099" d="M25 23l6 34q1 16 11 21t46 10q62 9 82.5 27.5t26.5 66.5q33 221 85 634t52 464q0 33 -18 44t-80 22q-20 3 -26 10t-3 26l4 39q5 21 35 21q4 0 33.5 -2t112 -4t216.5 -2q46 0 227.5 4t215.5 4q15 0 18 -7.5t0 -19.5l-39 -219q0 -2 -1 -6l-1.5 -6t-2 -5.5t-2 -5t-2.5 -4 t-3.5 -3.5t-4 -2t-5.5 -1h-47q-14 0 -20 9t-7 32q-2 31 -9 50t-15.5 30t-29.5 16t-38.5 6t-55.5 1h-200q-38 0 -49 -12t-17 -50l-57 -385q-4 -16 -4 -35q0 -27 22.5 -32t122.5 -5q28 0 177 4.5t173 4.5q16 0 23 -7t4 -30l-8 -74q-3 -19 -12 -27t-33 -8q-23 0 -144 3t-141 3 l-170 -2q-18 -3 -28 -12t-11.5 -14.5t-3.5 -16.5l-41 -327q-4 -32 -4 -56q0 -53 27 -79.5t86 -26.5h231q65 0 105.5 14t68.5 56q7 8 16 21t13.5 19t12 11t16.5 4h40q28 0 23 -29l-43 -196q-7 -31 -41 -31q-12 0 -73 2t-183 4t-285 2q-143 0 -244 -4t-102 -4q-19 0 -24.5 8 t-3.5 23zM330 1849q0 10 18 19l90 47q41 20 51 20q19 0 50 -22l342 -246q21 -17 22 -20q0 -6 -21.5 -21.5t-29.5 -15.5t-33 10l-454 205q-35 12 -35 24z" />
<glyph unicode="&#xc9;" horiz-adv-x="1099" d="M25 23l6 34q1 16 11 21t46 10q62 9 82.5 27.5t26.5 66.5q33 221 85 634t52 464q0 33 -18 44t-80 22q-20 3 -26 10t-3 26l4 39q5 21 35 21q4 0 33.5 -2t112 -4t216.5 -2q46 0 227.5 4t215.5 4q15 0 18 -7.5t0 -19.5l-39 -219q0 -2 -1 -6l-1.5 -6t-2 -5.5t-2 -5t-2.5 -4 t-3.5 -3.5t-4 -2t-5.5 -1h-47q-14 0 -20 9t-7 32q-2 31 -9 50t-15.5 30t-29.5 16t-38.5 6t-55.5 1h-200q-38 0 -49 -12t-17 -50l-57 -385q-4 -16 -4 -35q0 -27 22.5 -32t122.5 -5q28 0 177 4.5t173 4.5q16 0 23 -7t4 -30l-8 -74q-3 -19 -12 -27t-33 -8q-23 0 -144 3t-141 3 l-170 -2q-18 -3 -28 -12t-11.5 -14.5t-3.5 -16.5l-41 -327q-4 -32 -4 -56q0 -53 27 -79.5t86 -26.5h231q65 0 105.5 14t68.5 56q7 8 16 21t13.5 19t12 11t16.5 4h40q28 0 23 -29l-43 -196q-7 -31 -41 -31q-12 0 -73 2t-183 4t-285 2q-143 0 -244 -4t-102 -4q-19 0 -24.5 8 t-3.5 23zM584 1657q0 8 26 24l365 220q27 18 47 18q16 0 33 -10l106 -54q24 -11 27.5 -13.5t3.5 -8.5q0 -12 -13.5 -20.5t-25.5 -10.5l-481 -170l-31 -8q-6 0 -14 4l-33 19q-10 3 -10 10z" />
<glyph unicode="&#xca;" horiz-adv-x="1099" d="M25 23l6 34q1 16 11 21t46 10q62 9 82.5 27.5t26.5 66.5q33 221 85 634t52 464q0 33 -18 44t-80 22q-20 3 -26 10t-3 26l4 39q5 21 35 21q4 0 33.5 -2t112 -4t216.5 -2q46 0 227.5 4t215.5 4q15 0 18 -7.5t0 -19.5l-39 -219q0 -2 -1 -6l-1.5 -6t-2 -5.5t-2 -5t-2.5 -4 t-3.5 -3.5t-4 -2t-5.5 -1h-47q-14 0 -20 9t-7 32q-2 31 -9 50t-15.5 30t-29.5 16t-38.5 6t-55.5 1h-200q-38 0 -49 -12t-17 -50l-57 -385q-4 -16 -4 -35q0 -27 22.5 -32t122.5 -5q28 0 177 4.5t173 4.5q16 0 23 -7t4 -30l-8 -74q-3 -19 -12 -27t-33 -8q-23 0 -144 3t-141 3 l-170 -2q-18 -3 -28 -12t-11.5 -14.5t-3.5 -16.5l-41 -327q-4 -32 -4 -56q0 -53 27 -79.5t86 -26.5h231q65 0 105.5 14t68.5 56q7 8 16 21t13.5 19t12 11t16.5 4h40q28 0 23 -29l-43 -196q-7 -31 -41 -31q-12 0 -73 2t-183 4t-285 2q-143 0 -244 -4t-102 -4q-19 0 -24.5 8 t-3.5 23zM358 1663q0 16 25 31l313 204q33 19 60 19h49q14 0 20 -1.5t14.5 -8.5t20.5 -23l154 -190q18 -23 18 -29q0 -10 -12 -16l-25 -17q-9 -6 -16 -6t-35 14l-135 89q-34 24 -47 24q-5 0 -43 -14l-277 -103q-25 -8 -30 -8q-9 0 -31.5 13.5t-22.5 21.5z" />
<glyph unicode="&#xcb;" horiz-adv-x="1099" d="M25 23l6 34q1 16 11 21t46 10q62 9 82.5 27.5t26.5 66.5q33 221 85 634t52 464q0 33 -18 44t-80 22q-20 3 -26 10t-3 26l4 39q5 21 35 21q4 0 33.5 -2t112 -4t216.5 -2q46 0 227.5 4t215.5 4q15 0 18 -7.5t0 -19.5l-39 -219q0 -2 -1 -6l-1.5 -6t-2 -5.5t-2 -5t-2.5 -4 t-3.5 -3.5t-4 -2t-5.5 -1h-47q-14 0 -20 9t-7 32q-2 31 -9 50t-15.5 30t-29.5 16t-38.5 6t-55.5 1h-200q-38 0 -49 -12t-17 -50l-57 -385q-4 -16 -4 -35q0 -27 22.5 -32t122.5 -5q28 0 177 4.5t173 4.5q16 0 23 -7t4 -30l-8 -74q-3 -19 -12 -27t-33 -8q-23 0 -144 3t-141 3 l-170 -2q-18 -3 -28 -12t-11.5 -14.5t-3.5 -16.5l-41 -327q-4 -32 -4 -56q0 -53 27 -79.5t86 -26.5h231q65 0 105.5 14t68.5 56q7 8 16 21t13.5 19t12 11t16.5 4h40q28 0 23 -29l-43 -196q-7 -31 -41 -31q-12 0 -73 2t-183 4t-285 2q-143 0 -244 -4t-102 -4q-19 0 -24.5 8 t-3.5 23zM399 1751q0 54 31.5 104t85.5 50q29 0 50 -10.5t30 -27.5t12.5 -31.5t3.5 -29.5q0 -63 -33 -115.5t-85 -52.5q-38 0 -66.5 30.5t-28.5 82.5zM811 1751q0 53 31 103.5t86 50.5q52 0 73 -30t21 -71q0 -63 -33 -114.5t-84 -51.5q-38 0 -66 30t-28 83z" />
<glyph unicode="&#xcc;" horiz-adv-x="681" d="M25 23l4 34q3 16 13 21t44 10q64 9 84.5 27.5t26.5 66.5q33 221 85 634t52 464q0 33 -18.5 44t-82.5 22q-19 3 -24 10t-2 26l4 39q3 21 33 21l66 -4q66 -4 141 -4q47 0 118 4t86 4q16 0 20.5 -8t2.5 -23l-4 -43q-3 -17 -13.5 -21t-58.5 -10q-55 -7 -67 -28.5t-27 -130.5 q-67 -465 -119 -902q-10 -102 -10 -122q0 -37 18 -49t95 -27q17 -3 21.5 -11t2.5 -24l-4 -33q-2 -18 -27 -18q-12 0 -110.5 4t-118.5 4q-72 0 -135 -4t-68 -4q-31 0 -28 31zM121 1849q0 10 18 19l90 47q41 20 52 20q18 0 49 -22l342 -246q21 -17 22 -20q0 -6 -21.5 -21.5 t-29.5 -15.5t-33 10l-454 205q-35 12 -35 24z" />
<glyph unicode="&#xcd;" horiz-adv-x="681" d="M25 23l4 34q3 16 13 21t44 10q64 9 84.5 27.5t26.5 66.5q33 221 85 634t52 464q0 33 -18.5 44t-82.5 22q-19 3 -24 10t-2 26l4 39q3 21 33 21l66 -4q66 -4 141 -4q47 0 118 4t86 4q16 0 20.5 -8t2.5 -23l-4 -43q-3 -17 -13.5 -21t-58.5 -10q-55 -7 -67 -28.5t-27 -130.5 q-67 -465 -119 -902q-10 -102 -10 -122q0 -37 18 -49t95 -27q17 -3 21.5 -11t2.5 -24l-4 -33q-2 -18 -27 -18q-12 0 -110.5 4t-118.5 4q-72 0 -135 -4t-68 -4q-31 0 -28 31zM375 1657q0 8 26 24l365 220q27 18 47 18q16 0 33 -10l106 -54q24 -11 27.5 -13.5t3.5 -8.5 q0 -12 -13.5 -20.5t-25.5 -10.5l-481 -170l-31 -8q-6 0 -14 4l-33 19q-10 3 -10 10z" />
<glyph unicode="&#xce;" horiz-adv-x="681" d="M25 23l4 34q3 16 13 21t44 10q64 9 84.5 27.5t26.5 66.5q33 221 85 634t52 464q0 33 -18.5 44t-82.5 22q-19 3 -24 10t-2 26l4 39q3 21 33 21l66 -4q66 -4 141 -4q47 0 118 4t86 4q16 0 20.5 -8t2.5 -23l-4 -43q-3 -17 -13.5 -21t-58.5 -10q-55 -7 -67 -28.5t-27 -130.5 q-67 -465 -119 -902q-10 -102 -10 -122q0 -37 18 -49t95 -27q17 -3 21.5 -11t2.5 -24l-4 -33q-2 -18 -27 -18q-12 0 -110.5 4t-118.5 4q-72 0 -135 -4t-68 -4q-31 0 -28 31zM150 1663q0 17 24 31l313 204q33 19 60 19h49q14 0 20 -1.5t14.5 -8.5t20.5 -23l154 -190 q18 -23 18 -29q0 -10 -12 -16l-25 -17q-9 -6 -16 -6t-35 14l-135 89q-34 24 -47 24q-5 0 -43 -14l-277 -103q-25 -8 -30 -8q-9 0 -31 13.5t-22 21.5z" />
<glyph unicode="&#xcf;" horiz-adv-x="681" d="M25 23l4 34q3 16 13 21t44 10q64 9 84.5 27.5t26.5 66.5q33 221 85 634t52 464q0 33 -18.5 44t-82.5 22q-19 3 -24 10t-2 26l4 39q3 21 33 21l66 -4q66 -4 141 -4q47 0 118 4t86 4q16 0 20.5 -8t2.5 -23l-4 -43q-3 -17 -13.5 -21t-58.5 -10q-55 -7 -67 -28.5t-27 -130.5 q-67 -465 -119 -902q-10 -102 -10 -122q0 -37 18 -49t95 -27q17 -3 21.5 -11t2.5 -24l-4 -33q-2 -18 -27 -18q-12 0 -110.5 4t-118.5 4q-72 0 -135 -4t-68 -4q-31 0 -28 31zM190 1751q0 54 31.5 104t85.5 50q29 0 50 -10.5t30 -27.5t12.5 -31.5t3.5 -29.5q0 -63 -33 -115.5 t-85 -52.5q-38 0 -66.5 30.5t-28.5 82.5zM602 1751q0 53 31 103.5t86 50.5q52 0 73 -30t21 -71q0 -63 -33 -114.5t-84 -51.5q-38 0 -66 30t-28 83z" />
<glyph unicode="&#xd0;" horiz-adv-x="1630" d="M45 20l4 35q2 13 13.5 21t41.5 14q61 11 76.5 36.5t28.5 111.5q61 404 61 424q0 10 -4 12t-22 2h-78h-25t-14 2t-8.5 5t-1.5 9q0 7 6 19l20 53q7 17 19.5 22t34.5 5h79q18 2 21 61q1 10 15 116.5t26 205t12 108.5q0 33 -18.5 44t-83.5 24q-16 3 -23.5 5t-14.5 11t-5 23 l4 36q2 17 29 17q8 0 35.5 -2t78.5 -4t117 -2q40 0 236.5 4t238.5 4q164 0 265.5 -38.5t172.5 -103.5q181 -168 181 -473q0 -199 -68.5 -362t-194.5 -275q-62 -56 -132.5 -96t-124.5 -59t-118.5 -29.5t-94.5 -12t-72 -1.5q-36 0 -218.5 4t-211.5 4q-75 0 -133.5 -2t-89.5 -4 t-39 -2q-27 0 -21 28zM399 262q0 -85 65 -115t234 -30q67 0 118.5 5t117 20.5t126 51.5t114.5 91q89 94 142.5 244t53.5 286q0 113 -43.5 230.5t-144.5 191.5q-61 43 -142.5 61.5t-220.5 18.5q-168 0 -207 -4q-33 -5 -50.5 -13.5t-24.5 -27.5q-10 -29 -40 -234.5t-30 -226.5 q0 -14 6 -17t27 -3h288q17 0 17 -13q0 -10 -6 -22l-21 -56q-7 -20 -24.5 -23t-106.5 -1h-170q-23 0 -28.5 -8.5t-8.5 -44.5q-1 -13 -21 -170.5t-20 -190.5z" />
<glyph unicode="&#xd1;" horiz-adv-x="1705" d="M39 25l4 32q3 17 14 22.5t58 14.5q30 6 43.5 16.5t25 44t23.5 107.5q22 134 80.5 558.5t58.5 451.5q0 36 -24 49.5t-97 28.5q-16 3 -19 10.5t-1 25.5l4 35q3 21 29 21q19 0 81 -4t78 -4q12 0 58 4t61 4q13 0 21 -8.5t34 -49.5q30 -47 105.5 -158.5t95.5 -142.5 q87 -133 215.5 -322.5t218 -318.5t92.5 -131q2 -2 7 -2t8 18.5t15 115.5q3 20 4.5 31.5t4 31.5t4.5 39q4 34 29 212.5t44.5 330.5t19.5 184q0 34 -15.5 43.5t-91.5 27.5q-29 6 -36 13t-5 28l6 37q4 21 23 21t99 -4t106 -4q32 0 97 4t89 4q32 0 27 -35l-4 -37 q-1 -14 -11.5 -19t-56.5 -16t-57 -34t-31 -152q-41 -257 -95.5 -648.5t-60.5 -475.5q-2 -35 -16 -43q-34 -29 -43 -29t-21 12q-69 96 -417.5 598t-384.5 559q-39 62 -48 62q-3 0 -6 -10t-9 -50.5t-15 -108t-25 -196.5q-32 -257 -74 -543q-8 -57 -8 -104q0 -42 20 -55.5 t93 -32.5q18 -4 22.5 -10.5t1.5 -24.5l-4 -33q-3 -24 -32 -24q-26 0 -103.5 4t-107.5 4q-40 0 -101 -4t-76 -4q-14 0 -19.5 7t-4.5 26zM614 1700q0 5 20 26t55 49t76.5 55t91.5 45.5t93 18.5q60 0 142 -49q101 -63 147 -63q12 0 24.5 2.5t26.5 7.5t24 9.5t24.5 12.5 t20.5 11.5t19.5 12.5t14.5 9q52 39 63 39q9 0 12 -6q19 -14 19 -22q0 -13 -47.5 -63t-119.5 -98t-124 -48q-58 0 -170 65q-90 55 -133 55q-68 0 -217 -92q-18 -10 -27 -10q-12 0 -23.5 14t-11.5 19z" />
<glyph unicode="&#xd2;" horiz-adv-x="1669" d="M115 645q0 90 23.5 184t68 185.5t114.5 172.5t157 143t202.5 98t243.5 36q160 0 289.5 -54.5t211.5 -148t126 -212.5t44 -252q0 -161 -61.5 -311.5t-167.5 -264.5t-258.5 -183t-323.5 -69q-151 0 -278.5 55t-212 148t-131.5 215.5t-47 257.5zM311 672q0 -114 33.5 -217.5 t94.5 -184t154.5 -128.5t205.5 -48q169 0 307.5 94.5t215.5 250t77 335.5q0 81 -18.5 160.5t-58.5 153t-97 129t-139 89t-179 33.5q-167 0 -304 -89.5t-214.5 -242.5t-77.5 -335zM614 1849q0 9 19 19l90 47q41 20 51 20q18 0 49 -22l342 -246q5 -4 12 -8q11 -7 11 -12 q0 -6 -21.5 -21.5t-29.5 -15.5t-33 10l-455 205q-35 12 -35 24z" />
<glyph unicode="&#xd3;" horiz-adv-x="1669" d="M115 645q0 90 23.5 184t68 185.5t114.5 172.5t157 143t202.5 98t243.5 36q160 0 289.5 -54.5t211.5 -148t126 -212.5t44 -252q0 -161 -61.5 -311.5t-167.5 -264.5t-258.5 -183t-323.5 -69q-151 0 -278.5 55t-212 148t-131.5 215.5t-47 257.5zM311 672q0 -114 33.5 -217.5 t94.5 -184t154.5 -128.5t205.5 -48q169 0 307.5 94.5t215.5 250t77 335.5q0 81 -18.5 160.5t-58.5 153t-97 129t-139 89t-179 33.5q-167 0 -304 -89.5t-214.5 -242.5t-77.5 -335zM868 1657q0 8 27 24l365 220q27 18 47 18q15 0 32 -10l107 -54q24 -11 27.5 -13.5t3.5 -8.5 q0 -12 -13.5 -20.5t-25.5 -10.5l-482 -170l-30 -8q-7 0 -15 4l-32 19q-11 4 -11 10z" />
<glyph unicode="&#xd4;" horiz-adv-x="1669" d="M115 645q0 90 23.5 184t68 185.5t114.5 172.5t157 143t202.5 98t243.5 36q160 0 289.5 -54.5t211.5 -148t126 -212.5t44 -252q0 -161 -61.5 -311.5t-167.5 -264.5t-258.5 -183t-323.5 -69q-151 0 -278.5 55t-212 148t-131.5 215.5t-47 257.5zM311 672q0 -114 33.5 -217.5 t94.5 -184t154.5 -128.5t205.5 -48q169 0 307.5 94.5t215.5 250t77 335.5q0 81 -18.5 160.5t-58.5 153t-97 129t-139 89t-179 33.5q-167 0 -304 -89.5t-214.5 -242.5t-77.5 -335zM643 1663q0 16 25 31l313 204q33 19 59 19h50q14 0 20 -1.5t14.5 -8.5t20.5 -23l153 -190 q19 -24 19 -29q0 -10 -12 -16l-25 -17q-9 -6 -16 -6t-35 14l-135 89q-34 24 -47 24q-5 0 -43 -14l-277 -103q-25 -8 -31 -8q-9 0 -31 13.5t-22 21.5z" />
<glyph unicode="&#xd5;" horiz-adv-x="1669" d="M115 645q0 90 23.5 184t68 185.5t114.5 172.5t157 143t202.5 98t243.5 36q160 0 289.5 -54.5t211.5 -148t126 -212.5t44 -252q0 -161 -61.5 -311.5t-167.5 -264.5t-258.5 -183t-323.5 -69q-151 0 -278.5 55t-212 148t-131.5 215.5t-47 257.5zM311 672q0 -114 33.5 -217.5 t94.5 -184t154.5 -128.5t205.5 -48q169 0 307.5 94.5t215.5 250t77 335.5q0 81 -18.5 160.5t-58.5 153t-97 129t-139 89t-179 33.5q-167 0 -304 -89.5t-214.5 -242.5t-77.5 -335zM555 1700q0 5 20 26t55 49t76.5 55t91.5 45.5t93 18.5q59 0 141 -49q101 -63 148 -63 q12 0 24.5 2.5t26 7.5t24 9.5t24.5 12.5l21 12t19 12t14 9q52 39 64 39q9 0 12 -6q12 -9 15 -12.5t3 -9.5q0 -13 -47 -63t-119 -98t-124 -48q-58 0 -170 65q-90 55 -133 55q-69 0 -218 -92q-18 -10 -26 -10q-12 0 -23.5 14t-11.5 19z" />
<glyph unicode="&#xd6;" horiz-adv-x="1669" d="M115 645q0 90 23.5 184t68 185.5t114.5 172.5t157 143t202.5 98t243.5 36q160 0 289.5 -54.5t211.5 -148t126 -212.5t44 -252q0 -161 -61.5 -311.5t-167.5 -264.5t-258.5 -183t-323.5 -69q-151 0 -278.5 55t-212 148t-131.5 215.5t-47 257.5zM311 672q0 -114 33.5 -217.5 t94.5 -184t154.5 -128.5t205.5 -48q169 0 307.5 94.5t215.5 250t77 335.5q0 81 -18.5 160.5t-58.5 153t-97 129t-139 89t-179 33.5q-167 0 -304 -89.5t-214.5 -242.5t-77.5 -335zM684 1751q0 54 31.5 104t85.5 50q29 0 50 -10.5t30 -27.5t12.5 -31.5t3.5 -29.5 q0 -63 -33.5 -115.5t-85.5 -52.5q-38 0 -66 30t-28 83zM1096 1751q0 53 30.5 103.5t85.5 50.5q53 0 74 -30t21 -71q0 -63 -33 -114.5t-84 -51.5q-38 0 -66 30t-28 83z" />
<glyph unicode="&#xd7;" d="M176 993q0 6 17 23l53 53q13 16 20 16t19 -12l301 -309q12 -8 14 -8q10 0 14 8l304 309q10 12 16 12t22 -16l54 -53q1 -2 5 -6.5t6.5 -8t2.5 -6.5q0 -6 -12 -18l-307 -301q-11 -11 -11 -14q0 -7 8 -15l310 -303q12 -10 12 -16q0 -7 -16 -23l-52 -51q-16 -16 -20 -16 q-9 0 -21 12l-301 307q-10 10 -14 10t-14 -10l-301 -307q-12 -12 -17 -12q-11 0 -22 16l-53 51q-15 15 -15 21q0 10 10 18l310 303q8 8 8 15q0 6 -8 14l-310 301q-12 12 -12 16z" />
<glyph unicode="&#xd8;" horiz-adv-x="1669" d="M109 639q0 118 35 236.5t105 224t165.5 187t226.5 129.5t279 48q178 0 292 -57q8 -3 24.5 -11t27 -13t14.5 -5q16 0 39 31l72 90q16 21 28 21q11 0 25 -11l31 -24q14 -12 14 -19q0 -5 -21 -32l-75 -99q-13 -13 -13 -24q0 -8 6.5 -16t38.5 -38q68 -68 119 -191t51 -271 q0 -123 -37.5 -244t-110 -225t-169.5 -184.5t-225.5 -126.5t-268.5 -46q-72 0 -146.5 14t-121.5 35q-79 35 -82 35q-17 0 -41 -30l-74 -95q-19 -24 -30 -24t-23 10l-33 27q-12 9 -12 20q0 9 14 25l80 102q19 19 19 31q0 5 -16 23.5t-35.5 39t-22.5 25.5q-72 99 -110.5 198.5 t-38.5 233.5zM293 666q0 -70 12.5 -138.5t31 -118.5t40 -89t39.5 -58.5t28 -19.5q5 0 29 24l684 942q21 28 21 45q0 30 -82.5 62.5t-177.5 32.5q-134 0 -251 -54.5t-198.5 -146.5t-128.5 -217t-47 -264zM526 170q0 -14 33.5 -33.5t99 -35t138.5 -15.5q164 0 304.5 93 t223 252.5t82.5 346.5q0 100 -28.5 198.5t-61.5 152t-53 53.5q-9 0 -33 -29l-696 -965q-9 -16 -9 -18z" />
<glyph unicode="&#xd9;" horiz-adv-x="1517" d="M182 1386l4 35q2 21 35 21q23 0 99.5 -4t107.5 -4q68 0 112 2t64 4t29 2q8 0 12 -5.5t4 -8.5v-15l-4 -35q-3 -20 -13.5 -26.5t-56.5 -22.5q-41 -14 -52 -44t-31 -159q-22 -158 -58 -399q-35 -247 -35 -311q0 -59 14 -106t38.5 -76.5t44.5 -46t47 -31.5q102 -54 213 -54 q58 0 119 14.5t127.5 58t101.5 110.5q36 68 51 148.5t59 424.5q3 24 12 98.5t19 155t12 94.5q1 6 3 21t3 26t1 15q0 36 -20 48.5t-85 29.5q-29 7 -34.5 14t-2.5 31l4 30q3 21 27 21q14 0 79.5 -4t137.5 -4q51 0 100 4t60 4q13 0 19.5 -4.5t6 -11t-1.5 -13.5l-6 -39 q-2 -12 -10 -17t-41 -14q-52 -13 -64.5 -39.5t-31.5 -158.5q-61 -443 -72 -537q-7 -61 -10.5 -89t-10.5 -79t-14 -77t-18.5 -66.5t-25.5 -65.5t-33 -55t-43.5 -54t-55.5 -46q-150 -107 -395 -107q-263 0 -393 123q-115 111 -115 291q0 79 54.5 467.5t54.5 417.5 q0 19 -5.5 31.5t-20 19.5t-26.5 10t-39 8q-38 7 -46 15.5t-5 33.5zM539 1849q0 10 18 19l90 47q41 20 51 20q19 0 50 -22l342 -246q21 -17 22 -20q0 -6 -21.5 -21.5t-29.5 -15.5t-33 10l-455 205q-34 11 -34 24z" />
<glyph unicode="&#xda;" horiz-adv-x="1517" d="M182 1386l4 35q2 21 35 21q23 0 99.5 -4t107.5 -4q68 0 112 2t64 4t29 2q8 0 12 -5.5t4 -8.5v-15l-4 -35q-3 -20 -13.5 -26.5t-56.5 -22.5q-41 -14 -52 -44t-31 -159q-22 -158 -58 -399q-35 -247 -35 -311q0 -59 14 -106t38.5 -76.5t44.5 -46t47 -31.5q102 -54 213 -54 q58 0 119 14.5t127.5 58t101.5 110.5q36 68 51 148.5t59 424.5q3 24 12 98.5t19 155t12 94.5q1 6 3 21t3 26t1 15q0 36 -20 48.5t-85 29.5q-29 7 -34.5 14t-2.5 31l4 30q3 21 27 21q14 0 79.5 -4t137.5 -4q51 0 100 4t60 4q13 0 19.5 -4.5t6 -11t-1.5 -13.5l-6 -39 q-2 -12 -10 -17t-41 -14q-52 -13 -64.5 -39.5t-31.5 -158.5q-61 -443 -72 -537q-7 -61 -10.5 -89t-10.5 -79t-14 -77t-18.5 -66.5t-25.5 -65.5t-33 -55t-43.5 -54t-55.5 -46q-150 -107 -395 -107q-263 0 -393 123q-115 111 -115 291q0 79 54.5 467.5t54.5 417.5 q0 19 -5.5 31.5t-20 19.5t-26.5 10t-39 8q-38 7 -46 15.5t-5 33.5zM793 1657q0 8 26 24l365 220q27 18 47 18q16 0 33 -10l106 -54q24 -11 27.5 -13.5t3.5 -8.5q0 -12 -13.5 -20.5t-25.5 -10.5l-481 -170l-31 -8q-6 0 -14 4l-33 19q-10 3 -10 10z" />
<glyph unicode="&#xdb;" horiz-adv-x="1517" d="M182 1386l4 35q2 21 35 21q23 0 99.5 -4t107.5 -4q68 0 112 2t64 4t29 2q8 0 12 -5.5t4 -8.5v-15l-4 -35q-3 -20 -13.5 -26.5t-56.5 -22.5q-41 -14 -52 -44t-31 -159q-22 -158 -58 -399q-35 -247 -35 -311q0 -59 14 -106t38.5 -76.5t44.5 -46t47 -31.5q102 -54 213 -54 q58 0 119 14.5t127.5 58t101.5 110.5q36 68 51 148.5t59 424.5q3 24 12 98.5t19 155t12 94.5q1 6 3 21t3 26t1 15q0 36 -20 48.5t-85 29.5q-29 7 -34.5 14t-2.5 31l4 30q3 21 27 21q14 0 79.5 -4t137.5 -4q51 0 100 4t60 4q13 0 19.5 -4.5t6 -11t-1.5 -13.5l-6 -39 q-2 -12 -10 -17t-41 -14q-52 -13 -64.5 -39.5t-31.5 -158.5q-61 -443 -72 -537q-7 -61 -10.5 -89t-10.5 -79t-14 -77t-18.5 -66.5t-25.5 -65.5t-33 -55t-43.5 -54t-55.5 -46q-150 -107 -395 -107q-263 0 -393 123q-115 111 -115 291q0 79 54.5 467.5t54.5 417.5 q0 19 -5.5 31.5t-20 19.5t-26.5 10t-39 8q-38 7 -46 15.5t-5 33.5zM567 1663q0 16 25 31l313 204q33 19 60 19h49q14 0 20 -1.5t14.5 -8.5t20.5 -23l154 -190q18 -23 18 -29q0 -10 -12 -16l-25 -17q-9 -6 -16 -6t-35 14l-135 89q-34 24 -47 24q-5 0 -43 -14l-277 -103 q-25 -8 -30 -8q-9 0 -31.5 13.5t-22.5 21.5z" />
<glyph unicode="&#xdc;" horiz-adv-x="1517" d="M182 1386l4 35q2 21 35 21q23 0 99.5 -4t107.5 -4q68 0 112 2t64 4t29 2q8 0 12 -5.5t4 -8.5v-15l-4 -35q-3 -20 -13.5 -26.5t-56.5 -22.5q-41 -14 -52 -44t-31 -159q-22 -158 -58 -399q-35 -247 -35 -311q0 -59 14 -106t38.5 -76.5t44.5 -46t47 -31.5q102 -54 213 -54 q58 0 119 14.5t127.5 58t101.5 110.5q36 68 51 148.5t59 424.5q3 24 12 98.5t19 155t12 94.5q1 6 3 21t3 26t1 15q0 36 -20 48.5t-85 29.5q-29 7 -34.5 14t-2.5 31l4 30q3 21 27 21q14 0 79.5 -4t137.5 -4q51 0 100 4t60 4q13 0 19.5 -4.5t6 -11t-1.5 -13.5l-6 -39 q-2 -12 -10 -17t-41 -14q-52 -13 -64.5 -39.5t-31.5 -158.5q-61 -443 -72 -537q-7 -61 -10.5 -89t-10.5 -79t-14 -77t-18.5 -66.5t-25.5 -65.5t-33 -55t-43.5 -54t-55.5 -46q-150 -107 -395 -107q-263 0 -393 123q-115 111 -115 291q0 79 54.5 467.5t54.5 417.5 q0 19 -5.5 31.5t-20 19.5t-26.5 10t-39 8q-38 7 -46 15.5t-5 33.5zM608 1751q0 54 31.5 104t85.5 50q29 0 50 -10.5t30 -27.5t12.5 -31.5t3.5 -29.5q0 -63 -33.5 -115.5t-85.5 -52.5q-38 0 -66 30t-28 83zM1020 1751q0 53 31 103.5t86 50.5q52 0 73 -30t21 -71 q0 -63 -33 -114.5t-84 -51.5q-38 0 -66 30t-28 83z" />
<glyph unicode="&#xdd;" horiz-adv-x="1214" d="M70 1378l6 45q2 19 33 19q9 0 66.5 -4t129.5 -4q47 0 126 4t91 4q25 0 25 -21q0 -32 -8.5 -48.5t-18 -21t-35.5 -12.5q-2 -1 -10 -3.5t-11.5 -3.5t-11 -4t-11 -5.5t-9.5 -5.5t-9 -6.5t-6.5 -8t-5 -9.5t-1.5 -11q0 -12 39 -100.5t88.5 -196t58.5 -127.5q27 -67 49 -106 q7 -15 14 -15q3 0 26.5 34t52 77t34.5 51q9 13 69 97t110 152t63 81q20 20 20 53q0 22 -21 34t-89 25q-39 7 -39 31q0 44 10 57t31 13q17 0 94 -4t90 -4q53 0 131 4t84 4q24 0 21 -23l-5 -39q-2 -12 -22 -24q-36 -21 -62 -50.5t-122 -154.5q-301 -386 -404 -528 q-19 -25 -23.5 -34t-7.5 -28q-11 -65 -31 -218t-20 -189q0 -37 22 -51t107 -27q20 -3 24 -9.5t1 -21.5l-4 -33q-3 -20 -25 -20q-4 0 -29.5 2t-68.5 4t-90 2q-49 0 -92.5 -1t-72 -2t-49.5 -2t-32.5 -2t-13.5 -1q-35 0 -29 35l4 30q3 16 13.5 20.5t60.5 12.5q57 8 72.5 32 t25.5 97q6 35 29.5 200t23.5 175q0 24 -65 154q-135 273 -244 481q-24 49 -49.5 79t-65.5 35q-26 4 -30 9.5t-2 25.5zM641 1657q0 8 27 24l364 220q27 18 47 18q16 0 33 -10l107 -54q23 -11 26.5 -13.5t3.5 -8.5q0 -12 -13.5 -20.5t-25.5 -10.5l-481 -170l-31 -8q-6 0 -14 4 l-33 19q-10 3 -10 10z" />
<glyph unicode="&#xde;" d="M45 20l4 35q1 8 4 13t15.5 11t35.5 11q27 6 39.5 9t27 16t20 24.5t14 46.5t13 68.5t13.5 103.5q7 54 37.5 286t56 427t25.5 209q0 35 -18 46t-82 24q-16 3 -24.5 5t-15.5 11t-5 23l6 36q2 17 27 17q20 0 112.5 -4t108.5 -4q44 0 118 4t87 4q27 0 24 -31l-6 -43 q-1 -16 -11 -20.5t-57 -10.5q-43 -7 -57 -19t-22 -46q-9 -63 -9 -80q0 -9 1.5 -14t9.5 -10t22 -5q6 0 42.5 3t43.5 3q41 5 103 5q137 0 204.5 -21t122.5 -70q99 -93 99 -233q0 -64 -19.5 -128t-61.5 -124.5t-101.5 -106.5t-146.5 -74t-190 -28q-176 0 -176 37q0 8 6 14 l19 27q10 14 35 14q166 0 254 43q89 44 136.5 126t47.5 171q0 35 -8.5 67t-28 64.5t-58.5 57.5t-94 37q-61 12 -188 12q-25 0 -41 -1.5t-28 -10.5t-18.5 -15.5t-12.5 -28.5t-8.5 -37t-8.5 -53q-22 -152 -75 -581q-15 -113 -15 -152q0 -18 3 -28.5t15 -25.5t43 -25t81 -15 q21 -2 31 -8.5t9.5 -15t-0.5 -17.5l-4 -33q-1 -7 -2.5 -10.5t-6.5 -6.5t-15 -3q-5 0 -32 2t-88 4t-148 2q-34 0 -117 -4t-96 -4q-14 0 -18.5 6.5t-2.5 21.5z" />
<glyph unicode="&#xdf;" horiz-adv-x="1138" d="M-141 -395l2 20l8 39q8 39 18.5 50.5t46.5 11.5q48 0 77 2.5t58 12t44.5 27t30 48.5t22 75t12.5 109q15 205 24 289t38 293q5 29 17.5 127t12.5 112q0 22 -10.5 31.5t-36.5 9.5l-100 -4q-47 0 -47 19q0 14 12 26l43 66q12 19 24 24.5t40 5.5l51 -4q34 -1 43 12.5t18 77.5 q19 117 94.5 223.5t188.5 173t231 66.5q102 0 170 -63.5t68 -147.5q0 -136 -121 -264q-27 -14 -43 -23t-44.5 -27t-47 -37t-38 -43.5t-29 -54.5t-9.5 -63q0 -58 26 -99.5t130 -162.5q65 -76 106 -149q41 -71 41 -129q0 -37 -10.5 -76.5t-38.5 -83.5t-70 -77.5t-111 -56 t-155 -22.5q-122 0 -201 43q-20 11 -23.5 24t1.5 25l20 95q4 24 12.5 28t43.5 4q15 0 28 -20q65 -100 160 -100q77 0 126.5 49.5t49.5 109.5q0 34 -12.5 69.5t-36 69.5t-43 57.5t-47.5 53.5q-82 89 -120 151.5t-38 137.5q0 43 12.5 80.5t40 73t50.5 58.5t65 60 q95 85 124.5 134.5t29.5 103.5q0 65 -44 101t-106 36q-54 0 -98.5 -23t-73 -58t-50 -83.5t-32.5 -92t-18 -91.5q-25 -182 -51.5 -376.5t-41.5 -306t-26 -189.5q-9 -66 -14.5 -101t-16 -91t-21 -89t-28.5 -78t-39.5 -76t-52 -64t-68.5 -61q-79 -57 -186 -57q-36 0 -48.5 7.5 t-12.5 21.5z" />
<glyph unicode="&#xe0;" horiz-adv-x="1024" d="M61 293q0 67 13.5 143.5t39.5 157.5t69.5 154.5t98.5 132t132.5 93t165.5 34.5q46 0 90 -13q1 0 29 -7t30 -7q10 0 16 6t21 33q14 20 57 31l51 16q33 11 33 -14q0 -20 -22 -119q-92 -530 -92 -731q0 -54 18 -71t51 -17q6 0 36.5 2t35.5 2q13 0 15.5 -8t2.5 -39 q0 -10 -2 -15t-14 -12.5t-37 -15.5l-168 -49q-30 -9 -45 -9q-61 0 -61 78q0 18 7 79.5t14 116t7 56.5q0 8 -6 8q-5 0 -33 -35q-62 -99 -170 -204q-101 -101 -190 -101q-87 0 -140 90.5t-53 233.5zM236 324q0 -24 3 -48t12.5 -59.5t33 -57.5t59.5 -22q19 0 40.5 9t40.5 23 t39.5 33.5t36 38t32 40.5t26 35.5t19.5 28t10 15.5q46 77 72.5 169.5t31 139t4.5 83.5q0 131 -161 131q-66 0 -116.5 -32.5t-96.5 -123.5q-37 -74 -61.5 -194t-24.5 -209zM432 1483q0 18 35 18h143q22 0 29 -6.5t16 -34.5l97 -282q3 -11 6 -19t3.5 -10t0.5 -4 q0 -9 -15.5 -15t-23.5 -6q-12 0 -29 17l-245 311q-17 26 -17 31z" />
<glyph unicode="&#xe1;" horiz-adv-x="1024" d="M61 293q0 67 13.5 143.5t39.5 157.5t69.5 154.5t98.5 132t132.5 93t165.5 34.5q46 0 90 -13q1 0 29 -7t30 -7q10 0 16 6t21 33q14 20 57 31l51 16q33 11 33 -14q0 -20 -22 -119q-92 -530 -92 -731q0 -54 18 -71t51 -17q6 0 36.5 2t35.5 2q13 0 15.5 -8t2.5 -39 q0 -10 -2 -15t-14 -12.5t-37 -15.5l-168 -49q-30 -9 -45 -9q-61 0 -61 78q0 18 7 79.5t14 116t7 56.5q0 8 -6 8q-5 0 -33 -35q-62 -99 -170 -204q-101 -101 -190 -101q-87 0 -140 90.5t-53 233.5zM236 324q0 -24 3 -48t12.5 -59.5t33 -57.5t59.5 -22q19 0 40.5 9t40.5 23 t39.5 33.5t36 38t32 40.5t26 35.5t19.5 28t10 15.5q46 77 72.5 169.5t31 139t4.5 83.5q0 131 -161 131q-66 0 -116.5 -32.5t-96.5 -123.5q-37 -74 -61.5 -194t-24.5 -209zM543 1149q0 7 20 37l217 289q14 19 24 23.5t34 4.5h149q37 0 37 -20q0 -13 -27 -33l-376 -301 q-24 -19 -35 -19q-8 0 -25.5 5.5t-17.5 13.5z" />
<glyph unicode="&#xe2;" horiz-adv-x="1024" d="M61 293q0 67 13.5 143.5t39.5 157.5t69.5 154.5t98.5 132t132.5 93t165.5 34.5q46 0 90 -13q1 0 29 -7t30 -7q10 0 16 6t21 33q14 20 57 31l51 16q33 11 33 -14q0 -20 -22 -119q-92 -530 -92 -731q0 -54 18 -71t51 -17q6 0 36.5 2t35.5 2q13 0 15.5 -8t2.5 -39 q0 -10 -2 -15t-14 -12.5t-37 -15.5l-168 -49q-30 -9 -45 -9q-61 0 -61 78q0 18 7 79.5t14 116t7 56.5q0 8 -6 8q-5 0 -33 -35q-62 -99 -170 -204q-101 -101 -190 -101q-87 0 -140 90.5t-53 233.5zM236 324q0 -24 3 -48t12.5 -59.5t33 -57.5t59.5 -22q19 0 40.5 9t40.5 23 t39.5 33.5t36 38t32 40.5t26 35.5t19.5 28t10 15.5q46 77 72.5 169.5t31 139t4.5 83.5q0 131 -161 131q-66 0 -116.5 -32.5t-96.5 -123.5q-37 -74 -61.5 -194t-24.5 -209zM297 1133q0 6 20 26l275 307q21 24 28.5 28.5t28.5 4.5h53q22 0 27.5 -5t15.5 -28l121 -315 q1 -1 4 -6.5t5 -9.5t2 -5q0 -12 -15 -12l-31 -10q-12 -4 -17 -1t-17 21l-113 164l-5 6l-9 9t-10 8t-11 4q-11 0 -18.5 -4t-32.5 -23l-223 -164q-29 -20 -37 -20q-7 0 -24 8.5t-17 16.5z" />
<glyph unicode="&#xe3;" horiz-adv-x="1024" d="M61 293q0 67 13.5 143.5t39.5 157.5t69.5 154.5t98.5 132t132.5 93t165.5 34.5q46 0 90 -13q1 0 29 -7t30 -7q10 0 16 6t21 33q14 20 57 31l51 16q33 11 33 -14q0 -20 -22 -119q-92 -530 -92 -731q0 -54 18 -71t51 -17q6 0 36.5 2t35.5 2q13 0 15.5 -8t2.5 -39 q0 -10 -2 -15t-14 -12.5t-37 -15.5l-168 -49q-30 -9 -45 -9q-61 0 -61 78q0 18 7 79.5t14 116t7 56.5q0 8 -6 8q-5 0 -33 -35q-62 -99 -170 -204q-101 -101 -190 -101q-87 0 -140 90.5t-53 233.5zM236 324q0 -24 3 -48t12.5 -59.5t33 -57.5t59.5 -22q19 0 40.5 9t40.5 23 t39.5 33.5t36 38t32 40.5t26 35.5t19.5 28t10 15.5q46 77 72.5 169.5t31 139t4.5 83.5q0 131 -161 131q-66 0 -116.5 -32.5t-96.5 -123.5q-37 -74 -61.5 -194t-24.5 -209zM242 1241q0 13 45.5 58t116 88t122.5 43q51 0 131 -39q56 -27 71.5 -33t33.5 -6q31 0 81.5 24.5 t84.5 53.5q12 12 26 12q10 0 13 -8q8 -24 8 -27q0 -15 -41 -62t-103 -91t-108 -44q-35 0 -96 37q-107 64 -164 64q-37 0 -89 -31.5t-77 -56.5q-21 -21 -31 -21q-9 0 -16.5 16t-7.5 23z" />
<glyph unicode="&#xe4;" horiz-adv-x="1024" d="M61 293q0 67 13.5 143.5t39.5 157.5t69.5 154.5t98.5 132t132.5 93t165.5 34.5q46 0 90 -13q1 0 29 -7t30 -7q10 0 16 6t21 33q14 20 57 31l51 16q33 11 33 -14q0 -20 -22 -119q-92 -530 -92 -731q0 -54 18 -71t51 -17q6 0 36.5 2t35.5 2q13 0 15.5 -8t2.5 -39 q0 -10 -2 -15t-14 -12.5t-37 -15.5l-168 -49q-30 -9 -45 -9q-61 0 -61 78q0 18 7 79.5t14 116t7 56.5q0 8 -6 8q-5 0 -33 -35q-62 -99 -170 -204q-101 -101 -190 -101q-87 0 -140 90.5t-53 233.5zM236 324q0 -24 3 -48t12.5 -59.5t33 -57.5t59.5 -22q19 0 40.5 9t40.5 23 t39.5 33.5t36 38t32 40.5t26 35.5t19.5 28t10 15.5q46 77 72.5 169.5t31 139t4.5 83.5q0 131 -161 131q-66 0 -116.5 -32.5t-96.5 -123.5q-37 -74 -61.5 -194t-24.5 -209zM389 1292q0 65 33.5 106.5t75.5 41.5q96 0 96 -99q0 -64 -33 -108.5t-82 -44.5q-11 0 -24 4t-29 14 t-26.5 32.5t-10.5 53.5zM735 1292q0 63 33.5 105.5t77.5 42.5q48 0 72 -26t24 -71q0 -70 -35.5 -112.5t-79.5 -42.5q-12 0 -25.5 4t-29.5 14.5t-26.5 32.5t-10.5 53z" />
<glyph unicode="&#xe5;" horiz-adv-x="1024" d="M61 293q0 67 13.5 143.5t39.5 157.5t69.5 154.5t98.5 132t132.5 93t165.5 34.5q46 0 90 -13q1 0 29 -7t30 -7q10 0 16 6t21 33q14 20 57 31l51 16q33 11 33 -14q0 -20 -22 -119q-92 -530 -92 -731q0 -54 18 -71t51 -17q6 0 36.5 2t35.5 2q13 0 15.5 -8t2.5 -39 q0 -10 -2 -15t-14 -12.5t-37 -15.5l-168 -49q-30 -9 -45 -9q-61 0 -61 78q0 18 7 79.5t14 116t7 56.5q0 8 -6 8q-5 0 -33 -35q-62 -99 -170 -204q-101 -101 -190 -101q-87 0 -140 90.5t-53 233.5zM236 324q0 -24 3 -48t12.5 -59.5t33 -57.5t59.5 -22q19 0 40.5 9t40.5 23 t39.5 33.5t36 38t32 40.5t26 35.5t19.5 28t10 15.5q46 77 72.5 169.5t31 139t4.5 83.5q0 131 -161 131q-66 0 -116.5 -32.5t-96.5 -123.5q-37 -74 -61.5 -194t-24.5 -209zM442 1317q0 90 76.5 145.5t188.5 55.5q63 0 109.5 -16.5t71.5 -43.5t36.5 -55t11.5 -57 q0 -85 -72 -140t-190 -55q-24 0 -46 2t-58.5 11.5t-62.5 25.5t-45.5 49t-19.5 78zM569 1317q0 -40 30.5 -69t78.5 -29q53 0 91 37t38 87q0 37 -26 71t-81 34q-54 0 -92.5 -40t-38.5 -91z" />
<glyph unicode="&#xe6;" horiz-adv-x="1327" d="M25 209q0 19 2 41t11.5 63.5t26 75.5t50.5 67t80 48q34 12 200.5 48t179.5 40q50 11 67.5 29t29.5 57q10 35 10 70q0 57 -40.5 100t-123.5 43q-108 0 -207 -31q-3 -1 -48 -17t-54 -16q-14 0 -14 15l2 26l6 50q2 15 8.5 25t32 23t71.5 25q121 27 207 27q151 0 228 -86 q30 -35 36 -35q3 0 18 10.5t32 22.5t20 14q110 74 242 74q196 0 196 -154q0 -65 -38 -126.5t-91.5 -105.5t-126 -84.5t-127.5 -63.5t-110 -42q-19 -6 -24.5 -13.5t-8.5 -33.5q-6 -48 -6 -92q0 -98 44 -154.5t112 -56.5q128 0 253 141q27 31 35 31q9 0 17 -31q8 -39 8 -47 q0 -20 -38.5 -60t-84.5 -75q-108 -82 -248 -82q-45 0 -82 10t-59 21.5t-42.5 34.5t-28 35t-21.5 36q-21 41 -29 41q-9 0 -43 -28q-45 -42 -141 -103q-82 -47 -162 -47q-108 0 -167.5 71t-59.5 169zM199 250q0 -63 40 -97t87 -34q89 0 165.5 50t98.5 116q8 29 15 101.5 t7 98.5q0 23 -20 23q-23 0 -111.5 -26t-134.5 -46q-72 -34 -103 -68q-44 -50 -44 -118zM784 549q0 -23 17 -23q13 0 48 15t81 44.5t88.5 67t72 89.5t29.5 106q0 10 -2.5 21.5t-9.5 28t-24.5 27.5t-43.5 11q-46 0 -88.5 -36.5t-72 -88.5t-52 -109t-33 -98t-10.5 -55z" />
<glyph unicode="&#xe7;" horiz-adv-x="796" d="M59 287q0 89 14 181t56.5 204t110.5 190q132 156 368 156q146 0 146 -62q0 -4 -1 -14t-1 -12l-23 -101q-7 -31 -13 -38t-20 -7h-32q-10 0 -15.5 7t-19.5 38q-4 9 -14 21.5t-38.5 27.5t-64.5 15q-61 0 -110 -41.5t-78.5 -103.5t-50 -139t-28 -144t-7.5 -123q0 -43 5.5 -81 t20.5 -78.5t47.5 -64.5t79.5 -24q74 0 140 41.5t110 93.5q2 4 13.5 16.5t15.5 12.5q10 0 16 -31t6 -45q0 -12 -4.5 -22t-24 -30.5t-57.5 -49.5q-141 -111 -291 -111q-60 0 -106.5 19t-74 49.5t-45 73.5t-24 85t-6.5 91zM96 -375q0 5 6 9.5t35 21.5q103 67 135 103 q27 31 27 55q0 18 -18 53q-13 26 -13 31q0 6 11 28l22 27q10 10 16 10q7 0 29 -11.5t43 -24t23 -13.5q37 -24 52 -44t15 -48t-19.5 -56t-49 -49.5t-46 -32t-28.5 -16.5q-31 -17 -101.5 -48.5t-87.5 -31.5q-10 0 -30.5 16t-20.5 21z" />
<glyph unicode="&#xe8;" horiz-adv-x="796" d="M57 289q0 97 16.5 194.5t56.5 195t98 172t148.5 121t201.5 46.5q17 0 31.5 -1t46 -9t53.5 -22t39.5 -45t17.5 -73q0 -230 -416 -397q-1 0 -29 -9.5t-48.5 -18t-24.5 -13.5q-17 -20 -17 -115q0 -100 41 -161.5t117 -61.5q102 0 207 94q5 4 24.5 24.5t36 37t19.5 16.5 q10 0 18 -39q6 -25 6 -32q0 -11 -2 -18t-14.5 -24t-38.5 -40q-30 -27 -50.5 -43.5t-64 -43.5t-98.5 -41t-117 -14q-63 0 -111 21t-75.5 52.5t-44 76t-22 84.5t-5.5 86zM256 547q0 -21 18 -21q10 0 43.5 13.5t80 42.5t90 65.5t74 90t30.5 110.5q0 34 -19.5 61t-58.5 27 q-50 0 -95.5 -39.5t-73.5 -95t-49.5 -114.5t-30.5 -96.5t-9 -43.5zM332 1485q0 16 35 16h141q23 0 29.5 -6t15.5 -35l98 -282q3 -11 6 -19t4 -10t1 -4q0 -9 -15.5 -15t-23.5 -6q-12 0 -29 17l-246 311q-16 21 -16 33z" />
<glyph unicode="&#xe9;" horiz-adv-x="796" d="M59 289q0 80 12 161.5t37 164.5t67 154.5t97.5 128t134 88.5t171.5 32q17 0 31.5 -1t46 -9t53.5 -22t39.5 -45t17.5 -73q0 -67 -35 -129t-97 -111t-130 -86.5t-150 -70.5q-1 0 -29 -9.5t-48.5 -18t-24.5 -13.5q-14 -19 -14 -108q0 -39 6.5 -75t22 -72.5t47 -58.5 t75.5 -22q52 0 107 26.5t84 51t51 49.5q6 8 23.5 25.5t21.5 17.5q7 0 12.5 -14.5t5.5 -24.5q6 -25 6 -32q0 -11 -2 -18t-14.5 -24t-38.5 -40q-26 -25 -49 -43t-65.5 -44t-98 -40.5t-117.5 -14.5q-256 0 -256 320zM256 547q0 -21 18 -21q10 0 43.5 13.5t80 42.5t90 65.5 t74 90t30.5 110.5q0 34 -19.5 61t-58.5 27q-50 0 -95.5 -39.5t-73.5 -95t-49.5 -114.5t-30.5 -96.5t-9 -43.5zM471 1149q0 8 23 37l217 289q16 20 24 24t33 4h147q39 0 39 -20q0 -13 -26 -33l-379 -301q-24 -19 -35 -19q-7 0 -25 5.5t-18 13.5z" />
<glyph unicode="&#xea;" horiz-adv-x="796" d="M57 289q0 97 16.5 194.5t56.5 195t98 172t148.5 121t201.5 46.5q17 0 31.5 -1t46 -9t53.5 -22t39.5 -45t17.5 -73q0 -67 -35 -129t-97 -111t-130 -86.5t-150 -70.5q-1 0 -29 -9.5t-48.5 -18t-24.5 -13.5q-14 -19 -14 -108q0 -39 6.5 -75t22 -72.5t47 -58.5t75.5 -22 q52 0 107 26.5t84 51t51 49.5q3 3 14 15.5t19 20t12 7.5q10 0 18 -39q6 -25 6 -32q0 -11 -2 -18t-14.5 -24t-38.5 -40q-30 -27 -50.5 -43.5t-64 -43.5t-98.5 -41t-117 -14q-63 0 -111 21t-75.5 52.5t-44 76t-22 84.5t-5.5 86zM244 1133q0 6 20 26l275 307q21 24 28.5 28.5 t28.5 4.5h53q22 0 27.5 -5t15.5 -28l121 -315q10 -20 10 -21q0 -12 -14 -12l-31 -10q-11 -4 -17.5 -1t-17.5 21l-112 164l-5 6l-9 9t-10 8t-11 4q-11 0 -18.5 -4t-32.5 -23l-223 -164q-29 -20 -37 -20q-7 0 -24 8.5t-17 16.5zM256 547q0 -21 18 -21q10 0 43.5 13.5t80 42.5 t90 65.5t74 90t30.5 110.5q0 34 -19.5 61t-58.5 27q-50 0 -95.5 -39.5t-73.5 -95t-49.5 -114.5t-30.5 -96.5t-9 -43.5z" />
<glyph unicode="&#xeb;" horiz-adv-x="796" d="M57 289q0 97 16.5 194.5t56.5 195t98 172t148.5 121t201.5 46.5q17 0 31.5 -1t46 -9t53.5 -22t39.5 -45t17.5 -73q0 -67 -35 -129t-97 -111t-130 -86.5t-150 -70.5q-1 0 -29 -9.5t-48.5 -18t-24.5 -13.5q-14 -19 -14 -108q0 -39 6.5 -75t22 -72.5t47 -58.5t75.5 -22 q52 0 107 26.5t84 51t51 49.5q3 3 14 15.5t19 20t12 7.5q10 0 18 -39q6 -25 6 -32q0 -11 -2 -18t-14.5 -24t-38.5 -40q-30 -27 -50.5 -43.5t-64 -43.5t-98.5 -41t-117 -14q-63 0 -111 21t-75.5 52.5t-44 76t-22 84.5t-5.5 86zM221 1294q0 62 34 104t77 42q48 0 72 -26.5 t24 -72.5q0 -64 -33.5 -108.5t-81.5 -44.5q-12 0 -25.5 4t-29.5 14t-26.5 33t-10.5 55zM256 547q0 -21 18 -21q10 0 43.5 13.5t80 42.5t90 65.5t74 90t30.5 110.5q0 34 -19.5 61t-58.5 27q-50 0 -95.5 -39.5t-73.5 -95t-49.5 -114.5t-30.5 -96.5t-9 -43.5zM569 1294 q0 60 32.5 103t76.5 43q96 0 96 -99q0 -67 -35 -110t-80 -43q-12 0 -25 4.5t-29 14.5t-26 32.5t-10 54.5z" />
<glyph unicode="&#xec;" horiz-adv-x="606" d="M82 920l6 26q4 17 12 22.5t33 10.5l240 37q10 2 28 2q41 0 41 -47q0 -39 -28 -201q-27 -158 -49.5 -342t-22.5 -246q0 -33 12 -45t39 -12q7 0 44.5 3t43.5 3q27 0 27 -27q0 -28 -7 -43t-15 -19t-27 -9l-230 -58q-6 -1 -13.5 -2t-11.5 -1.5t-7 -0.5q-16 0 -26.5 7.5 t-14.5 19t-5 18.5t-1 13q0 10 52 378t52 406q0 42 -22.5 52.5t-108.5 15.5q-27 2 -37 9t-4 30zM176 1485q0 16 35 16h141q22 0 29 -6.5t16 -34.5l97 -282q10 -27 10 -33q0 -9 -15.5 -15t-23.5 -6q-14 0 -27 17l-245 311q-17 17 -17 33z" />
<glyph unicode="&#xed;" horiz-adv-x="606" d="M82 920l6 26q1 17 10 22.5t35 10.5l240 37l28 2q41 0 41 -47q0 -39 -28 -201q-27 -158 -49.5 -342t-22.5 -246q0 -33 12 -45t39 -12q7 0 44.5 3t43.5 3q27 0 27 -27q0 -28 -7 -43t-15 -19t-27 -9l-230 -58q-6 -1 -13.5 -2t-11.5 -1.5t-7 -0.5q-16 0 -26.5 7.5t-14.5 19 t-5 18.5t-1 13q0 10 52 378t52 406q0 42 -22.5 52.5t-108.5 15.5q-26 2 -35.5 9t-5.5 30zM242 1149q0 4 4 10.5t10 15t8 11.5l217 289q15 20 24 24t34 4h147q39 0 39 -20q0 -13 -27 -33l-376 -301q-24 -19 -35 -19q-9 0 -27 5.5t-18 13.5z" />
<glyph unicode="&#xee;" horiz-adv-x="606" d="M82 920l6 26q4 17 12 22.5t33 10.5l240 37q10 2 28 2q41 0 41 -47q0 -39 -28 -201q-27 -158 -49.5 -342t-22.5 -246q0 -33 12 -45t39 -12q7 0 44.5 3t43.5 3q27 0 27 -27q0 -28 -7 -43t-15 -19t-27 -9l-230 -58q-6 -1 -13.5 -2t-11.5 -1.5t-7 -0.5q-16 0 -26.5 7.5 t-14.5 19t-5 18.5t-1 13q0 10 52 378t52 406q0 42 -22.5 52.5t-108.5 15.5q-27 2 -37 9t-4 30zM88 1133q0 5 21 26l274 307q21 24 28.5 28.5t28.5 4.5h54q22 0 27.5 -5t15.5 -28l120 -315q1 -1 4 -6.5t5 -9.5t2 -5q0 -12 -15 -12l-30 -10q-11 -4 -17.5 -1t-17.5 21l-113 164 l-5 6l-9 9t-10 8t-11 4q-11 0 -18.5 -4t-32.5 -23l-223 -164q-29 -20 -37 -20q-7 0 -24 8.5t-17 16.5z" />
<glyph unicode="&#xef;" horiz-adv-x="606" d="M82 920l6 26q4 17 12 22.5t33 10.5l240 37q10 2 28 2q41 0 41 -47q0 -39 -28 -201q-27 -158 -49.5 -342t-22.5 -246q0 -33 12 -45t39 -12q7 0 44.5 3t43.5 3q27 0 27 -27q0 -28 -7 -43t-15 -19t-27 -9l-230 -58q-6 -1 -13.5 -2t-11.5 -1.5t-7 -0.5q-16 0 -26.5 7.5 t-14.5 19t-5 18.5t-1 13q0 10 52 378t52 406q0 42 -22.5 52.5t-108.5 15.5q-27 2 -37 9t-4 30zM125 1294q0 62 34 104t77 42q48 0 72 -26.5t24 -72.5q0 -64 -33.5 -108.5t-81.5 -44.5q-12 0 -25.5 4t-29.5 14t-26.5 33t-10.5 55zM473 1294q0 60 32.5 103t76.5 43 q96 0 96 -99q0 -67 -35 -110t-80 -43q-12 0 -25 4.5t-29 14.5t-26 32.5t-10 54.5z" />
<glyph unicode="&#xf0;" horiz-adv-x="985" d="M57 317q0 173 64.5 333.5t183 264t258.5 103.5q58 0 115 -29q15 -8 26.5 -18t16.5 -15.5t8 -5.5q6 0 6 15q0 61 -20 178q-21 94 -35 94q-7 0 -47 -16l-117 -52q-12 -4 -18 -4q-12 0 -17 13l-16 39q-6 6 -6 18q0 11 14 18l180 78q13 5 13 17q0 9 -12 48.5t-24 75.5l-12 35 q0 14 15 19l26 8q24 6 31 6q18 0 33.5 -31.5t24.5 -64.5q13 -40 17 -49t11 -9q3 0 10.5 3t10.5 4l125 55q20 10 32 10t19 -16l16 -37q6 -12 6 -16q0 -14 -26 -23l-148 -63q-18 -9 -18 -21q0 -4 37 -115q71 -222 71 -454q0 -215 -72 -385.5t-197.5 -264.5t-281.5 -94 q-60 0 -120.5 20.5t-102.5 65.5q-80 92 -80 262zM231 354q0 -137 50.5 -210.5t119.5 -73.5q92 0 171.5 86t123 214t43.5 257q0 139 -52 215t-144 76q-78 0 -141 -62.5t-98.5 -155t-54 -183.5t-18.5 -163z" />
<glyph unicode="&#xf1;" d="M59 907q0 39 9.5 49.5t48.5 18.5l241 41q10 1 24.5 2.5t28 -9t13.5 -30.5q0 -15 -24.5 -138.5t-24.5 -135.5q0 -15 10 -15q4 0 15.5 10.5t15.5 16.5q59 61 103 102t109.5 93t129 79t121.5 27q70 0 102.5 -41t32.5 -100q0 -27 -46 -336t-46 -371q0 -51 47 -51q8 0 47.5 4 t46.5 4q27 0 27 -29q0 -39 -10.5 -50.5t-39.5 -16.5l-239 -56q-1 0 -12 -2t-17 -2q-43 0 -43 56q0 40 50 353.5t50 373.5q0 46 -20.5 66t-48.5 20q-94 0 -212 -100t-157 -208q-19 -53 -29 -114.5t-36 -286.5q-1 -6 -4.5 -38t-4.5 -38q-6 -30 -16 -43t-29 -18l-55 -14 q-21 -7 -37 -7q-20 0 -30.5 8.5t-10.5 32.5q0 12 25.5 177.5t28.5 193.5q34 255 34 379q0 30 -4.5 50.5t-11 32t-22 18t-28.5 9t-40 5.5q-52 6 -58 12q-4 4 -4 16zM354 1241q0 13 45.5 58t116 88t123.5 43q47 0 131 -39q55 -28 69.5 -33.5t32.5 -5.5q32 0 82 24.5t84 53.5 q24 12 27 12q9 0 12 -8q8 -18 8 -27q0 -15 -40.5 -62t-102.5 -91t-108 -44q-34 0 -97 37q-2 1 -19 10t-33 17t-36.5 17t-40.5 14.5t-35 5.5q-37 0 -88 -31t-77 -57q-21 -21 -31 -21q-9 0 -16 15.5t-7 23.5z" />
<glyph unicode="&#xf2;" horiz-adv-x="987" d="M55 317q0 71 14 147.5t41 156t72.5 150t102.5 126.5t136.5 88.5t170.5 32.5q182 0 262 -123q57 -88 57 -221q0 -59 -8.5 -122.5t-28.5 -132.5t-49.5 -133t-74.5 -122.5t-99 -101t-128 -68t-158 -25.5q-60 0 -109 15t-80.5 38t-55 56.5t-35.5 64t-19.5 67t-9 60t-1.5 47.5 zM236 354q0 -134 50.5 -209t119.5 -75q89 0 166 86t119 214t42 257q0 138 -49.5 214.5t-136.5 76.5q-60 0 -112.5 -39.5t-88 -101.5t-61 -138t-37.5 -149t-12 -136zM395 1485q0 16 35 16h143q20 0 27 -6.5t18 -34.5l97 -282q3 -11 6 -19t3.5 -10t0.5 -4q0 -9 -15.5 -15 t-23.5 -6q-12 0 -29 17l-245 311q-17 17 -17 33z" />
<glyph unicode="&#xf3;" horiz-adv-x="987" d="M55 317q0 71 14 147.5t41 156t72.5 150t102.5 126.5t136.5 88.5t170.5 32.5q182 0 262 -123q57 -88 57 -221q0 -59 -8.5 -122.5t-28.5 -132.5t-49.5 -133t-74.5 -122.5t-99 -101t-128 -68t-158 -25.5q-60 0 -109 15t-80.5 38t-55 56.5t-35.5 64t-19.5 67t-9 60t-1.5 47.5 zM236 354q0 -134 50.5 -209t119.5 -75q89 0 166 86t119 214t42 257q0 138 -49.5 214.5t-136.5 76.5q-60 0 -112.5 -39.5t-88 -101.5t-61 -138t-37.5 -149t-12 -136zM565 1149q0 4 23 37l217 289q15 20 23.5 24t33.5 4h150q37 0 37 -20q0 -6 -27 -33l-377 -301 q-24 -19 -35 -19q-9 0 -27 5.5t-18 13.5z" />
<glyph unicode="&#xf4;" horiz-adv-x="987" d="M55 317q0 71 14 147.5t41 156t72.5 150t102.5 126.5t136.5 88.5t170.5 32.5q182 0 262 -123q57 -88 57 -221q0 -59 -8.5 -122.5t-28.5 -132.5t-49.5 -133t-74.5 -122.5t-99 -101t-128 -68t-158 -25.5q-60 0 -109 15t-80.5 38t-55 56.5t-35.5 64t-19.5 67t-9 60t-1.5 47.5 zM236 354q0 -134 50.5 -209t119.5 -75q89 0 166 86t119 214t42 257q0 138 -49.5 214.5t-136.5 76.5q-60 0 -112.5 -39.5t-88 -101.5t-61 -138t-37.5 -149t-12 -136zM279 1133q0 6 20 26l274 307q21 24 29 28.5t29 4.5h53q22 0 27.5 -5t15.5 -28l121 -315q10 -20 10 -21 q0 -12 -14 -12l-31 -10q-11 -4 -17.5 -1t-17.5 21l-112 164l-5 6l-9 9t-10 8t-11 4q-11 0 -18.5 -4t-32.5 -23l-224 -164q-29 -20 -37 -20q-7 0 -23.5 8.5t-16.5 16.5z" />
<glyph unicode="&#xf5;" horiz-adv-x="987" d="M55 317q0 71 14 147.5t41 156t72.5 150t102.5 126.5t136.5 88.5t170.5 32.5q182 0 262 -123q57 -88 57 -221q0 -59 -8.5 -122.5t-28.5 -132.5t-49.5 -133t-74.5 -122.5t-99 -101t-128 -68t-158 -25.5q-60 0 -109 15t-80.5 38t-55 56.5t-35.5 64t-19.5 67t-9 60t-1.5 47.5 zM223 1241q0 13 46 58t116.5 88t122.5 43q51 0 131 -39q57 -28 71.5 -33.5t32.5 -5.5q31 0 81.5 24.5t84.5 53.5q12 12 27 12q9 0 12 -8q8 -24 8 -27q0 -15 -41 -62t-102.5 -91t-107.5 -44q-36 0 -97 37q-107 64 -164 64q-37 0 -88 -31t-77 -57q-21 -21 -31 -21q-9 0 -17 16 t-8 23zM236 354q0 -134 50.5 -209t119.5 -75q89 0 166 86t119 214t42 257q0 138 -49.5 214.5t-136.5 76.5q-60 0 -112.5 -39.5t-88 -101.5t-61 -138t-37.5 -149t-12 -136z" />
<glyph unicode="&#xf6;" horiz-adv-x="987" d="M55 317q0 71 14 147.5t41 156t72.5 150t102.5 126.5t136.5 88.5t170.5 32.5q182 0 262 -123q57 -88 57 -221q0 -59 -8.5 -122.5t-28.5 -132.5t-49.5 -133t-74.5 -122.5t-99 -101t-128 -68t-158 -25.5q-60 0 -109 15t-80.5 38t-55 56.5t-35.5 64t-19.5 67t-9 60t-1.5 47.5 zM236 354q0 -134 50.5 -209t119.5 -75q89 0 166 86t119 214t42 257q0 138 -49.5 214.5t-136.5 76.5q-60 0 -112.5 -39.5t-88 -101.5t-61 -138t-37.5 -149t-12 -136zM371 1294q0 61 32.5 103.5t77.5 42.5q47 0 72 -26t25 -73q0 -64 -34.5 -108.5t-80.5 -44.5q-10 0 -23 4 t-30 13.5t-28 32.5t-11 56zM719 1292q0 62 32 105t76 43q97 0 97 -99q0 -69 -34.5 -111t-80.5 -42q-9 0 -21 3.5t-29 13t-28.5 32t-11.5 55.5z" />
<glyph unicode="&#xf7;" d="M76 625v73q0 15 1 20t6.5 8t18.5 3h998q18 0 21 -4t3 -27v-73q0 -21 -3 -26t-21 -5h-998q-16 0 -21 4.5t-5 26.5zM498 338q0 44 31 73t71 29q41 0 73 -28.5t32 -73.5q0 -44 -31.5 -74.5t-73.5 -30.5q-40 0 -71 30.5t-31 74.5zM498 987q0 45 31.5 74t70.5 29q43 0 74 -31 t31 -74q0 -42 -31 -72t-72 -30q-40 0 -72 29.5t-32 74.5z" />
<glyph unicode="&#xf8;" horiz-adv-x="985" d="M27 -47q0 13 12 29l61 79q13 13 13 25q0 7 -27 61q-27 78 -27 166q0 92 21 189t66 190.5t107.5 166.5t152.5 118t194 45q85 0 137 -29q33 -18 39 -18q10 0 33 29l47 61q17 20 27 20q8 0 14 -6l27 -20q14 -12 14 -19q0 -12 -12 -30l-62 -78q-14 -21 -14 -27q0 -9 24 -57 q33 -75 33 -180q0 -142 -56.5 -299t-150.5 -252q-82 -83 -173.5 -115.5t-159.5 -32.5q-76 0 -123 23q-7 3 -19.5 9.5t-21 10.5t-10.5 4q-15 0 -29 -18l-55 -70q-15 -22 -27 -22q-6 0 -19 8l-24 20q-12 9 -12 19zM221 328q0 -10 1 -25.5t3 -37t7 -36t12 -14.5q3 0 14.5 15.5 t13.5 19.5l392 575q18 26 18 41q0 21 -38 39.5t-91 18.5q-26 0 -47 -4.5t-56 -21t-71 -59t-68 -108.5q-90 -179 -90 -403zM291 127q0 -20 36 -42t76 -22q47 0 96 26.5t93.5 79t80 124t56.5 169t21 206.5q0 112 -17 112q-4 0 -8 -4.5t-18 -25.5l-398 -582q-18 -29 -18 -41z " />
<glyph unicode="&#xf9;" horiz-adv-x="1138" d="M57 901l9 47q1 14 9.5 19t28.5 8l244 37q18 6 49 6q35 0 35 -39q0 -6 -24.5 -171t-49 -349.5t-24.5 -237.5q0 -78 61 -78q59 0 137.5 46t142.5 116t85 135q27 77 61 420q8 85 17 111.5t36 29.5l74 9q32 6 48 2t16 -27q0 -2 -26 -178t-51.5 -375t-25.5 -256q0 -26 8.5 -39 t18 -15.5t25.5 -2.5q6 0 28.5 1.5t42.5 3t21 1.5q13 0 17.5 -6t2.5 -21l-6 -43q-2 -18 -33 -24l-231 -56q-16 -4 -31 -4q-37 0 -37 41q0 22 15.5 133t15.5 117q0 17 -8 17q-3 0 -15 -11.5t-12 -13.5q-124 -121 -250 -211q-109 -74 -186 -74q-67 0 -107.5 40.5t-40.5 107.5 q0 9 42 317t42 373q0 44 -24.5 56t-91.5 14q-48 2 -54 8q-5 6 -4 16zM422 1485q0 16 35 16h141q22 0 29 -6.5t16 -34.5l96 -282q11 -30 11 -33q0 -9 -15.5 -15t-23.5 -6q-14 0 -27 17l-246 311q-16 16 -16 33z" />
<glyph unicode="&#xfa;" horiz-adv-x="1138" d="M57 901l9 47q1 14 9.5 19t28.5 8l244 37q18 6 49 6q35 0 35 -39q0 -6 -24.5 -171t-49 -349.5t-24.5 -237.5q0 -78 61 -78q59 0 137.5 46t142.5 116t85 135q27 77 61 420q8 85 17 111.5t36 29.5l74 9q32 6 48 2t16 -27q0 -2 -26 -178t-51.5 -375t-25.5 -256q0 -26 8.5 -39 t18 -15.5t25.5 -2.5q6 0 28.5 1.5t42.5 3t21 1.5q13 0 17.5 -6t2.5 -21l-6 -43q-2 -18 -33 -24l-231 -56q-16 -4 -31 -4q-37 0 -37 41q0 22 15.5 133t15.5 117q0 17 -8 17q-3 0 -15 -11.5t-12 -13.5q-124 -121 -250 -211q-109 -74 -186 -74q-67 0 -107.5 40.5t-40.5 107.5 q0 9 42 317t42 373q0 44 -24.5 56t-91.5 14q-48 2 -54 8q-5 6 -4 16zM584 1149q0 5 22 37l217 289q15 19 23.5 23.5t34.5 4.5h147q39 0 39 -20q0 -13 -27 -33l-376 -301q-27 -19 -37 -19q-7 0 -25 5.5t-18 13.5z" />
<glyph unicode="&#xfb;" horiz-adv-x="1138" d="M57 901l9 47q1 14 9.5 19t28.5 8l244 37q18 6 49 6q35 0 35 -39q0 -6 -24.5 -171t-49 -349.5t-24.5 -237.5q0 -78 61 -78q59 0 137.5 46t142.5 116t85 135q27 77 61 420q8 85 17 111.5t36 29.5l74 9q32 6 48 2t16 -27q0 -2 -26 -178t-51.5 -375t-25.5 -256q0 -26 8.5 -39 t18 -15.5t25.5 -2.5q6 0 28.5 1.5t42.5 3t21 1.5q13 0 17.5 -6t2.5 -21l-6 -43q-2 -18 -33 -24l-231 -56q-16 -4 -31 -4q-37 0 -37 41q0 22 15.5 133t15.5 117q0 17 -8 17q-3 0 -15 -11.5t-12 -13.5q-124 -121 -250 -211q-109 -74 -186 -74q-67 0 -107.5 40.5t-40.5 107.5 q0 9 42 317t42 373q0 44 -24.5 56t-91.5 14q-48 2 -54 8q-5 6 -4 16zM354 1133q0 5 21 26l274 307q21 24 29 28.5t29 4.5h53q22 0 27.5 -5t15.5 -28l121 -315q10 -20 10 -21q0 -12 -14 -12l-31 -10q-11 -4 -17.5 -1t-17.5 21l-113 164l-5 6q-4 5 -8 9t-10 8t-11 4 q-11 0 -19.5 -4.5t-32.5 -22.5l-223 -164q-29 -20 -37 -20q-7 0 -24 8.5t-17 16.5z" />
<glyph unicode="&#xfc;" horiz-adv-x="1138" d="M57 901l9 47q1 14 9.5 19t28.5 8l244 37q18 6 49 6q35 0 35 -39q0 -6 -24.5 -171t-49 -349.5t-24.5 -237.5q0 -78 61 -78q59 0 137.5 46t142.5 116t85 135q27 77 61 420q8 85 17 111.5t36 29.5l74 9q32 6 48 2t16 -27q0 -2 -26 -178t-51.5 -375t-25.5 -256q0 -26 8.5 -39 t18 -15.5t25.5 -2.5q6 0 28.5 1.5t42.5 3t21 1.5q13 0 17.5 -6t2.5 -21l-6 -43q-2 -18 -33 -24l-231 -56q-16 -4 -31 -4q-37 0 -37 41q0 22 15.5 133t15.5 117q0 17 -8 17q-3 0 -15 -11.5t-12 -13.5q-124 -121 -250 -211q-109 -74 -186 -74q-67 0 -107.5 40.5t-40.5 107.5 q0 9 42 317t42 373q0 44 -24.5 56t-91.5 14q-48 2 -54 8q-5 6 -4 16zM446 1292q0 64 33.5 106t77.5 42q96 0 96 -99q0 -66 -33.5 -109.5t-80.5 -43.5q-11 0 -24.5 4t-30 14t-27.5 32.5t-11 53.5zM795 1292q0 65 33 106.5t75 41.5q96 0 96 -99q0 -65 -33 -109t-81 -44 q-12 0 -25 4t-29 14.5t-26 32.5t-10 53z" />
<glyph unicode="&#xfd;" horiz-adv-x="987" d="M-73 -386q-2 14 3 26l13 75q6 28 15 33q4 2 11 2q2 0 31.5 -8t30.5 -8q36 -6 49 -6q82 0 135 45t111 153q49 95 49 125q0 19 -80.5 348t-93.5 365q-8 20 -11 27t-16 29t-25 32.5t-34.5 20.5t-48.5 10q-12 0 -21 1t-17.5 6.5t-7.5 14.5l3 39q0 17 8.5 23.5t31.5 9.5 l209 31q18 6 37 6q18 0 24 -12t15 -66l96 -485l41 -199q1 -8 11 -27q4 0 51 97q6 14 63 128t66 136q92 188 92 235q0 18 -9.5 30.5t-24.5 18.5t-27.5 8.5t-24.5 2.5q-20 0 -27 1t-13 7t-5 20l4 39q2 15 13.5 22t47.5 13l209 31q24 6 41 6q18 0 30.5 -9.5t12.5 -27.5 q0 -17 -8.5 -37.5t-35.5 -72.5q-8 -16 -13 -25q-115 -217 -289 -529l-250 -456q-22 -42 -33.5 -62.5t-35.5 -58.5t-42 -58.5t-46.5 -47.5t-57 -40.5t-66 -23.5t-79.5 -10q-44 0 -70 7.5t-33 19t-9 25.5zM522 1149q0 4 3.5 10.5t9.5 15t8 11.5l219 289q14 19 22.5 23.5 t32.5 4.5h150q39 0 39 -20q0 -14 -29 -33l-377 -301q-24 -19 -35 -19q-8 0 -25.5 5.5t-17.5 13.5z" />
<glyph unicode="&#xfe;" horiz-adv-x="987" d="M-121 -387l6 31q2 16 15 22.5t69 18.5q50 12 62 31t24 104q48 290 124.5 881.5t76.5 637.5q0 35 -20 45.5t-93 20.5q-29 5 -36.5 10.5t-4.5 26.5q1 4 2 13.5t1.5 12t2 9t4 8t6 5t8.5 5t12.5 3l17.5 3.5q28 4 93 14t115 17.5t64 7.5q31 0 31 -39q0 -21 -35.5 -237 t-58.5 -328q-19 -101 -19 -123q0 -8 4 -8q13 0 31 24q189 189 315 189q38 0 73.5 -15t69 -49t54 -100t20.5 -156q0 -52 -7.5 -111.5t-26.5 -128.5t-47 -134t-72 -126t-99.5 -106t-132.5 -72.5t-166 -27.5q-7 0 -43.5 2t-42.5 2q-15 0 -22.5 -8.5t-9 -16.5t-4.5 -30l-17 -154 q-6 -56 13.5 -73t95.5 -31q35 -6 50.5 -12t18 -11t2.5 -16q0 -41 -11 -53.5t-30 -12.5q-3 0 -70 6t-159 6q-89 0 -157.5 -6t-71.5 -6q-28 0 -25 35zM274 188q0 -30 18 -49.5t46.5 -26t43 -8.5t26.5 -2q69 0 126.5 37.5t94 95.5t62.5 130.5t37 141t11 128.5q0 44 -6.5 80 t-20.5 67.5t-40.5 49.5t-63.5 18q-17 0 -37 -3t-58 -19.5t-70.5 -44t-64.5 -84.5t-48 -134q-15 -75 -35.5 -218t-20.5 -159z" />
<glyph unicode="&#xff;" horiz-adv-x="987" d="M-73 -386q-2 14 3 26l13 75q6 28 15 33q4 2 11 2q2 0 31.5 -8t30.5 -8q36 -6 49 -6q82 0 135 45t111 153q49 95 49 125q0 19 -80.5 348t-93.5 365q-8 20 -11 27t-16 29t-25 32.5t-34.5 20.5t-48.5 10q-12 0 -21 1t-17.5 6.5t-7.5 14.5l3 39q0 17 8.5 23.5t31.5 9.5 l209 31q18 6 37 6q18 0 24 -12t15 -66l96 -485l41 -199q1 -8 11 -27q4 0 51 97q6 14 63 128t66 136q92 188 92 235q0 18 -9.5 30.5t-24.5 18.5t-27.5 8.5t-24.5 2.5q-20 0 -27 1t-13 7t-5 20l4 39q2 15 13.5 22t47.5 13l209 31q24 6 41 6q18 0 30.5 -9.5t12.5 -27.5 q0 -17 -8.5 -37.5t-35.5 -72.5q-8 -16 -13 -25q-115 -217 -289 -529l-250 -456q-22 -42 -33.5 -62.5t-35.5 -58.5t-42 -58.5t-46.5 -47.5t-57 -40.5t-66 -23.5t-79.5 -10q-44 0 -70 7.5t-33 19t-9 25.5zM315 1294q0 62 34 104t77 42q48 0 72 -26.5t24 -72.5 q0 -64 -33.5 -108.5t-80.5 -44.5q-12 0 -25.5 4t-30 14t-27 33t-10.5 55zM664 1294q0 60 32 103t76 43q96 0 96 -99q0 -68 -34.5 -110.5t-79.5 -42.5q-12 0 -25 4.5t-29 14.5t-26 32.5t-10 54.5z" />
<glyph unicode="&#x152;" horiz-adv-x="1935" d="M111 635q0 69 14 144t45 156t76 156.5t112 144t148 119t188.5 80t229.5 29.5q52 0 213 -20q74 -10 290 -10l297 2q75 6 152 6q29 0 29 -19q0 -2 -3.5 -19t-3.5 -20l-32 -176q-5 -31 -9.5 -38t-21.5 -7h-35q-21 0 -26.5 10.5t-10.5 55.5q-3 41 -26 59.5t-78 18.5h-229 q-44 0 -57.5 -12.5t-20.5 -65.5l-54 -365q-4 -36 -4 -39q0 -22 17 -29.5t75 -7.5q48 0 150.5 1.5t149.5 1.5q36 4 110 4q16 0 19.5 -10t-0.5 -27l-7 -51q-3 -35 -11 -45.5t-34 -10.5q-30 0 -191.5 3t-187.5 3q-82 0 -99 -8.5t-23 -52.5l-31 -250q-10 -82 -10 -125 q0 -59 34 -78.5t91 -19.5h233q69 0 107 21.5t65 66.5q11 23 20.5 30t24.5 7h35q29 0 29 -17q0 -7 -5 -22l-38 -178q-3 -22 -10 -30.5t-29 -8.5q-16 0 -99 3t-96 3q-180 4 -297 4q-135 0 -229 -8q-216 -19 -291 -19q-128 0 -236.5 38.5t-184.5 103.5t-129.5 150.5t-79 178.5 t-25.5 189zM303 668q0 -82 18.5 -163t58 -156t96 -132.5t139 -92t180.5 -34.5q50 0 127 14q54 11 77 32t31 59q7 32 71 509t64 517q0 63 -49 90q-70 39 -209 39q-23 0 -53.5 -4t-82.5 -16t-113.5 -43t-116.5 -77q-67 -55 -116 -128t-74 -148t-36.5 -140.5t-11.5 -125.5z" />
<glyph unicode="&#x153;" horiz-adv-x="1402" d="M55 319q0 176 67 336t190 261.5t270 101.5q70 0 125.5 -24.5t103.5 -88.5q2 -3 17 -26.5t18 -26.5q3 -1 14 10q50 65 129 110.5t180 45.5q99 0 151 -42.5t52 -111.5q0 -54 -26 -106t-67 -91.5t-90.5 -75.5t-99.5 -61t-91 -43t-67 -27l-26 -9q-35 -10 -44.5 -20.5 t-12.5 -39.5q-4 -41 -4 -86q0 -95 39.5 -154t120.5 -59q44 0 86 16.5t77.5 46t55 49.5t43.5 48q12 12 16 12q10 0 14 -24l9 -31q7 -26 -6 -47.5t-48 -52.5q-161 -140 -319 -140q-82 0 -131.5 30.5t-89.5 98.5q-20 35 -25 35q-2 0 -41 -39q-59 -64 -135.5 -94.5t-151.5 -30.5 q-123 0 -202 70q-101 87 -101 280zM223 346q0 -46 9.5 -92.5t29 -89t55 -69.5t80.5 -27q76 0 148 76.5t117 204.5t45 269q0 50 -6.5 95.5t-23.5 96.5t-54 81.5t-91 30.5q-65 0 -124.5 -55.5t-99 -140.5t-62.5 -186t-23 -194zM868 545q0 -21 21 -21t64.5 25t70.5 44.5 t47 35.5q125 101 125 215q0 52 -24.5 72t-49.5 20q-57 0 -108 -52.5t-81 -122.5t-47.5 -130t-17.5 -86z" />
<glyph unicode="&#x178;" horiz-adv-x="1214" d="M70 1378l6 45q2 19 33 19q9 0 66.5 -4t129.5 -4q47 0 126 4t91 4q25 0 25 -21q0 -32 -8.5 -48.5t-18 -21t-35.5 -12.5q-2 -1 -10 -3.5t-11.5 -3.5t-11 -4t-11 -5.5t-9.5 -5.5t-9 -6.5t-6.5 -8t-5 -9.5t-1.5 -11q0 -12 39 -100.5t88.5 -196t58.5 -127.5q27 -67 49 -106 q7 -15 14 -15q3 0 26.5 34t52 77t34.5 51q9 13 69 97t110 152t63 81q20 20 20 53q0 22 -21 34t-89 25q-39 7 -39 31q0 44 10 57t31 13q17 0 94 -4t90 -4q53 0 131 4t84 4q24 0 21 -23l-5 -39q-2 -12 -22 -24q-36 -21 -62 -50.5t-122 -154.5q-301 -386 -404 -528 q-19 -25 -23.5 -34t-7.5 -28q-11 -65 -31 -218t-20 -189q0 -37 22 -51t107 -27q20 -3 24 -9.5t1 -21.5l-4 -33q-3 -20 -25 -20q-4 0 -29.5 2t-68.5 4t-90 2q-49 0 -92.5 -1t-72 -2t-49.5 -2t-32.5 -2t-13.5 -1q-35 0 -29 35l4 30q3 16 13.5 20.5t60.5 12.5q57 8 72.5 32 t25.5 97q6 35 29.5 200t23.5 175q0 24 -65 154q-135 273 -244 481q-24 49 -49.5 79t-65.5 35q-26 4 -30 9.5t-2 25.5zM457 1751q0 54 31 104t85 50q29 0 50 -10.5t30.5 -27.5t13 -32t3.5 -29q0 -63 -33.5 -115.5t-85.5 -52.5q-38 0 -66 30t-28 83zM868 1751q0 53 31 103.5 t86 50.5q52 0 73 -30t21 -71q0 -63 -32.5 -114.5t-83.5 -51.5q-38 0 -66.5 30.5t-28.5 82.5z" />
<glyph unicode="&#x2c6;" horiz-adv-x="1024" d="M297 1133q0 6 20 26l275 307q21 24 28.5 28.5t28.5 4.5h53q22 0 27.5 -5t15.5 -28l121 -315q1 -1 4 -6.5t5 -9.5t2 -5q0 -12 -15 -12l-31 -10q-12 -4 -17 -1t-17 21l-113 164l-5 6l-9 9t-10 8t-11 4q-11 0 -18.5 -4t-32.5 -23l-223 -164q-29 -20 -37 -20q-7 0 -24 8.5 t-17 16.5z" />
<glyph unicode="&#x2dc;" horiz-adv-x="1024" d="M242 1241q0 13 45.5 58t116 88t122.5 43q51 0 131 -39q56 -27 71.5 -33t33.5 -6q31 0 81.5 24.5t84.5 53.5q12 12 26 12q10 0 13 -8q8 -24 8 -27q0 -15 -41 -62t-103 -91t-108 -44q-35 0 -96 37q-107 64 -164 64q-37 0 -89 -31.5t-77 -56.5q-21 -21 -31 -21 q-9 0 -16.5 16t-7.5 23z" />
<glyph unicode="&#x2000;" horiz-adv-x="998" />
<glyph unicode="&#x2001;" horiz-adv-x="1997" />
<glyph unicode="&#x2002;" horiz-adv-x="998" />
<glyph unicode="&#x2003;" horiz-adv-x="1997" />
<glyph unicode="&#x2004;" horiz-adv-x="665" />
<glyph unicode="&#x2005;" horiz-adv-x="499" />
<glyph unicode="&#x2006;" horiz-adv-x="332" />
<glyph unicode="&#x2007;" horiz-adv-x="332" />
<glyph unicode="&#x2008;" horiz-adv-x="249" />
<glyph unicode="&#x2009;" horiz-adv-x="399" />
<glyph unicode="&#x200a;" horiz-adv-x="110" />
<glyph unicode="&#x2010;" horiz-adv-x="757" d="M55 459q0 3 2 9t2 7l25 53q28 57 35 64q12 8 53 8q24 0 147.5 -3t143.5 -3q16 0 101 3t98 3q28 0 28 -18q0 -9 -4 -17l-31 -63q-3 -6 -7.5 -15.5t-6 -13t-5.5 -10t-5.5 -8.5t-5 -6t-6 -4.5t-6.5 -2t-8.5 -2t-10.5 -0.5q-15 0 -45.5 2t-32.5 2q-25 2 -164 2 q-119 0 -219 -4l-55 -2q-23 0 -23 19z" />
<glyph unicode="&#x2011;" horiz-adv-x="757" d="M55 459q0 3 2 9t2 7l25 53q28 57 35 64q12 8 53 8q24 0 147.5 -3t143.5 -3q16 0 101 3t98 3q28 0 28 -18q0 -9 -4 -17l-31 -63q-3 -6 -7.5 -15.5t-6 -13t-5.5 -10t-5.5 -8.5t-5 -6t-6 -4.5t-6.5 -2t-8.5 -2t-10.5 -0.5q-15 0 -45.5 2t-32.5 2q-25 2 -164 2 q-119 0 -219 -4l-55 -2q-23 0 -23 19z" />
<glyph unicode="&#x2012;" horiz-adv-x="757" d="M55 459q0 3 2 9t2 7l25 53q28 57 35 64q12 8 53 8q24 0 147.5 -3t143.5 -3q16 0 101 3t98 3q28 0 28 -18q0 -9 -4 -17l-31 -63q-3 -6 -7.5 -15.5t-6 -13t-5.5 -10t-5.5 -8.5t-5 -6t-6 -4.5t-6.5 -2t-8.5 -2t-10.5 -0.5q-15 0 -45.5 2t-32.5 2q-25 2 -164 2 q-119 0 -219 -4l-55 -2q-23 0 -23 19z" />
<glyph unicode="&#x2013;" horiz-adv-x="948" d="M66 461q0 10 4 14l20 64q15 44 25 52.5t47 8.5q74 0 114 -4q152 -4 230 -4q170 0 268 6q6 0 28 1t36 1q24 0 29.5 -10t-1.5 -25l-20 -63q-14 -42 -21.5 -51t-31.5 -9q-14 0 -32.5 0.5t-32 1t-15.5 0.5q-55 2 -256 2q-180 0 -301 -4l-64 -2q-26 0 -26 21z" />
<glyph unicode="&#x2014;" horiz-adv-x="1554" d="M68 457q0 10 4 18l45 100q8 17 19.5 22t47.5 5q201 0 348 -6q250 -4 488 -4q68 0 407 6q5 0 11.5 0.5t10.5 1t5 0.5q21 0 21 -12q0 -18 -9 -31l-32 -82q-8 -21 -15 -28t-26 -7q-29 0 -54 2q-124 7 -295 7q-400 0 -710 -3q-148 -8 -240 -8q-26 0 -26 19z" />
<glyph unicode="&#x2018;" horiz-adv-x="606" d="M272 1130q0 71 34.5 142t144.5 198q56 70 81 70q14 0 27 -10q18 -11 23.5 -16t5.5 -11q0 -3 -23 -43.5t-30 -50.5q-68 -113 -68 -166q0 -19 18 -78q17 -52 17 -80q0 -56 -34 -87t-77 -31q-49 0 -84 44.5t-35 118.5z" />
<glyph unicode="&#x2019;" horiz-adv-x="569" d="M201 1006q0 2 12 22.5t25.5 44t15.5 29.5q36 60 52 94.5t16 65.5q0 12 -27 104q-10 30 -10 57q0 52 34.5 84.5t77.5 32.5q47 0 82 -43.5t35 -120.5q0 -41 -6.5 -73t-48 -104.5t-121.5 -162.5q-59 -69 -84 -69q-12 0 -25 10q-28 19 -28 29z" />
<glyph unicode="&#x201a;" horiz-adv-x="569" d="M33 -272q0 3 12 24t25.5 44.5t15.5 27.5q37 63 52.5 97t15.5 65q0 12 -27 104q-10 30 -10 57q0 53 34 85t78 32q48 0 82.5 -44t34.5 -120q0 -41 -7 -74t-48.5 -104t-120.5 -162q-60 -69 -82 -69q-14 0 -27 10q-19 13 -23.5 17.5t-4.5 9.5z" />
<glyph unicode="&#x201c;" horiz-adv-x="987" d="M274 1145q0 65 33.5 138.5t145.5 201.5q55 69 82 69q9 0 26 -10q28 -22 29 -26q0 -9 -51 -91q-40 -68 -55 -103.5t-15 -63.5q0 -14 27 -105q8 -24 8 -57q0 -54 -35 -85.5t-76 -31.5q-49 0 -84 45t-35 119zM653 1145q0 42 8 76.5t49.5 104t120.5 159.5q3 3 10.5 11.5 t12 13.5t12 12.5t13 12.5t12 9.5t12 7t10.5 2.5q10 0 27 -10q20 -13 24.5 -17.5t4.5 -10.5q0 -2 -12.5 -23.5t-27 -45t-16.5 -28.5q-65 -110 -65 -162q0 -21 26 -102q11 -33 11 -57q0 -54 -35 -85.5t-78 -31.5q-52 0 -85.5 45.5t-33.5 118.5z" />
<glyph unicode="&#x201d;" horiz-adv-x="987" d="M201 1006q0 2 12 22.5t25.5 44t15.5 29.5q36 60 52 94.5t16 65.5q0 12 -27 104q-10 30 -10 57q0 52 34.5 84.5t77.5 32.5q47 0 82 -43.5t35 -120.5q0 -41 -6.5 -73t-48 -104.5t-121.5 -162.5q-59 -69 -84 -69q-12 0 -25 10q-28 19 -28 29zM580 1006q0 2 11.5 22 t26.5 45.5t17 28.5q35 60 50 94.5t15 65.5q0 23 -26 104q-10 30 -10 57q0 52 34.5 84.5t77.5 32.5q48 0 83.5 -44.5t35.5 -119.5q0 -40 -7 -72.5t-49 -105t-122 -162.5q-59 -69 -82 -69q-15 0 -27 10q-28 19 -28 29z" />
<glyph unicode="&#x201e;" horiz-adv-x="987" d="M33 -272q0 3 12 24t25.5 44.5t15.5 27.5q37 63 52.5 97t15.5 65q0 12 -27 104q-10 30 -10 57q0 53 34 85t78 32q48 0 82.5 -44t34.5 -120q0 -41 -7 -74t-48.5 -104t-120.5 -162q-60 -69 -82 -69q-14 0 -27 10q-19 13 -23.5 17.5t-4.5 9.5zM412 -272q0 3 12 24t25.5 44.5 t15.5 27.5q67 109 67 162q0 23 -26 104q-10 30 -10 57q0 52 34 84.5t78 32.5q49 0 83 -45t34 -119q0 -41 -7 -74t-48.5 -104t-120.5 -162q-60 -69 -82 -69q-10 0 -27 10q-19 13 -23.5 17.5t-4.5 9.5z" />
<glyph unicode="&#x2022;" d="M315 662q0 112 80 192t193 80q112 0 192 -80t80 -192q0 -113 -80 -193t-192 -80t-192.5 80.5t-80.5 192.5z" />
<glyph unicode="&#x2026;" horiz-adv-x="1818" d="M121 111q0 65 39 116.5t98 51.5q43 0 77 -34.5t34 -94.5q0 -67 -42 -116.5t-98 -49.5q-40 0 -74 31t-34 96zM727 111q0 65 39 116.5t98 51.5q43 0 77 -34.5t34 -94.5q0 -67 -41.5 -116.5t-97.5 -49.5q-40 0 -74.5 31t-34.5 96zM1333 111q0 65 39 116.5t98 51.5 q43 0 77 -34.5t34 -94.5q0 -67 -41.5 -116.5t-97.5 -49.5q-40 0 -74.5 31t-34.5 96z" />
<glyph unicode="&#x202f;" horiz-adv-x="399" />
<glyph unicode="&#x2039;" horiz-adv-x="645" d="M70 571q0 7 3.5 12t24.5 27l369 353q24 23 35.5 28.5t38.5 5.5h59q29 0 29 -16q0 -8 -27 -39l-278 -332q-29 -36 -29 -55q0 -18 16 -49l178 -350l15 -29q0 -16 -31 -16h-49q-23 0 -30.5 6t-31.5 39l-272 381q-20 30 -20 34z" />
<glyph unicode="&#x203a;" horiz-adv-x="645" d="M12 127q0 8 27 39l278 334q29 34 29 53q0 20 -16 49l-178 350q-5 10 -9 17.5t-5 9.5t-1 4q0 14 33 14h47q23 0 30.5 -6t31.5 -39l272 -381q20 -28 20 -34q0 -7 -4 -12t-24 -25l-369 -355q-16 -14 -21 -18t-14 -9.5t-17 -6t-22 -0.5h-59q-29 0 -29 16z" />
<glyph unicode="&#x205f;" horiz-adv-x="499" />
<glyph unicode="&#x2122;" horiz-adv-x="1972" d="M119 1391v7v7t0.5 6.5t1.5 7t3 5t4.5 5t7 2.5t9.5 1q7 0 91 -3.5t202 -3.5q110 0 182.5 1.5t102 3.5t35.5 2q28 0 28 -39v-111q0 -20 -10.5 -24.5t-38.5 -4.5q-15 0 -19.5 8t-10.5 42q-3 13 -6 17.5t-19.5 9t-42.5 5t-84 0.5q-19 0 -25.5 -5.5t-7.5 -26.5q-2 -29 -2 -220 v-145q0 -223 6 -238q4 -9 14.5 -12.5t41.5 -9.5q2 -1 3.5 -1t3 -0.5t3.5 -0.5q8 -1 13 -3t8 -4t4 -9.5t1 -12v-18.5q0 -25 -26 -25q-10 0 -67 3t-66 3q-13 0 -75 -3t-71 -3q-12 0 -17.5 6.5t-6 13.5t-0.5 25q0 23 43 29q32 6 41.5 14t11.5 27q2 27 2 215v373q-1 21 -9 24.5 t-42 3.5q-111 0 -121 -10q-11 -9 -20 -47q-4 -17 -13 -21t-35 -4q-24 0 -24 29zM862 647q0 13 8 18t39 13q21 6 26.5 15t6.5 42q2 23 13 170t19.5 270t8.5 146q0 10 -1.5 15t-11.5 10t-30 8q-27 4 -32 12t-5 43q0 9 7 16t16 7q7 0 53 -3.5t88 -3.5q9 0 42 3.5t42 3.5 q13 0 19 -9.5t20 -50.5q25 -70 108 -285.5t105 -265.5q29 73 172 447l51 139q8 25 31 25q12 0 54.5 -3.5t49.5 -3.5q9 0 58 3.5t57 3.5q20 0 24.5 -8.5t4.5 -37.5q0 -17 -6.5 -21.5t-36.5 -12.5q-23 -5 -30 -11.5t-7 -25.5q0 -12 18 -298t19 -290q3 -29 10.5 -35.5 t44.5 -15.5q19 -4 23 -13t4 -36q0 -23 -25 -23q-16 0 -60.5 3t-58.5 3q-12 0 -62.5 -3t-64.5 -3q-16 0 -19 9t-3 34q0 15 8.5 20.5t34.5 10.5q19 5 25.5 10.5t6.5 20.5q0 38 -12 259.5t-22 323.5q-16 -49 -197 -512l-51 -125q-10 -26 -15.5 -38t-8 -14t-7.5 -5 q-40 -10 -45 -10q-10 0 -22 26q-33 91 -95 238q-133 349 -172 446q0 -106 -10 -323q-1 -14 -4.5 -73t-6.5 -112.5t-3 -68.5q0 -24 7 -29.5t44 -13.5q19 -4 23 -13t4 -38q0 -9 -6.5 -16t-16.5 -7q-9 0 -60 3t-59 3q-9 0 -56 -3t-52 -3q-14 0 -17.5 8.5t-3.5 34.5z" />
<glyph unicode="&#x25fc;" horiz-adv-x="1034" d="M0 0v1034h1034v-1034h-1034z" />
<glyph unicode="&#xfb01;" d="M-149 -408q0 6 4 19l16 78q4 18 17.5 25t41.5 7q96 0 127.5 8t59.5 46q27 37 38 94.5t23 191.5q26 273 62 545q1 14 7.5 67t11.5 99t5 59q0 27 -24 27l-144 -2q-30 0 -30 10q0 3 8 19l51 82q9 15 23.5 19.5t44.5 2.5l51 -2q35 0 43 15.5t14 80.5q9 104 31 161t71 114 q156 182 363 182q206 0 219 -49q9 -39 19 -45q23 -13 37.5 -24.5t29 -39.5t14.5 -65q0 -32 -12 -64t-42.5 -58t-74.5 -26q-36 0 -60.5 14.5t-34 38t-12.5 39t-3 31.5v64q-6 25 -40.5 39t-88.5 14q-58 0 -103 -16t-69 -35.5t-41 -50.5t-21.5 -48t-9.5 -40q-20 -107 -20 -191 q0 -22 7 -32t16 -11.5t32 -1.5h108q170 0 265 10q77 11 86 11q43 0 43 -46q0 -16 -19 -135q-37 -228 -58.5 -408.5t-21.5 -232.5q0 -34 13.5 -45.5t38.5 -11.5q7 0 45 3t45 3q24 0 24 -27q0 -41 -9.5 -52.5t-39.5 -18.5l-229 -58q-32 -4 -33 -4q-20 0 -31.5 13.5t-13.5 24 t-2 20.5q0 9 51 370.5t51 397.5q0 40 -22 53.5t-84 13.5h-207q-32 0 -44.5 -1.5t-24.5 -13t-16.5 -32.5t-10.5 -65q-43 -361 -67.5 -541t-35.5 -230.5t-30 -103.5q-7 -22 -19 -48.5t-43 -76t-68 -87t-96.5 -66.5t-126.5 -29q-30 0 -46.5 2t-22.5 8t-6 12z" />
<glyph unicode="&#xfb02;" d="M-149 -408q0 6 4 19l16 78q4 18 17.5 25t41.5 7q96 0 127.5 8t59.5 46q27 37 38 94.5t23 191.5q26 273 62 545q1 14 7.5 67t11.5 99t5 59q0 27 -24 27l-144 -2q-30 0 -30 10q0 3 8 19l51 82q9 15 23.5 19.5t44.5 2.5l51 -2q35 0 43 15.5t14 80.5q9 104 31.5 162t70.5 113 q53 62 108 102t107.5 55.5t85 20t74.5 4.5q63 0 129 -14q8 -4 23 -4q2 0 7 1t12 2.5t12 2.5l77 10q23 6 42.5 0.5t19.5 -27.5q-56 -347 -64 -413q-31 -218 -73.5 -550t-42.5 -370q0 -57 49 -57q7 0 45 4t45 4q26 0 26 -29l-2 -28q-3 -19 -11 -24.5t-32 -10.5l-225 -62 q-12 -4 -24 -4q-56 0 -56 60q0 28 25 192q43 286 90 663.5t47 442.5q0 15 -1.5 22t-9.5 15t-26 14q-66 23 -145 23q-103 0 -152 -35t-71 -90q-16 -40 -26.5 -117t-10.5 -129q0 -30 10 -38.5t41 -6.5l170 2l31 2q8 0 15 -4.5t7 -11.5q0 -3 -2 -9.5t-2 -7.5l-25 -77 q-10 -26 -55 -23l-143 2q-27 0 -37 -1t-23.5 -9.5t-18.5 -27t-9 -52.5q-6 -66 -35.5 -302t-48.5 -370q-6 -44 -11.5 -75t-23 -93t-39.5 -109.5t-61.5 -102t-88.5 -91.5q-81 -57 -180 -57q-30 0 -46.5 2t-22.5 8t-6 12z" />
</font>
</defs>
</svg>
