<?xml version="1.0" standalone="no"?>
<!DOCTYPE svg PUBLIC "-//W3C//DTD SVG 1.1//EN" "http://www.w3.org/Graphics/SVG/1.1/DTD/svg11.dtd" >
<svg xmlns="http://www.w3.org/2000/svg" xmlns:xlink="http://www.w3.org/1999/xlink" version="1.1">
<metadata></metadata>
<defs>
<font id="priori_sansmedium" horiz-adv-x="681" >
<font-face units-per-em="2048" ascent="1638" descent="-410" />
<missing-glyph horiz-adv-x="368" />
<glyph horiz-adv-x="0" />
<glyph unicode="&#xd;" horiz-adv-x="368" />
<glyph unicode=" "  horiz-adv-x="368" />
<glyph unicode="&#x09;" horiz-adv-x="368" />
<glyph unicode="&#xa0;" horiz-adv-x="368" />
<glyph unicode="!" horiz-adv-x="516" d="M156 70l102 -103l102 103l-102 102zM172 1163l47 -899h76l47 899h-170z" />
<glyph unicode="&#x22;" horiz-adv-x="604" d="M82 1163l47 -407h66l47 407h-160zM362 1163l48 -407h65l47 407h-160z" />
<glyph unicode="#" horiz-adv-x="1161" d="M51 330h258l-71 -330h96l72 330h241l-72 -330h97l71 330h261l18 96h-258l67 311h261l18 97h-258l72 329h-97l-71 -329h-242l72 329h-97l-71 -329h-258l-21 -97h258l-67 -311h-258zM426 426l68 311h241l-67 -311h-242z" />
<glyph unicode="$" horiz-adv-x="923" d="M123 893q0 -55 19.5 -99t50 -78t66.5 -61.5t69 -48.5l98 -65v-465q-45 0 -91 13t-86 30.5t-73 35t-51 29.5v-133q70 -39 145.5 -61.5t155.5 -22.5v-188h57v190q70 6 128.5 31t101.5 63.5t66.5 91t23.5 117.5q0 61 -22.5 109.5t-56.5 86.5t-72 65.5t-70 50.5l-99 65v441 q72 -4 139.5 -31t112.5 -53v122q-37 18 -101.5 41t-150.5 27v184h-57v-186q-63 -4 -118.5 -25.5t-96.5 -59.5t-64.5 -92t-23.5 -124zM240 903q0 74 52 124t134 60v-401l-14 10q-31 20 -62 42t-55.5 46.5t-39.5 53t-15 65.5zM483 80v424l23 -15q27 -18 57.5 -41.5t57 -51 t44 -60.5t17.5 -68q0 -78 -57.5 -127t-141.5 -61z" />
<glyph unicode="%" horiz-adv-x="991" d="M61 983q0 -45 17.5 -84t47.5 -68.5t72 -46t91 -16.5t91 16.5t71.5 46t47 68.5t17.5 84t-17.5 84t-47 67.5t-71.5 46t-91 17.5t-91 -17.5t-72 -46t-47.5 -67.5t-17.5 -84zM158 983q0 53 37.5 91t93.5 38q57 0 94 -38t37 -91t-37 -90t-94 -37q-55 0 -93 37t-38 90zM205 -35 h59l522 1233h-59zM475 190q0 -45 17.5 -83.5t47 -68.5t71.5 -46.5t91 -16.5t91.5 16.5t72 46.5t47 68.5t17.5 83.5q0 43 -17.5 82t-47 69t-71.5 46t-92 16q-49 0 -91 -16t-71.5 -46t-47 -69t-17.5 -82zM571 190q0 53 37 90t94 37q55 0 93.5 -37t38.5 -90q0 -55 -38 -92 t-94 -37q-57 0 -94 37t-37 92z" />
<glyph unicode="&#x26;" horiz-adv-x="1232" d="M92 336q0 -80 29 -148.5t81 -118t126.5 -77t167.5 -27.5q117 0 202.5 40t151.5 106q47 -66 98 -106t129 -40q31 0 56.5 11.5t46 26.5t34 31.5t19.5 24.5l-51 50q-10 -10 -29.5 -31t-50.5 -21q-35 0 -70 21.5t-69 68.5l-39 56q37 55 63.5 115.5t45 117t29.5 103.5t17 77 h-100q-6 -23 -16.5 -61.5t-24.5 -83.5t-33.5 -92t-42.5 -86l-534 766h608v104h-801v-28l271 -387q-47 -23 -102.5 -57t-102.5 -84t-78 -117.5t-31 -153.5zM213 350q0 70 25.5 122t63.5 90t82 63.5t79 40.5l328 -469q-53 -57 -121 -93t-158 -36q-66 0 -120 20.5t-94 58 t-62.5 90t-22.5 113.5z" />
<glyph unicode="'" horiz-adv-x="331" d="M82 1163l49 -407h70l49 407h-168z" />
<glyph unicode="(" horiz-adv-x="665" d="M123 487q0 -123 35 -236.5t94 -217t139 -192.5t170 -158l64 63q-80 72 -149.5 151.5t-120 171t-80 195t-29.5 223.5q0 121 29.5 224.5t80 194.5t119 171t148.5 152l-62 65q-90 -72 -170 -159.5t-139 -191t-94 -218.5t-35 -238z" />
<glyph unicode=")" horiz-adv-x="665" d="M41 -254l63 -63q90 70 170 158.5t139.5 192t94.5 217t35 236.5t-35 238t-94.5 218.5t-139 191.5t-170.5 159l-61 -65q80 -72 148.5 -152t118.5 -171t80 -194.5t30 -224.5t-30 -224t-80 -194.5t-119.5 -171t-149.5 -151.5z" />
<glyph unicode="*" horiz-adv-x="899" d="M82 864l340 -57l-242 -246l111 -80l160 305l159 -305l109 80l-242 246l340 57l-41 129l-309 -153l51 342h-137l51 -342l-307 153z" />
<glyph unicode="+" horiz-adv-x="1245" d="M102 473h471v-473h99v473h471v98h-471v469h-99v-469h-471v-98z" />
<glyph unicode="," horiz-adv-x="512" d="M133 -289v-33q49 8 91 33t73 62t48 83t17 97q0 43 -12 78t-27.5 60.5t-33 43t-25.5 27.5l-24 22l-103 -102l33.5 -33.5t38 -43t31 -53.5t12.5 -67q0 -39 -11.5 -67.5t-28.5 -50t-37.5 -35t-41.5 -21.5z" />
<glyph unicode="-" horiz-adv-x="563" d="M102 377h359v98h-359v-98z" />
<glyph unicode="." horiz-adv-x="512" d="M133 90l123 -123l123 123l-123 123z" />
<glyph unicode="/" horiz-adv-x="712" d="M20 -25h95l577 1244h-92z" />
<glyph unicode="0" horiz-adv-x="1019" d="M102 580q0 -117 29 -227.5t81 -196.5t128 -139.5t170 -53.5t170 53.5t128 139.5t81 196.5t29 227.5t-29 227.5t-81 197.5t-128 140t-170 53t-170 -53t-128 -140t-81 -198t-29 -227zM227 580q0 94 19.5 185t55.5 163.5t88 118t120 45.5t120 -45.5t88 -118t55.5 -163.5 t19.5 -185t-19.5 -185.5t-55.5 -164t-88 -116.5t-120 -44t-120 44t-88 116.5t-55.5 163.5t-19.5 186z" />
<glyph unicode="1" horiz-adv-x="466" d="M172 0h123v1206l-123 -65v-1141z" />
<glyph unicode="2" horiz-adv-x="892" d="M61 864h107q4 51 25.5 93t56.5 72t79 46.5t93 16.5q109 0 174.5 -69t65.5 -179q0 -49 -16.5 -98.5t-44.5 -96.5t-63.5 -93t-74.5 -89l-385 -430v-37h713v109h-508l286 315q31 33 69 80t69.5 102.5t54 115.5t22.5 124q0 82 -26.5 147.5t-74.5 111.5t-114.5 71.5 t-144.5 25.5q-72 0 -136.5 -26.5t-113.5 -71.5t-78.5 -107.5t-34.5 -132.5z" />
<glyph unicode="3" horiz-adv-x="841" d="M41 86q18 -18 45 -38.5t63.5 -39t85 -30t109.5 -11.5q80 0 151.5 28t126 78t86 121.5t31.5 159.5q0 86 -34.5 146.5t-82 98.5t-97.5 57.5t-83 23.5q18 12 58.5 43t83.5 83t79.5 126t51.5 172v59h-643v-108h516q-29 -92 -75 -162t-100.5 -120t-109.5 -86t-100 -60l39 -54 q23 10 54.5 17.5t59.5 7.5q45 0 91.5 -14.5t83 -45t60 -77.5t23.5 -111q0 -68 -24.5 -121t-64.5 -89t-90 -54t-101 -18q-78 0 -137.5 33.5t-90.5 64.5z" />
<glyph unicode="4" horiz-adv-x="956" d="M41 381l18 -51h508v-330h119v330h250v104h-250v729h-96zM182 434l385 549v-549h-385z" />
<glyph unicode="5" horiz-adv-x="878" d="M41 104q12 -12 37 -30q133 -109 303 -109q78 0 149.5 30t126 82t87 124.5t32.5 156.5q0 88 -32.5 160t-87 123t-126 80t-147.5 29q-43 0 -68.5 -6.5t-48.5 -12.5l23 324h456v108h-548l-39 -559l30 -8q8 6 22.5 14t37.5 17q23 10 49.5 16t58.5 6q63 0 117.5 -21.5 t94.5 -58.5t62.5 -89t22.5 -113q0 -66 -22.5 -120t-62.5 -94t-92 -62.5t-109 -22.5q-55 0 -99.5 15t-79.5 38q-43 27 -82 67z" />
<glyph unicode="6" horiz-adv-x="987" d="M102 416q0 -86 26 -168t77 -144.5t124.5 -100.5t172.5 -38q76 0 142.5 30t116.5 80t79.5 117.5t29.5 145.5q0 88 -33.5 158.5t-88 119t-123 74t-140.5 25.5q-94 0 -142 -20.5t-67 -30.5q41 98 104.5 172.5t142.5 127t171.5 85.5t190.5 49v92q-158 -12 -299.5 -75.5 t-249 -167t-171 -239t-63.5 -292.5zM227 420q0 63 9.5 98t13.5 43q23 12 77 33.5t140 21.5q68 0 121 -22.5t91 -61t57.5 -89t19.5 -105.5q0 -49 -17.5 -98.5t-50.5 -87t-78 -61t-100 -23.5q-74 0 -127 29.5t-88 78.5t-51.5 112.5t-16.5 131.5z" />
<glyph unicode="7" horiz-adv-x="868" d="M41 1055h639l-481 -1055h135l493 1126l-22 37h-764v-108z" />
<glyph unicode="8" horiz-adv-x="880" d="M102 276q0 -66 26 -122t71 -98t107.5 -66.5t133.5 -24.5q72 0 133.5 24.5t107.5 67.5t71.5 100.5t25.5 123.5q0 98 -58 183t-196 159q129 63 182.5 138t53.5 161q0 57 -24.5 108t-67.5 88t-101.5 58.5t-126.5 21.5t-127 -21.5t-102 -59.5t-67.5 -89t-24.5 -108 q0 -88 54 -165t185 -141q-137 -72 -196.5 -155.5t-59.5 -182.5zM217 287q0 63 38 127.5t142 126.5l39 22l47 -28q57 -35 93 -72t57 -70q16 -27 23.5 -54t7.5 -56q0 -41 -16.5 -80t-45.5 -69t-69.5 -47t-92.5 -17q-51 0 -92 18t-70.5 48t-45 69t-15.5 82zM231 918 q0 33 14.5 64.5t41 57t65.5 41t88 15.5t88 -15.5t64.5 -42t40 -59.5t14.5 -68q0 -51 -33.5 -103t-126.5 -112l-38 -24l-54 33q-47 29 -77.5 55t-49.5 51q-37 51 -37 107z" />
<glyph unicode="9" horiz-adv-x="987" d="M102 -27q156 12 298.5 76t250 167t171 238.5t63.5 293.5q0 86 -25.5 167.5t-77 144t-125 100.5t-172.5 38q-76 0 -142.5 -29.5t-116.5 -80t-79.5 -119t-29.5 -144.5q0 -90 33.5 -159.5t88 -117.5t123 -73.5t140.5 -25.5q94 0 142 20t67 31q-41 -98 -104.5 -173 t-142.5 -127.5t-171.5 -85t-190.5 -48.5v-93zM231 825q0 49 17.5 98.5t50.5 87.5t78 61.5t100 23.5q74 0 127 -30t88 -79t51.5 -112.5t16.5 -131.5q0 -63 -9.5 -98t-13.5 -43q-23 -12 -77 -33.5t-140 -21.5q-68 0 -121 22.5t-91 61.5t-57.5 89t-19.5 105z" />
<glyph unicode=":" horiz-adv-x="512" d="M133 90l123 -123l123 123l-123 123zM133 631l123 -123l123 123l-123 123z" />
<glyph unicode=";" horiz-adv-x="512" d="M133 631l123 -123l123 123l-123 123zM150 -289v-33q49 8 91 33t72.5 62t48 83t17.5 97q0 43 -12.5 78t-27.5 60.5t-32.5 43t-25.5 27.5l-25 22l-102 -102l33.5 -33.5t38 -43t30.5 -53.5t12 -67q0 -39 -11 -67.5t-28.5 -50t-38 -35t-40.5 -21.5z" />
<glyph unicode="&#x3c;" horiz-adv-x="804" d="M82 479l641 -362v108l-543 295l543 295v107l-641 -363v-80z" />
<glyph unicode="=" horiz-adv-x="1054" d="M102 346h850v98h-850v-98zM102 600h850v98h-850v-98z" />
<glyph unicode="&#x3e;" horiz-adv-x="804" d="M82 117l641 362v80l-641 363v-107l543 -295l-543 -295v-108z" />
<glyph unicode="?" horiz-adv-x="729" d="M102 1042q35 14 86.5 26.5t110.5 12.5q119 0 184.5 -69.5t65.5 -169.5q0 -63 -30 -116.5t-76 -95.5t-103 -71t-111 -43l-30 -8l16 -244h84v176q66 23 131.5 60t118.5 88t86 114.5t33 141.5q0 76 -30 138t-80 106.5t-116.5 68t-142.5 23.5q-57 0 -109.5 -12.5t-87.5 -22.5 v-103zM158 70l102 -103l102 103l-102 102z" />
<glyph unicode="@" horiz-adv-x="1654" d="M82 360q0 -166 57.5 -307t158.5 -243.5t241.5 -160t306.5 -57.5q131 0 249.5 38t217 107.5t173.5 167t116 216.5h-50q-45 -111 -114.5 -198t-160.5 -147.5t-197.5 -92t-225.5 -31.5q-156 0 -280.5 55t-212 148.5t-133.5 216.5t-46 256q0 156 53.5 301t150.5 258.5 t234.5 182.5t307.5 69q123 0 224 -39t175 -108.5t115 -168t41 -217.5q0 -121 -37 -222t-92.5 -174t-121 -114t-122.5 -41q-23 0 -39 7.5t-25.5 25.5t-8.5 51t16 84l166 578h-115l-31 -111q-4 8 -12 26.5t-25.5 38t-46 34t-74.5 14.5q-96 0 -183 -59.5t-152.5 -147.5 t-105.5 -192.5t-40 -192.5q0 -98 47 -154.5t119 -56.5q55 0 111.5 27.5t103.5 66.5t82 83t49 75q-4 -16 -15 -53t-11 -82q0 -121 141 -121q88 0 173 47t151.5 129t106.5 192.5t40 239.5q0 135 -45 244.5t-127 187.5t-196.5 120t-254.5 42q-174 0 -325.5 -64.5t-263 -177 t-175 -266t-63.5 -330.5zM563 233q0 59 27.5 149.5t77 174.5t114 144.5t138.5 60.5q55 0 86.5 -35t31.5 -96l-2 2q0 -41 -13 -96.5t-37.5 -115t-58.5 -116.5t-75 -103t-87 -75t-95 -29q-47 0 -77 38t-30 97z" />
<glyph unicode="A" horiz-adv-x="989" d="M20 0h130l145 420h399l146 -420h129l-414 1163h-121zM328 518l114 340l54 164l51 -164l115 -340h-334z" />
<glyph unicode="B" horiz-adv-x="962" d="M152 0h368q76 0 141.5 21.5t113.5 63.5t75 101t27 133q0 90 -46.5 164t-144.5 119q10 8 17.5 13.5t17.5 15.5q102 86 102 223q0 59 -21.5 114.5t-65.5 98.5t-110.5 69.5t-154.5 26.5h-319v-1163zM272 106v447h195q137 0 211 -64.5t74 -158.5q0 -104 -72 -164t-178 -60 h-230zM272 653v408h179q119 0 183 -55.5t64 -157.5q0 -53 -20.5 -99.5t-63.5 -80.5q-10 -6 -16 -11.5t-12 -9.5q-18 4 -42 5t-40 1h-232z" />
<glyph unicode="C" horiz-adv-x="1191" d="M86 580q0 -135 51 -248t137 -195t198 -127t233 -45q90 0 157.5 13.5t116.5 29.5q47 16 79 33t48 27v120q-23 -12 -60.5 -32.5t-88 -39t-114 -31.5t-136.5 -13q-102 0 -192.5 39t-158 107.5t-106.5 161.5t-39 202q0 111 41 204t109.5 161.5t158.5 106.5t187 38 q70 0 132 -14.5t113.5 -33t88 -38t59.5 -31.5l2 125q-20 10 -58 27.5t-90.5 33t-116 26.5t-132.5 11q-119 0 -231 -46t-198 -128t-138 -195.5t-52 -248.5z" />
<glyph unicode="D" horiz-adv-x="1243" d="M152 0h362q125 0 240.5 37t205 109.5t143.5 181.5t54 250t-55 249.5t-146.5 183t-209 113.5t-242.5 39h-352v-1163zM272 113v942h238q106 0 200.5 -33t166 -95.5t113.5 -150t42 -198.5t-40 -198t-109.5 -146.5t-162.5 -90t-200 -30.5h-248z" />
<glyph unicode="E" horiz-adv-x="917" d="M152 0h679v109h-559v426h410v106h-410v414h533v108h-653v-1163z" />
<glyph unicode="F" horiz-adv-x="835" d="M152 0h120v535h400v106h-400v414h492v108h-612v-1163z" />
<glyph unicode="G" horiz-adv-x="1236" d="M86 580q0 -135 51 -248t137 -195t198 -127t233 -45q90 0 157.5 13.5t116.5 29.5q47 16 79 32.5t48 27.5v430h-121v-371q-53 -23 -122.5 -39t-155.5 -16q-102 0 -192.5 39t-158 107.5t-106.5 161.5t-39 202q0 111 41 204t109.5 161.5t158.5 106.5t187 38q70 0 132 -14.5 t113.5 -33t88 -38t59.5 -31.5v125q-20 10 -58 27.5t-89.5 33t-115 26.5t-132.5 11q-119 0 -231 -46t-198 -128t-138 -195.5t-52 -248.5z" />
<glyph unicode="H" horiz-adv-x="1183" d="M152 0h120v535h639v-535h121v1163h-121v-522h-639v522h-120v-1163z" />
<glyph unicode="I" horiz-adv-x="444" d="M162 0h121v1163h-121v-1163z" />
<glyph unicode="J" horiz-adv-x="423" d="M152 -526l120 120v1569h-120v-1689z" />
<glyph unicode="K" horiz-adv-x="1015" d="M152 0h120v455l150 149l424 -604h149l-487 690l473 473h-152l-557 -561v561h-120v-1163z" />
<glyph unicode="L" horiz-adv-x="884" d="M152 0h712v109h-592v1054h-120v-1163z" />
<glyph unicode="M" horiz-adv-x="1452" d="M152 0h116v846l420 -846h76l420 846v-846h116v1163h-79l-494 -985l-496 985h-79v-1163z" />
<glyph unicode="N" horiz-adv-x="1255" d="M152 0h120v952l711 -710v-242h121v1163h-121v-757l-758 757h-73v-1163z" />
<glyph unicode="O" horiz-adv-x="1429" d="M86 582q0 -127 47 -240t132 -197t200 -132t250 -48t249.5 48t199.5 132t132 197t47 240t-47 239.5t-132 196.5t-199.5 132t-249.5 48t-250 -48t-200 -132t-132 -196.5t-47 -239.5zM211 582q0 104 38 197t105.5 163t159.5 110t201 40t201 -40t159.5 -110t105.5 -163 t38 -197t-38 -197.5t-105.5 -163t-160 -109.5t-200.5 -40q-109 0 -201 40t-159.5 109.5t-105.5 162.5t-38 198z" />
<glyph unicode="P" horiz-adv-x="876" d="M152 0h120v504h172q68 0 135.5 19.5t123 59.5t89 103.5t33.5 149.5q0 152 -100 239.5t-285 87.5h-288v-1163zM272 602v455h160q268 0 268 -219q0 -66 -24.5 -111t-64.5 -72.5t-89 -40t-98 -12.5h-152z" />
<glyph unicode="Q" horiz-adv-x="1429" d="M86 582q0 -170 77 -302.5t200.5 -223.5t280.5 -139t319 -48h348l30 104h-499v4q106 20 198.5 74.5t160 134.5t105 180.5t37.5 215.5q0 129 -47 241.5t-132 195.5t-199.5 131t-249.5 48q-133 0 -249 -48t-200 -132t-132 -196.5t-48 -239.5zM211 571q0 106 38 201.5 t105.5 166.5t159.5 112t201 41t201 -41t159.5 -112t105.5 -166.5t38 -201.5q0 -109 -38 -203t-105.5 -164.5t-160 -111.5t-200.5 -41q-109 0 -201 41t-159.5 111.5t-105.5 165t-38 202.5z" />
<glyph unicode="R" horiz-adv-x="985" d="M152 0h120v489h138l266 -395q33 -47 69.5 -80.5t110.5 -33.5q37 0 63.5 11t44 26.5t28 31t14.5 21.5l-45 45q-10 -12 -30 -25.5t-48 -13.5q-47 0 -99 74l-241 352q53 12 102 38.5t87 67.5t60.5 95.5t22.5 123.5q0 154 -103.5 245t-289.5 91h-270v-1163zM272 586v471h138 q280 -1 280 -228q0 -70 -25.5 -115.5t-67.5 -74.5t-93 -41t-103 -12h-129z" />
<glyph unicode="S" horiz-adv-x="849" d="M86 51q72 -39 151.5 -61.5t161.5 -22.5q80 0 146.5 21.5t115 60.5t76 95t27.5 128q0 61 -21.5 108.5t-53.5 85.5t-68.5 65.5t-69.5 50.5l-170 112q-31 20 -59.5 42t-51 46.5t-37 54t-14.5 66.5q0 82 57.5 134.5t153.5 52.5q78 0 148.5 -28t117.5 -56v122 q-41 20 -107.5 44t-158.5 24q-70 0 -130 -19.5t-104 -57.5t-70 -95t-26 -131q0 -55 18.5 -99t46.5 -80t62.5 -63.5t67.5 -48.5l178 -117q27 -18 56.5 -40.5t54 -50t41 -59.5t16.5 -67q0 -92 -69.5 -142t-172.5 -50q-47 0 -94 12t-89 29.5t-77 36t-53 30.5v-133z" />
<glyph unicode="T" horiz-adv-x="980" d="M20 1057h410v-1057h121v1057h410v106h-941v-106z" />
<glyph unicode="U" horiz-adv-x="1169" d="M141 395q0 -92 28 -167.5t77 -131t119.5 -86t156.5 -30.5q88 0 153.5 25.5t110.5 59t72 67.5t39 50v-182h121v1163h-121v-823q-16 -27 -44 -70t-71 -85t-103.5 -71.5t-139.5 -29.5q-127 0 -201 86t-74 225v768h-123v-768z" />
<glyph unicode="V" horiz-adv-x="968" d="M20 1163l414 -1163h101l413 1163h-129l-293 -858l-43 -131l-41 131l-295 858h-127z" />
<glyph unicode="W" horiz-adv-x="1392" d="M20 1163l414 -1163h111l151 430l152 -430h110l414 1163h-129l-295 -854l-49 -153l-51 153l-96 277l206 577h-120l-142 -415l-141 415h-121l207 -577l-96 -277l-51 -153l-50 153l-294 854h-130z" />
<glyph unicode="X" horiz-adv-x="1026" d="M31 0h147l336 492l334 -492h147l-415 586l409 577h-147l-328 -481l-330 481h-147l409 -577z" />
<glyph unicode="Y" horiz-adv-x="917" d="M20 1163l379 -674v-489h121v489l377 674h-137l-301 -569l-301 569h-138z" />
<glyph unicode="Z" horiz-adv-x="1005" d="M41 0h924v102h-738l723 1010v51h-880v-102h694l-723 -1014v-47z" />
<glyph unicode="[" horiz-adv-x="518" d="M143 -287h293v86h-178v1411h178v86h-293v-1583z" />
<glyph unicode="\" horiz-adv-x="548" d="M-61 1219l577 -1244h94l-579 1244h-92z" />
<glyph unicode="]" horiz-adv-x="518" d="M82 -201v-86h293v1583h-293v-86h178v-1411h-178z" />
<glyph unicode="^" horiz-adv-x="1040" d="M82 664h117l321 608l322 -608h116l-380 718h-115z" />
<glyph unicode="_" horiz-adv-x="1024" d="M0 0v-106h1024v106h-1024z" />
<glyph unicode="`" d="M190 1284l195 -379h102l-186 379h-111z" />
<glyph unicode="a" horiz-adv-x="722" d="M61 211q0 -53 18.5 -96t51.5 -73t74 -46t88 -16q49 0 86 10t62.5 23.5t42 27.5t24.5 20l10 -61h92v723h-483l-21 -94h396v-137l-135 -15q-139 -16 -222.5 -81.5t-83.5 -184.5zM172 217q0 76 54.5 120t156.5 56l119 15v-248q-10 -10 -25.5 -24.5t-38 -30t-51.5 -25.5 t-63 -10q-66 0 -109 42t-43 105z" />
<glyph unicode="b" horiz-adv-x="874" d="M113 0h84l16 55q8 -6 26.5 -19t46 -25.5t64.5 -23t84 -10.5q76 0 143.5 30t117.5 81t79 120.5t29 151.5t-30 153t-79 122t-114.5 80.5t-137.5 29.5q-49 0 -88 -9t-65.5 -20t-43 -21.5t-22.5 -14.5v483h-110v-1163zM223 156v415q6 6 23.5 17.5t42 24t56.5 21.5t71 9 q59 0 109 -21.5t86 -59.5t56.5 -90.5t20.5 -111.5t-20.5 -110t-57.5 -89t-87 -59.5t-107 -21.5q-37 0 -70 9t-57.5 22.5t-41 26t-24.5 18.5z" />
<glyph unicode="c" horiz-adv-x="788" d="M72 358q0 -84 30.5 -153.5t83 -120.5t124 -79t151.5 -28q55 0 98 9.5t75 21.5t52.5 24.5t30.5 18.5v103q-8 -4 -30.5 -16.5t-55.5 -25t-76 -21.5t-92 -9q-57 0 -107.5 19.5t-88.5 56.5t-59.5 88t-21.5 112q0 59 20.5 110.5t56.5 89.5t87 59.5t113 21.5q47 0 89 -9 t73.5 -21.5t54 -24t33.5 -17.5v107q-12 6 -36 17t-57.5 23.5t-73.5 20.5t-85 8q-82 0 -153.5 -28.5t-124 -80.5t-82 -123t-29.5 -153z" />
<glyph unicode="d" horiz-adv-x="870" d="M72 383q0 -115 43 -189.5t101 -119.5t116.5 -66.5t89.5 -30.5l225 121v-98h111v1163h-111v-477q-18 10 -70.5 34.5t-144.5 24.5q-74 0 -139.5 -28.5t-114.5 -77.5t-77.5 -115.5t-28.5 -140.5zM186 379q0 55 22.5 103t59.5 84t87.5 56.5t105.5 20.5q37 0 67.5 -8t55 -19.5 t41 -22.5l22.5 -15v-379l-227 -113q-25 8 -65 26.5t-76.5 52.5t-64.5 86t-28 128z" />
<glyph unicode="e" horiz-adv-x="841" d="M72 360q0 -90 31.5 -160.5t84 -119.5t120 -76t141.5 -27q63 0 112 10.5t86 25t58.5 27.5t29.5 17v103q-10 -6 -33.5 -19.5t-58.5 -28t-81 -25.5t-101 -11q-51 0 -100.5 17.5t-87 51t-62.5 85t-29 120.5h574v53q0 78 -24.5 141.5t-65.5 107.5t-97.5 68.5t-117.5 24.5 q-74 0 -142.5 -26.5t-121 -76.5t-84 -121.5t-31.5 -160.5zM188 436q8 31 24.5 68t46.5 68.5t75 53t106 21.5q47 0 86 -17.5t67 -46t42 -66.5t14 -81h-461z" />
<glyph unicode="f" horiz-adv-x="507" d="M27 639h127v-639h110v639h197l33 84h-230v186q0 92 47 140.5t109 48.5q47 0 84 -22.5t59 -45.5l70 70q-14 12 -34.5 29.5t-47.5 33t-60.5 25.5t-72.5 10q-49 0 -96.5 -19.5t-84 -56.5t-60 -91t-23.5 -124v-184h-97z" />
<glyph unicode="g" horiz-adv-x="796" d="M55 -272q0 -53 24.5 -101.5t71 -86.5t110 -60.5t142.5 -22.5q63 0 121 18.5t102 51.5t69.5 80t25.5 102q0 53 -18.5 93t-49 70t-69.5 50.5t-80 32.5l-262 84q-14 6 -39 8l76 100q51 -18 110 -18q68 0 127 24.5t102.5 66.5t69 98.5t25.5 119.5q0 57 -20.5 107.5 t-57.5 91.5h188v86h-145l-64 -64q-43 41 -101 63.5t-124 22.5q-68 0 -126 -24.5t-102 -66.5t-69.5 -98t-25.5 -120q0 -78 36.5 -143.5t100.5 -108.5l-142 -190l134 -43q-10 -6 -34 -24.5t-47.5 -46t-41 -65.5t-17.5 -87zM160 -270q0 43 17.5 76.5t39.5 58.5q27 31 72 57 l188 -59q61 -20 100 -58.5t39 -95.5t-52 -107.5t-161 -50.5q-55 0 -99 14.5t-76.5 39t-50 56.5t-17.5 69zM172 436q0 92 63.5 152.5t153.5 60.5q92 0 155.5 -60.5t63.5 -152.5q0 -45 -17.5 -83t-47 -66.5t-69.5 -45t-85 -16.5t-84 16.5t-68.5 45t-47 66.5t-17.5 83z" />
<glyph unicode="h" horiz-adv-x="823" d="M113 0h110v496q51 59 110.5 103t145.5 44q59 0 90 -38t31 -87v-518h111v522q0 57 -18.5 99.5t-49.5 70t-69.5 40.5t-79.5 13q-53 0 -97.5 -16t-78 -37.5t-58 -44t-37.5 -35.5v551h-110v-1163z" />
<glyph unicode="i" horiz-adv-x="376" d="M94 956l94 -92l93 92l-95 93zM133 0h111v723h-111v-723z" />
<glyph unicode="j" horiz-adv-x="376" d="M94 956l94 -92l93 92l-95 93zM133 -516l111 108v1131h-111v-1239z" />
<glyph unicode="k" horiz-adv-x="722" d="M113 0h110v242l107 108l245 -350h138l-307 426l299 297h-134l-348 -356v796h-110v-1163z" />
<glyph unicode="l" horiz-adv-x="454" d="M113 170q0 -98 47 -145.5t119 -47.5q47 0 77.5 12.5t46.5 20.5v94q-12 -6 -38.5 -16t-59.5 -10q-31 0 -56.5 22.5t-25.5 75.5v987h-110v-993z" />
<glyph unicode="m" horiz-adv-x="1273" d="M113 0h110v508q6 6 24.5 28.5t47.5 46t67.5 42t86.5 18.5q66 0 99.5 -41t33.5 -108v-494h110v508q6 6 24.5 28.5t47.5 46t67.5 42t86.5 18.5q66 0 99.5 -41t33.5 -108v-494h110v506q0 117 -65.5 178t-161.5 61q-53 0 -93 -13t-71 -33.5t-53.5 -45t-42.5 -45.5 q-27 68 -83 102.5t-128 34.5q-55 0 -97 -16t-72 -36.5t-47.5 -41t-23.5 -26.5v98h-110v-723z" />
<glyph unicode="n" horiz-adv-x="823" d="M113 0h110v502q6 8 24.5 30.5t49.5 47t71 44t89 19.5q68 0 105.5 -42t37.5 -114v-487h111v496q0 123 -70 186t-168 63q-57 0 -101 -17t-75 -38.5t-49.5 -42t-24.5 -26.5v102h-110v-723z" />
<glyph unicode="o" horiz-adv-x="905" d="M72 360q0 -82 29.5 -151.5t82 -120.5t121 -81t148.5 -30t148.5 30t120.5 81t82 120.5t30 151.5t-30 152t-82 122t-121 81.5t-148 29.5q-80 0 -148.5 -29.5t-121 -81.5t-82 -122t-29.5 -152zM184 360q0 59 20.5 111.5t57.5 90.5t86 59.5t105 21.5q55 0 104 -21.5t86 -59.5 t57.5 -90.5t20.5 -111.5t-20.5 -110t-57.5 -89t-86 -59.5t-104 -21.5t-104.5 21.5t-86.5 59.5t-57.5 89t-20.5 110z" />
<glyph unicode="p" horiz-adv-x="870" d="M113 -465h110v502q18 -10 70.5 -35t144.5 -25q74 0 139.5 29t114.5 78t78 115.5t29 140.5q0 115 -43 189.5t-101.5 119.5t-117 66.5t-88.5 29.5l-226 -120v98h-110v-1188zM223 145v379l228 113q25 -10 64.5 -27.5t76.5 -51.5t64.5 -86t27.5 -128q0 -55 -22.5 -103 t-59.5 -84t-87 -56.5t-105 -20.5q-37 0 -68 8t-54.5 19.5t-40 22.5t-24.5 15z" />
<glyph unicode="q" horiz-adv-x="874" d="M72 362q0 -82 29.5 -152.5t78.5 -121.5t114.5 -81t137.5 -30q49 0 88 9.5t65.5 20.5t43 21.5t22.5 14.5v-508h111v1188h-84l-16 -55q-8 6 -27 19t-46.5 25.5t-64.5 22.5t-84 10q-78 0 -144.5 -29.5t-116.5 -80.5t-78.5 -121t-28.5 -152zM186 362q0 59 20.5 110.5 t57.5 89.5t86 59.5t109 21.5q37 0 69.5 -9t57 -22.5t41 -26t24.5 -18.5v-415q-6 -6 -23.5 -17.5t-42 -24t-56 -21.5t-70.5 -9q-59 0 -109.5 21.5t-86.5 59.5t-56.5 90t-20.5 111z" />
<glyph unicode="r" horiz-adv-x="501" d="M113 0h110v535q8 8 26.5 25.5t45.5 35.5t59.5 31.5t67.5 13.5q31 0 50.5 -4t29.5 -4v104q-10 4 -24.5 6t-39.5 2q-45 0 -80.5 -16t-62.5 -37.5t-45.5 -43t-26.5 -30.5v105h-110v-723z" />
<glyph unicode="s" horiz-adv-x="620" d="M72 541q0 -45 21.5 -79t52 -60.5t65.5 -46t61 -33.5q23 -12 52.5 -26.5t55.5 -31t43 -37t17 -47.5q0 -53 -46 -79.5t-105 -26.5q-35 0 -68 9t-61.5 20.5t-50 22.5t-31.5 15v-110q23 -10 75 -32t136 -22q53 0 100 13.5t83 39t56.5 64.5t20.5 92q0 51 -24.5 89t-58.5 66 t-72 46.5t-62 30.5q-23 10 -49.5 23.5t-49 28.5t-38 35.5t-15.5 45.5q0 41 39 70.5t109 29.5q47 0 100 -19.5t94 -43.5v104q-16 10 -68.5 31.5t-131.5 21.5q-111 0 -180.5 -54t-69.5 -150z" />
<glyph unicode="t" horiz-adv-x="546" d="M-10 639h153v-406q0 -76 18.5 -125t48.5 -78.5t67.5 -41t76.5 -11.5q70 0 114 21t58 29v100q-16 -8 -58 -27.5t-89 -19.5q-59 0 -92 31.5t-33 117.5v410h235l31 84h-266v285h-111v-285h-123z" />
<glyph unicode="u" horiz-adv-x="813" d="M113 252q0 -131 68.5 -203t176.5 -72q55 0 95.5 14.5t68 33t44 38t24.5 29.5v-92h110v723h-110v-496q-6 -10 -20.5 -33.5t-39 -48t-60.5 -44t-85 -19.5q-72 0 -117 46t-45 134v461h-110v-471z" />
<glyph unicode="v" horiz-adv-x="653" d="M10 723l260 -723h113l260 723h-119l-198 -578l-197 578h-119z" />
<glyph unicode="w" horiz-adv-x="1089" d="M10 723l262 -723h103l170 487l170 -487h102l262 723h-116l-199 -578l-193 578h-53l-192 -578l-199 578h-117z" />
<glyph unicode="x" horiz-adv-x="722" d="M10 0h137l215 285l213 -285h138l-289 365l283 358h-138l-207 -279l-208 279h-138l285 -358z" />
<glyph unicode="y" horiz-adv-x="653" d="M10 723l260 -723l-164 -465h111l164 465l262 723h-119l-198 -578l-197 578h-119z" />
<glyph unicode="z" horiz-adv-x="686" d="M51 0h584v90h-424l414 594v39h-564v-90h404l-414 -594v-39z" />
<glyph unicode="{" horiz-adv-x="587" d="M51 479q102 -16 159.5 -65t57.5 -142q0 -98 -20.5 -191t-20.5 -192q0 -72 26 -127t69 -95t99 -63.5t118 -31.5l8 76q-96 16 -152.5 72.5t-56.5 144.5q0 98 20.5 190t20.5 191q0 49 -17.5 91t-47 75.5t-67.5 58.5t-79 39v10q41 14 79 39t67.5 58.5t47 74.5t17.5 90 q0 98 -20.5 190.5t-20.5 190.5q0 90 56.5 146.5t152.5 70.5l-8 78q-61 -10 -117.5 -33.5t-99.5 -62.5t-69 -94.5t-26 -126.5q0 -98 20.5 -193.5t20.5 -191.5q0 -90 -57 -140.5t-160 -66.5v-70z" />
<glyph unicode="|" horiz-adv-x="520" d="M215 -389h90v1843h-90v-1843z" />
<glyph unicode="}" horiz-adv-x="589" d="M41 -352l10 -76q61 8 117.5 31.5t99.5 63.5t68.5 95.5t25.5 126.5q0 98 -20 191.5t-20 191.5q0 92 56.5 141.5t160.5 65.5v70q-104 16 -160.5 66.5t-56.5 140.5q0 96 20 191t20 194q0 72 -25.5 127t-68.5 94t-99 62.5t-118 33.5l-10 -78q98 -14 154.5 -70.5t56.5 -146.5 q0 -98 -20.5 -190t-20.5 -191q0 -49 17.5 -90t46 -74.5t66.5 -58t81 -39.5v-10q-43 -14 -81 -39t-66.5 -58.5t-46 -75.5t-17.5 -91q0 -98 20.5 -190.5t20.5 -190.5q0 -88 -56.5 -144.5t-154.5 -72.5z" />
<glyph unicode="~" horiz-adv-x="1191" d="M72 360h86q2 18 10 52t27.5 66t53.5 56.5t87 24.5q41 0 103.5 -29.5t117.5 -58.5q27 -14 62.5 -32.5t75.5 -36t81 -29t78 -11.5q61 0 109.5 26t82 68t52 97.5t22.5 116.5h-88q-8 -92 -54 -145.5t-120 -53.5q-23 0 -51.5 9t-61 22.5t-65.5 30t-62 30.5q-27 14 -61.5 31.5 t-71 34t-73.5 28t-70 11.5q-61 0 -109.5 -25t-83 -66.5t-54 -98t-23.5 -118.5z" />
<glyph unicode="&#xa1;" horiz-adv-x="516" d="M156 623l102 -103l102 103l-102 102zM172 -471h170l-47 899h-76z" />
<glyph unicode="&#xa2;" horiz-adv-x="829" d="M92 584q0 -78 26.5 -144.5t74 -117t111 -81t136.5 -36.5v-205h58v203q98 4 157 30.5t82 38.5v105q-10 -6 -31.5 -16.5t-52 -21.5t-70.5 -20.5t-85 -11.5v555q98 -4 158.5 -31.5t76.5 -37.5v106q-8 4 -29.5 15.5t-52 21.5t-70.5 19.5t-83 11.5v196h-58v-198 q-76 -8 -139 -40t-109.5 -82t-73 -117t-26.5 -142zM207 584q0 109 64.5 184.5t168.5 91.5v-551q-100 16 -166.5 89t-66.5 186z" />
<glyph unicode="&#xa3;" horiz-adv-x="954" d="M61 0h822v106h-553v371h403v98h-403v183q0 104 27.5 169.5t67.5 102.5t85 51.5t82 14.5q45 0 88 -11.5t79 -27t60.5 -28.5t32.5 -17v112q-8 6 -29.5 18.5t-55.5 25t-81 21.5t-108 9q-59 0 -125 -23.5t-121.5 -75.5t-91 -136t-35.5 -207v-181h-144v-98h144v-371h-144v-106 z" />
<glyph unicode="&#xa4;" horiz-adv-x="1236" d="M61 440h99q23 -106 79 -194t134 -150.5t175 -96.5t202 -34q82 0 148.5 12.5t117.5 30t85 33.5t50 27v120q-23 -12 -63.5 -31.5t-94 -38t-116 -31.5t-129.5 -13q-80 0 -154 26.5t-134.5 75.5t-105.5 116.5t-65 147.5h667l17 58h-697q-6 39 -6 84q0 29 3 54.5t8 49.5h751 l17 57h-754q25 78 71 141.5t105 109.5t131 72t146 26q63 0 122.5 -12.5t107.5 -30t85 -35t59 -29.5l33 109q-25 12 -63.5 29.5t-90 35t-115 28.5t-136.5 11q-100 0 -193.5 -32.5t-171.5 -92t-135 -143.5t-84 -187h-105v-57h93q-8 -47 -9 -106q0 -23 1 -42.5t4 -39.5h-89v-58 z" />
<glyph unicode="&#xa5;" horiz-adv-x="884" d="M20 1163l361 -579h-340v-90h342v-156h-342v-90h342v-248h119v248h342v90h-342v156h342v90h-340l360 579h-149l-273 -471l-272 471h-150z" />
<glyph unicode="&#xa6;" horiz-adv-x="520" d="M215 -389h90v801h-90v-801zM215 676h90v778h-90v-778z" />
<glyph unicode="&#xa7;" horiz-adv-x="792" d="M72 436q0 -92 51 -158.5t127 -119.5l194 -133q59 -41 96.5 -84t37.5 -107q0 -66 -53.5 -109.5t-137.5 -43.5q-41 0 -83 10t-79 22.5t-65.5 24.5t-40.5 18v-121q12 -6 36.5 -16t59.5 -21.5t77 -19.5t91 -8q70 0 128 20.5t100 57.5t65.5 86t23.5 106q0 53 -14 93t-35.5 70 t-44 51.5t-41.5 35.5q72 39 114 96.5t42 143.5q0 84 -44 151.5t-136 128.5l-195 131q-59 39 -95 82t-36 107q0 63 54.5 110t138.5 47q37 0 74.5 -8t69.5 -18t56.5 -20.5t34.5 -14.5v119q-35 14 -94.5 33.5t-149.5 19.5q-59 0 -113.5 -19.5t-97.5 -55.5t-68.5 -86t-25.5 -111 q0 -53 15.5 -94t36 -71t43 -49.5t38.5 -31.5q-70 -37 -112.5 -100.5t-42.5 -143.5zM188 440q0 59 39 104.5t92 61.5l160 -106q47 -31 86 -72t39 -100q0 -61 -38 -106.5t-91 -61.5l-164 106q-47 31 -85 72t-38 102z" />
<glyph unicode="&#xa8;" d="M92 1069l92 -92l92 92l-92 92zM406 1069l92 -92l92 92l-92 92z" />
<glyph unicode="&#xa9;" horiz-adv-x="1353" d="M61 582q0 -127 48.5 -240t131.5 -197t195.5 -132t239.5 -48t239.5 48t196.5 132t132 197t48 240t-48 239.5t-132 195.5t-196.5 131t-239.5 48t-239.5 -48t-195.5 -131t-131.5 -195.5t-48.5 -239.5zM113 582q0 119 44 223t120.5 183t179 124t219.5 45t219 -45t179 -124 t122 -183t45 -223t-45 -223.5t-122 -183.5t-179 -124t-219 -45t-219.5 45t-179 124t-120.5 183.5t-44 223.5zM285 584q0 -88 33.5 -161t90 -125t130 -82t153.5 -30q57 0 103.5 10.5t80 23.5t56.5 25.5t33 18.5v111q-14 -8 -37 -19.5t-54 -23.5q-37 -16 -83 -26.5t-99 -10.5 q-57 0 -108.5 21.5t-89 59.5t-60 91t-22.5 117q0 63 23.5 117.5t62.5 93.5t90 60.5t104 21.5t98.5 -11.5t79.5 -27.5q31 -12 53.5 -24.5t37.5 -20.5v116q-10 4 -33 16.5t-56.5 25t-78.5 22.5t-101 10q-78 0 -151.5 -29.5t-131 -83t-91 -126t-33.5 -160.5z" />
<glyph unicode="&#xaa;" horiz-adv-x="526" d="M72 823q0 -76 54 -120t126 -44q59 0 93 21.5t50 32.5l8 -39h82v504h-364l-12 -86h276v-76l-47 2q-43 2 -90 -6t-86 -31t-64.5 -61.5t-25.5 -96.5zM172 829q0 51 42 83t112 32h61v-156q-14 -10 -43 -28.5t-72 -18.5q-45 0 -72.5 23.5t-27.5 64.5z" />
<glyph unicode="&#xab;" horiz-adv-x="800" d="M61 522l267 -356h116l-258 358l258 361h-114zM338 522l266 -356h115l-258 358l258 361h-113z" />
<glyph unicode="&#xad;" horiz-adv-x="563" d="M102 377h359v98h-359v-98z" />
<glyph unicode="&#xae;" horiz-adv-x="985" d="M61 768q0 -90 34 -168t92.5 -137.5t136 -93t168.5 -33.5q88 0 166.5 33.5t138 93t93.5 137.5t34 168q0 88 -34 167t-93.5 137t-138 92t-166.5 34q-90 0 -168 -34t-136.5 -92t-92.5 -137t-34 -167zM102 768q0 82 31 153.5t84 125t124 85t151 31.5t150.5 -31.5t123.5 -85 t84 -125t31 -153.5t-31 -154.5t-84 -126t-124 -85t-150 -31.5q-80 0 -151 31.5t-124 85t-84 126t-31 154.5zM313 518h86v199h52l94 -144q23 -35 46 -49t60 -14t58.5 24.5t27.5 30.5l-39 41l-13 -13t-17 -7q-12 0 -21.5 4t-19.5 20l-84 125q41 18 71.5 54t30.5 88 q0 72 -49 112.5t-135 40.5h-148v-512zM399 784v172h56q104 1 104 -79q0 -39 -35 -66t-86 -27h-39z" />
<glyph unicode="&#xaf;" d="M31 989h620v111h-620v-111z" />
<glyph unicode="&#xb0;" horiz-adv-x="786" d="M102 1102q0 -63 22.5 -116.5t62.5 -91.5t93.5 -58.5t112.5 -20.5t112.5 21.5t93.5 59.5t62.5 90.5t22.5 115.5q0 61 -22.5 114.5t-62.5 91.5t-93 59.5t-113 21.5q-59 0 -112.5 -21.5t-93.5 -60.5t-62.5 -91.5t-22.5 -113.5zM190 1102q0 94 58.5 154.5t144.5 60.5 t144.5 -60.5t58.5 -154.5t-58.5 -154.5t-144.5 -60.5t-144.5 60.5t-58.5 154.5z" />
<glyph unicode="&#xb2;" d="M117 979h88q4 59 41 90t86 31q53 0 86 -33t33 -86q0 -49 -32 -96t-75 -94l-217 -234v-35h424v80h-270l143 150q18 18 39.5 42.5t40 54.5t32 63.5t13.5 68.5q0 92 -61.5 147.5t-153.5 55.5q-86 0 -148.5 -56.5t-68.5 -148.5z" />
<glyph unicode="&#xb3;" d="M133 584q29 -29 71 -52.5t113 -23.5q45 0 87 15.5t74 44t50.5 68.5t18.5 89q0 39 -13.5 68.5t-35 50t-46 35t-49.5 22.5q35 29 76 81t53 134v45h-378v-80h278q-35 -86 -95.5 -132t-115.5 -77l35 -49q39 16 68 17q47 0 87 -29t40 -88q0 -66 -44.5 -100.5t-95.5 -34.5 q-39 0 -69.5 17.5t-55.5 41.5z" />
<glyph unicode="&#xb4;" d="M197 907h36l252 377h-168z" />
<glyph unicode="&#xb5;" horiz-adv-x="813" d="M113 -410h110v426q53 -39 135 -39q55 0 95.5 14.5t68 33t44 38t24.5 29.5v-92h110v723h-110v-496q-6 -10 -20.5 -33.5t-39 -48t-60.5 -44t-85 -19.5q-72 0 -117 46t-45 134v461h-110v-1133z" />
<glyph unicode="&#xb6;" horiz-adv-x="919" d="M20 788q0 -78 30 -146.5t81 -119.5t121 -79.5t147 -28.5h90v-414h107v721h-199l-53 -53l-121 120l121 121l59 -57h193v219h119v-1481h102v1573h-377q-92 0 -168.5 -29.5t-132 -81t-87.5 -120t-32 -144.5z" />
<glyph unicode="&#xb7;" horiz-adv-x="512" d="M133 586l123 -123l123 123l-123 123z" />
<glyph unicode="&#xb8;" d="M193 -338h102l194 379h-110z" />
<glyph unicode="&#xb9;" d="M287 522h108v662l-108 -45v-617z" />
<glyph unicode="&#xba;" horiz-adv-x="741" d="M92 928q0 -55 21.5 -104.5t59.5 -85.5t89 -56t109 -20q57 0 108 20t89 56t59.5 85.5t21.5 104.5q0 57 -21.5 106t-59.5 86t-89 57.5t-108 20.5t-108.5 -20.5t-89.5 -57.5t-59.5 -86t-21.5 -106zM195 928q0 39 14 71.5t37.5 57t55.5 38t69 13.5q74 0 126 -51t52 -129 q0 -76 -52.5 -126t-125.5 -50q-37 0 -69 13t-55.5 36.5t-37.5 56.5t-14 70z" />
<glyph unicode="&#xbb;" horiz-adv-x="800" d="M82 166h115l268 358l-268 361h-115l258 -361zM358 166h115l266 358l-268 361h-113l256 -361z" />
<glyph unicode="&#xbc;" horiz-adv-x="1310" d="M164 0h49l850 1202h-47zM246 528h96v656l-96 -45v-611zM698 215l15 -33h274v-182h94v182h140v80h-142v379h-69zM821 262l166 223v-223h-166z" />
<glyph unicode="&#xbd;" horiz-adv-x="1316" d="M164 0h49l852 1202h-49zM246 528h96v656l-96 -45v-611zM758 453h88q4 57 41 87.5t84 30.5q53 0 84.5 -31.5t31.5 -84.5q0 -47 -31.5 -94.5t-74.5 -94.5l-215 -233v-33h420v80h-268l143 147q16 16 37.5 41t40 55.5t32 64.5t13.5 69q0 90 -60.5 144t-152.5 54 q-86 0 -146.5 -55t-66.5 -147z" />
<glyph unicode="&#xbe;" horiz-adv-x="1351" d="M133 584q29 -29 71 -52.5t113 -23.5q45 0 87 15.5t74 44t50.5 68.5t18.5 89q0 39 -13.5 68.5t-35 50t-46 35t-49.5 22.5q35 29 76 81t53 134v45h-378v-80h278q-35 -86 -95.5 -132t-115.5 -77l35 -49q39 16 68 17q47 0 87 -29t40 -88q0 -66 -44.5 -100.5t-95.5 -34.5 q-39 0 -69.5 17.5t-55.5 41.5zM270 0h47l850 1202h-45zM743 215l13 -33h274v-182h92v182h140v80h-140v379h-67zM866 262l164 223v-223h-164z" />
<glyph unicode="&#xbf;" horiz-adv-x="729" d="M61 -152q0 -76 30 -138t80 -106t116.5 -67.5t142.5 -23.5q57 0 109.5 12t87.5 22v103q-35 -14 -86.5 -26.5t-110.5 -12.5q-119 0 -184.5 69.5t-65.5 169.5q0 63 30 116.5t77 95.5t103 71t110 43l32 8l-18 244h-84v-176q-66 -23 -131.5 -59.5t-118.5 -88t-86 -116 t-33 -140.5zM369 623l102 -103l102 103l-102 102z" />
<glyph unicode="&#xc0;" horiz-adv-x="989" d="M20 0h130l145 420h399l146 -420h129l-414 1163h-121zM231 1649l195 -379h102l-186 379h-111zM328 518l114 340l54 164l51 -164l115 -340h-334z" />
<glyph unicode="&#xc1;" horiz-adv-x="989" d="M20 0h130l145 420h399l146 -420h129l-414 1163h-121zM328 518l114 340l54 164l51 -164l115 -340h-334zM467 1270h102l193 379h-111z" />
<glyph unicode="&#xc2;" horiz-adv-x="989" d="M20 0h130l145 420h399l146 -420h129l-414 1163h-121zM256 1270h98l144 272l141 -272h98l-202 379h-74zM328 518l114 340l54 164l51 -164l115 -340h-334z" />
<glyph unicode="&#xc3;" horiz-adv-x="989" d="M20 0h130l145 420h399l146 -420h129l-414 1163h-121zM207 1321l94 -2q4 53 25.5 72.5t46.5 19.5q18 0 44.5 -14.5t59.5 -31.5t70 -31.5t78 -14.5q39 0 68.5 15.5t50 42t31.5 60t11 68.5h-92q-2 -47 -23.5 -66.5t-45.5 -19.5q-25 0 -53.5 14.5t-59.5 31t-64.5 30.5 t-72.5 14t-70 -16t-51.5 -42t-32.5 -59.5t-14 -70.5zM328 518l114 340l54 164l51 -164l115 -340h-334z" />
<glyph unicode="&#xc4;" horiz-adv-x="989" d="M20 0h130l145 420h399l146 -420h129l-414 1163h-121zM250 1434l92 -93l92 93l-92 92zM328 518l114 340l54 164l51 -164l115 -340h-334zM561 1434l92 -93l92 93l-92 92z" />
<glyph unicode="&#xc5;" horiz-adv-x="989" d="M20 0h130l145 420h399l146 -420h129l-414 1163h-121zM311 1454q0 -39 14.5 -72.5t40 -58.5t59.5 -39t73 -14q78 0 131 54t53 132t-53.5 132t-130.5 54q-39 0 -73 -14t-59.5 -39.5t-40 -60.5t-14.5 -74zM328 518l114 340l54 164l51 -164l115 -340h-334zM377 1456 q0 51 36 87t85 36q51 0 85.5 -36t34.5 -87t-34.5 -87t-85.5 -36q-49 0 -85 36t-36 87z" />
<glyph unicode="&#xc6;" horiz-adv-x="1480" d="M0 0h123l287 514h305v-514h680v109h-559v405h409v107h-409v434h532v108h-709zM469 621l246 450v-450h-246z" />
<glyph unicode="&#xc7;" horiz-adv-x="1191" d="M86 580q0 -121 41 -223.5t110.5 -181.5t163 -131t197.5 -71l-152 -311h103l153 303h3q90 0 157.5 13.5t116.5 29.5q47 16 79 32.5t48 27.5v120q-23 -12 -60.5 -32.5t-88 -39t-114 -31.5t-136.5 -13q-102 0 -192.5 39t-158 107.5t-106.5 161.5t-39 202q0 111 41 204 t109.5 161.5t158.5 106.5t187 38q70 0 132 -14.5t113.5 -33t88 -38t59.5 -31.5l2 125q-20 10 -58 27.5t-90.5 33t-116 26.5t-132.5 11q-119 0 -231 -46t-198 -128t-138 -195.5t-52 -248.5z" />
<glyph unicode="&#xc8;" horiz-adv-x="917" d="M152 0h679v109h-559v426h410v106h-410v414h533v108h-653v-1163zM260 1649l193 -379h102l-184 379h-111z" />
<glyph unicode="&#xc9;" horiz-adv-x="917" d="M152 0h679v109h-559v426h410v106h-410v414h533v108h-653v-1163zM403 1270h101l194 379h-110z" />
<glyph unicode="&#xca;" horiz-adv-x="917" d="M152 0h679v109h-559v426h410v106h-410v414h533v108h-653v-1163zM238 1270h98l143 272l142 -272h98l-205 379h-72z" />
<glyph unicode="&#xcb;" horiz-adv-x="917" d="M152 0h679v109h-559v426h410v106h-410v414h533v108h-653v-1163zM242 1434l92 -93l92 93l-92 92zM555 1434l92 -93l92 93l-92 92z" />
<glyph unicode="&#xcc;" horiz-adv-x="444" d="M-33 1649l193 -379h102l-184 379h-111zM162 0h121v1163h-121v-1163z" />
<glyph unicode="&#xcd;" horiz-adv-x="444" d="M162 0h121v1163h-121v-1163zM182 1270h103l192 379h-110z" />
<glyph unicode="&#xce;" horiz-adv-x="444" d="M-20 1270h100l143 272l144 -272h98l-207 379h-74zM162 0h121v1163h-121v-1163z" />
<glyph unicode="&#xcf;" horiz-adv-x="444" d="M-27 1434l93 -93l92 93l-92 92zM162 0h123v1163h-123v-1163zM287 1434l92 -93l92 93l-92 92z" />
<glyph unicode="&#xd0;" horiz-adv-x="1243" d="M18 541h134v-541h362q125 0 240.5 37t205 109.5t143.5 181.5t54 250t-55 249.5t-146.5 183t-209 113.5t-242.5 39h-352v-545h-134v-77zM272 113v428h349v77h-349v437h238q106 0 200.5 -33t166 -95.5t113.5 -150t42 -198.5t-40 -198t-109.5 -146.5t-162.5 -90t-200 -30.5 h-248z" />
<glyph unicode="&#xd1;" horiz-adv-x="1255" d="M152 0h120v952l711 -710v-242h121v1163h-121v-757l-758 757h-73v-1163zM338 1321l92 -2q4 53 25.5 72.5t48.5 19.5q18 0 44.5 -14.5t58.5 -31.5t70 -31.5t79 -14.5q39 0 68.5 15.5t50 42t32 60t11.5 68.5h-93q-2 -47 -23.5 -66.5t-45.5 -19.5q-27 0 -54.5 14.5t-58.5 31 t-64.5 30.5t-72.5 14t-69.5 -16t-51 -42t-33 -59.5t-14.5 -70.5z" />
<glyph unicode="&#xd2;" horiz-adv-x="1429" d="M86 582q0 -127 47 -240t132 -197t200 -132t250 -48t249.5 48t199.5 132t132 197t47 240t-47 239.5t-132 196.5t-199.5 132t-249.5 48t-250 -48t-200 -132t-132 -196.5t-47 -239.5zM211 582q0 104 38 197t105.5 163t159.5 110t201 40t201 -40t159.5 -110t105.5 -163 t38 -197t-38 -197.5t-105.5 -163t-160 -109.5t-200.5 -40q-109 0 -201 40t-159.5 109.5t-105.5 162.5t-38 198zM469 1649l193 -379h102l-184 379h-111z" />
<glyph unicode="&#xd3;" horiz-adv-x="1429" d="M86 582q0 -127 47 -240t132 -197t200 -132t250 -48t249.5 48t199.5 132t132 197t47 240t-47 239.5t-132 196.5t-199.5 132t-249.5 48t-250 -48t-200 -132t-132 -196.5t-47 -239.5zM211 582q0 104 38 197t105.5 163t159.5 110t201 40t201 -40t159.5 -110t105.5 -163 t38 -197t-38 -197.5t-105.5 -163t-160 -109.5t-200.5 -40q-109 0 -201 40t-159.5 109.5t-105.5 162.5t-38 198zM666 1270h102l193 379h-111z" />
<glyph unicode="&#xd4;" horiz-adv-x="1429" d="M86 582q0 -127 47 -240t132 -197t200 -132t250 -48t249.5 48t199.5 132t132 197t47 240t-47 239.5t-132 196.5t-199.5 132t-249.5 48t-250 -48t-200 -132t-132 -196.5t-47 -239.5zM211 582q0 104 38 197t105.5 163t159.5 110t201 40t201 -40t159.5 -110t105.5 -163 t38 -197t-38 -197.5t-105.5 -163t-160 -109.5t-200.5 -40q-109 0 -201 40t-159.5 109.5t-105.5 162.5t-38 198zM473 1270h98l144 272l143 -272h98l-204 379h-74z" />
<glyph unicode="&#xd5;" horiz-adv-x="1429" d="M86 582q0 -127 47 -240t132 -197t200 -132t250 -48t249.5 48t199.5 132t132 197t47 240t-47 239.5t-132 196.5t-199.5 132t-249.5 48t-250 -48t-200 -132t-132 -196.5t-47 -239.5zM211 582q0 104 38 197t105.5 163t159.5 110t201 40t201 -40t159.5 -110t105.5 -163 t38 -197t-38 -197.5t-105.5 -163t-160 -109.5t-200.5 -40q-109 0 -201 40t-159.5 109.5t-105.5 162.5t-38 198zM424 1321l94 -2q4 53 25.5 72.5t46.5 19.5q18 0 45 -14.5t59.5 -31.5t70.5 -31.5t79 -14.5q39 0 68.5 15.5t50 42t31 60t10.5 68.5h-93q-2 -47 -22.5 -66.5 t-46.5 -19.5q-25 0 -53.5 14.5t-59.5 31t-64.5 30.5t-72.5 14t-69.5 -16t-51 -42t-33 -59.5t-14.5 -70.5z" />
<glyph unicode="&#xd6;" horiz-adv-x="1429" d="M86 582q0 -127 47 -240t132 -197t200 -132t250 -48t249.5 48t199.5 132t132 197t47 240t-47 239.5t-132 196.5t-199.5 132t-249.5 48t-250 -48t-200 -132t-132 -196.5t-47 -239.5zM211 582q0 104 38 197t105.5 163t159.5 110t201 40t201 -40t159.5 -110t105.5 -163 t38 -197t-38 -197.5t-105.5 -163t-160 -109.5t-200.5 -40q-109 0 -201 40t-159.5 109.5t-105.5 162.5t-38 198zM467 1434l92 -93l92 93l-92 92zM778 1434l92 -93l93 93l-93 92z" />
<glyph unicode="&#xd7;" horiz-adv-x="1280" d="M152 104l69 -69l420 420l416 -420l69 69l-419 418l421 420l-69 70l-420 -422l-420 422l-67 -70l419 -420z" />
<glyph unicode="&#xd8;" horiz-adv-x="1429" d="M86 582q0 -127 46 -236.5t128 -193.5l-172 -185l62 -59l174 188q78 -61 177 -96t214 -35q135 0 249.5 48t199.5 132t132 197t47 240q0 125 -46 234.5t-126 195.5l170 184l-61 59l-172 -188q-80 61 -179.5 96t-213.5 35q-135 0 -250 -48t-200 -132t-132 -196.5t-47 -239.5 zM211 582q0 104 38 197t105.5 163t159.5 110t201 40q92 0 171 -29t142 -80l-688 -745q-61 70 -95 156.5t-34 187.5zM401 180l689 746q61 -70 95 -158t34 -186q0 -104 -38 -197.5t-105.5 -163t-160 -109.5t-200.5 -40q-92 0 -171 28.5t-143 79.5z" />
<glyph unicode="&#xd9;" horiz-adv-x="1169" d="M141 381q0 -92 28 -168t77 -131t119.5 -86t156.5 -31q88 0 153.5 26.5t110.5 62.5t72 71t39 51v-176h121v1163h-121v-829q-16 -27 -44 -72t-71 -88t-103.5 -73.5t-139.5 -30.5q-127 0 -201 86t-74 225v782h-123v-782zM336 1649l192 -379h103l-185 379h-110z" />
<glyph unicode="&#xda;" horiz-adv-x="1169" d="M141 381q0 -92 28 -168t77 -131t119.5 -86t156.5 -31q88 0 153.5 26.5t110.5 62.5t72 71t39 51v-176h121v1163h-121v-829q-16 -27 -44 -72t-71 -88t-103.5 -73.5t-139.5 -30.5q-127 0 -201 86t-74 225v782h-123v-782zM528 1270h103l192 379h-110z" />
<glyph unicode="&#xdb;" horiz-adv-x="1169" d="M141 381q0 -92 28 -168t77 -131t119.5 -86t156.5 -31q88 0 153.5 26.5t110.5 62.5t72 71t39 51v-176h121v1163h-121v-829q-16 -27 -44 -72t-71 -88t-103.5 -73.5t-139.5 -30.5q-127 0 -201 86t-74 225v782h-123v-782zM338 1270h98l144 272l141 -272h98l-203 379h-73z" />
<glyph unicode="&#xdc;" horiz-adv-x="1169" d="M141 381q0 -92 28 -168t77 -131t119.5 -86t156.5 -31q88 0 153.5 26.5t110.5 62.5t72 71t39 51v-176h121v1163h-121v-829q-16 -27 -44 -72t-71 -88t-103.5 -73.5t-139.5 -30.5q-127 0 -201 86t-74 225v782h-123v-782zM332 1434l92 -93l92 93l-92 92zM643 1434l92 -93 l92 93l-92 92z" />
<glyph unicode="&#xdd;" horiz-adv-x="917" d="M20 1163l379 -674v-489h121v489l377 674h-137l-301 -569l-301 569h-138zM414 1270h102l193 379h-111z" />
<glyph unicode="&#xde;" horiz-adv-x="876" d="M152 0h120v268h172q68 0 135.5 19.5t123 59.5t89 103.5t33.5 149.5q0 152 -100 240t-285 88h-168v235h-120v-1163zM272 367v454h160q268 0 268 -219q0 -66 -24.5 -111t-64.5 -72.5t-89 -39.5t-98 -12h-152z" />
<glyph unicode="&#xdf;" horiz-adv-x="897" d="M102 0h109v856q0 119 59.5 176.5t139.5 57.5q39 0 72.5 -15.5t59 -41t40 -60.5t14.5 -74q0 -96 -52 -150.5t-138 -76.5q-16 -4 -27.5 -6t-22.5 -2l2 -62q37 -6 96.5 -25.5t117 -56.5t98.5 -92t41 -131q0 -45 -17.5 -84t-46.5 -68.5t-67.5 -47t-83.5 -17.5q-37 0 -65 4 t-48 10q-16 4 -27.5 8t-19.5 9l-8 -107q14 -4 28.5 -8t34.5 -8q23 -4 50.5 -7.5t66.5 -3.5q68 0 125 25t100 68t67.5 101t24.5 126q0 92 -40 154.5t-91 102.5t-102 60.5t-72 26.5q20 6 52 25.5t62 51.5t51.5 77t21.5 104q0 57 -21.5 109.5t-60.5 92.5t-93.5 62.5 t-121.5 22.5q-68 0 -125.5 -24.5t-97.5 -67.5t-62.5 -102.5t-22.5 -129.5v-862z" />
<glyph unicode="&#xe0;" horiz-adv-x="722" d="M61 211q0 -53 18.5 -96t51.5 -73t74 -46t88 -16q49 0 86 10t62.5 23.5t42 27.5t24.5 20l10 -61h92v723h-483l-21 -96h396v-135l-135 -15q-141 -16 -223.5 -81.5t-82.5 -184.5zM147 1182l195 -379h102l-186 379h-111zM172 217q0 76 54.5 120t156.5 56l119 15v-248 q-10 -10 -25.5 -24.5t-38 -30t-51.5 -25.5t-63 -10q-66 0 -109 42t-43 105z" />
<glyph unicode="&#xe1;" horiz-adv-x="722" d="M61 211q0 -53 18.5 -96t51.5 -73t74 -46t88 -16q49 0 86 10t62.5 23.5t42 27.5t24.5 20l10 -61h92v723h-483l-21 -96h396v-135l-135 -15q-141 -16 -223.5 -81.5t-82.5 -184.5zM172 217q0 76 54.5 120t156.5 56l119 15v-248q-10 -10 -25.5 -24.5t-39 -30t-52.5 -25.5 t-61 -10q-66 0 -109 42t-43 105zM287 803h102l195 379h-111z" />
<glyph unicode="&#xe2;" horiz-adv-x="722" d="M61 211q0 -53 18.5 -96t51.5 -73t74 -46t88 -16q49 0 86 10t62.5 23.5t42 27.5t24.5 20l10 -61h92v723h-483l-21 -96h396v-135l-135 -15q-141 -16 -223.5 -81.5t-82.5 -184.5zM127 803h98l144 272l141 -272h98l-205 379h-71zM172 217q0 76 54.5 120t156.5 56l119 15v-248 q-10 -10 -25.5 -24.5t-39 -30t-52.5 -25.5t-61 -10q-66 0 -109 42t-43 105z" />
<glyph unicode="&#xe3;" horiz-adv-x="722" d="M61 211q0 -53 18.5 -96t51.5 -73t74 -46t88 -16q49 0 86 10t62.5 23.5t42 27.5t24.5 20l10 -61h92v723h-483l-21 -96h396v-135l-135 -15q-141 -16 -223.5 -81.5t-82.5 -184.5zM72 854l92 -2q4 53 25.5 72.5t48.5 19.5q18 0 44.5 -14.5t59.5 -31.5t70 -31.5t77 -14.5 q39 0 69 15.5t50.5 42t31.5 60t11 68.5h-92q-2 -47 -23.5 -66.5t-46.5 -19.5q-27 0 -54 14.5t-58 31t-64.5 30.5t-72.5 14t-70 -16t-51.5 -42t-32.5 -59.5t-14 -70.5zM172 217q0 76 54.5 120t156.5 56l119 15v-248q-10 -10 -25.5 -24.5t-39 -30t-52.5 -25.5t-61 -10 q-66 0 -109 42t-43 105z" />
<glyph unicode="&#xe4;" horiz-adv-x="722" d="M61 211q0 -53 18.5 -96t51.5 -73t74 -46t88 -16q49 0 86 10t62.5 23.5t42 27.5t24.5 20l10 -61h92v723h-483l-21 -96h396v-135l-135 -15q-141 -16 -223.5 -81.5t-82.5 -184.5zM109 967l92 -93l92 93l-92 92zM172 217q0 76 54.5 120t156.5 56l119 15v-248 q-10 -10 -25.5 -24.5t-39 -30t-52.5 -25.5t-61 -10q-66 0 -109 42t-43 105zM422 967l92 -93l92 93l-92 92z" />
<glyph unicode="&#xe5;" horiz-adv-x="722" d="M61 211q0 -53 18.5 -96t51.5 -73t74 -46t88 -16q49 0 86 10t62.5 23.5t42 27.5t24.5 20l10 -61h92v723h-483l-21 -96h396v-135l-135 -15q-141 -16 -223.5 -81.5t-82.5 -184.5zM172 217q0 76 54.5 120t156.5 56l119 15v-248q-10 -10 -25.5 -24.5t-39 -30t-52.5 -25.5 t-61 -10q-66 0 -109 42t-43 105zM174 987q0 -39 14.5 -72.5t40 -58.5t59.5 -39t72 -14q78 0 131.5 54t53.5 132t-53.5 132.5t-131.5 54.5q-39 0 -72.5 -14.5t-59 -40t-40 -60.5t-14.5 -74zM240 989q0 51 35.5 87t84.5 36q51 0 86 -36t35 -87t-34.5 -87t-86.5 -36 q-49 0 -84.5 36t-35.5 87z" />
<glyph unicode="&#xe6;" horiz-adv-x="1251" d="M61 211q0 -53 18.5 -96t51.5 -73t74 -46t88 -16q61 0 110.5 18t85 40.5t58 45l31.5 31.5q10 -12 31.5 -35t55 -45.5t82 -40t111.5 -17.5t112.5 10.5t86.5 25t58.5 27.5t29.5 17v103q-12 -6 -36 -20.5t-58.5 -29t-79.5 -24.5t-101 -10q-49 0 -98 16.5t-87 50t-63.5 85 t-29.5 122.5h573v53q0 78 -24.5 141.5t-65.5 107.5t-97 68.5t-118 24.5q-78 0 -145.5 -29.5t-116.5 -84.5v92h-471l-21 -94h396v-137l-135 -15q-139 -16 -222.5 -81.5t-83.5 -184.5zM172 217q0 76 54.5 120t156.5 56l119 15v-248q-10 -10 -25.5 -24.5t-38 -30t-51.5 -25.5 t-63 -10q-66 0 -109 42t-43 105zM598 436q8 31 24.5 68t46 68.5t74.5 53t107 21.5q47 0 86 -17.5t66.5 -46t42 -66.5t14.5 -81h-461z" />
<glyph unicode="&#xe7;" horiz-adv-x="788" d="M72 358q0 -72 22.5 -134t63.5 -110t95 -81t120 -47l-158 -324h102l160 315q51 2 91 11.5t70 22t49.5 23.5t29.5 17v103q-8 -4 -30.5 -16.5t-55.5 -25t-76 -21.5t-92 -9q-57 0 -107.5 19.5t-88.5 56.5t-59.5 88t-21.5 112q0 59 20.5 110.5t56.5 89.5t87 59.5t113 21.5 q47 0 89 -9t73.5 -21.5t54 -24t33.5 -17.5v107q-12 6 -36 17t-57.5 23.5t-73.5 20.5t-85 8q-82 0 -153.5 -28.5t-124 -80.5t-82 -123t-29.5 -153z" />
<glyph unicode="&#xe8;" horiz-adv-x="841" d="M72 360q0 -90 31.5 -160.5t84 -119.5t120 -76t141.5 -27q63 0 112 10.5t86 25t58.5 27.5t29.5 17v103q-10 -6 -33.5 -19.5t-58.5 -28t-81 -25.5t-101 -11q-51 0 -100.5 17.5t-87 51t-62.5 85t-29 120.5h574v53q0 78 -24.5 141.5t-65.5 107.5t-97.5 68.5t-117.5 24.5 q-74 0 -142.5 -26.5t-121 -76.5t-84 -121.5t-31.5 -160.5zM188 436q8 31 24.5 68t46.5 68.5t75 53t106 21.5q47 0 86 -17.5t67 -46t42 -66.5t14 -81h-461zM199 1182l194 -379h103l-187 379h-110z" />
<glyph unicode="&#xe9;" horiz-adv-x="841" d="M72 360q0 -90 31.5 -160.5t84 -119.5t120 -76t141.5 -27q63 0 112 10.5t86 25t58.5 27.5t29.5 17v103q-10 -6 -33.5 -19.5t-58.5 -28t-81 -25.5t-101 -11q-51 0 -100.5 17.5t-87 51t-62.5 85t-29 120.5h574v53q0 78 -24.5 141.5t-65.5 107.5t-97.5 68.5t-117.5 24.5 q-74 0 -142.5 -26.5t-121 -76.5t-84 -121.5t-31.5 -160.5zM188 436q8 31 24.5 68t46.5 68.5t75 53t106 21.5q47 0 86 -17.5t67 -46t42 -66.5t14 -81h-461zM393 803h103l194 379h-110z" />
<glyph unicode="&#xea;" horiz-adv-x="841" d="M72 360q0 -90 31.5 -160.5t84 -119.5t120 -76t141.5 -27q63 0 112 10.5t86 25t58.5 27.5t29.5 17v103q-10 -6 -33.5 -19.5t-58.5 -28t-81 -25.5t-101 -11q-51 0 -100.5 17.5t-87 51t-62.5 85t-29 120.5h574v53q0 78 -24.5 141.5t-65.5 107.5t-97.5 68.5t-117.5 24.5 q-74 0 -142.5 -26.5t-121 -76.5t-84 -121.5t-31.5 -160.5zM188 436q8 31 24.5 68t46.5 68.5t75 53t106 21.5q47 0 86 -17.5t67 -46t42 -66.5t14 -81h-461zM203 803h98l143 272l144 -272h98l-205 379h-73z" />
<glyph unicode="&#xeb;" horiz-adv-x="841" d="M72 360q0 -90 31.5 -160.5t84 -119.5t120 -76t141.5 -27q63 0 112 10.5t86 25t58.5 27.5t29.5 17v103q-10 -6 -33.5 -19.5t-58.5 -28t-81 -25.5t-101 -11q-51 0 -100.5 17.5t-87 51t-62.5 85t-29 120.5h574v53q0 78 -24.5 141.5t-65.5 107.5t-97.5 68.5t-117.5 24.5 q-74 0 -142.5 -26.5t-121 -76.5t-84 -121.5t-31.5 -160.5zM188 436q8 31 24.5 68t46.5 68.5t75 53t106 21.5q47 0 86 -17.5t67 -46t42 -66.5t14 -81h-461zM195 967l94 -93l92 93l-94 92zM508 967l94 -93l92 93l-94 92z" />
<glyph unicode="&#xec;" horiz-adv-x="376" d="M-57 1182l192 -379h103l-185 379h-110zM133 0h111v723h-111v-723z" />
<glyph unicode="&#xed;" horiz-adv-x="376" d="M133 0h111v723h-111v-723zM137 803h103l192 379h-110z" />
<glyph unicode="&#xee;" horiz-adv-x="376" d="M-53 803h98l143 272l142 -272h98l-205 379h-71zM133 0h111v723h-111v-723z" />
<glyph unicode="&#xef;" horiz-adv-x="376" d="M-61 967l92 -93l92 93l-92 92zM133 0h111v723h-111v-723zM252 967l92 -93l92 93l-92 92z" />
<glyph unicode="&#xf0;" horiz-adv-x="923" d="M72 360q0 -82 29.5 -151.5t82 -120.5t121 -81t148.5 -30q84 0 156.5 32t127 95.5t85 159.5t30.5 223q0 174 -63.5 331t-167.5 286l196 129l-35 51l-202 -133q-70 78 -156 145l-64 -63q35 -35 70 -69t64 -68l-199 -131l35 -52l205 136q74 -96 123 -202t69 -241 q-12 14 -34.5 38t-56.5 46.5t-80 38.5t-103 16q-80 0 -148.5 -29.5t-121 -81.5t-82 -122t-29.5 -152zM184 360q0 59 21.5 110.5t58.5 90.5t86 60.5t105 21.5q55 0 104 -21.5t86 -60.5t58.5 -90.5t21.5 -110.5t-21.5 -110t-58.5 -89t-86 -59.5t-104 -21.5t-104.5 21.5 t-86.5 59.5t-58.5 89t-21.5 110z" />
<glyph unicode="&#xf1;" horiz-adv-x="823" d="M113 0h110v502q6 8 24.5 30.5t49.5 47t71 44t89 19.5q68 0 105.5 -42t37.5 -114v-487h111v496q0 123 -70 186t-168 63q-57 0 -101 -17t-75 -38.5t-49.5 -42t-24.5 -26.5v102h-110v-723zM127 854l92 -2q4 53 25.5 72.5t48.5 19.5q18 0 45 -14.5t58.5 -31.5t69.5 -31.5 t79 -14.5q39 0 68.5 15.5t50 42t32 60t11.5 68.5h-93q-2 -47 -23.5 -66.5t-45.5 -19.5q-27 0 -54.5 14.5t-58.5 31t-64.5 30.5t-72.5 14t-69.5 -16t-51 -42t-33 -59.5t-14.5 -70.5z" />
<glyph unicode="&#xf2;" horiz-adv-x="905" d="M72 360q0 -82 29.5 -151.5t82 -120.5t121 -81t148.5 -30t148.5 30t120.5 81t82 120.5t30 151.5t-30 152t-82 122t-121 81.5t-148 29.5q-80 0 -148.5 -29.5t-121 -81.5t-82 -122t-29.5 -152zM184 360q0 59 20.5 111.5t57.5 90.5t86 59.5t105 21.5q55 0 104 -21.5t86 -59.5 t57.5 -90.5t20.5 -111.5t-20.5 -110t-57.5 -89t-86 -59.5t-104 -21.5t-104.5 21.5t-86.5 59.5t-57.5 89t-20.5 110zM207 1182l194 -379h103l-187 379h-110z" />
<glyph unicode="&#xf3;" horiz-adv-x="905" d="M72 360q0 -82 29.5 -151.5t82 -120.5t121 -81t148.5 -30t148.5 30t120.5 81t82 120.5t30 151.5t-30 152t-82 122t-121 81.5t-148 29.5q-80 0 -148.5 -29.5t-121 -81.5t-82 -122t-29.5 -152zM184 360q0 59 20.5 111.5t57.5 90.5t86 59.5t105 21.5q55 0 104 -21.5t86 -59.5 t57.5 -90.5t20.5 -111.5t-20.5 -110t-57.5 -89t-86 -59.5t-104 -21.5t-104.5 21.5t-86.5 59.5t-57.5 89t-20.5 110zM401 803h103l194 379h-110z" />
<glyph unicode="&#xf4;" horiz-adv-x="905" d="M72 360q0 -82 29.5 -151.5t82 -120.5t121 -81t148.5 -30t148.5 30t120.5 81t82 120.5t30 151.5t-30 152t-82 122t-121 81.5t-148 29.5q-80 0 -148.5 -29.5t-121 -81.5t-82 -122t-29.5 -152zM184 360q0 59 20.5 111.5t57.5 90.5t86 59.5t105 21.5q55 0 104 -21.5t86 -59.5 t57.5 -90.5t20.5 -111.5t-20.5 -110t-57.5 -89t-86 -59.5t-104 -21.5t-104.5 21.5t-86.5 59.5t-57.5 89t-20.5 110zM213 803h98l142 272l143 -272h98l-205 379h-73z" />
<glyph unicode="&#xf5;" horiz-adv-x="905" d="M72 360q0 -82 29.5 -151.5t82 -120.5t121 -81t148.5 -30t148.5 30t120.5 81t82 120.5t30 151.5t-30 152t-82 122t-121 81.5t-148 29.5q-80 0 -148.5 -29.5t-121 -81.5t-82 -122t-29.5 -152zM164 854l92 -2q4 53 25.5 72.5t46.5 19.5q18 0 44.5 -14.5t59.5 -31.5t71 -31.5 t79 -14.5q39 0 68.5 15.5t50 42t31.5 60t11 68.5h-94q-2 -47 -22.5 -66.5t-46.5 -19.5q-25 0 -53.5 14.5t-59.5 31t-64.5 30.5t-70.5 14q-39 0 -70 -16t-51.5 -42t-32.5 -59.5t-14 -70.5zM184 360q0 59 20.5 111.5t57.5 90.5t86 59.5t105 21.5q55 0 104 -21.5t86 -59.5 t57.5 -90.5t20.5 -111.5t-20.5 -110t-57.5 -89t-86 -59.5t-104 -21.5t-104.5 21.5t-86.5 59.5t-57.5 89t-20.5 110z" />
<glyph unicode="&#xf6;" horiz-adv-x="905" d="M72 360q0 -82 29.5 -151.5t82 -120.5t121 -81t148.5 -30t148.5 30t120.5 81t82 120.5t30 151.5t-30 152t-82 122t-121 81.5t-148 29.5q-80 0 -148.5 -29.5t-121 -81.5t-82 -122t-29.5 -152zM184 360q0 59 20.5 111.5t57.5 90.5t86 59.5t105 21.5q55 0 104 -21.5t86 -59.5 t57.5 -90.5t20.5 -111.5t-20.5 -110t-57.5 -89t-86 -59.5t-104 -21.5t-104.5 21.5t-86.5 59.5t-57.5 89t-20.5 110zM205 967l92 -93l92 93l-92 92zM516 967l92 -93l92 93l-92 92z" />
<glyph unicode="&#xf7;" horiz-adv-x="1392" d="M27 639h127v-639h110v639h387v-639h111v639h387v-639h111v723h-498v186q0 90 45 139.5t111 49.5q47 0 83.5 -22.5t59.5 -45.5l69 70q-14 12 -34.5 29.5t-47 33t-60.5 25.5t-73 10q-47 0 -84.5 -15.5t-64.5 -35t-42 -37.5t-22 -27q-10 8 -33.5 26.5t-59.5 38t-82 35 t-97 15.5q-57 0 -107.5 -20.5t-88 -58.5t-59 -91t-21.5 -121v-184h-97zM264 723v184q0 92 50.5 141.5t121.5 49.5q43 0 80 -13.5t66.5 -30t49.5 -35t30 -26.5q-2 -8 -6.5 -31.5t-4.5 -50.5v-188h-387z" />
<glyph unicode="&#xf8;" horiz-adv-x="905" d="M51 -55l39 -37l129 147q49 -37 108.5 -57.5t125.5 -20.5q80 0 148.5 30t120.5 81t82 121t30 151q0 80 -29 149t-80 122l129 147l-39 37l-129 -149q-102 80 -233 79q-80 0 -148.5 -29.5t-121 -81.5t-82 -122t-29.5 -152q0 -80 28.5 -148.5t79.5 -121.5zM184 360 q0 59 20.5 111.5t57.5 90.5t86 59.5t105 21.5q92 0 161 -57l-362 -414q-68 78 -68 188zM289 135l364 414q68 -78 68 -189q0 -59 -20.5 -110t-57.5 -89t-86 -59.5t-104 -21.5q-92 0 -164 55z" />
<glyph unicode="&#xf9;" horiz-adv-x="813" d="M113 252q0 -131 68.5 -203t176.5 -72q55 0 95.5 14.5t68 33t44 38t24.5 29.5v-92h110v723h-110v-496q-6 -10 -20.5 -33.5t-39 -48t-60.5 -44t-85 -19.5q-72 0 -117 46t-45 134v461h-110v-471zM166 1182l194 -379h103l-187 379h-110z" />
<glyph unicode="&#xfa;" horiz-adv-x="813" d="M113 252q0 -131 68.5 -203t176.5 -72q55 0 95.5 14.5t68 33t44 38t24.5 29.5v-92h110v723h-110v-496q-6 -10 -20.5 -33.5t-39 -48t-60.5 -44t-85 -19.5q-72 0 -117 46t-45 134v461h-110v-471zM352 803h101l194 379h-110z" />
<glyph unicode="&#xfb;" horiz-adv-x="813" d="M113 252q0 -131 68.5 -203t176.5 -72q55 0 95.5 14.5t68 33t44 38t24.5 29.5v-92h110v723h-110v-496q-6 -10 -20.5 -33.5t-39 -48t-60.5 -44t-85 -19.5q-72 0 -117 46t-45 134v461h-110v-471zM166 803h98l144 272l141 -272h98l-205 379h-71z" />
<glyph unicode="&#xfc;" horiz-adv-x="813" d="M113 252q0 -131 68.5 -203t176.5 -72q55 0 95.5 14.5t68 33t44 38t24.5 29.5v-92h110v723h-110v-496q-6 -10 -20.5 -33.5t-39 -48t-60.5 -44t-85 -19.5q-72 0 -117 46t-45 134v461h-110v-471zM158 967l92 -93l92 93l-92 92zM471 967l92 -93l92 93l-92 92z" />
<glyph unicode="&#xfd;" horiz-adv-x="653" d="M10 723l260 -723l-164 -465h111l164 465l262 723h-119l-198 -578l-197 578h-119zM281 803h102l195 379h-111z" />
<glyph unicode="&#xfe;" horiz-adv-x="870" d="M113 -465h110v502q18 -10 70.5 -35t144.5 -25q74 0 139.5 29t114.5 78t78 115.5t29 140.5q0 115 -43 189.5t-101.5 119.5t-117 66.5t-88.5 29.5l-226 -120v538h-110v-1628zM223 145v379l228 113q25 -10 64.5 -27.5t76.5 -51.5t64.5 -86t27.5 -128q0 -55 -22.5 -103 t-59.5 -84t-87 -56.5t-105 -20.5q-37 0 -68 8t-54.5 19.5t-40 22.5t-24.5 15z" />
<glyph unicode="&#xff;" horiz-adv-x="653" d="M10 723l260 -723l-164 -465h111l164 465l262 723h-119l-198 -578l-197 578h-119zM76 967l92 -93l92 93l-92 92zM389 967l92 -93l92 93l-92 92z" />
<glyph unicode="&#x152;" horiz-adv-x="1984" d="M86 582q0 -127 47 -240t131 -197t200 -132t251 -48q164 0 295 75t209 200v-240h679v109h-559v426h410v106h-410v414h533v108h-653v-239q-78 125 -209 199.5t-295 74.5q-135 0 -251 -48t-200 -132t-131 -196.5t-47 -239.5zM211 582q0 104 38 197t105.5 163t159.5 110 t201 40t201 -40t159.5 -110t105.5 -163t38 -197t-38 -197.5t-105.5 -163t-160 -109.5t-200.5 -40q-109 0 -201 40t-159.5 109.5t-105.5 162.5t-38 198z" />
<glyph unicode="&#x153;" horiz-adv-x="1488" d="M72 360q0 -82 29.5 -151.5t82 -120.5t121 -81t148.5 -30q102 0 188 52.5t133 134.5q47 -92 135 -139.5t187 -47.5q63 0 112 10.5t86 25t58.5 27.5t29.5 17v103q-10 -6 -33.5 -19.5t-58.5 -28t-81 -25.5t-101 -11q-51 0 -100.5 17.5t-87 51t-62 85t-29.5 120.5h574v53 q0 78 -24.5 141.5t-65.5 107.5t-97.5 68.5t-117.5 24.5q-98 0 -187.5 -48t-136.5 -140q-47 82 -132 135t-189 53q-80 0 -148.5 -29.5t-121 -81.5t-82 -122t-29.5 -152zM184 360q0 59 20.5 111.5t57.5 90.5t86 59.5t105 21.5q55 0 104 -21.5t86 -59.5t57.5 -90.5t20.5 -111.5 t-20.5 -110t-57.5 -89t-86 -59.5t-104 -21.5t-104.5 21.5t-86.5 59.5t-57.5 89t-20.5 110zM836 436q8 31 24.5 68t46 68.5t74.5 53t106 21.5q47 0 86 -17.5t67 -46t42 -66.5t14 -81h-460z" />
<glyph unicode="&#x178;" horiz-adv-x="917" d="M20 1163l379 -674v-489h121v489l377 674h-137l-301 -569l-301 569h-138zM211 1434l92 -93l92 93l-92 92zM524 1434l92 -93l93 93l-93 92z" />
<glyph unicode="&#x2c6;" d="M100 905h99l143 273l141 -273h99l-205 379h-72z" />
<glyph unicode="&#x2dc;" d="M51 956l92 -2q4 53 25.5 73t48.5 20q18 0 45 -14.5t58.5 -32t69.5 -32t79 -14.5q39 0 68.5 15.5t50 42t32 60.5t11.5 69h-92q-2 -47 -23.5 -66.5t-46.5 -19.5q-27 0 -54.5 14t-58 30.5t-64.5 31t-73 14.5t-69.5 -16.5t-51 -42t-33 -59.5t-14.5 -71z" />
<glyph unicode="&#x2010;" horiz-adv-x="563" d="M102 377h359v98h-359v-98z" />
<glyph unicode="&#x2011;" horiz-adv-x="563" d="M102 377h359v98h-359v-98z" />
<glyph unicode="&#x2012;" horiz-adv-x="563" d="M102 377h359v98h-359v-98z" />
<glyph unicode="&#x2013;" horiz-adv-x="778" d="M0 385h778v84h-778v-84z" />
<glyph unicode="&#x2014;" horiz-adv-x="1556" d="M0 385h1556v84h-1556v-84z" />
<glyph unicode="&#x2018;" horiz-adv-x="505" d="M143 965q0 -43 12.5 -78t28 -60.5t31.5 -44t27 -26.5l24 -23l103 103q-14 14 -34 33.5t-38 43t-30.5 53t-12.5 66.5q0 76 39 117t80 57v33q-49 -8 -91 -32.5t-73 -61.5t-48.5 -83t-17.5 -97z" />
<glyph unicode="&#x2019;" horiz-adv-x="505" d="M133 733q49 8 91 33t73 61.5t48 83t17 97.5q0 43 -12 77.5t-27.5 60t-33 43t-25.5 28.5l-24 22l-103 -102q14 -14 33.5 -34t38 -43.5t31 -53t12.5 -66.5q0 -39 -11.5 -67.5t-28.5 -50t-37.5 -35t-41.5 -21.5v-33z" />
<glyph unicode="&#x201a;" horiz-adv-x="512" d="M133 -289v-33q49 8 91 33t73 62t48 83t17 97q0 43 -12 78t-27.5 60.5t-33 43t-25.5 27.5l-24 22l-103 -102l33.5 -33.5t38 -43t31 -53.5t12.5 -67q0 -39 -11.5 -67.5t-28.5 -50t-37.5 -35t-41.5 -21.5z" />
<glyph unicode="&#x201c;" horiz-adv-x="831" d="M143 965q0 -43 12.5 -78t28 -60.5t31.5 -44t27 -26.5l24 -23l103 103q-14 14 -34 33.5t-38 43t-30.5 53t-12.5 66.5q0 76 39 117t80 57v33q-49 -8 -91 -32.5t-73 -61.5t-48.5 -83t-17.5 -97zM469 965q0 -43 12.5 -78t27.5 -60.5t31.5 -44t26.5 -26.5l25 -23l102 103 l-33.5 33.5t-38 43t-30.5 53t-12 66.5q0 76 38.5 117t79.5 57v33q-49 -8 -91 -32.5t-72.5 -61.5t-48 -83t-17.5 -97z" />
<glyph unicode="&#x201d;" horiz-adv-x="831" d="M133 733q49 8 91 33t73 61.5t48 83t17 97.5q0 43 -12 77.5t-27.5 60t-33 43t-25.5 28.5l-24 22l-103 -102q14 -14 33.5 -34t38 -43.5t31 -53t12.5 -66.5q0 -39 -11.5 -67.5t-28.5 -50t-37.5 -35t-41.5 -21.5v-33zM459 733q49 8 91 33t72.5 61.5t48 83t17.5 97.5 q0 43 -12 77.5t-27.5 60t-33 43t-25.5 28.5l-25 22l-102 -102q14 -14 33.5 -34t38 -43.5t31 -53t12.5 -66.5q0 -39 -11.5 -67.5t-29 -50t-38 -35t-40.5 -21.5v-33z" />
<glyph unicode="&#x201e;" horiz-adv-x="831" d="M133 -289v-33q49 8 91 33t73 62t48 83t17 97q0 43 -12 78t-27.5 60.5t-33 43t-25.5 27.5l-24 22l-103 -102l33.5 -33.5t38 -43t31 -53.5t12.5 -67q0 -39 -11.5 -67.5t-28.5 -50t-37.5 -35t-41.5 -21.5zM459 -289v-33q49 8 91 33t72.5 62t48 83t17.5 97q0 43 -12 78 t-27.5 60.5t-33 43t-25.5 27.5l-25 22l-102 -102l33.5 -33.5t38 -43t31 -53.5t12.5 -67q0 -39 -11.5 -67.5t-29 -50t-38 -35t-40.5 -21.5z" />
<glyph unicode="&#x2022;" horiz-adv-x="657" d="M102 586l226 -226l227 226l-227 225z" />
<glyph unicode="&#x2026;" horiz-adv-x="1536" d="M133 90l123 -123l123 123l-123 123zM645 90l123 -123l123 123l-123 123zM1157 90l123 -123l123 123l-123 123z" />
<glyph unicode="&#x2039;" horiz-adv-x="526" d="M61 522l267 -356h116l-258 358l258 361h-114z" />
<glyph unicode="&#x203a;" horiz-adv-x="526" d="M82 166h115l268 358l-268 361h-115l258 -361z" />
<glyph unicode="&#x20ac;" horiz-adv-x="1236" d="M61 440h99q23 -106 79 -194t134 -150.5t175 -96.5t202 -34q82 0 148.5 12.5t117.5 30t85 33.5t50 27v120q-23 -12 -63.5 -31.5t-94 -38t-116 -31.5t-129.5 -13q-80 0 -154 26.5t-134.5 75.5t-105.5 116.5t-65 147.5h667l17 58h-697q-6 39 -6 84q0 29 3 54.5t8 49.5h751 l17 57h-754q25 78 71 141.5t105 109.5t131 72t146 26q63 0 122.5 -12.5t107.5 -30t85 -35t59 -29.5l33 109q-25 12 -63.5 29.5t-90 35t-115 28.5t-136.5 11q-100 0 -193.5 -32.5t-171.5 -92t-135 -143.5t-84 -187h-105v-57h93q-8 -47 -9 -106q0 -23 1 -42.5t4 -39.5h-89v-58 z" />
<glyph unicode="&#x2122;" horiz-adv-x="1697" d="M61 1079h299v-671h95v671h297v84h-691v-84zM860 408h96v495l256 -495h64l256 497v-497h104v755h-73l-314 -608l-317 608h-72v-755z" />
<glyph unicode="&#x25fc;" horiz-adv-x="727" d="M0 0v727h727v-727h-727z" />
<glyph unicode="&#xfb01;" horiz-adv-x="894" d="M27 639h127v-639h110v639h387v-639h111v723h-498v186q0 92 47 140.5t109 48.5q47 0 84 -22.5t59 -45.5l70 70q-14 12 -34.5 29.5t-47.5 33t-60.5 25.5t-72.5 10q-49 0 -96.5 -19.5t-84 -56.5t-60 -91t-23.5 -124v-184h-97z" />
<glyph unicode="&#xfb02;" horiz-adv-x="972" d="M27 639h127v-639h110v639h197l33 84h-230v190q0 92 51.5 138.5t118.5 46.5q43 0 78 -11.5t59.5 -25.5t39 -27.5t20.5 -19.5v-844q0 -98 47 -145.5t119 -47.5q47 0 78 13.5t47 21.5v94q-12 -6 -39 -17t-60 -11q-31 0 -56.5 22.5t-25.5 75.5v875q-8 8 -33.5 32.5t-65.5 50 t-94 45t-120 19.5q-53 0 -103.5 -19.5t-88 -56.5t-60 -91t-22.5 -124v-184h-97z" />
<glyph unicode="&#xfb03;" horiz-adv-x="1392" d="M27 639h127v-639h110v639h387v-639h111v639h387v-639h111v723h-498v186q0 90 45 139.5t111 49.5q47 0 83.5 -22.5t59.5 -45.5l69 70q-14 12 -34.5 29.5t-47 33t-60.5 25.5t-73 10q-47 0 -84.5 -15.5t-64.5 -35t-42 -37.5t-22 -27q-10 8 -33.5 26.5t-59.5 38t-82 35 t-97 15.5q-57 0 -107.5 -20.5t-88 -58.5t-59 -91t-21.5 -121v-184h-97zM264 723v184q0 92 50.5 141.5t121.5 49.5q43 0 80 -13.5t66.5 -30t49.5 -35t30 -26.5q-2 -8 -6.5 -31.5t-4.5 -50.5v-188h-387z" />
<glyph unicode="&#xfb04;" horiz-adv-x="1470" d="M27 639h127v-639h110v639h387v-639h111v639h196l33 84h-229v186q0 92 51 140.5t119 48.5q43 0 77.5 -11.5t59.5 -25.5t39 -27.5t20 -19.5v-844q0 -98 47.5 -145.5t118.5 -47.5q47 0 78 13.5t47 21.5v94q-12 -6 -38.5 -17t-59.5 -11q-31 0 -56.5 22.5t-25.5 75.5v875 q-8 8 -33.5 32.5t-65.5 50t-94.5 45t-119.5 19.5q-66 0 -125.5 -29.5t-98.5 -83.5q-10 8 -33.5 26.5t-59.5 38t-82 34t-97 14.5q-57 0 -107.5 -20.5t-88 -58.5t-59 -91t-21.5 -121v-184h-97zM264 723v184q0 92 50.5 141.5t121.5 49.5q43 0 80 -13.5t65.5 -30t48 -35 t29.5 -26.5q-2 -8 -5 -31.5t-3 -50.5v-188h-387z" />
</font>
</defs>
</svg>
